<svg xmlns="http://www.w3.org/2000/svg" xmlns:xlink="http://www.w3.org/1999/xlink" contentStyleType="text/css" data-diagram-type="CLASS" height="783px" preserveAspectRatio="none" style="width:1151px;height:783px;background:#FFFFFF;" version="1.1" viewBox="0 0 1151 783" width="1151px" zoomAndPan="magnify"><defs/><g><!--class Coin--><g class="entity" data-entity="Coin" data-source-line="1" data-uid="ent0002" id="entity_Coin"><rect fill="#F1F1F1" height="145.7813" rx="2.5" ry="2.5" style="stroke:#181818;stroke-width:0.5;" width="131.3145" x="7" y="392.04"/><ellipse cx="52.8555" cy="408.04" fill="#EB937F" rx="11" ry="11" style="stroke:#181818;stroke-width:1;"/><path d="M56.9648,414.04 L49.2461,414.04 L49.2461,401.6494 L56.9648,401.6494 L56.9648,403.8056 L51.6992,403.8056 L51.6992,406.4775 L56.4648,406.4775 L56.4648,408.6338 L51.6992,408.6338 L51.6992,411.8838 L56.9648,411.8838 L56.9648,414.04 Z " fill="#000000"/><text fill="#000000" font-family="sans-serif" font-size="14" lengthAdjust="spacing" textLength="31.1035" x="73.3555" y="412.8867">Coin</text><line style="stroke:#181818;stroke-width:0.5;" x1="8" x2="137.3145" y1="424.04" y2="424.04"/><text fill="#000000" font-family="sans-serif" font-size="14" lengthAdjust="spacing" textLength="27.8701" x="27" y="441.0351">TEN</text><text fill="#000000" font-family="sans-serif" font-size="14" lengthAdjust="spacing" textLength="58.8164" x="27" y="457.332">TWENTY</text><text fill="#000000" font-family="sans-serif" font-size="14" lengthAdjust="spacing" textLength="37.3379" x="27" y="473.6289">FIFTY</text><text fill="#000000" font-family="sans-serif" font-size="14" lengthAdjust="spacing" textLength="71.3809" x="27" y="489.9257">HUNDRED</text><rect fill="none" height="6" style="stroke:#C82930;stroke-width:1;" width="6" x="15" y="499.8759"/><text fill="#000000" font-family="sans-serif" font-size="14" lengthAdjust="spacing" textLength="70.1094" x="27" y="506.2226">value : int</text><line style="stroke:#181818;stroke-width:0.5;" x1="8" x2="137.3145" y1="513.5244" y2="513.5244"/><ellipse cx="18" cy="527.1728" fill="#84BE84" rx="3" ry="3" style="stroke:#038048;stroke-width:1;"/><text fill="#000000" font-family="sans-serif" font-size="14" lengthAdjust="spacing" textLength="105.3145" x="27" y="530.5195">getValue() : int</text></g><!--class Item--><g class="entity" data-entity="Item" data-source-line="10" data-uid="ent0003" id="entity_Item"><rect fill="#F1F1F1" height="178.375" rx="2.5" ry="2.5" style="stroke:#181818;stroke-width:0.5;" width="156.6143" x="785.35" y="597.82"/><ellipse cx="843.4726" cy="613.82" fill="#EB937F" rx="11" ry="11" style="stroke:#181818;stroke-width:1;"/><path d="M847.5819,619.82 L839.8632,619.82 L839.8632,607.4294 L847.5819,607.4294 L847.5819,609.5856 L842.3163,609.5856 L842.3163,612.2575 L847.0819,612.2575 L847.0819,614.4138 L842.3163,614.4138 L842.3163,617.6638 L847.5819,617.6638 L847.5819,619.82 Z " fill="#000000"/><text fill="#000000" font-family="sans-serif" font-size="14" lengthAdjust="spacing" textLength="31.8691" x="863.9726" y="618.6667">Item</text><line style="stroke:#181818;stroke-width:0.5;" x1="786.35" x2="940.9643" y1="629.82" y2="629.82"/><text fill="#000000" font-family="sans-serif" font-size="14" lengthAdjust="spacing" textLength="38.8213" x="805.35" y="646.8151">COKE</text><text fill="#000000" font-family="sans-serif" font-size="14" lengthAdjust="spacing" textLength="38.7461" x="805.35" y="663.112">PEPSI</text><text fill="#000000" font-family="sans-serif" font-size="14" lengthAdjust="spacing" textLength="37.126" x="805.35" y="679.4089">JUICE</text><text fill="#000000" font-family="sans-serif" font-size="14" lengthAdjust="spacing" textLength="56.7793" x="805.35" y="695.7057">SNACKS</text><rect fill="none" height="6" style="stroke:#C82930;stroke-width:1;" width="6" x="793.35" y="705.6559"/><text fill="#000000" font-family="sans-serif" font-size="14" lengthAdjust="spacing" textLength="128.3311" x="805.35" y="712.0026">itemName : String</text><rect fill="none" height="6" style="stroke:#C82930;stroke-width:1;" width="6" x="793.35" y="721.9528"/><text fill="#000000" font-family="sans-serif" font-size="14" lengthAdjust="spacing" textLength="66.7119" x="805.35" y="728.2995">price : int</text><line style="stroke:#181818;stroke-width:0.5;" x1="786.35" x2="940.9643" y1="735.6013" y2="735.6013"/><ellipse cx="796.35" cy="749.2497" fill="#84BE84" rx="3" ry="3" style="stroke:#038048;stroke-width:1;"/><text fill="#000000" font-family="sans-serif" font-size="14" lengthAdjust="spacing" textLength="130.6143" x="805.35" y="752.5964">getName() : String</text><ellipse cx="796.35" cy="765.5466" fill="#84BE84" rx="3" ry="3" style="stroke:#038048;stroke-width:1;"/><text fill="#000000" font-family="sans-serif" font-size="14" lengthAdjust="spacing" textLength="100.1807" x="805.35" y="768.8932">getPrice() : int</text></g><!--class Inventory--><g class="entity" data-entity="Inventory" data-source-line="21" data-uid="ent0004" id="entity_Inventory"><rect fill="#F1F1F1" height="129.4844" rx="2.5" ry="2.5" style="stroke:#181818;stroke-width:0.5;" width="273.3994" x="870.96" y="400.19"/><ellipse cx="969.9751" cy="416.19" fill="#ADD1B2" rx="11" ry="11" style="stroke:#181818;stroke-width:1;"/><path d="M972.9439,421.8306 Q972.3658,422.1275 971.7251,422.2681 Q971.0845,422.4244 970.3814,422.4244 Q967.8814,422.4244 966.5533,420.7838 Q965.2408,419.1275 965.2408,416.0025 Q965.2408,412.8775 966.5533,411.2213 Q967.8814,409.565 970.3814,409.565 Q971.0845,409.565 971.7251,409.7213 Q972.3814,409.8775 972.9439,410.1744 L972.9439,412.8931 Q972.3189,412.315 971.7251,412.0494 Q971.1314,411.7681 970.5064,411.7681 Q969.1626,411.7681 968.4751,412.8463 Q967.7876,413.9088 967.7876,416.0025 Q967.7876,418.0963 968.4751,419.1744 Q969.1626,420.2369 970.5064,420.2369 Q971.1314,420.2369 971.7251,419.9713 Q972.3189,419.69 972.9439,419.1119 L972.9439,421.8306 Z " fill="#000000"/><text fill="#000000" font-family="sans-serif" font-size="14" lengthAdjust="spacing" textLength="66.8691" x="990.4751" y="421.0367">Inventory</text><line style="stroke:#181818;stroke-width:0.5;" x1="871.96" x2="1143.3594" y1="432.19" y2="432.19"/><rect fill="none" height="6" style="stroke:#C82930;stroke-width:1;" width="6" x="878.96" y="442.8384"/><text fill="#000000" font-family="sans-serif" font-size="14" lengthAdjust="spacing" textLength="228.1289" x="890.96" y="449.1851">itemStock : Map&lt;Item, Integer&gt;</text><line style="stroke:#181818;stroke-width:0.5;" x1="871.96" x2="1143.3594" y1="456.4869" y2="456.4869"/><ellipse cx="881.96" cy="470.1353" fill="#84BE84" rx="3" ry="3" style="stroke:#038048;stroke-width:1;"/><text fill="#000000" font-family="sans-serif" font-size="14" lengthAdjust="spacing" textLength="200.792" x="890.96" y="473.482">addItem(item: Item, qty: int)</text><ellipse cx="881.96" cy="486.4322" fill="#84BE84" rx="3" ry="3" style="stroke:#038048;stroke-width:1;"/><text fill="#000000" font-family="sans-serif" font-size="14" lengthAdjust="spacing" textLength="247.3994" x="890.96" y="489.7789">dispenseItem(item: Item) : boolean</text><ellipse cx="881.96" cy="502.7291" fill="#84BE84" rx="3" ry="3" style="stroke:#038048;stroke-width:1;"/><text fill="#000000" font-family="sans-serif" font-size="14" lengthAdjust="spacing" textLength="228.5527" x="890.96" y="506.0757">isAvailable(item: Item) : boolean</text><ellipse cx="881.96" cy="519.0259" fill="#84BE84" rx="3" ry="3" style="stroke:#038048;stroke-width:1;"/><text fill="#000000" font-family="sans-serif" font-size="14" lengthAdjust="spacing" textLength="82.5645" x="890.96" y="522.3726">printStock()</text></g><!--class VendingMachineState--><g class="entity" data-entity="VendingMachineState" data-source-line="29" data-uid="ent0005" id="entity_VendingMachineState"><rect fill="#F1F1F1" height="96.8906" rx="2.5" ry="2.5" style="stroke:#181818;stroke-width:0.5;" width="377.4902" x="315.91" y="416.49"/><ellipse cx="423.7743" cy="432.49" fill="#B4A7E5" rx="11" ry="11" style="stroke:#181818;stroke-width:1;"/><path d="M419.6961,428.2556 L419.6961,426.0994 L427.0868,426.0994 L427.0868,428.2556 L424.618,428.2556 L424.618,436.3338 L427.0868,436.3338 L427.0868,438.49 L419.6961,438.49 L419.6961,436.3338 L422.1649,436.3338 L422.1649,428.2556 L419.6961,428.2556 Z " fill="#000000"/><text fill="#000000" font-family="sans-serif" font-size="14" font-style="italic" lengthAdjust="spacing" textLength="153.2617" x="444.2743" y="437.3367">VendingMachineState</text><line style="stroke:#181818;stroke-width:0.5;" x1="316.91" x2="692.4002" y1="448.49" y2="448.49"/><line style="stroke:#181818;stroke-width:0.5;" x1="316.91" x2="692.4002" y1="456.49" y2="456.49"/><ellipse cx="326.91" cy="470.1384" fill="#84BE84" rx="3" ry="3" style="stroke:#038048;stroke-width:1;"/><text fill="#000000" font-family="sans-serif" font-size="14" lengthAdjust="spacing" textLength="345.6729" x="335.91" y="473.4851">insertCoin(machine: VendingMachine, coin: Coin)</text><ellipse cx="326.91" cy="486.4353" fill="#84BE84" rx="3" ry="3" style="stroke:#038048;stroke-width:1;"/><text fill="#000000" font-family="sans-serif" font-size="14" lengthAdjust="spacing" textLength="351.4902" x="335.91" y="489.782">selectItem(machine: VendingMachine, item: Item)</text><ellipse cx="326.91" cy="502.7322" fill="#84BE84" rx="3" ry="3" style="stroke:#038048;stroke-width:1;"/><text fill="#000000" font-family="sans-serif" font-size="14" lengthAdjust="spacing" textLength="290.6777" x="335.91" y="506.0789">dispenseItem(machine: VendingMachine)</text></g><!--class IdleState--><g class="entity" data-entity="IdleState" data-source-line="35" data-uid="ent0006" id="entity_IdleState"><rect fill="#F1F1F1" height="48" rx="2.5" ry="2.5" style="stroke:#181818;stroke-width:0.5;" width="94.5762" x="204.37" y="663.01"/><ellipse cx="219.37" cy="679.01" fill="#ADD1B2" rx="11" ry="11" style="stroke:#181818;stroke-width:1;"/><path d="M222.3388,684.6506 Q221.7606,684.9475 221.12,685.0881 Q220.4794,685.2444 219.7763,685.2444 Q217.2763,685.2444 215.9481,683.6038 Q214.6356,681.9475 214.6356,678.8225 Q214.6356,675.6975 215.9481,674.0413 Q217.2763,672.385 219.7763,672.385 Q220.4794,672.385 221.12,672.5413 Q221.7763,672.6975 222.3388,672.9944 L222.3388,675.7131 Q221.7138,675.135 221.12,674.8694 Q220.5263,674.5881 219.9013,674.5881 Q218.5575,674.5881 217.87,675.6663 Q217.1825,676.7288 217.1825,678.8225 Q217.1825,680.9163 217.87,681.9944 Q218.5575,683.0569 219.9013,683.0569 Q220.5263,683.0569 221.12,682.7913 Q221.7138,682.51 222.3388,681.9319 L222.3388,684.6506 Z " fill="#000000"/><text fill="#000000" font-family="sans-serif" font-size="14" lengthAdjust="spacing" textLength="62.5762" x="233.37" y="683.8567">IdleState</text><line style="stroke:#181818;stroke-width:0.5;" x1="205.37" x2="297.9462" y1="695.01" y2="695.01"/><line style="stroke:#181818;stroke-width:0.5;" x1="205.37" x2="297.9462" y1="703.01" y2="703.01"/></g><!--class HasMoneyState--><g class="entity" data-entity="HasMoneyState" data-source-line="36" data-uid="ent0007" id="entity_HasMoneyState"><rect fill="#F1F1F1" height="48" rx="2.5" ry="2.5" style="stroke:#181818;stroke-width:0.5;" width="141.874" x="387.72" y="663.01"/><ellipse cx="402.72" cy="679.01" fill="#ADD1B2" rx="11" ry="11" style="stroke:#181818;stroke-width:1;"/><path d="M405.6888,684.6506 Q405.1106,684.9475 404.47,685.0881 Q403.8294,685.2444 403.1263,685.2444 Q400.6263,685.2444 399.2981,683.6038 Q397.9856,681.9475 397.9856,678.8225 Q397.9856,675.6975 399.2981,674.0413 Q400.6263,672.385 403.1263,672.385 Q403.8294,672.385 404.47,672.5413 Q405.1263,672.6975 405.6888,672.9944 L405.6888,675.7131 Q405.0638,675.135 404.47,674.8694 Q403.8763,674.5881 403.2513,674.5881 Q401.9075,674.5881 401.22,675.6663 Q400.5325,676.7288 400.5325,678.8225 Q400.5325,680.9163 401.22,681.9944 Q401.9075,683.0569 403.2513,683.0569 Q403.8763,683.0569 404.47,682.7913 Q405.0638,682.51 405.6888,681.9319 L405.6888,684.6506 Z " fill="#000000"/><text fill="#000000" font-family="sans-serif" font-size="14" lengthAdjust="spacing" textLength="109.874" x="416.72" y="683.8567">HasMoneyState</text><line style="stroke:#181818;stroke-width:0.5;" x1="388.72" x2="528.594" y1="695.01" y2="695.01"/><line style="stroke:#181818;stroke-width:0.5;" x1="388.72" x2="528.594" y1="703.01" y2="703.01"/></g><!--class DispensingState--><g class="entity" data-entity="DispensingState" data-source-line="37" data-uid="ent0008" id="entity_DispensingState"><rect fill="#F1F1F1" height="48" rx="2.5" ry="2.5" style="stroke:#181818;stroke-width:0.5;" width="146.3379" x="591.49" y="663.01"/><ellipse cx="606.49" cy="679.01" fill="#ADD1B2" rx="11" ry="11" style="stroke:#181818;stroke-width:1;"/><path d="M609.4588,684.6506 Q608.8806,684.9475 608.24,685.0881 Q607.5994,685.2444 606.8963,685.2444 Q604.3963,685.2444 603.0681,683.6038 Q601.7556,681.9475 601.7556,678.8225 Q601.7556,675.6975 603.0681,674.0413 Q604.3963,672.385 606.8963,672.385 Q607.5994,672.385 608.24,672.5413 Q608.8963,672.6975 609.4588,672.9944 L609.4588,675.7131 Q608.8338,675.135 608.24,674.8694 Q607.6463,674.5881 607.0213,674.5881 Q605.6775,674.5881 604.99,675.6663 Q604.3025,676.7288 604.3025,678.8225 Q604.3025,680.9163 604.99,681.9944 Q605.6775,683.0569 607.0213,683.0569 Q607.6463,683.0569 608.24,682.7913 Q608.8338,682.51 609.4588,681.9319 L609.4588,684.6506 Z " fill="#000000"/><text fill="#000000" font-family="sans-serif" font-size="14" lengthAdjust="spacing" textLength="114.3379" x="620.49" y="683.8567">DispensingState</text><line style="stroke:#181818;stroke-width:0.5;" x1="592.49" x2="736.8279" y1="695.01" y2="695.01"/><line style="stroke:#181818;stroke-width:0.5;" x1="592.49" x2="736.8279" y1="703.01" y2="703.01"/></g><!--class VendingMachine--><g class="entity" data-entity="VendingMachine" data-source-line="43" data-uid="ent0012" id="entity_VendingMachine"><rect fill="#F1F1F1" height="325.0469" rx="2.5" ry="2.5" style="stroke:#181818;stroke-width:0.5;" width="323.8008" x="342.76" y="7"/><ellipse cx="442.3083" cy="23" fill="#ADD1B2" rx="11" ry="11" style="stroke:#181818;stroke-width:1;"/><path d="M445.2771,28.6406 Q444.699,28.9375 444.0583,29.0781 Q443.4177,29.2344 442.7146,29.2344 Q440.2146,29.2344 438.8865,27.5938 Q437.574,25.9375 437.574,22.8125 Q437.574,19.6875 438.8865,18.0313 Q440.2146,16.375 442.7146,16.375 Q443.4177,16.375 444.0583,16.5313 Q444.7146,16.6875 445.2771,16.9844 L445.2771,19.7031 Q444.6521,19.125 444.0583,18.8594 Q443.4646,18.5781 442.8396,18.5781 Q441.4958,18.5781 440.8083,19.6563 Q440.1208,20.7188 440.1208,22.8125 Q440.1208,24.9063 440.8083,25.9844 Q441.4958,27.0469 442.8396,27.0469 Q443.4646,27.0469 444.0583,26.7813 Q444.6521,26.5 445.2771,25.9219 L445.2771,28.6406 Z " fill="#000000"/><text fill="#000000" font-family="sans-serif" font-size="14" lengthAdjust="spacing" textLength="116.2041" x="462.8083" y="27.8467">VendingMachine</text><line style="stroke:#181818;stroke-width:0.5;" x1="343.76" x2="665.5608" y1="39" y2="39"/><rect fill="none" height="6" style="stroke:#C82930;stroke-width:1;" width="6" x="350.76" y="49.6484"/><text fill="#000000" font-family="sans-serif" font-size="14" lengthAdjust="spacing" textLength="254.9941" x="362.76" y="55.9951">currentState : VendingMachineState</text><rect fill="none" height="6" style="stroke:#C82930;stroke-width:1;" width="6" x="350.76" y="65.9453"/><text fill="#000000" font-family="sans-serif" font-size="14" lengthAdjust="spacing" textLength="147.1162" x="362.76" y="72.292">inventory : Inventory</text><rect fill="none" height="6" style="stroke:#C82930;stroke-width:1;" width="6" x="350.76" y="82.2422"/><text fill="#000000" font-family="sans-serif" font-size="14" lengthAdjust="spacing" textLength="138.7627" x="362.76" y="88.5889">currentBalance : int</text><rect fill="none" height="6" style="stroke:#C82930;stroke-width:1;" width="6" x="350.76" y="98.5391"/><text fill="#000000" font-family="sans-serif" font-size="14" lengthAdjust="spacing" textLength="136.4521" x="362.76" y="104.8857">selectedItem : Item</text><line style="stroke:#181818;stroke-width:0.5;" x1="343.76" x2="665.5608" y1="112.1875" y2="112.1875"/><ellipse cx="353.76" cy="125.8359" fill="#84BE84" rx="3" ry="3" style="stroke:#038048;stroke-width:1;"/><text fill="#000000" font-family="sans-serif" font-size="14" lengthAdjust="spacing" textLength="222.2432" x="362.76" y="129.1826">refillItem(item: Item, count: int)</text><ellipse cx="353.76" cy="142.1328" fill="#84BE84" rx="3" ry="3" style="stroke:#038048;stroke-width:1;"/><text fill="#000000" font-family="sans-serif" font-size="14" lengthAdjust="spacing" textLength="151.2383" x="362.76" y="145.4795">insertCoin(coin: Coin)</text><ellipse cx="353.76" cy="158.4297" fill="#84BE84" rx="3" ry="3" style="stroke:#038048;stroke-width:1;"/><text fill="#000000" font-family="sans-serif" font-size="14" lengthAdjust="spacing" textLength="157.0557" x="362.76" y="161.7764">selectItem(item: Item)</text><ellipse cx="353.76" cy="174.7266" fill="#84BE84" rx="3" ry="3" style="stroke:#038048;stroke-width:1;"/><text fill="#000000" font-family="sans-serif" font-size="14" lengthAdjust="spacing" textLength="105.1436" x="362.76" y="178.0732">dispenseItem()</text><ellipse cx="353.76" cy="191.0234" fill="#84BE84" rx="3" ry="3" style="stroke:#038048;stroke-width:1;"/><text fill="#000000" font-family="sans-serif" font-size="14" lengthAdjust="spacing" textLength="297.8008" x="362.76" y="194.3701">setState(newState: VendingMachineState)</text><ellipse cx="353.76" cy="207.3203" fill="#84BE84" rx="3" ry="3" style="stroke:#038048;stroke-width:1;"/><text fill="#000000" font-family="sans-serif" font-size="14" lengthAdjust="spacing" textLength="179.5254" x="362.76" y="210.667">addToBalance(coin: Coin)</text><ellipse cx="353.76" cy="223.6172" fill="#84BE84" rx="3" ry="3" style="stroke:#038048;stroke-width:1;"/><text fill="#000000" font-family="sans-serif" font-size="14" lengthAdjust="spacing" textLength="174.7539" x="362.76" y="226.9639">getCurrentBalance() : int</text><ellipse cx="353.76" cy="239.9141" fill="#84BE84" rx="3" ry="3" style="stroke:#038048;stroke-width:1;"/><text fill="#000000" font-family="sans-serif" font-size="14" lengthAdjust="spacing" textLength="196.6426" x="362.76" y="243.2607">deductBalance(amount: int)</text><ellipse cx="353.76" cy="256.2109" fill="#84BE84" rx="3" ry="3" style="stroke:#038048;stroke-width:1;"/><text fill="#000000" font-family="sans-serif" font-size="14" lengthAdjust="spacing" textLength="197.5449" x="362.76" y="259.5576">setSelectedItem(item: Item)</text><ellipse cx="353.76" cy="272.5078" fill="#84BE84" rx="3" ry="3" style="stroke:#038048;stroke-width:1;"/><text fill="#000000" font-family="sans-serif" font-size="14" lengthAdjust="spacing" textLength="171.958" x="362.76" y="275.8545">getSelectedItem() : Item</text><ellipse cx="353.76" cy="288.8047" fill="#84BE84" rx="3" ry="3" style="stroke:#038048;stroke-width:1;"/><text fill="#000000" font-family="sans-serif" font-size="14" lengthAdjust="spacing" textLength="181.2686" x="362.76" y="292.1514">getInventory() : Inventory</text><ellipse cx="353.76" cy="305.1016" fill="#84BE84" rx="3" ry="3" style="stroke:#038048;stroke-width:1;"/><text fill="#000000" font-family="sans-serif" font-size="14" lengthAdjust="spacing" textLength="86.2695" x="362.76" y="308.4482">showItems()</text><ellipse cx="353.76" cy="321.3984" fill="#84BE84" rx="3" ry="3" style="stroke:#038048;stroke-width:1;"/><text fill="#000000" font-family="sans-serif" font-size="14" lengthAdjust="spacing" textLength="46.6895" x="362.76" y="324.7451">reset()</text></g><!--reverse link VendingMachineState to IdleState--><g class="link" data-entity-1="VendingMachineState" data-entity-2="IdleState" data-source-line="39" data-uid="lnk9" id="link_VendingMachineState_IdleState"><path codeLine="39" d="M436.1784,525.5027 C383.2784,571.5127 319.05,627.39 278.49,662.68" fill="none" id="VendingMachineState-backto-IdleState" style="stroke:#181818;stroke-width:1;stroke-dasharray:7,7;"/><polygon fill="none" points="449.76,513.69,432.2408,520.9755,440.1159,530.0299,449.76,513.69" style="stroke:#181818;stroke-width:1;"/></g><!--reverse link VendingMachineState to HasMoneyState--><g class="link" data-entity-1="VendingMachineState" data-entity-2="HasMoneyState" data-source-line="40" data-uid="lnk10" id="link_VendingMachineState_HasMoneyState"><path codeLine="40" d="M490.9961,531.309 C481.3761,577.319 470.91,627.39 463.54,662.68" fill="none" id="VendingMachineState-backto-HasMoneyState" style="stroke:#181818;stroke-width:1;stroke-dasharray:7,7;"/><polygon fill="none" points="494.68,513.69,485.1231,530.081,496.8691,532.537,494.68,513.69" style="stroke:#181818;stroke-width:1;"/></g><!--reverse link VendingMachineState to DispensingState--><g class="link" data-entity-1="VendingMachineState" data-entity-2="DispensingState" data-source-line="41" data-uid="lnk11" id="link_VendingMachineState_DispensingState"><path codeLine="41" d="M549.9567,528.2475 C583.4167,574.2575 622.04,627.39 647.69,662.68" fill="none" id="VendingMachineState-backto-DispensingState" style="stroke:#181818;stroke-width:1;stroke-dasharray:7,7;"/><polygon fill="none" points="539.37,513.69,545.1042,531.7764,554.8092,524.7186,539.37,513.69" style="stroke:#181818;stroke-width:1;"/></g><!--reverse link VendingMachine to Inventory--><g class="link" data-entity-1="VendingMachine" data-entity-2="Inventory" data-source-line="63" data-uid="lnk13" id="link_VendingMachine_Inventory"><path codeLine="63" d="M677.2958,271.2257 C752.8058,315.2657 830.28,360.46 897.86,399.88" fill="none" id="VendingMachine-backto-Inventory" style="stroke:#181818;stroke-width:1;"/><polygon fill="none" points="666.93,265.18,670.0977,271.6581,677.2958,271.2257,674.1281,264.7476,666.93,265.18" style="stroke:#181818;stroke-width:1;"/></g><!--reverse link VendingMachine to VendingMachineState--><g class="link" data-entity-1="VendingMachine" data-entity-2="VendingMachineState" data-source-line="64" data-uid="lnk14" id="link_VendingMachine_VendingMachineState"><path codeLine="64" d="M504.66,344.25 C504.66,374.94 504.66,392.74 504.66,416.21" fill="none" id="VendingMachine-backto-VendingMachineState" style="stroke:#181818;stroke-width:1;"/><polygon fill="none" points="504.66,332.25,500.66,338.25,504.66,344.25,508.66,338.25,504.66,332.25" style="stroke:#181818;stroke-width:1;"/></g><!--link VendingMachine to Item--><g class="link" data-entity-1="VendingMachine" data-entity-2="Item" data-source-line="65" data-uid="lnk15" id="link_VendingMachine_Item"><path codeLine="65" d="M666.91,302.58 C694.84,330.18 721.84,360.53 743.66,392.04 C787.27,455.05 817.0506,530.5921 836.8506,591.7021" fill="none" id="VendingMachine-to-Item" style="stroke:#181818;stroke-width:1;stroke-dasharray:7,7;"/><polygon fill="#181818" points="838.7,597.41,839.7312,587.6153,837.1588,592.6534,832.1207,590.0811,838.7,597.41" style="stroke:#181818;stroke-width:1;"/></g><!--link VendingMachine to Coin--><g class="link" data-entity-1="VendingMachine" data-entity-2="Coin" data-source-line="66" data-uid="lnk16" id="link_VendingMachine_Coin"><path codeLine="66" d="M342.53,272.75 C285.92,309.42 222.37,351.69 165.66,392.04 C156.84,398.31 152.4771,401.4529 143.5171,408.2229" fill="none" id="VendingMachine-to-Coin" style="stroke:#181818;stroke-width:1;stroke-dasharray:7,7;"/><polygon fill="#181818" points="138.73,411.84,148.3221,409.6058,142.7193,408.8258,143.4993,403.223,138.73,411.84" style="stroke:#181818;stroke-width:1;"/></g><!--link IdleState to VendingMachine--><g class="link" data-entity-1="IdleState" data-entity-2="VendingMachine" data-source-line="68" data-uid="lnk17" id="link_IdleState_VendingMachine"><path codeLine="68" d="M247.92,662.87 C240.72,611.34 229.19,484.4 272.66,392.04 C289.44,356.39 310.5067,327.8601 338.2267,298.9601" fill="none" id="IdleState-to-VendingMachine" style="stroke:#181818;stroke-width:1;stroke-dasharray:7,7;"/><polygon fill="#181818" points="342.38,294.63,333.2633,298.3563,338.9189,298.2384,339.0368,303.8941,342.38,294.63" style="stroke:#181818;stroke-width:1;"/></g><!--link HasMoneyState to VendingMachine--><g class="link" data-entity-1="HasMoneyState" data-entity-2="VendingMachine" data-source-line="69" data-uid="lnk18" id="link_HasMoneyState_VendingMachine"><path codeLine="69" d="M418.26,662.54 C379.34,637.35 322.91,593.34 298.66,537.82 C272.72,478.45 274.95,452.34 298.66,392.04 C309.18,365.28 320.9969,344.6226 338.7769,321.1526" fill="none" id="HasMoneyState-to-VendingMachine" style="stroke:#181818;stroke-width:1;stroke-dasharray:7,7;"/><polygon fill="#181818" points="342.4,316.37,333.777,321.1285,339.3807,320.3555,340.1537,325.9593,342.4,316.37" style="stroke:#181818;stroke-width:1;"/></g><!--link DispensingState to VendingMachine--><g class="link" data-entity-1="DispensingState" data-entity-2="VendingMachine" data-source-line="70" data-uid="lnk19" id="link_DispensingState_VendingMachine"><path codeLine="70" d="M676.25,662.63 C699.85,611.66 748.17,487.47 710.66,392.04 C700.14,365.28 688.3231,344.6226 670.5431,321.1526" fill="none" id="DispensingState-to-VendingMachine" style="stroke:#181818;stroke-width:1;stroke-dasharray:7,7;"/><polygon fill="#181818" points="666.92,316.37,669.1663,325.9593,669.9393,320.3555,675.543,321.1285,666.92,316.37" style="stroke:#181818;stroke-width:1;"/></g><!--link Inventory to Item--><g class="link" data-entity-1="Inventory" data-entity-2="Item" data-source-line="72" data-uid="lnk20" id="link_Inventory_Item"><path codeLine="72" d="M965.81,529.89 C952.03,550.95 939.7239,569.7485 924.9639,592.3185" fill="none" id="Inventory-to-Item" style="stroke:#181818;stroke-width:1;stroke-dasharray:7,7;"/><polygon fill="#181818" points="921.68,597.34,929.9536,591.997,924.4166,593.1554,923.2582,587.6184,921.68,597.34" style="stroke:#181818;stroke-width:1;"/></g><!--SRC=[VLJRRjim37ttL-ZHnffyW54Kw1mNTOjumPnswADgiwbGMSfaEKMmxTydKOuhNv8NIoAFo7D8oY3QcYII2V8d86IRvlRxAystBsPpbztXUl-KhtwcAxDRa0FbBP2OCA7D-HlPWNwsfZ3gZF-206pGJ4EDGPCVZwbPDkccoCpwy9GbzbpajybZWJ6PWUQqjc4BhPZOeNMlM3dAP46Og8UXUMEHFe6IqwOXcJY0q58TaOPBKsXPVXZWckwlBSChWzAm0tM3mMXLMMjeeJ5nWD_wY84ZH5IisODeO0IpoL-bv405mbXpUw2CqrSE5r16ej18AOmiRtC2zKQDx6SGbL6ufkKx4r1egW5LcCWckTAsPM7jlF48VKLAuusnhOvq0nnAZPJFtl5OJeMUkHLvnQwuezcTxscpbWAElctbGfhxpXhCgRp-krnwqSv2XWdEmYOv7PKXlXkGibKAR4FixNYk1swE-hcAlsRC3_2TSYgysLrq3G0SBkAgZ4LMyCOudunSALkXlQ7pUdwXjHSxU48xTQ60JzpCgenERs4hEocJjERL9GEn_VF3p52rPU-XzKYEPU4LP49yD_97VicCio-wytWjCB7VvQV5DfrY1IQRUrsZdil5mhixuvph_mYsNDuuPZDsMwmWw2SPRKDOC9ZXES1eUkSWmTTlxiJcFm00]--></g></svg>