<svg xmlns="http://www.w3.org/2000/svg" xmlns:xlink="http://www.w3.org/1999/xlink" contentStyleType="text/css" data-diagram-type="CLASS" height="1647px" preserveAspectRatio="none" style="width:617px;height:1647px;background:#F0F8FF;" version="1.1" viewBox="0 0 617 1647" width="617px" zoomAndPan="magnify"><defs/><g><rect fill="#F0F8FF" height="1647" style="stroke:none;stroke-width:1;" width="617" x="0" y="0"/><!--class users--><g class="entity" data-entity="users" data-source-line="23" data-uid="ent0002" id="entity_users"><rect fill="#FE4E12" height="91.1875" rx="3.5" ry="3.5" style="stroke:#FF6B6B;stroke-width:0.5;" width="158.7061" x="154.5" y="467.5"/><ellipse cx="210.771" cy="485.8867" fill="#ADD1B2" rx="10" ry="10" style="stroke:#181818;stroke-width:1;"/><path d="M212.5991,490.1367 Q212.1929,490.3398 211.7397,490.4492 Q211.2866,490.5586 210.8022,490.5586 Q209.021,490.5586 208.0835,489.4023 Q207.1616,488.2305 207.1616,486.0273 Q207.1616,483.8086 208.0835,482.6523 Q209.021,481.4805 210.8022,481.4805 Q211.2866,481.4805 211.7397,481.5898 Q212.2085,481.6836 212.5991,481.9023 L212.5991,483.8242 Q212.1616,483.418 211.7397,483.2305 Q211.3179,483.0273 210.8804,483.0273 Q209.9272,483.0273 209.4429,483.793 Q208.9585,484.543 208.9585,486.0273 Q208.9585,487.4961 209.4429,488.2461 Q209.9272,488.9961 210.8804,488.9961 Q211.3179,488.9961 211.7397,488.8086 Q212.1616,488.6211 212.5991,488.2148 L212.5991,490.1367 Z " fill="#000000"/><text fill="#000000" font-family="sans-serif" font-size="12" font-style="italic" lengthAdjust="spacing" textLength="42.1641" x="227.771" y="483.6387">&#171;User&#187;</text><text fill="#000000" font-family="sans-serif" font-size="11" lengthAdjust="spacing" textLength="29.7236" x="233.9912" y="496.6792">users</text><line style="stroke:#FF6B6B;stroke-width:0.5;" x1="155.5" x2="312.2061" y1="504.2734" y2="504.2734"/><text fill="#000000" font-family="sans-serif" font-size="11" font-weight="bold" lengthAdjust="spacing" textLength="16.5859" x="160.5" y="518.4839">PK</text><text fill="#000000" font-family="sans-serif" font-size="11" lengthAdjust="spacing" textLength="126.6235" x="180.5825" y="518.4839">user_id : VARCHAR(50)</text><line style="stroke:#FF6B6B;stroke-width:1;" x1="155.5" x2="312.2061" y1="525.0781" y2="525.0781"/><text fill="#000000" font-family="sans-serif" font-size="11" lengthAdjust="spacing" textLength="125.2861" x="160.5" y="539.2886">name : VARCHAR(100)</text><text fill="#000000" font-family="sans-serif" font-size="11" lengthAdjust="spacing" textLength="124.4268" x="160.5" y="552.0933">email : VARCHAR(100)</text></g><!--class movies--><g class="entity" data-entity="movies" data-source-line="31" data-uid="ent0003" id="entity_movies"><rect fill="#E0F7FA" height="116.7969" rx="3.5" ry="3.5" style="stroke:#00BCD4;stroke-width:0.5;" width="168.4922" x="367" y="221"/><ellipse cx="424.083" cy="239.3867" fill="#ADD1B2" rx="10" ry="10" style="stroke:#181818;stroke-width:1;"/><path d="M425.9111,243.6367 Q425.5049,243.8398 425.0518,243.9492 Q424.5986,244.0586 424.1143,244.0586 Q422.333,244.0586 421.3955,242.9023 Q420.4736,241.7305 420.4736,239.5273 Q420.4736,237.3086 421.3955,236.1523 Q422.333,234.9805 424.1143,234.9805 Q424.5986,234.9805 425.0518,235.0898 Q425.5205,235.1836 425.9111,235.4023 L425.9111,237.3242 Q425.4736,236.918 425.0518,236.7305 Q424.6299,236.5273 424.1924,236.5273 Q423.2393,236.5273 422.7549,237.293 Q422.2705,238.043 422.2705,239.5273 Q422.2705,240.9961 422.7549,241.7461 Q423.2393,242.4961 424.1924,242.4961 Q424.6299,242.4961 425.0518,242.3086 Q425.4736,242.1211 425.9111,241.7148 L425.9111,243.6367 Z " fill="#000000"/><text fill="#000000" font-family="sans-serif" font-size="12" font-style="italic" lengthAdjust="spacing" textLength="50.3262" x="441.083" y="237.1387">&#171;Movie&#187;</text><text fill="#000000" font-family="sans-serif" font-size="11" lengthAdjust="spacing" textLength="39.5098" x="446.4912" y="250.1792">movies</text><line style="stroke:#00BCD4;stroke-width:0.5;" x1="368" x2="534.4922" y1="257.7734" y2="257.7734"/><text fill="#000000" font-family="sans-serif" font-size="11" font-weight="bold" lengthAdjust="spacing" textLength="16.5859" x="373" y="271.9839">PK</text><text fill="#000000" font-family="sans-serif" font-size="11" lengthAdjust="spacing" textLength="136.4097" x="393.0825" y="271.9839">movie_id : VARCHAR(50)</text><line style="stroke:#00BCD4;stroke-width:1;" x1="368" x2="534.4922" y1="278.5781" y2="278.5781"/><text fill="#000000" font-family="sans-serif" font-size="11" lengthAdjust="spacing" textLength="115.5967" x="373" y="292.7886">title : VARCHAR(200)</text><text fill="#000000" font-family="sans-serif" font-size="11" lengthAdjust="spacing" textLength="138.3057" x="373" y="305.5933">language : VARCHAR(50)</text><text fill="#000000" font-family="sans-serif" font-size="11" lengthAdjust="spacing" textLength="125.2056" x="373" y="318.3979">duration_minutes : INT</text><text fill="#000000" font-family="sans-serif" font-size="11" lengthAdjust="spacing" textLength="75.5552" x="373" y="331.2026">genres : JSON</text></g><!--class theatres--><g class="entity" data-entity="theatres" data-source-line="41" data-uid="ent0004" id="entity_theatres"><rect fill="#F3E5F5" height="91.1875" rx="3.5" ry="3.5" style="stroke:#9C27B0;stroke-width:0.5;" width="183.1821" x="38.5" y="7"/><ellipse cx="97.3381" cy="25.3867" fill="#ADD1B2" rx="10" ry="10" style="stroke:#181818;stroke-width:1;"/><path d="M99.1663,29.6367 Q98.76,29.8398 98.3069,29.9492 Q97.8538,30.0586 97.3694,30.0586 Q95.5881,30.0586 94.6506,28.9023 Q93.7288,27.7305 93.7288,25.5273 Q93.7288,23.3086 94.6506,22.1523 Q95.5881,20.9805 97.3694,20.9805 Q97.8538,20.9805 98.3069,21.0898 Q98.7756,21.1836 99.1663,21.4023 L99.1663,23.3242 Q98.7288,22.918 98.3069,22.7305 Q97.885,22.5273 97.4475,22.5273 Q96.4944,22.5273 96.01,23.293 Q95.5256,24.043 95.5256,25.5273 Q95.5256,26.9961 96.01,27.7461 Q96.4944,28.4961 97.4475,28.4961 Q97.885,28.4961 98.3069,28.3086 Q98.7288,28.1211 99.1663,27.7148 L99.1663,29.6367 Z " fill="#000000"/><text fill="#000000" font-family="sans-serif" font-size="12" font-style="italic" lengthAdjust="spacing" textLength="61.5059" x="114.3381" y="23.1387">&#171;Theatre&#187;</text><text fill="#000000" font-family="sans-serif" font-size="11" lengthAdjust="spacing" textLength="46.127" x="122.0276" y="36.1792">theatres</text><line style="stroke:#9C27B0;stroke-width:0.5;" x1="39.5" x2="220.6821" y1="43.7734" y2="43.7734"/><text fill="#000000" font-family="sans-serif" font-size="11" font-weight="bold" lengthAdjust="spacing" textLength="16.5859" x="44.5" y="57.9839">PK</text><text fill="#000000" font-family="sans-serif" font-size="11" lengthAdjust="spacing" textLength="143.0269" x="64.5825" y="57.9839">theatre_id : VARCHAR(50)</text><line style="stroke:#9C27B0;stroke-width:1;" x1="39.5" x2="220.6821" y1="64.5781" y2="64.5781"/><text fill="#000000" font-family="sans-serif" font-size="11" lengthAdjust="spacing" textLength="171.1821" x="44.5" y="78.7886">theatre_name : VARCHAR(100)</text><text fill="#000000" font-family="sans-serif" font-size="11" lengthAdjust="spacing" textLength="114.0176" x="44.5" y="91.5933">city : VARCHAR(100)</text></g><!--class screens--><g class="entity" data-entity="screens" data-source-line="48" data-uid="ent0005" id="entity_screens"><rect fill="#F1F1F1" height="91.1875" rx="3.5" ry="3.5" style="stroke:#181818;stroke-width:0.5;" width="174.5615" x="42.5" y="234"/><ellipse cx="96.4888" cy="252.3867" fill="#ADD1B2" rx="10" ry="10" style="stroke:#181818;stroke-width:1;"/><path d="M98.3169,256.6367 Q97.9106,256.8398 97.4575,256.9492 Q97.0044,257.0586 96.52,257.0586 Q94.7388,257.0586 93.8013,255.9023 Q92.8794,254.7305 92.8794,252.5273 Q92.8794,250.3086 93.8013,249.1523 Q94.7388,247.9805 96.52,247.9805 Q97.0044,247.9805 97.4575,248.0898 Q97.9263,248.1836 98.3169,248.4023 L98.3169,250.3242 Q97.8794,249.918 97.4575,249.7305 Q97.0356,249.5273 96.5981,249.5273 Q95.645,249.5273 95.1606,250.293 Q94.6763,251.043 94.6763,252.5273 Q94.6763,253.9961 95.1606,254.7461 Q95.645,255.4961 96.5981,255.4961 Q97.0356,255.4961 97.4575,255.3086 Q97.8794,255.1211 98.3169,254.7148 L98.3169,256.6367 Z " fill="#000000"/><text fill="#000000" font-family="sans-serif" font-size="12" font-style="italic" lengthAdjust="spacing" textLength="62.584" x="113.4888" y="250.1387">&#171;Screens&#187;</text><text fill="#000000" font-family="sans-serif" font-size="11" lengthAdjust="spacing" textLength="42.5391" x="123.5112" y="263.1792">screens</text><line style="stroke:#181818;stroke-width:0.5;" x1="43.5" x2="216.0615" y1="270.7734" y2="270.7734"/><text fill="#000000" font-family="sans-serif" font-size="11" font-weight="bold" lengthAdjust="spacing" textLength="16.5859" x="48.5" y="284.9839">PK</text><text fill="#000000" font-family="sans-serif" font-size="11" lengthAdjust="spacing" textLength="139.439" x="68.5825" y="284.9839">screen_id : VARCHAR(50)</text><text fill="#000000" font-family="sans-serif" font-size="11" font-weight="bold" lengthAdjust="spacing" textLength="16.0381" x="48.5" y="297.7886">FK</text><text fill="#000000" font-family="sans-serif" font-size="11" lengthAdjust="spacing" textLength="143.0269" x="68.0347" y="297.7886">theatre_id : VARCHAR(50)</text><line style="stroke:#181818;stroke-width:1;" x1="43.5" x2="216.0615" y1="304.3828" y2="304.3828"/><text fill="#000000" font-family="sans-serif" font-size="11" lengthAdjust="spacing" textLength="160.5957" x="48.5" y="318.5933">screen_name : VARCHAR(50)</text></g><!--class shows--><g class="entity" data-entity="shows" data-source-line="56" data-uid="ent0006" id="entity_shows"><rect fill="#F1F1F1" height="103.9922" rx="3.5" ry="3.5" style="stroke:#181818;stroke-width:0.5;" width="170.9736" x="365.5" y="461"/><ellipse cx="422.2651" cy="479.3867" fill="#ADD1B2" rx="10" ry="10" style="stroke:#181818;stroke-width:1;"/><path d="M424.0933,483.6367 Q423.687,483.8398 423.2339,483.9492 Q422.7808,484.0586 422.2964,484.0586 Q420.5151,484.0586 419.5776,482.9023 Q418.6558,481.7305 418.6558,479.5273 Q418.6558,477.3086 419.5776,476.1523 Q420.5151,474.9805 422.2964,474.9805 Q422.7808,474.9805 423.2339,475.0898 Q423.7026,475.1836 424.0933,475.4023 L424.0933,477.3242 Q423.6558,476.918 423.2339,476.7305 Q422.812,476.5273 422.3745,476.5273 Q421.4214,476.5273 420.937,477.293 Q420.4526,478.043 420.4526,479.5273 Q420.4526,480.9961 420.937,481.7461 Q421.4214,482.4961 422.3745,482.4961 Q422.812,482.4961 423.2339,482.3086 Q423.6558,482.1211 424.0933,481.7148 L424.0933,483.6367 Z " fill="#000000"/><text fill="#000000" font-family="sans-serif" font-size="12" font-style="italic" lengthAdjust="spacing" textLength="53.4434" x="439.2651" y="477.1387">&#171;Shows&#187;</text><text fill="#000000" font-family="sans-serif" font-size="11" lengthAdjust="spacing" textLength="34.1602" x="448.9067" y="490.1792">shows</text><line style="stroke:#181818;stroke-width:0.5;" x1="366.5" x2="535.4736" y1="497.7734" y2="497.7734"/><text fill="#000000" font-family="sans-serif" font-size="11" font-weight="bold" lengthAdjust="spacing" textLength="16.5859" x="371.5" y="511.9839">PK</text><text fill="#000000" font-family="sans-serif" font-size="11" lengthAdjust="spacing" textLength="131.0601" x="391.5825" y="511.9839">show_id : VARCHAR(50)</text><text fill="#000000" font-family="sans-serif" font-size="11" font-weight="bold" lengthAdjust="spacing" textLength="16.0381" x="371.5" y="524.7886">FK</text><text fill="#000000" font-family="sans-serif" font-size="11" lengthAdjust="spacing" textLength="136.4097" x="391.0347" y="524.7886">movie_id : VARCHAR(50)</text><text fill="#000000" font-family="sans-serif" font-size="11" font-weight="bold" lengthAdjust="spacing" textLength="16.0381" x="371.5" y="537.5933">FK</text><text fill="#000000" font-family="sans-serif" font-size="11" lengthAdjust="spacing" textLength="139.439" x="391.0347" y="537.5933">screen_id : VARCHAR(50)</text><line style="stroke:#181818;stroke-width:1;" x1="366.5" x2="535.4736" y1="544.1875" y2="544.1875"/><text fill="#000000" font-family="sans-serif" font-size="11" lengthAdjust="spacing" textLength="125.5493" x="371.5" y="558.3979">show_time : DATETIME</text></g><!--class seats--><g class="entity" data-entity="seats" data-source-line="65" data-uid="ent0007" id="entity_seats"><rect fill="#C8E6C9" height="188.8203" rx="3.5" ry="3.5" style="stroke:#4CAF50;stroke-width:0.5;" width="170.9736" x="278.5" y="1164"/><ellipse cx="341.0513" cy="1182.3867" fill="#ADD1B2" rx="10" ry="10" style="stroke:#181818;stroke-width:1;"/><path d="M342.8794,1186.6367 Q342.4731,1186.8398 342.02,1186.9492 Q341.5669,1187.0586 341.0825,1187.0586 Q339.3013,1187.0586 338.3638,1185.9023 Q337.4419,1184.7305 337.4419,1182.5273 Q337.4419,1180.3086 338.3638,1179.1523 Q339.3013,1177.9805 341.0825,1177.9805 Q341.5669,1177.9805 342.02,1178.0898 Q342.4888,1178.1836 342.8794,1178.4023 L342.8794,1180.3242 Q342.4419,1179.918 342.02,1179.7305 Q341.5981,1179.5273 341.1606,1179.5273 Q340.2075,1179.5273 339.7231,1180.293 Q339.2388,1181.043 339.2388,1182.5273 Q339.2388,1183.9961 339.7231,1184.7461 Q340.2075,1185.4961 341.1606,1185.4961 Q341.5981,1185.4961 342.02,1185.3086 Q342.4419,1185.1211 342.8794,1184.7148 L342.8794,1186.6367 Z " fill="#000000"/><text fill="#000000" font-family="sans-serif" font-size="12" font-style="italic" lengthAdjust="spacing" textLength="41.8711" x="358.0513" y="1180.1387">&#171;Seat&#187;</text><text fill="#000000" font-family="sans-serif" font-size="11" lengthAdjust="spacing" textLength="29.2832" x="364.3452" y="1193.1792">seats</text><line style="stroke:#4CAF50;stroke-width:0.5;" x1="279.5" x2="448.4736" y1="1200.7734" y2="1200.7734"/><text fill="#000000" font-family="sans-serif" font-size="11" font-weight="bold" lengthAdjust="spacing" textLength="16.5859" x="284.5" y="1214.9839">PK</text><text fill="#000000" font-family="sans-serif" font-size="11" lengthAdjust="spacing" textLength="67.9819" x="304.5825" y="1214.9839">seat_id : INT</text><text fill="#000000" font-family="sans-serif" font-size="11" font-weight="bold" lengthAdjust="spacing" textLength="16.0381" x="284.5" y="1227.7886">FK</text><text fill="#000000" font-family="sans-serif" font-size="11" lengthAdjust="spacing" textLength="139.439" x="304.0347" y="1227.7886">screen_id : VARCHAR(50)</text><line style="stroke:#4CAF50;stroke-width:1;" x1="279.5" x2="448.4736" y1="1234.3828" y2="1234.3828"/><text fill="#000000" font-family="sans-serif" font-size="11" lengthAdjust="spacing" textLength="97.5713" x="284.5" y="1248.5933">row_number : INT</text><text fill="#000000" font-family="sans-serif" font-size="11" lengthAdjust="spacing" textLength="117.8149" x="284.5" y="1261.3979">column_number : INT</text><text fill="#000000" font-family="sans-serif" font-size="11" lengthAdjust="spacing" textLength="97.0449" x="284.5" y="1274.2026">seat_type : ENUM</text><text fill="#000000" font-family="sans-serif" font-size="11" lengthAdjust="spacing" textLength="119.2437" x="284.5" y="1287.0073">is_booked : BOOLEAN</text><line style="stroke:#4CAF50;stroke-width:1;" x1="279.5" x2="448.4736" y1="1293.6016" y2="1293.6016"/><text fill="#000000" font-family="sans-serif" font-size="11" font-weight="bold" lengthAdjust="spacing" textLength="84.4121" x="284.5" y="1307.812">Enum Values:</text><text fill="#000000" font-family="sans-serif" font-size="11" lengthAdjust="spacing" textLength="62.4497" x="284.5" y="1320.6167">&#8226; REGULAR</text><text fill="#000000" font-family="sans-serif" font-size="11" lengthAdjust="spacing" textLength="61.4883" x="284.5" y="1333.4214">&#8226; PREMIUM</text><text fill="#000000" font-family="sans-serif" font-size="11" lengthAdjust="spacing" textLength="27.3872" x="284.5" y="1346.2261">&#8226; VIP</text></g><!--class bookings--><g class="entity" data-entity="bookings" data-source-line="81" data-uid="ent0008" id="entity_bookings"><rect fill="#FFF9C4" height="176.0156" rx="3.5" ry="3.5" style="stroke:#FDD835;stroke-width:0.5;" width="178.5361" x="315.5" y="688"/><ellipse cx="371.1509" cy="706.3867" fill="#ADD1B2" rx="10" ry="10" style="stroke:#181818;stroke-width:1;"/><path d="M372.979,710.6367 Q372.5728,710.8398 372.1196,710.9492 Q371.6665,711.0586 371.1821,711.0586 Q369.4009,711.0586 368.4634,709.9023 Q367.5415,708.7305 367.5415,706.5273 Q367.5415,704.3086 368.4634,703.1523 Q369.4009,701.9805 371.1821,701.9805 Q371.6665,701.9805 372.1196,702.0898 Q372.5884,702.1836 372.979,702.4023 L372.979,704.3242 Q372.5415,703.918 372.1196,703.7305 Q371.6978,703.5273 371.2603,703.5273 Q370.3071,703.5273 369.8228,704.293 Q369.3384,705.043 369.3384,706.5273 Q369.3384,707.9961 369.8228,708.7461 Q370.3071,709.4961 371.2603,709.4961 Q371.6978,709.4961 372.1196,709.3086 Q372.5415,709.1211 372.979,708.7148 L372.979,710.6367 Z " fill="#000000"/><text fill="#000000" font-family="sans-serif" font-size="12" font-style="italic" lengthAdjust="spacing" textLength="63.2344" x="388.1509" y="704.1387">&#171;Booking&#187;</text><text fill="#000000" font-family="sans-serif" font-size="11" lengthAdjust="spacing" textLength="49.5537" x="394.9912" y="717.1792">bookings</text><line style="stroke:#FDD835;stroke-width:0.5;" x1="316.5" x2="493.0361" y1="724.7734" y2="724.7734"/><text fill="#000000" font-family="sans-serif" font-size="11" font-weight="bold" lengthAdjust="spacing" textLength="16.5859" x="321.5" y="738.9839">PK</text><text fill="#000000" font-family="sans-serif" font-size="11" lengthAdjust="spacing" textLength="146.4536" x="341.5825" y="738.9839">booking_id : VARCHAR(50)</text><text fill="#000000" font-family="sans-serif" font-size="11" font-weight="bold" lengthAdjust="spacing" textLength="16.0381" x="321.5" y="751.7886">FK</text><text fill="#000000" font-family="sans-serif" font-size="11" lengthAdjust="spacing" textLength="126.6235" x="341.0347" y="751.7886">user_id : VARCHAR(50)</text><text fill="#000000" font-family="sans-serif" font-size="11" font-weight="bold" lengthAdjust="spacing" textLength="16.0381" x="321.5" y="764.5933">FK</text><text fill="#000000" font-family="sans-serif" font-size="11" lengthAdjust="spacing" textLength="131.0601" x="341.0347" y="764.5933">show_id : VARCHAR(50)</text><line style="stroke:#FDD835;stroke-width:1;" x1="316.5" x2="493.0361" y1="771.1875" y2="771.1875"/><text fill="#000000" font-family="sans-serif" font-size="11" lengthAdjust="spacing" textLength="140.9429" x="321.5" y="785.3979">booking_time : DATETIME</text><text fill="#000000" font-family="sans-serif" font-size="11" lengthAdjust="spacing" textLength="77.2202" x="321.5" y="798.2026">status : ENUM</text><line style="stroke:#FDD835;stroke-width:1;" x1="316.5" x2="493.0361" y1="804.7969" y2="804.7969"/><text fill="#000000" font-family="sans-serif" font-size="11" font-weight="bold" lengthAdjust="spacing" textLength="84.4121" x="321.5" y="819.0073">Enum Values:</text><text fill="#000000" font-family="sans-serif" font-size="11" lengthAdjust="spacing" textLength="57.4814" x="321.5" y="831.812">&#8226; BOOKED</text><text fill="#000000" font-family="sans-serif" font-size="11" lengthAdjust="spacing" textLength="75.7271" x="321.5" y="844.6167">&#8226; CANCELLED</text><text fill="#000000" font-family="sans-serif" font-size="11" lengthAdjust="spacing" textLength="106.396" x="321.5" y="857.4214">&#8226; PAYMENT_FAILED</text></g><!--class booking_seats--><g class="entity" data-entity="booking_seats" data-source-line="96" data-uid="ent0009" id="entity_booking_seats"><rect fill="#F1F1F1" height="103.9922" rx="3.5" ry="3.5" style="stroke:#181818;stroke-width:0.5;" width="177.9883" x="316" y="925"/><ellipse cx="355.1209" cy="943.3867" fill="#ADD1B2" rx="10" ry="10" style="stroke:#181818;stroke-width:1;"/><path d="M356.949,947.6367 Q356.5428,947.8398 356.0896,947.9492 Q355.6365,948.0586 355.1521,948.0586 Q353.3709,948.0586 352.4334,946.9023 Q351.5115,945.7305 351.5115,943.5273 Q351.5115,941.3086 352.4334,940.1523 Q353.3709,938.9805 355.1521,938.9805 Q355.6365,938.9805 356.0896,939.0898 Q356.5584,939.1836 356.949,939.4023 L356.949,941.3242 Q356.5115,940.918 356.0896,940.7305 Q355.6678,940.5273 355.2303,940.5273 Q354.2771,940.5273 353.7928,941.293 Q353.3084,942.043 353.3084,943.5273 Q353.3084,944.9961 353.7928,945.7461 Q354.2771,946.4961 355.2303,946.4961 Q355.6678,946.4961 356.0896,946.3086 Q356.5115,946.1211 356.949,945.7148 L356.949,947.6367 Z " fill="#000000"/><text fill="#000000" font-family="sans-serif" font-size="12" font-style="italic" lengthAdjust="spacing" textLength="96.1641" x="371.7033" y="941.1387">&#171;JunctionTable&#187;</text><text fill="#000000" font-family="sans-serif" font-size="11" lengthAdjust="spacing" textLength="78.606" x="380.4824" y="954.1792">booking_seats</text><line style="stroke:#181818;stroke-width:0.5;" x1="317" x2="492.9883" y1="961.7734" y2="961.7734"/><text fill="#000000" font-family="sans-serif" font-size="11" font-weight="bold" lengthAdjust="spacing" textLength="16.0381" x="322" y="975.9839">FK</text><text fill="#000000" font-family="sans-serif" font-size="11" lengthAdjust="spacing" textLength="146.4536" x="341.5347" y="975.9839">booking_id : VARCHAR(50)</text><text fill="#000000" font-family="sans-serif" font-size="11" font-weight="bold" lengthAdjust="spacing" textLength="16.0381" x="322" y="988.7886">FK</text><text fill="#000000" font-family="sans-serif" font-size="11" lengthAdjust="spacing" textLength="67.9819" x="341.5347" y="988.7886">seat_id : INT</text><line style="stroke:#181818;stroke-width:1;" x1="317" x2="492.9883" y1="995.3828" y2="995.3828"/><text fill="#000000" font-family="sans-serif" font-size="11" font-weight="bold" lengthAdjust="spacing" textLength="90.374" x="322" y="1009.5933">Composite PK:</text><text fill="#000000" font-family="sans-serif" font-size="11" lengthAdjust="spacing" textLength="114.0283" x="322" y="1022.3979">(booking_id, seat_id)</text></g><!--class seat_locks--><g class="entity" data-entity="seat_locks" data-source-line="105" data-uid="ent0010" id="entity_seat_locks"><rect fill="#FFCCBC" height="150.4063" rx="3.5" ry="3.5" style="stroke:#FF5722;stroke-width:0.5;" width="170.8984" x="168.5" y="1490"/><ellipse cx="219.9043" cy="1508.3867" fill="#ADD1B2" rx="10" ry="10" style="stroke:#181818;stroke-width:1;"/><path d="M221.7324,1512.6367 Q221.3262,1512.8398 220.873,1512.9492 Q220.4199,1513.0586 219.9355,1513.0586 Q218.1543,1513.0586 217.2168,1511.9023 Q216.2949,1510.7305 216.2949,1508.5273 Q216.2949,1506.3086 217.2168,1505.1523 Q218.1543,1503.9805 219.9355,1503.9805 Q220.4199,1503.9805 220.873,1504.0898 Q221.3418,1504.1836 221.7324,1504.4023 L221.7324,1506.3242 Q221.2949,1505.918 220.873,1505.7305 Q220.4512,1505.5273 220.0137,1505.5273 Q219.0605,1505.5273 218.5762,1506.293 Q218.0918,1507.043 218.0918,1508.5273 Q218.0918,1509.9961 218.5762,1510.7461 Q219.0605,1511.4961 220.0137,1511.4961 Q220.4512,1511.4961 220.873,1511.3086 Q221.2949,1511.1211 221.7324,1510.7148 L221.7324,1512.6367 Z " fill="#000000"/><text fill="#000000" font-family="sans-serif" font-size="12" font-style="italic" lengthAdjust="spacing" textLength="64.0898" x="236.9043" y="1506.1387">&#171;Security&#187;</text><text fill="#000000" font-family="sans-serif" font-size="11" lengthAdjust="spacing" textLength="56.9873" x="240.4556" y="1519.1792">seat_locks</text><line style="stroke:#FF5722;stroke-width:0.5;" x1="169.5" x2="338.3984" y1="1526.7734" y2="1526.7734"/><text fill="#000000" font-family="sans-serif" font-size="11" font-weight="bold" lengthAdjust="spacing" textLength="16.5859" x="174.5" y="1540.9839">PK</text><text fill="#000000" font-family="sans-serif" font-size="11" lengthAdjust="spacing" textLength="66.6338" x="194.5825" y="1540.9839">lock_id : INT</text><text fill="#000000" font-family="sans-serif" font-size="11" font-weight="bold" lengthAdjust="spacing" textLength="16.0381" x="174.5" y="1553.7886">FK</text><text fill="#000000" font-family="sans-serif" font-size="11" lengthAdjust="spacing" textLength="67.9819" x="194.0347" y="1553.7886">seat_id : INT</text><text fill="#000000" font-family="sans-serif" font-size="11" font-weight="bold" lengthAdjust="spacing" textLength="16.0381" x="174.5" y="1566.5933">FK</text><text fill="#000000" font-family="sans-serif" font-size="11" lengthAdjust="spacing" textLength="126.6235" x="194.0347" y="1566.5933">user_id : VARCHAR(50)</text><line style="stroke:#FF5722;stroke-width:1;" x1="169.5" x2="338.3984" y1="1573.1875" y2="1573.1875"/><text fill="#000000" font-family="sans-serif" font-size="11" lengthAdjust="spacing" textLength="119.3242" x="174.5" y="1587.3979">lock_time : DATETIME</text><text fill="#000000" font-family="sans-serif" font-size="11" lengthAdjust="spacing" textLength="153.3447" x="174.5" y="1600.2026">lock_duration_seconds : INT</text><line style="stroke:#FF5722;stroke-width:1;" x1="169.5" x2="338.3984" y1="1606.7969" y2="1606.7969"/><text fill="#000000" font-family="sans-serif" font-size="11" font-weight="bold" lengthAdjust="spacing" textLength="137.3926" x="174.5" y="1621.0073">Temporary Lock Table</text><text fill="#000000" font-family="sans-serif" font-size="11" lengthAdjust="spacing" textLength="158.8984" x="174.5" y="1633.812">Prevents concurrent booking</text></g><!--reverse link theatres to screens--><g class="link" data-entity-1="theatres" data-entity-2="screens" data-source-line="120" data-uid="lnk11" id="link_theatres_screens"><path codeLine="120" d="M130,110.22 C130,149.57 130,194.54 130,233.86" fill="none" id="theatres-backto-screens" style="stroke:#454645;stroke-width:1;"/><polygon fill="#454645" points="130,98.22,126,104.22,130,110.22,134,104.22,130,98.22" style="stroke:#454645;stroke-width:1;"/><text fill="#000000" font-family="sans-serif" font-size="12" lengthAdjust="spacing" textLength="60.6328" x="164.7949" y="140.1387">contains &#9656;</text><path d="M135,152.4688 L135,182.4688 A3.5,3.5 0 0 0 138.5,185.9688 L251.5,185.9688 A3.5,3.5 0 0 0 255,182.4688 L255,158.9688 L245,148.9688 L138.5,148.9688 A3.5,3.5 0 0 0 135,152.4688" fill="#FAFAD2" style="stroke:#454645;stroke-width:1.5;"/><path d="M245,148.9688 L245,157.2188 A1.75,1.75 0 0 0 246.75,158.9688 L255,158.9688 L245,148.9688" fill="#FAFAD2" style="stroke:#454645;stroke-width:1.5;"/><text fill="#454645" font-family="sans-serif" font-size="12" lengthAdjust="spacing" textLength="97.3418" x="141" y="165.1074">One theatre has</text><text fill="#454645" font-family="sans-serif" font-size="12" lengthAdjust="spacing" textLength="99.2227" x="141" y="179.0762">multiple screens</text><text fill="#000000" font-family="sans-serif" font-size="12" lengthAdjust="spacing" textLength="7.6348" x="122.4987" y="117.4147">1</text><text fill="#000000" font-family="sans-serif" font-size="12" lengthAdjust="spacing" textLength="33.75" x="94.2662" y="223.1042">many</text></g><!--reverse link screens to seats--><g class="link" data-entity-1="screens" data-entity-2="seats" data-source-line="127" data-uid="lnk12" id="link_screens_seats"><path codeLine="127" d="M81.4435,334.3312 C45.3335,378.3912 6,440.19 6,512 C6,512 6,512 6,978 C6,1115.6 172.34,1195.48 278.25,1232.39" fill="none" id="screens-backto-seats" style="stroke:#454645;stroke-width:1;"/><polygon fill="#454645" points="89.05,325.05,82.153,327.1551,81.4435,334.3312,88.3405,332.2261,89.05,325.05" style="stroke:#454645;stroke-width:1;"/><text fill="#000000" font-family="sans-serif" font-size="12" lengthAdjust="spacing" textLength="31.0488" x="73.8828" y="756.6387">has &#9656;</text><path d="M11,768.9688 L11,798.9688 A3.5,3.5 0 0 0 14.5,802.4688 L163.5,802.4688 A3.5,3.5 0 0 0 167,798.9688 L167,775.4688 L157,765.4688 L14.5,765.4688 A3.5,3.5 0 0 0 11,768.9688" fill="#E8F5E9" style="stroke:#454645;stroke-width:1.5;"/><path d="M157,765.4688 L157,773.7188 A1.75,1.75 0 0 0 158.75,775.4688 L167,775.4688 L157,765.4688" fill="#E8F5E9" style="stroke:#454645;stroke-width:1.5;"/><text fill="#454645" font-family="sans-serif" font-size="12" lengthAdjust="spacing" textLength="135.8145" x="17" y="781.6074">Fixed seats per screen</text><text fill="#454645" font-family="sans-serif" font-size="12" lengthAdjust="spacing" textLength="128.2031" x="17" y="795.5762">Reused across shows</text><text fill="#000000" font-family="sans-serif" font-size="12" lengthAdjust="spacing" textLength="7.6348" x="75.3258" y="344.2186">1</text><text fill="#000000" font-family="sans-serif" font-size="12" lengthAdjust="spacing" textLength="33.75" x="236.8146" y="1227.8757">many</text></g><!--reverse link screens to shows--><g class="link" data-entity-1="screens" data-entity-2="shows" data-source-line="134" data-uid="lnk13" id="link_screens_shows"><path codeLine="134" d="M186.7961,333.2924 C221.5461,364.6724 261.52,398.61 308,431 C326.02,443.56 346.14,455.89 365.47,467" fill="none" id="screens-backto-shows" style="stroke:#454645;stroke-width:1;"/><polygon fill="#454645" points="177.89,325.25,179.6623,332.2399,186.7961,333.2924,185.0239,326.3025,177.89,325.25" style="stroke:#454645;stroke-width:1;"/><text fill="#000000" font-family="sans-serif" font-size="12" lengthAdjust="spacing" textLength="41.9941" x="354.8125" y="380.1387">hosts &#9656;</text><path d="M313,392.4688 L313,422.4688 A3.5,3.5 0 0 0 316.5,425.9688 L434.5,425.9688 A3.5,3.5 0 0 0 438,422.4688 L438,398.9688 L428,388.9688 L316.5,388.9688 A3.5,3.5 0 0 0 313,392.4688" fill="#E1F5FE" style="stroke:#454645;stroke-width:1.5;"/><path d="M428,388.9688 L428,397.2188 A1.75,1.75 0 0 0 429.75,398.9688 L438,398.9688 L428,388.9688" fill="#E1F5FE" style="stroke:#454645;stroke-width:1.5;"/><text fill="#454645" font-family="sans-serif" font-size="12" lengthAdjust="spacing" textLength="104.6191" x="319" y="405.1074">Multiple shows at</text><text fill="#454645" font-family="sans-serif" font-size="12" lengthAdjust="spacing" textLength="88.5879" x="319" y="419.0762">different times</text><text fill="#000000" font-family="sans-serif" font-size="12" lengthAdjust="spacing" textLength="7.6348" x="177.7694" y="344.4493">1</text><text fill="#000000" font-family="sans-serif" font-size="12" lengthAdjust="spacing" textLength="33.75" x="323.7352" y="460.6689">many</text></g><!--link movies to shows--><g class="link" data-entity-1="movies" data-entity-2="shows" data-source-line="141" data-uid="lnk14" id="link_movies_shows"><path codeLine="141" d="M451,338.02 C451,375.65 451,424.38 451,460.69" fill="none" id="movies-shows" style="stroke:#454645;stroke-width:1;"/><text fill="#000000" font-family="sans-serif" font-size="12" lengthAdjust="spacing" textLength="79.7461" x="493.2949" y="380.1387">screened in &#9656;</text><path d="M456,392.4688 L456,422.4688 A3.5,3.5 0 0 0 459.5,425.9688 L606.5,425.9688 A3.5,3.5 0 0 0 610,422.4688 L610,398.9688 L600,388.9688 L459.5,388.9688 A3.5,3.5 0 0 0 456,392.4688" fill="#E0F2F1" style="stroke:#454645;stroke-width:1.5;"/><path d="M600,388.9688 L600,397.2188 A1.75,1.75 0 0 0 601.75,398.9688 L610,398.9688 L600,388.9688" fill="#E0F2F1" style="stroke:#454645;stroke-width:1.5;"/><text fill="#454645" font-family="sans-serif" font-size="12" lengthAdjust="spacing" textLength="133.3359" x="462" y="405.1074">Same movie can have</text><text fill="#454645" font-family="sans-serif" font-size="12" lengthAdjust="spacing" textLength="90.082" x="462" y="419.0762">multiple shows</text><text fill="#000000" font-family="sans-serif" font-size="12" lengthAdjust="spacing" textLength="7.6348" x="443.6036" y="356.7444">1</text><text fill="#000000" font-family="sans-serif" font-size="12" lengthAdjust="spacing" textLength="33.75" x="415.6336" y="450.2627">many</text></g><!--link users to bookings--><g class="link" data-entity-1="users" data-entity-2="bookings" data-source-line="148" data-uid="lnk15" id="link_users_bookings"><path codeLine="148" d="M242.52,558.69 C249.61,588.47 261.71,627.57 281,658 C290.59,673.12 302.57,687.63 315.28,700.98" fill="none" id="users-bookings" style="stroke:#454645;stroke-width:1;"/><text fill="#000000" font-family="sans-serif" font-size="12" lengthAdjust="spacing" textLength="49.4648" x="325.2051" y="607.1387">makes &#9656;</text><path d="M286,619.4688 L286,649.4688 A3.5,3.5 0 0 0 289.5,652.9688 L409.5,652.9688 A3.5,3.5 0 0 0 413,649.4688 L413,625.9688 L403,615.9688 L289.5,615.9688 A3.5,3.5 0 0 0 286,619.4688" fill="#FFF3E0" style="stroke:#454645;stroke-width:1.5;"/><path d="M403,615.9688 L403,624.2188 A1.75,1.75 0 0 0 404.75,625.9688 L413,625.9688 L403,615.9688" fill="#FFF3E0" style="stroke:#454645;stroke-width:1.5;"/><text fill="#454645" font-family="sans-serif" font-size="12" lengthAdjust="spacing" textLength="85.9805" x="292" y="632.1074">User can have</text><text fill="#454645" font-family="sans-serif" font-size="12" lengthAdjust="spacing" textLength="106.875" x="292" y="646.0762">multiple bookings</text><text fill="#000000" font-family="sans-serif" font-size="12" lengthAdjust="spacing" textLength="7.6348" x="236.3598" y="577.8801">1</text><text fill="#000000" font-family="sans-serif" font-size="12" lengthAdjust="spacing" textLength="33.75" x="273.864" y="692.6605">many</text></g><!--link shows to bookings--><g class="link" data-entity-1="shows" data-entity-2="bookings" data-source-line="155" data-uid="lnk16" id="link_shows_bookings"><path codeLine="155" d="M441.97,565.25 C435.82,600.14 427.53,647.19 420.35,687.89" fill="none" id="shows-bookings" style="stroke:#454645;stroke-width:1;"/><text fill="#000000" font-family="sans-serif" font-size="12" lengthAdjust="spacing" textLength="60.2051" x="437" y="631.1387">receives &#9656;</text><text fill="#000000" font-family="sans-serif" font-size="12" lengthAdjust="spacing" textLength="7.6348" x="433.4069" y="583.9786">1</text><text fill="#000000" font-family="sans-serif" font-size="12" lengthAdjust="spacing" textLength="33.75" x="387.2982" y="677.0566">many</text></g><!--link bookings to booking_seats--><g class="link" data-entity-1="bookings" data-entity-2="booking_seats" data-source-line="158" data-uid="lnk17" id="link_bookings_booking_seats"><path codeLine="158" d="M405,864.28 C405,884.96 405,906.35 405,924.82" fill="none" id="bookings-booking_seats" style="stroke:#454645;stroke-width:1;"/><text fill="#000000" font-family="sans-serif" font-size="12" lengthAdjust="spacing" textLength="33.75" x="370.7335" y="883.0094">many</text><text fill="#000000" font-family="sans-serif" font-size="12" lengthAdjust="spacing" textLength="33.75" x="369.5318" y="914.0481">many</text></g><!--link booking_seats to seats--><g class="link" data-entity-1="booking_seats" data-entity-2="seats" data-source-line="159" data-uid="lnk18" id="link_booking_seats_seats"><path codeLine="159" d="M397.48,1029.26 C391.97,1066.85 384.32,1118.95 377.73,1163.87" fill="none" id="booking_seats-seats" style="stroke:#454645;stroke-width:1;"/><path d="M397,1067.5 L397,1125.5 A3.5,3.5 0 0 0 400.5,1129 L577.5,1129 A3.5,3.5 0 0 0 581,1125.5 L581,1074 L571,1064 L400.5,1064 A3.5,3.5 0 0 0 397,1067.5" fill="#FFFDE7" style="stroke:#454645;stroke-width:1.5;"/><path d="M571,1064 L571,1072.25 A1.75,1.75 0 0 0 572.75,1074 L581,1074 L571,1064" fill="#FFFDE7" style="stroke:#454645;stroke-width:1.5;"/><text fill="#454645" font-family="sans-serif" font-size="12" font-weight="bold" lengthAdjust="spacing" textLength="96.75" x="403" y="1080.1387">Many-to-Many</text><text fill="#454645" font-family="sans-serif" font-size="12" lengthAdjust="spacing" textLength="163.248" x="403" y="1094.1074">One booking &#8594; many seats</text><text fill="#454645" font-family="sans-serif" font-size="12" lengthAdjust="spacing" textLength="163.248" x="403" y="1108.0762">One seat &#8594; many bookings</text><text fill="#454645" font-family="sans-serif" font-size="12" lengthAdjust="spacing" textLength="122.168" x="403" y="1122.0449">(for different shows)</text><text fill="#000000" font-family="sans-serif" font-size="12" lengthAdjust="spacing" textLength="33.75" x="361.4512" y="1047.9899">many</text><text fill="#000000" font-family="sans-serif" font-size="12" lengthAdjust="spacing" textLength="33.75" x="344.5179" y="1153.0529">many</text></g><!--link users to seat_locks--><g class="link" data-entity-1="users" data-entity-2="seat_locks" data-source-line="168" data-uid="lnk19" id="link_users_seat_locks"><path codeLine="168" d="M231.52,558.78 C228.85,610.76 225,699.06 225,775 C225,775 225,775 225,1259.5 C225,1338.36 234.76,1428.19 242.95,1489.73" fill="none" id="users-seat_locks" style="stroke:#454645;stroke-width:1;"/><text fill="#000000" font-family="sans-serif" font-size="12" lengthAdjust="spacing" textLength="54.4453" x="226" y="981.6387">creates &#9656;</text><text fill="#000000" font-family="sans-serif" font-size="12" lengthAdjust="spacing" textLength="7.6348" x="223.6754" y="577.9839">1</text><text fill="#000000" font-family="sans-serif" font-size="12" lengthAdjust="spacing" textLength="33.75" x="206.9833" y="1478.9558">many</text></g><!--link seats to seat_locks--><g class="link" data-entity-1="seats" data-entity-2="seat_locks" data-source-line="169" data-uid="lnk20" id="link_seats_seat_locks"><path codeLine="169" d="M330.1,1353.34 C314.25,1397.21 295.66,1448.69 280.81,1489.78" fill="none" id="seats-seat_locks" style="stroke:#454645;stroke-width:1;"/><text fill="#000000" font-family="sans-serif" font-size="12" lengthAdjust="spacing" textLength="67.5938" x="371.9531" y="1395.1387">locked by &#9656;</text><path d="M324,1407.4688 L324,1451.4688 A3.5,3.5 0 0 0 327.5,1454.9688 L483.5,1454.9688 A3.5,3.5 0 0 0 487,1451.4688 L487,1413.9688 L477,1403.9688 L327.5,1403.9688 A3.5,3.5 0 0 0 324,1407.4688" fill="#FFE0B2" style="stroke:#454645;stroke-width:1.5;"/><path d="M477,1403.9688 L477,1412.2188 A1.75,1.75 0 0 0 478.75,1413.9688 L487,1413.9688 L477,1403.9688" fill="#FFE0B2" style="stroke:#454645;stroke-width:1.5;"/><text fill="#454645" font-family="sans-serif" font-size="12" font-weight="bold" lengthAdjust="spacing" textLength="138.4863" x="330" y="1420.1074">Concurrency Control</text><text fill="#454645" font-family="sans-serif" font-size="12" lengthAdjust="spacing" textLength="142.5" x="330" y="1434.0762">Temporary locks during</text><text fill="#454645" font-family="sans-serif" font-size="12" lengthAdjust="spacing" textLength="97.998" x="330" y="1448.0449">booking process</text><text fill="#000000" font-family="sans-serif" font-size="12" lengthAdjust="spacing" textLength="7.6348" x="320.3777" y="1371.963">1</text><text fill="#000000" font-family="sans-serif" font-size="12" lengthAdjust="spacing" textLength="33.75" x="248.9842" y="1479.0113">many</text></g><!--SRC=[ZPTTRkCs4CVVTGesVMXYr83jZVDXR1QGPN7N6zinR2T0dmnQPX8X4cLGb5ktM62VzW2BeWVeANgUdAJ33trPiZTvaJKS3N_ypt38_2IUQKZHrbznmeGLl_XiGpW9qOfuBqyyIjZQYOA8evzn2rzXNF1OqqUI1097JCpzFobgTmg3Na3Ys1Q2-wj4qDodRLc_e05zz1b5dWeSUv9W_rFqbuNWhr-cUF_-FgRymmUWSSzTc53vH7nD-VuulkXVzEjZZAEjJwMJsyANsAu6oHnQhRupEA-FidYcH73bXj-vNTojnYcuN3kTotwhFb8_Yc3nJneRNpldrKX5by7WwbstFj8SvfC-pfLxuLnNmwJZvuwDkwr3CRo4-sAdSHodxzJ5AVfqBpiTwujCh5GV3QAG-CpIQKp04gCiBpghZSRqjj5GOqj_ZNhemPuvd-pPQRTrfXoQJVLW14ep7sstp3252OBz0GMWCbSc2AL98gHPBJ6eqQCGmXT1aQAJKWI4FINaYTPykauu4Nx4bg7FeFnZS1bE5cheYJAk39_dTnCDRSgaZ2sqKOBdPLH2Dnx7uOtF8IKzI6ADa1eXzZYbJ1BCzQzz0krG3z1euBT2cZ1xZDqqf_FdwFUoDZ5O59PyLg30U1JfICgDnx5rfSno5k4hue6zS1V3iMjmOS5xk61Hk7htbMd1fYTA2-Jj31mGM1AkOC_bdqDJJK9MjQk9n6uZWTt9_LWP_NYvWiv2vIJzkxkHQq_C14t3ua8Wz422XCQzHaCPNx_-YsRkn_kHFSlUfpDtF3H1vVl3SAhLC8shBCXA6wKcUMChoM8yZcRfSFj89JnO2MPvwIpxULHw2IAIk2ZM3qK11M_TGVRgs1F77OqAbgdzszYTB9RO7agp4kXpmZpPAj22h09Q5cYPLaxgf7mAMk6tQbKjitmrJXHkejWN54rlq-MSva5_JJzEjwFf_TKQNmQHzw8BFJiUIbcLu_N5VcWN_F28K27hygS6iZuSKozYwxXs_GiAw-U4xz08lj5vC39CETrI1Yc0hs5977wdScinRcvkO2-CxCNmRZB_D9pEfQNOqr-_VKUwUwBJTczoPcLz_QHzWXhD9Ze92TkTPCss9-SI86oCNl_vps8Hv0Mg8_3P2vorDhO7-jPp1nSe4mizarZPGhYE-HiuhKmmYx8raX5KtZI50b9bfNdIUVTnb4jFXgxXSAzmrzNt2-p_0Ur3ksyeDrEheHc5zAqHyNYKDks3HAgZ7oTIBa0KnQAMgOsxMET-dEcWlY527yh-uoDLAPJrKaRHzuPz4dDra21L3eq9w_DP7KqBTt1RpJkNvveAXJp2GD4jtSjMHHbrZv8q_RHJQY1zcohpPCsqXqBoGclB1iCDLL_tLEHwZ3HGEKVoyAqXqIeS9E7Ke_xMm1IEWTTlVwVLD-vDuDyEaZN0ColxtiIhHDRzq2ftnugpTgeeC70lpOOVWrjJH4tvD1jTxgPLnlWToKWcK3eit_AnJ2pLBH_X_vYyl9GsPsKPJKVigTNBFbERoq8NXJx0uSr8Q9Pws5a-eHPNkzhqkwr-9-lsffDvEmI_1Oy2eq7U1tLGQ9wopnKEIhJXaKVZl4B-1m00]--></g></svg>