<svg xmlns="http://www.w3.org/2000/svg" xmlns:xlink="http://www.w3.org/1999/xlink" contentStyleType="text/css" data-diagram-type="CLASS" height="628px" preserveAspectRatio="none" style="width:1374px;height:628px;background:#1E1E1E;" version="1.1" viewBox="0 0 1374 628" width="1374px" zoomAndPan="magnify"><title>**Template Method Design Pattern**
Notification System</title><defs/><g><rect fill="#1E1E1E" height="628" style="stroke:none;stroke-width:1;" width="1374" x="0" y="0"/><g class="title" data-source-line="18"><text fill="#000000" font-family="Verdana" font-size="22" font-weight="bold" lengthAdjust="spacing" textLength="411.9199" x="476.6416" y="35.4209">Template Method Design Pattern</text><text fill="#000000" font-family="Verdana" font-size="22" font-weight="bold" lengthAdjust="spacing" textLength="244.7178" x="560.2427" y="61.0303">Notification System</text></g><!--class NotificationSender--><g class="entity" data-entity="NotificationSender" data-source-line="20" data-uid="ent0002" id="entity_NotificationSender"><rect fill="#2C2C2C" height="137.75" rx="2.5" ry="2.5" style="stroke:#5DADE2;stroke-width:1;" width="475.5615" x="452" y="217.2188"/><ellipse cx="621.0518" cy="237.3516" fill="#FFFFFF" rx="9" ry="9" style="stroke:#000000;stroke-width:1;"/><path d="M621.1611,232.6953 L620.0049,237.7734 L622.333,237.7734 L621.1611,232.6953 Z M619.6768,230.4609 L622.6611,230.4609 L626.0205,242.8516 L623.5674,242.8516 L622.8018,239.7891 L619.5205,239.7891 L618.7705,242.8516 L616.333,242.8516 L619.6768,230.4609 Z " fill="#000000"/><text fill="#F4F4F4" font-family="Verdana" font-size="12" font-style="italic" lengthAdjust="spacing" textLength="125.7949" x="640.6333" y="233.3574">&#171;Abstract Template&#187;</text><text fill="#B3E5FC" font-family="Verdana" font-size="14" font-style="italic" lengthAdjust="spacing" textLength="129.958" x="638.5518" y="249.1826">NotificationSender</text><line style="stroke:#5DADE2;stroke-width:1;" x1="453" x2="926.5615" y1="257.4844" y2="257.4844"/><ellipse cx="463" cy="271.1328" fill="#FFFFFF" rx="3" ry="3" style="stroke:#000000;stroke-width:1;"/><text fill="#B3E5FC" font-family="Verdana" font-size="14" lengthAdjust="spacing" textLength="451.5615" x="470" y="274.4795">{final} sendNotification(recipient: String, message: String): void</text><line style="stroke:#5DADE2;stroke-width:1;" x1="453" x2="926.5615" y1="281.7813" y2="281.7813"/><polygon fill="#FFFFFF" points="463,290.4297,467,294.4297,463,298.4297,459,294.4297" style="stroke:#000000;stroke-width:1;"/><text fill="#B3E5FC" font-family="Verdana" font-size="14" font-style="italic" lengthAdjust="spacing" textLength="244.9316" x="470" y="298.7764">validate(recipient: String): boolean</text><polygon fill="#FFFFFF" points="463,306.7266,467,310.7266,463,314.7266,459,310.7266" style="stroke:#000000;stroke-width:1;"/><text fill="#B3E5FC" font-family="Verdana" font-size="14" font-style="italic" lengthAdjust="spacing" textLength="288.2031" x="470" y="315.0732">composeMessage(message: String): void</text><polygon fill="#FFFFFF" points="463,323.0234,467,327.0234,463,331.0234,459,327.0234" style="stroke:#000000;stroke-width:1;"/><text fill="#B3E5FC" font-family="Verdana" font-size="14" font-style="italic" lengthAdjust="spacing" textLength="196.041" x="470" y="331.3701">send(recipient: String): void</text><polygon fill="#FFFFFF" points="463,339.3203,467,343.3203,463,347.3203,459,343.3203" style="stroke:#000000;stroke-width:1;"/><text fill="#B3E5FC" font-family="Verdana" font-size="14" lengthAdjust="spacing" textLength="71.0596" x="470" y="347.667">log(): void</text></g><!--class EmailNotification--><g class="entity" data-entity="EmailNotification" data-source-line="29" data-uid="ent0003" id="entity_EmailNotification"><rect fill="#263238" height="121.4531" rx="2.5" ry="2.5" style="stroke:#5DADE2;stroke-width:1;" width="312.2031" x="14" y="415.2188"/><ellipse cx="106.7661" cy="435.3516" fill="#FFFFFF" rx="9" ry="9" style="stroke:#000000;stroke-width:1;"/><path d="M109.7349,440.9922 Q109.1567,441.2891 108.5161,441.4297 Q107.8755,441.5859 107.1724,441.5859 Q104.6724,441.5859 103.3442,439.9453 Q102.0317,438.2891 102.0317,435.1641 Q102.0317,432.0391 103.3442,430.3828 Q104.6724,428.7266 107.1724,428.7266 Q107.8755,428.7266 108.5161,428.8828 Q109.1724,429.0391 109.7349,429.3359 L109.7349,432.0547 Q109.1099,431.4766 108.5161,431.2109 Q107.9224,430.9297 107.2974,430.9297 Q105.9536,430.9297 105.2661,432.0078 Q104.5786,433.0703 104.5786,435.1641 Q104.5786,437.2578 105.2661,438.3359 Q105.9536,439.3984 107.2974,439.3984 Q107.9224,439.3984 108.5161,439.1328 Q109.1099,438.8516 109.7349,438.2734 L109.7349,440.9922 Z " fill="#000000"/><text fill="#F4F4F4" font-family="Verdana" font-size="12" font-style="italic" lengthAdjust="spacing" textLength="69.1406" x="149.2813" y="431.3574">&#171;Concrete&#187;</text><text fill="#B3E5FC" font-family="Verdana" font-size="14" lengthAdjust="spacing" textLength="119.1709" x="124.2661" y="447.1826">EmailNotification</text><line style="stroke:#5DADE2;stroke-width:1;" x1="15" x2="325.2031" y1="455.4844" y2="455.4844"/><rect fill="none" height="6" style="stroke:#000000;stroke-width:1;" width="6" x="22" y="466.1328"/><text fill="#B3E5FC" font-family="Verdana" font-size="14" lengthAdjust="spacing" textLength="184.4541" x="32" y="472.4795">composedMessage: String</text><line style="stroke:#5DADE2;stroke-width:1;" x1="15" x2="325.2031" y1="479.7813" y2="479.7813"/><polygon fill="#FFFFFF" points="25,488.4297,29,492.4297,25,496.4297,21,492.4297" style="stroke:#000000;stroke-width:1;"/><text fill="#B3E5FC" font-family="Verdana" font-size="14" lengthAdjust="spacing" textLength="244.9316" x="32" y="496.7764">validate(recipient: String): boolean</text><polygon fill="#FFFFFF" points="25,504.7266,29,508.7266,25,512.7266,21,508.7266" style="stroke:#000000;stroke-width:1;"/><text fill="#B3E5FC" font-family="Verdana" font-size="14" lengthAdjust="spacing" textLength="288.2031" x="32" y="513.0732">composeMessage(message: String): void</text><polygon fill="#FFFFFF" points="25,521.0234,29,525.0234,25,529.0234,21,525.0234" style="stroke:#000000;stroke-width:1;"/><text fill="#B3E5FC" font-family="Verdana" font-size="14" lengthAdjust="spacing" textLength="196.041" x="32" y="529.3701">send(recipient: String): void</text></g><!--class SMSNotification--><g class="entity" data-entity="SMSNotification" data-source-line="37" data-uid="ent0004" id="entity_SMSNotification"><rect fill="#1B2631" height="121.4531" rx="2.5" ry="2.5" style="stroke:#5DADE2;stroke-width:1;" width="312.2031" x="361" y="415.2188"/><ellipse cx="458.2607" cy="435.3516" fill="#FFFFFF" rx="9" ry="9" style="stroke:#000000;stroke-width:1;"/><path d="M461.2295,440.9922 Q460.6514,441.2891 460.0107,441.4297 Q459.3701,441.5859 458.667,441.5859 Q456.167,441.5859 454.8389,439.9453 Q453.5264,438.2891 453.5264,435.1641 Q453.5264,432.0391 454.8389,430.3828 Q456.167,428.7266 458.667,428.7266 Q459.3701,428.7266 460.0107,428.8828 Q460.667,429.0391 461.2295,429.3359 L461.2295,432.0547 Q460.6045,431.4766 460.0107,431.2109 Q459.417,430.9297 458.792,430.9297 Q457.4482,430.9297 456.7607,432.0078 Q456.0732,433.0703 456.0732,435.1641 Q456.0732,437.2578 456.7607,438.3359 Q457.4482,439.3984 458.792,439.3984 Q459.417,439.3984 460.0107,439.1328 Q460.6045,438.8516 461.2295,438.2734 L461.2295,440.9922 Z " fill="#000000"/><text fill="#F4F4F4" font-family="Verdana" font-size="12" font-style="italic" lengthAdjust="spacing" textLength="69.1406" x="496.2813" y="431.3574">&#171;Concrete&#187;</text><text fill="#B3E5FC" font-family="Verdana" font-size="14" lengthAdjust="spacing" textLength="110.1816" x="475.7607" y="447.1826">SMSNotification</text><line style="stroke:#5DADE2;stroke-width:1;" x1="362" x2="672.2031" y1="455.4844" y2="455.4844"/><rect fill="none" height="6" style="stroke:#000000;stroke-width:1;" width="6" x="369" y="466.1328"/><text fill="#B3E5FC" font-family="Verdana" font-size="14" lengthAdjust="spacing" textLength="184.4541" x="379" y="472.4795">composedMessage: String</text><line style="stroke:#5DADE2;stroke-width:1;" x1="362" x2="672.2031" y1="479.7813" y2="479.7813"/><polygon fill="#FFFFFF" points="372,488.4297,376,492.4297,372,496.4297,368,492.4297" style="stroke:#000000;stroke-width:1;"/><text fill="#B3E5FC" font-family="Verdana" font-size="14" lengthAdjust="spacing" textLength="244.9316" x="379" y="496.7764">validate(recipient: String): boolean</text><polygon fill="#FFFFFF" points="372,504.7266,376,508.7266,372,512.7266,368,508.7266" style="stroke:#000000;stroke-width:1;"/><text fill="#B3E5FC" font-family="Verdana" font-size="14" lengthAdjust="spacing" textLength="288.2031" x="379" y="513.0732">composeMessage(message: String): void</text><polygon fill="#FFFFFF" points="372,521.0234,376,525.0234,372,529.0234,368,525.0234" style="stroke:#000000;stroke-width:1;"/><text fill="#B3E5FC" font-family="Verdana" font-size="14" lengthAdjust="spacing" textLength="196.041" x="379" y="529.3701">send(recipient: String): void</text></g><!--class PushNotification--><g class="entity" data-entity="PushNotification" data-source-line="45" data-uid="ent0005" id="entity_PushNotification"><rect fill="#1B263B" height="121.4531" rx="2.5" ry="2.5" style="stroke:#5DADE2;stroke-width:1;" width="312.2031" x="708" y="415.2188"/><ellipse cx="803.4458" cy="435.3516" fill="#FFFFFF" rx="9" ry="9" style="stroke:#000000;stroke-width:1;"/><path d="M806.4146,440.9922 Q805.8364,441.2891 805.1958,441.4297 Q804.5552,441.5859 803.8521,441.5859 Q801.3521,441.5859 800.0239,439.9453 Q798.7114,438.2891 798.7114,435.1641 Q798.7114,432.0391 800.0239,430.3828 Q801.3521,428.7266 803.8521,428.7266 Q804.5552,428.7266 805.1958,428.8828 Q805.8521,429.0391 806.4146,429.3359 L806.4146,432.0547 Q805.7896,431.4766 805.1958,431.2109 Q804.6021,430.9297 803.9771,430.9297 Q802.6333,430.9297 801.9458,432.0078 Q801.2583,433.0703 801.2583,435.1641 Q801.2583,437.2578 801.9458,438.3359 Q802.6333,439.3984 803.9771,439.3984 Q804.6021,439.3984 805.1958,439.1328 Q805.7896,438.8516 806.4146,438.2734 L806.4146,440.9922 Z " fill="#000000"/><text fill="#F4F4F4" font-family="Verdana" font-size="12" font-style="italic" lengthAdjust="spacing" textLength="69.1406" x="843.2813" y="431.3574">&#171;Concrete&#187;</text><text fill="#B3E5FC" font-family="Verdana" font-size="14" lengthAdjust="spacing" textLength="113.8115" x="820.9458" y="447.1826">PushNotification</text><line style="stroke:#5DADE2;stroke-width:1;" x1="709" x2="1019.2031" y1="455.4844" y2="455.4844"/><rect fill="none" height="6" style="stroke:#000000;stroke-width:1;" width="6" x="716" y="466.1328"/><text fill="#B3E5FC" font-family="Verdana" font-size="14" lengthAdjust="spacing" textLength="184.4541" x="726" y="472.4795">composedMessage: String</text><line style="stroke:#5DADE2;stroke-width:1;" x1="709" x2="1019.2031" y1="479.7813" y2="479.7813"/><polygon fill="#FFFFFF" points="719,488.4297,723,492.4297,719,496.4297,715,492.4297" style="stroke:#000000;stroke-width:1;"/><text fill="#B3E5FC" font-family="Verdana" font-size="14" lengthAdjust="spacing" textLength="244.9316" x="726" y="496.7764">validate(recipient: String): boolean</text><polygon fill="#FFFFFF" points="719,504.7266,723,508.7266,719,512.7266,715,508.7266" style="stroke:#000000;stroke-width:1;"/><text fill="#B3E5FC" font-family="Verdana" font-size="14" lengthAdjust="spacing" textLength="288.2031" x="726" y="513.0732">composeMessage(message: String): void</text><polygon fill="#FFFFFF" points="719,521.0234,723,525.0234,719,529.0234,715,525.0234" style="stroke:#000000;stroke-width:1;"/><text fill="#B3E5FC" font-family="Verdana" font-size="14" lengthAdjust="spacing" textLength="196.041" x="726" y="529.3701">send(recipient: String): void</text></g><!--class SlackNotification--><g class="entity" data-entity="SlackNotification" data-source-line="53" data-uid="ent0006" id="entity_SlackNotification"><rect fill="#2A1B3D" height="121.4531" rx="2.5" ry="2.5" style="stroke:#5DADE2;stroke-width:1;" width="312.2031" x="1055" y="415.2188"/><ellipse cx="1148.6069" cy="435.3516" fill="#FFFFFF" rx="9" ry="9" style="stroke:#000000;stroke-width:1;"/><path d="M1151.5757,440.9922 Q1150.9976,441.2891 1150.3569,441.4297 Q1149.7163,441.5859 1149.0132,441.5859 Q1146.5132,441.5859 1145.1851,439.9453 Q1143.8726,438.2891 1143.8726,435.1641 Q1143.8726,432.0391 1145.1851,430.3828 Q1146.5132,428.7266 1149.0132,428.7266 Q1149.7163,428.7266 1150.3569,428.8828 Q1151.0132,429.0391 1151.5757,429.3359 L1151.5757,432.0547 Q1150.9507,431.4766 1150.3569,431.2109 Q1149.7632,430.9297 1149.1382,430.9297 Q1147.7944,430.9297 1147.1069,432.0078 Q1146.4194,433.0703 1146.4194,435.1641 Q1146.4194,437.2578 1147.1069,438.3359 Q1147.7944,439.3984 1149.1382,439.3984 Q1149.7632,439.3984 1150.3569,439.1328 Q1150.9507,438.8516 1151.5757,438.2734 L1151.5757,440.9922 Z " fill="#000000"/><text fill="#F4F4F4" font-family="Verdana" font-size="12" font-style="italic" lengthAdjust="spacing" textLength="69.1406" x="1190.2813" y="431.3574">&#171;Concrete&#187;</text><text fill="#B3E5FC" font-family="Verdana" font-size="14" lengthAdjust="spacing" textLength="117.4893" x="1166.1069" y="447.1826">SlackNotification</text><line style="stroke:#5DADE2;stroke-width:1;" x1="1056" x2="1366.2031" y1="455.4844" y2="455.4844"/><rect fill="none" height="6" style="stroke:#000000;stroke-width:1;" width="6" x="1063" y="466.1328"/><text fill="#B3E5FC" font-family="Verdana" font-size="14" lengthAdjust="spacing" textLength="184.4541" x="1073" y="472.4795">composedMessage: String</text><line style="stroke:#5DADE2;stroke-width:1;" x1="1056" x2="1366.2031" y1="479.7813" y2="479.7813"/><polygon fill="#FFFFFF" points="1066,488.4297,1070,492.4297,1066,496.4297,1062,492.4297" style="stroke:#000000;stroke-width:1;"/><text fill="#B3E5FC" font-family="Verdana" font-size="14" lengthAdjust="spacing" textLength="244.9316" x="1073" y="496.7764">validate(recipient: String): boolean</text><polygon fill="#FFFFFF" points="1066,504.7266,1070,508.7266,1066,512.7266,1062,508.7266" style="stroke:#000000;stroke-width:1;"/><text fill="#B3E5FC" font-family="Verdana" font-size="14" lengthAdjust="spacing" textLength="288.2031" x="1073" y="513.0732">composeMessage(message: String): void</text><polygon fill="#FFFFFF" points="1066,521.0234,1070,525.0234,1066,529.0234,1062,525.0234" style="stroke:#000000;stroke-width:1;"/><text fill="#B3E5FC" font-family="Verdana" font-size="14" lengthAdjust="spacing" textLength="196.041" x="1073" y="529.3701">send(recipient: String): void</text></g><!--class TemplateMethodDemo--><g class="entity" data-entity="TemplateMethodDemo" data-source-line="61" data-uid="ent0007" id="entity_TemplateMethodDemo"><rect fill="#2F2F2F" height="72.5625" rx="2.5" ry="2.5" style="stroke:#5DADE2;stroke-width:1;" width="201.085" x="589.5" y="84.2188"/><ellipse cx="608.2243" cy="104.3516" fill="#FFFFFF" rx="9" ry="9" style="stroke:#000000;stroke-width:1;"/><path d="M611.1931,109.9922 Q610.6149,110.2891 609.9743,110.4297 Q609.3337,110.5859 608.6306,110.5859 Q606.1306,110.5859 604.8024,108.9453 Q603.4899,107.2891 603.4899,104.1641 Q603.4899,101.0391 604.8024,99.3828 Q606.1306,97.7266 608.6306,97.7266 Q609.3337,97.7266 609.9743,97.8828 Q610.6306,98.0391 611.1931,98.3359 L611.1931,101.0547 Q610.5681,100.4766 609.9743,100.2109 Q609.3806,99.9297 608.7556,99.9297 Q607.4118,99.9297 606.7243,101.0078 Q606.0368,102.0703 606.0368,104.1641 Q606.0368,106.2578 606.7243,107.3359 Q607.4118,108.3984 608.7556,108.3984 Q609.3806,108.3984 609.9743,108.1328 Q610.5681,107.8516 611.1931,107.2734 L611.1931,109.9922 Z " fill="#000000"/><text fill="#F4F4F4" font-family="Verdana" font-size="12" font-style="italic" lengthAdjust="spacing" textLength="49.5527" x="676.9021" y="100.3574">&#171;Client&#187;</text><text fill="#B3E5FC" font-family="Verdana" font-size="14" lengthAdjust="spacing" textLength="160.3643" x="621.4964" y="116.1826">TemplateMethodDemo</text><line style="stroke:#5DADE2;stroke-width:1;" x1="590.5" x2="789.585" y1="124.4844" y2="124.4844"/><line style="stroke:#5DADE2;stroke-width:1;" x1="590.5" x2="789.585" y1="132.4844" y2="132.4844"/><ellipse cx="600.5" cy="146.1328" fill="#FFFFFF" rx="3" ry="3" style="stroke:#000000;stroke-width:1;"/><text fill="#B3E5FC" font-family="Verdana" font-size="14" lengthAdjust="spacing" text-decoration="underline" textLength="177.085" x="607.5" y="149.4795">main(args: String[]): void</text></g><path d="M963,238.2188 L963,277.0508 L921.5615,269.6328 L963,285.0508 L963,323.8828 A0,0 0 0 0 963,323.8828 L1184.8208,323.8828 A0,0 0 0 0 1184.8208,323.8828 L1184.8208,248.2188 L1174.8208,238.2188 L963,238.2188 A0,0 0 0 0 963,238.2188" fill="#333333" style="stroke:#58D68D;stroke-width:1;"/><path d="M1174.8208,238.2188 L1174.8208,248.2188 L1184.8208,248.2188 L1174.8208,238.2188" fill="#333333" style="stroke:#58D68D;stroke-width:1;"/><text fill="#E8F8F5" font-family="Verdana" font-size="13" font-weight="bold" lengthAdjust="spacing" textLength="118.5996" x="969" y="255.2856">Algorithm Steps</text><text fill="#E8F8F5" font-family="Verdana" font-size="13" lengthAdjust="spacing" textLength="136.1763" x="969" y="270.4185">1. validate(recipient)</text><text fill="#E8F8F5" font-family="Verdana" font-size="13" lengthAdjust="spacing" textLength="200.8208" x="969" y="285.5513">2. composeMessage(message)</text><text fill="#E8F8F5" font-family="Verdana" font-size="13" lengthAdjust="spacing" textLength="115.2417" x="969" y="300.6841">3. send(recipient)</text><text fill="#E8F8F5" font-family="Verdana" font-size="13" lengthAdjust="spacing" textLength="46.4966" x="969" y="315.8169">4. log()</text><g class="entity" data-entity="GMN15" data-source-line="80" data-uid="ent0016" id="entity_GMN15"><path d="M84,596.2188 L84,621.3516 A0,0 0 0 0 84,621.3516 L255.8394,621.3516 A0,0 0 0 0 255.8394,621.3516 L255.8394,606.2188 L245.8394,596.2188 L174,596.2188 L170,536.3788 L166,596.2188 L84,596.2188 A0,0 0 0 0 84,596.2188" fill="#333333" style="stroke:#58D68D;stroke-width:1;"/><path d="M245.8394,596.2188 L245.8394,606.2188 L255.8394,606.2188 L245.8394,596.2188" fill="#333333" style="stroke:#58D68D;stroke-width:1;"/><text fill="#E8F8F5" font-family="Verdana" font-size="13" lengthAdjust="spacing" textLength="150.8394" x="90" y="613.2856">validate: contains("@")</text></g><g class="entity" data-entity="GMN18" data-source-line="84" data-uid="ent0019" id="entity_GMN18"><path d="M412,596.2188 L412,621.3516 A0,0 0 0 0 412,621.3516 L621.792,621.3516 A0,0 0 0 0 621.792,621.3516 L621.792,606.2188 L611.792,596.2188 L521,596.2188 L517,536.3788 L513,596.2188 L412,596.2188 A0,0 0 0 0 412,596.2188" fill="#333333" style="stroke:#58D68D;stroke-width:1;"/><path d="M611.792,596.2188 L611.792,606.2188 L621.792,606.2188 L611.792,596.2188" fill="#333333" style="stroke:#58D68D;stroke-width:1;"/><text fill="#E8F8F5" font-family="Verdana" font-size="13" lengthAdjust="spacing" textLength="188.792" x="418" y="613.2856">validate: matches("\\d{10}")</text></g><g class="entity" data-entity="GMN21" data-source-line="88" data-uid="ent0022" id="entity_GMN21"><path d="M754,596.2188 L754,621.3516 A0,0 0 0 0 754,621.3516 L973.8657,621.3516 A0,0 0 0 0 973.8657,621.3516 L973.8657,606.2188 L963.8657,596.2188 L868,596.2188 L864,536.3788 L860,596.2188 L754,596.2188 A0,0 0 0 0 754,596.2188" fill="#333333" style="stroke:#58D68D;stroke-width:1;"/><path d="M963.8657,596.2188 L963.8657,606.2188 L973.8657,606.2188 L963.8657,596.2188" fill="#333333" style="stroke:#58D68D;stroke-width:1;"/><text fill="#E8F8F5" font-family="Verdana" font-size="13" lengthAdjust="spacing" textLength="198.8657" x="760" y="613.2856">validate: startsWith("device_")</text></g><g class="entity" data-entity="GMN24" data-source-line="92" data-uid="ent0025" id="entity_GMN24"><path d="M1098.5,596.2188 L1098.5,621.3516 A0,0 0 0 0 1098.5,621.3516 L1323.4819,621.3516 A0,0 0 0 0 1323.4819,621.3516 L1323.4819,606.2188 L1313.4819,596.2188 L1215,596.2188 L1211,536.3788 L1207,596.2188 L1098.5,596.2188 A0,0 0 0 0 1098.5,596.2188" fill="#333333" style="stroke:#58D68D;stroke-width:1;"/><path d="M1313.4819,596.2188 L1313.4819,606.2188 L1323.4819,606.2188 L1313.4819,596.2188" fill="#333333" style="stroke:#58D68D;stroke-width:1;"/><text fill="#E8F8F5" font-family="Verdana" font-size="13" lengthAdjust="spacing" textLength="203.9819" x="1104.5" y="613.2856">validate: contains("salesforce")</text></g><!--reverse link NotificationSender to EmailNotification--><g class="link" data-entity-1="NotificationSender" data-entity-2="EmailNotification" data-source-line="65" data-uid="lnk8" id="link_NotificationSender_EmailNotification"><path codeLine="65" d="M433.69,286.2188 C296.88,286.2188 170,286.2188 170,286.2188 C170,286.2188 170,359.5488 170,414.9788" fill="none" id="NotificationSender-backto-EmailNotification" style="stroke:#F7DC6F;stroke-width:1;"/><polygon fill="none" points="451.69,286.2188,433.69,280.2188,433.69,292.2188,451.69,286.2188" style="stroke:#F7DC6F;stroke-width:1;"/></g><!--reverse link NotificationSender to SMSNotification--><g class="link" data-entity-1="NotificationSender" data-entity-2="SMSNotification" data-source-line="66" data-uid="lnk9" id="link_NotificationSender_SMSNotification"><path codeLine="66" d="M562.5,373.4388 C562.5,392.9988 562.5,396.1287 562.5,415.1387" fill="none" id="NotificationSender-backto-SMSNotification" style="stroke:#F7DC6F;stroke-width:1;"/><polygon fill="none" points="562.5,355.4388,556.5,373.4388,568.5,373.4388,562.5,355.4388" style="stroke:#F7DC6F;stroke-width:1;"/></g><!--reverse link NotificationSender to PushNotification--><g class="link" data-entity-1="NotificationSender" data-entity-2="PushNotification" data-source-line="67" data-uid="lnk10" id="link_NotificationSender_PushNotification"><path codeLine="67" d="M818,373.4388 C818,392.9988 818,396.1287 818,415.1387" fill="none" id="NotificationSender-backto-PushNotification" style="stroke:#F7DC6F;stroke-width:1;"/><polygon fill="none" points="818,355.4388,812,373.4388,824,373.4388,818,355.4388" style="stroke:#F7DC6F;stroke-width:1;"/></g><!--reverse link NotificationSender to SlackNotification--><g class="link" data-entity-1="NotificationSender" data-entity-2="SlackNotification" data-source-line="68" data-uid="lnk11" id="link_NotificationSender_SlackNotification"><path codeLine="68" d="M946.27,345.2188 C1045.48,345.2188 1120,345.2188 1120,345.2188 C1120,345.2188 1120,380.9788 1120,415.0488" fill="none" id="NotificationSender-backto-SlackNotification" style="stroke:#F7DC6F;stroke-width:1;"/><polygon fill="none" points="928.27,345.2188,946.27,351.2188,946.27,339.2188,928.27,345.2188" style="stroke:#F7DC6F;stroke-width:1;"/></g><!--link TemplateMethodDemo to NotificationSender--><g class="link" data-entity-1="TemplateMethodDemo" data-entity-2="NotificationSender" data-source-line="69" data-uid="lnk12" id="link_TemplateMethodDemo_NotificationSender"><path codeLine="69" d="M690,157.4488 C690,174.9688 690,190.5288 690,210.9588" fill="none" id="TemplateMethodDemo-to-NotificationSender" style="stroke:#F7DC6F;stroke-width:1;stroke-dasharray:7,7;"/><polygon fill="#F7DC6F" points="690,216.9588,694,207.9588,690,211.9588,686,207.9588,690,216.9588" style="stroke:#F7DC6F;stroke-width:1;"/><text fill="#000000" font-family="Verdana" font-size="13" lengthAdjust="spacing" textLength="29.7832" x="660" y="183.2756">uses</text></g><!--SRC=[rLLHRzem47xFhxYrBvGDjf2M8OJGW90tfafCsiCwJKvo95OT6zccLSNuxtE0C9E4h8zTB4LAxlDtzttdNDxf53E4DIEKE-gHyZMH98EGH8-951iUpmGJ4gxTURuiX4f9B9ufJs15c48hmYX7_R9645AdmWf4Z2WL2AwFdC5jlig0gP0noYFapf_uyru5KgwkDyjN6JRHMj9mez7AEVNcTq45kTGeKUH5DvN7XSPAQcz_bL5d6WP-V-2N45QU-I0O17TMd4WfdeiYFlkpVc2xYmdokEf0uBbUlufhBEI0gKfsDDKCeTt-Xfav6HfXWQQLCVYeQCBXdcXZ66-t7_XNeUcAHaHJmM7veZHcZaD2fIM9zC5Si35Ban0bZ4QJ0bFa68-BFiBM0NWFsnNbXEr0cIqsHKjYHDSKkHx2qdIO9nyWGwL8WiMBco4y2HeRcax7tAvXMvIqWoV2Q6poLMdChb08XeINzqGYMmk5YqEMriLiPvlokckJdC1C9AtYUUSu1xVc6Q7ipDRHQ2Pu9F7eKT_hUOEzHvsYi7XnNj5VuQzM-tg9pRfEEfQBPOCATsfqk6zVnVr6fV-ICVqFci7Cm6WwL1DtwlblNqSnB0xpoCTCv49OlcSl8yXNCJ-KDbAZ7PWFYhU8J5H1- -EdHLmtdNvtEjNly2AoTD8luifdwJ9XkLjEZUvkTrmtMOUmKQWS9__9WAH9ga6iQe33ONck6jD6uNZ24Y6fJZFZ5QxLw6CuDW6tMzFq6nFeTIyqEGzwtL9VyvUttSFSSqna_oiyrXeAhKMM5rjr7axPXoOTrwQXgdNrvQg1fDmKco8ZEahHC3myn5ltqww9fz8qcyYSCAdLTsDNwoh69nhXhyQQAdsj5wO8GxKICaABxGy0]--></g></svg>