<svg xmlns="http://www.w3.org/2000/svg" xmlns:xlink="http://www.w3.org/1999/xlink" contentStyleType="text/css" data-diagram-type="CLASS" height="625px" preserveAspectRatio="none" style="width:1467px;height:625px;background:#FEFEFE;" version="1.1" viewBox="0 0 1467 625" width="1467px" zoomAndPan="magnify"><title>&lt;b&gt;Payment Gateway - Class Diagram&lt;/b&gt;</title><defs><filter height="300%" id="f1qpfkqevqq6qc" width="300%" x="-1" y="-1"><feGaussianBlur result="blurOut" stdDeviation="2"/><feColorMatrix in="blurOut" result="blurOut2" type="matrix" values="0 0 0 0 0 0 0 0 0 0 0 0 0 0 0 0 0 0 .4 0"/><feOffset dx="4" dy="4" in="blurOut2" result="blurOut3"/><feBlend in="SourceGraphic" in2="blurOut3" mode="normal"/></filter></defs><g><rect fill="#FEFEFE" height="625" style="stroke:none;stroke-width:1;" width="1467" x="0" y="0"/><g class="title" data-source-line="54"><text fill="#000000" font-family="sans-serif" font-size="14" font-weight="bold" lengthAdjust="spacing" textLength="271.5303" x="591.2197" y="22.9951">Payment Gateway - Class Diagram</text></g><!--class PaymentRequest--><g class="entity" data-entity="PaymentRequest" data-source-line="57" data-uid="ent0002" id="entity_PaymentRequest"><rect fill="#AED6F1" filter="url(#f1qpfkqevqq6qc)" height="98.1719" rx="5" ry="5" style="stroke:#2E86AB;stroke-width:0.5;" width="117.2979" x="7" y="198.2969"/><rect fill="#2E86AB" height="35.6094" rx="5" ry="5" style="stroke:#2E86AB;stroke-width:0.5;" width="117.2979" x="7" y="198.2969"/><rect fill="#2E86AB" height="5" style="stroke:#2E86AB;stroke-width:0.5;" width="117.2979" x="7" y="228.9063"/><rect fill="none" height="98.1719" rx="5" ry="5" style="stroke:#2E86AB;stroke-width:0.5;" width="117.2979" x="7" y="198.2969"/><ellipse cx="22" cy="216.1016" fill="#E8F6F3" rx="11" ry="11" style="stroke:#1ABC9C;stroke-width:1;"/><path d="M24.9688,221.7422 Q24.3906,222.0391 23.75,222.1797 Q23.1094,222.3359 22.4063,222.3359 Q19.9063,222.3359 18.5781,220.6953 Q17.2656,219.0391 17.2656,215.9141 Q17.2656,212.7891 18.5781,211.1328 Q19.9063,209.4766 22.4063,209.4766 Q23.1094,209.4766 23.75,209.6328 Q24.4063,209.7891 24.9688,210.0859 L24.9688,212.8047 Q24.3438,212.2266 23.75,211.9609 Q23.1563,211.6797 22.5313,211.6797 Q21.1875,211.6797 20.5,212.7578 Q19.8125,213.8203 19.8125,215.9141 Q19.8125,218.0078 20.5,219.0859 Q21.1875,220.1484 22.5313,220.1484 Q23.1563,220.1484 23.75,219.8828 Q24.3438,219.6016 24.9688,219.0234 L24.9688,221.7422 Z " fill="#000000"/><text fill="#000000" font-family="sans-serif" font-size="12" font-style="italic" lengthAdjust="spacing" textLength="43.4648" x="56.9165" y="214.4355">&#171;Data&#187;</text><text fill="#000000" font-family="Arial" font-size="10" lengthAdjust="spacing" textLength="85.2979" x="36" y="226.5479">PaymentRequest</text><line style="stroke:#2E86AB;stroke-width:0.5;" x1="8" x2="123.2979" y1="233.9063" y2="233.9063"/><ellipse cx="18" cy="245.2266" fill="none" rx="3" ry="3" style="stroke:#038048;stroke-width:1;"/><text fill="#000000" font-family="sans-serif" font-size="10" lengthAdjust="spacing" textLength="73.8818" x="27" y="247.1885">sender : String</text><ellipse cx="18" cy="256.8672" fill="none" rx="3" ry="3" style="stroke:#038048;stroke-width:1;"/><text fill="#000000" font-family="sans-serif" font-size="10" lengthAdjust="spacing" textLength="80.4443" x="27" y="258.8291">receiver : String</text><ellipse cx="18" cy="268.5078" fill="none" rx="3" ry="3" style="stroke:#038048;stroke-width:1;"/><text fill="#000000" font-family="sans-serif" font-size="10" lengthAdjust="spacing" textLength="82.3926" x="27" y="270.4697">amount : double</text><ellipse cx="18" cy="280.1484" fill="none" rx="3" ry="3" style="stroke:#038048;stroke-width:1;"/><text fill="#000000" font-family="sans-serif" font-size="10" lengthAdjust="spacing" textLength="83.5352" x="27" y="282.1104">currency : String</text><line style="stroke:#2E86AB;stroke-width:0.5;" x1="8" x2="123.2979" y1="288.4688" y2="288.4688"/></g><!--class BankingSystem--><g class="entity" data-entity="BankingSystem" data-source-line="65" data-uid="ent0003" id="entity_BankingSystem"><rect fill="#D4EFDF" filter="url(#f1qpfkqevqq6qc)" height="63.25" rx="5" ry="5" style="stroke:#27AE60;stroke-width:0.5;" width="204.9697" x="1011" y="550.2969"/><rect fill="#27AE60" height="35.6094" rx="5" ry="5" style="stroke:#27AE60;stroke-width:0.5;" width="204.9697" x="1011" y="550.2969"/><rect fill="#27AE60" height="5" style="stroke:#27AE60;stroke-width:0.5;" width="204.9697" x="1011" y="580.9063"/><rect fill="none" height="63.25" rx="5" ry="5" style="stroke:#27AE60;stroke-width:0.5;" width="204.9697" x="1011" y="550.2969"/><ellipse cx="1070.2993" cy="568.1016" fill="#B4A7E5" rx="11" ry="11" style="stroke:#181818;stroke-width:1;"/><path d="M1066.2212,563.8672 L1066.2212,561.7109 L1073.6118,561.7109 L1073.6118,563.8672 L1071.1431,563.8672 L1071.1431,571.9453 L1073.6118,571.9453 L1073.6118,574.1016 L1066.2212,574.1016 L1066.2212,571.9453 L1068.6899,571.9453 L1068.6899,563.8672 L1066.2212,563.8672 Z " fill="#000000"/><text fill="#000000" font-family="sans-serif" font-size="12" font-style="italic" lengthAdjust="spacing" textLength="68.5371" x="1095.4663" y="566.4355">&#171;Interface&#187;</text><text fill="#000000" font-family="Arial" font-size="10" font-style="italic" lengthAdjust="spacing" textLength="77.8711" x="1090.7993" y="578.5479">BankingSystem</text><line style="stroke:#27AE60;stroke-width:0.5;" x1="1012" x2="1214.9697" y1="585.9063" y2="585.9063"/><line style="stroke:#27AE60;stroke-width:0.5;" x1="1012" x2="1214.9697" y1="593.9063" y2="593.9063"/><ellipse cx="1022" cy="605.2266" fill="#84BE84" rx="3" ry="3" style="stroke:#038048;stroke-width:1;"/><text fill="#000000" font-family="sans-serif" font-size="10" lengthAdjust="spacing" textLength="178.9697" x="1031" y="607.1885">processPayment(amount) : boolean</text></g><!--class PaytmBankingSystem--><g class="entity" data-entity="PaytmBankingSystem" data-source-line="69" data-uid="ent0004" id="entity_PaytmBankingSystem"><rect fill="#FFFFFF" filter="url(#f1qpfkqevqq6qc)" height="63.25" rx="5" ry="5" style="stroke:#E74C3C;stroke-width:0.5;" width="204.9697" x="1011" y="402.7969"/><rect fill="#E74C3C" height="35.6094" rx="5" ry="5" style="stroke:#E74C3C;stroke-width:0.5;" width="204.9697" x="1011" y="402.7969"/><rect fill="#E74C3C" height="5" style="stroke:#E74C3C;stroke-width:0.5;" width="204.9697" x="1011" y="433.4063"/><rect fill="none" height="63.25" rx="5" ry="5" style="stroke:#E74C3C;stroke-width:0.5;" width="204.9697" x="1011" y="402.7969"/><ellipse cx="1054.5122" cy="420.6016" fill="#E8F6F3" rx="11" ry="11" style="stroke:#1ABC9C;stroke-width:1;"/><path d="M1057.4809,426.2422 Q1056.9028,426.5391 1056.2622,426.6797 Q1055.6215,426.8359 1054.9184,426.8359 Q1052.4184,426.8359 1051.0903,425.1953 Q1049.7778,423.5391 1049.7778,420.4141 Q1049.7778,417.2891 1051.0903,415.6328 Q1052.4184,413.9766 1054.9184,413.9766 Q1055.6215,413.9766 1056.2622,414.1328 Q1056.9184,414.2891 1057.4809,414.5859 L1057.4809,417.3047 Q1056.8559,416.7266 1056.2622,416.4609 Q1055.6684,416.1797 1055.0434,416.1797 Q1053.6997,416.1797 1053.0122,417.2578 Q1052.3247,418.3203 1052.3247,420.4141 Q1052.3247,422.5078 1053.0122,423.5859 Q1053.6997,424.6484 1055.0434,424.6484 Q1055.6684,424.6484 1056.2622,424.3828 Q1056.8559,424.1016 1057.4809,423.5234 L1057.4809,426.2422 Z " fill="#000000"/><text fill="#000000" font-family="sans-serif" font-size="12" font-style="italic" lengthAdjust="spacing" textLength="69.1406" x="1095.0826" y="418.9355">&#171;Concrete&#187;</text><text fill="#000000" font-family="Arial" font-size="10" lengthAdjust="spacing" textLength="109.6094" x="1074.8482" y="431.0479">PaytmBankingSystem</text><line style="stroke:#E74C3C;stroke-width:0.5;" x1="1012" x2="1214.9697" y1="438.4063" y2="438.4063"/><line style="stroke:#E74C3C;stroke-width:0.5;" x1="1012" x2="1214.9697" y1="446.4063" y2="446.4063"/><ellipse cx="1022" cy="457.7266" fill="#84BE84" rx="3" ry="3" style="stroke:#038048;stroke-width:1;"/><text fill="#000000" font-family="sans-serif" font-size="10" lengthAdjust="spacing" textLength="178.9697" x="1031" y="459.6885">processPayment(amount) : boolean</text></g><!--class RazorpayBankingSystem--><g class="entity" data-entity="RazorpayBankingSystem" data-source-line="73" data-uid="ent0005" id="entity_RazorpayBankingSystem"><rect fill="#FFFFFF" filter="url(#f1qpfkqevqq6qc)" height="63.25" rx="5" ry="5" style="stroke:#E74C3C;stroke-width:0.5;" width="204.9697" x="1251" y="402.7969"/><rect fill="#E74C3C" height="35.6094" rx="5" ry="5" style="stroke:#E74C3C;stroke-width:0.5;" width="204.9697" x="1251" y="402.7969"/><rect fill="#E74C3C" height="5" style="stroke:#E74C3C;stroke-width:0.5;" width="204.9697" x="1251" y="433.4063"/><rect fill="none" height="63.25" rx="5" ry="5" style="stroke:#E74C3C;stroke-width:0.5;" width="204.9697" x="1251" y="402.7969"/><ellipse cx="1287.6677" cy="420.6016" fill="#E8F6F3" rx="11" ry="11" style="stroke:#1ABC9C;stroke-width:1;"/><path d="M1290.6364,426.2422 Q1290.0583,426.5391 1289.4177,426.6797 Q1288.7771,426.8359 1288.0739,426.8359 Q1285.5739,426.8359 1284.2458,425.1953 Q1282.9333,423.5391 1282.9333,420.4141 Q1282.9333,417.2891 1284.2458,415.6328 Q1285.5739,413.9766 1288.0739,413.9766 Q1288.7771,413.9766 1289.4177,414.1328 Q1290.0739,414.2891 1290.6364,414.5859 L1290.6364,417.3047 Q1290.0114,416.7266 1289.4177,416.4609 Q1288.8239,416.1797 1288.1989,416.1797 Q1286.8552,416.1797 1286.1677,417.2578 Q1285.4802,418.3203 1285.4802,420.4141 Q1285.4802,422.5078 1286.1677,423.5859 Q1286.8552,424.6484 1288.1989,424.6484 Q1288.8239,424.6484 1289.4177,424.3828 Q1290.0114,424.1016 1290.6364,423.5234 L1290.6364,426.2422 Z " fill="#000000"/><text fill="#000000" font-family="sans-serif" font-size="12" font-style="italic" lengthAdjust="spacing" textLength="69.1406" x="1334.3221" y="418.9355">&#171;Concrete&#187;</text><text fill="#000000" font-family="Arial" font-size="10" lengthAdjust="spacing" textLength="124.8193" x="1306.4827" y="431.0479">RazorpayBankingSystem</text><line style="stroke:#E74C3C;stroke-width:0.5;" x1="1252" x2="1454.9697" y1="438.4063" y2="438.4063"/><line style="stroke:#E74C3C;stroke-width:0.5;" x1="1252" x2="1454.9697" y1="446.4063" y2="446.4063"/><ellipse cx="1262" cy="457.7266" fill="#84BE84" rx="3" ry="3" style="stroke:#038048;stroke-width:1;"/><text fill="#000000" font-family="sans-serif" font-size="10" lengthAdjust="spacing" textLength="178.9697" x="1271" y="459.6885">processPayment(amount) : boolean</text></g><!--class PaymentGateway--><g class="entity" data-entity="PaymentGateway" data-source-line="78" data-uid="ent0006" id="entity_PaymentGateway"><rect fill="#FCF3CF" filter="url(#f1qpfkqevqq6qc)" height="109.8125" rx="5" ry="5" style="stroke:#F39C12;stroke-width:0.5;" width="206.1221" x="769.5" y="379.2969"/><rect fill="#F39C12" height="35.6094" rx="5" ry="5" style="stroke:#F39C12;stroke-width:0.5;" width="206.1221" x="769.5" y="379.2969"/><rect fill="#F39C12" height="5" style="stroke:#F39C12;stroke-width:0.5;" width="206.1221" x="769.5" y="409.9063"/><rect fill="none" height="109.8125" rx="5" ry="5" style="stroke:#F39C12;stroke-width:0.5;" width="206.1221" x="769.5" y="379.2969"/><ellipse cx="824.1094" cy="397.1016" fill="#A9DCDF" rx="11" ry="11" style="stroke:#181818;stroke-width:1;"/><path d="M824.2188,392.4453 L823.0625,397.5234 L825.3906,397.5234 L824.2188,392.4453 Z M822.7344,390.2109 L825.7188,390.2109 L829.0781,402.6016 L826.625,402.6016 L825.8594,399.5391 L822.5781,399.5391 L821.8281,402.6016 L819.3906,402.6016 L822.7344,390.2109 Z " fill="#000000"/><text fill="#000000" font-family="sans-serif" font-size="12" font-style="italic" lengthAdjust="spacing" textLength="65.1855" x="856.2183" y="395.4355">&#171;Abstract&#187;</text><text fill="#000000" font-family="Arial" font-size="10" font-style="italic" lengthAdjust="spacing" textLength="88.4033" x="844.6094" y="407.5479">PaymentGateway</text><line style="stroke:#F39C12;stroke-width:0.5;" x1="770.5" x2="974.6221" y1="414.9063" y2="414.9063"/><polygon fill="none" points="780.5,421.2266,784.5,425.2266,780.5,429.2266,776.5,425.2266" style="stroke:#B38D22;stroke-width:1;"/><text fill="#000000" font-family="sans-serif" font-size="10" lengthAdjust="spacing" textLength="164.9561" x="789.5" y="428.1885">bankingSystem : BankingSystem</text><line style="stroke:#F39C12;stroke-width:0.5;" x1="770.5" x2="974.6221" y1="434.5469" y2="434.5469"/><ellipse cx="780.5" cy="445.8672" fill="#84BE84" rx="3" ry="3" style="stroke:#038048;stroke-width:1;"/><text fill="#000000" font-family="sans-serif" font-size="10" lengthAdjust="spacing" textLength="178.6182" x="789.5" y="447.8291">processPayment(request) : boolean</text><polygon fill="#FFFF44" points="780.5,452.5078,784.5,456.5078,780.5,460.5078,776.5,456.5078" style="stroke:#B38D22;stroke-width:1;"/><text fill="#000000" font-family="sans-serif" font-size="10" font-style="italic" lengthAdjust="spacing" textLength="180.1221" x="789.5" y="459.4697">validatePayment(request) : boolean</text><polygon fill="#FFFF44" points="780.5,464.1484,784.5,468.1484,780.5,472.1484,776.5,468.1484" style="stroke:#B38D22;stroke-width:1;"/><text fill="#000000" font-family="sans-serif" font-size="10" font-style="italic" lengthAdjust="spacing" textLength="174.7656" x="789.5" y="471.1104">initiatePayment(request) : boolean</text><polygon fill="#FFFF44" points="780.5,475.7891,784.5,479.7891,780.5,483.7891,776.5,479.7891" style="stroke:#B38D22;stroke-width:1;"/><text fill="#000000" font-family="sans-serif" font-size="10" font-style="italic" lengthAdjust="spacing" textLength="178.0762" x="789.5" y="482.751">confirmPayment(request) : boolean</text></g><!--class PaytmGateway--><g class="entity" data-entity="PaytmGateway" data-source-line="86" data-uid="ent0007" id="entity_PaytmGateway"><rect fill="#FFFFFF" filter="url(#f1qpfkqevqq6qc)" height="86.5313" rx="5" ry="5" style="stroke:#E74C3C;stroke-width:0.5;" width="206.1221" x="649.5" y="203.7969"/><rect fill="#E74C3C" height="35.6094" rx="5" ry="5" style="stroke:#E74C3C;stroke-width:0.5;" width="206.1221" x="649.5" y="203.7969"/><rect fill="#E74C3C" height="5" style="stroke:#E74C3C;stroke-width:0.5;" width="206.1221" x="649.5" y="234.4063"/><rect fill="none" height="86.5313" rx="5" ry="5" style="stroke:#E74C3C;stroke-width:0.5;" width="206.1221" x="649.5" y="203.7969"/><ellipse cx="710.3545" cy="221.6016" fill="#E8F6F3" rx="11" ry="11" style="stroke:#1ABC9C;stroke-width:1;"/><path d="M713.3232,227.2422 Q712.7451,227.5391 712.1045,227.6797 Q711.4639,227.8359 710.7607,227.8359 Q708.2607,227.8359 706.9326,226.1953 Q705.6201,224.5391 705.6201,221.4141 Q705.6201,218.2891 706.9326,216.6328 Q708.2607,214.9766 710.7607,214.9766 Q711.4639,214.9766 712.1045,215.1328 Q712.7607,215.2891 713.3232,215.5859 L713.3232,218.3047 Q712.6982,217.7266 712.1045,217.4609 Q711.5107,217.1797 710.8857,217.1797 Q709.542,217.1797 708.8545,218.2578 Q708.167,219.3203 708.167,221.4141 Q708.167,223.5078 708.8545,224.5859 Q709.542,225.6484 710.8857,225.6484 Q711.5107,225.6484 712.1045,225.3828 Q712.6982,225.1016 713.3232,224.5234 L713.3232,227.2422 Z " fill="#000000"/><text fill="#000000" font-family="sans-serif" font-size="12" font-style="italic" lengthAdjust="spacing" textLength="69.1406" x="734.2407" y="219.9355">&#171;Concrete&#187;</text><text fill="#000000" font-family="Arial" font-size="10" lengthAdjust="spacing" textLength="75.9131" x="730.8545" y="232.0479">PaytmGateway</text><line style="stroke:#E74C3C;stroke-width:0.5;" x1="650.5" x2="854.6221" y1="239.4063" y2="239.4063"/><line style="stroke:#E74C3C;stroke-width:0.5;" x1="650.5" x2="854.6221" y1="247.4063" y2="247.4063"/><polygon fill="#FFFF44" points="660.5,253.7266,664.5,257.7266,660.5,261.7266,656.5,257.7266" style="stroke:#B38D22;stroke-width:1;"/><text fill="#000000" font-family="sans-serif" font-size="10" lengthAdjust="spacing" textLength="180.1221" x="669.5" y="260.6885">validatePayment(request) : boolean</text><polygon fill="#FFFF44" points="660.5,265.3672,664.5,269.3672,660.5,273.3672,656.5,269.3672" style="stroke:#B38D22;stroke-width:1;"/><text fill="#000000" font-family="sans-serif" font-size="10" lengthAdjust="spacing" textLength="174.7656" x="669.5" y="272.3291">initiatePayment(request) : boolean</text><polygon fill="#FFFF44" points="660.5,277.0078,664.5,281.0078,660.5,285.0078,656.5,281.0078" style="stroke:#B38D22;stroke-width:1;"/><text fill="#000000" font-family="sans-serif" font-size="10" lengthAdjust="spacing" textLength="178.0762" x="669.5" y="283.9697">confirmPayment(request) : boolean</text></g><!--class RazorpayGateway--><g class="entity" data-entity="RazorpayGateway" data-source-line="92" data-uid="ent0008" id="entity_RazorpayGateway"><rect fill="#FFFFFF" filter="url(#f1qpfkqevqq6qc)" height="86.5313" rx="5" ry="5" style="stroke:#E74C3C;stroke-width:0.5;" width="206.1221" x="890.5" y="203.7969"/><rect fill="#E74C3C" height="35.6094" rx="5" ry="5" style="stroke:#E74C3C;stroke-width:0.5;" width="206.1221" x="890.5" y="203.7969"/><rect fill="#E74C3C" height="5" style="stroke:#E74C3C;stroke-width:0.5;" width="206.1221" x="890.5" y="234.4063"/><rect fill="none" height="86.5313" rx="5" ry="5" style="stroke:#E74C3C;stroke-width:0.5;" width="206.1221" x="890.5" y="203.7969"/><ellipse cx="943.7495" cy="221.6016" fill="#E8F6F3" rx="11" ry="11" style="stroke:#1ABC9C;stroke-width:1;"/><path d="M946.7183,227.2422 Q946.1401,227.5391 945.4995,227.6797 Q944.8589,227.8359 944.1558,227.8359 Q941.6558,227.8359 940.3276,226.1953 Q939.0151,224.5391 939.0151,221.4141 Q939.0151,218.2891 940.3276,216.6328 Q941.6558,214.9766 944.1558,214.9766 Q944.8589,214.9766 945.4995,215.1328 Q946.1558,215.2891 946.7183,215.5859 L946.7183,218.3047 Q946.0933,217.7266 945.4995,217.4609 Q944.9058,217.1797 944.2808,217.1797 Q942.937,217.1797 942.2495,218.2578 Q941.562,219.3203 941.562,221.4141 Q941.562,223.5078 942.2495,224.5859 Q942.937,225.6484 944.2808,225.6484 Q944.9058,225.6484 945.4995,225.3828 Q946.0933,225.1016 946.7183,224.5234 L946.7183,227.2422 Z " fill="#000000"/><text fill="#000000" font-family="sans-serif" font-size="12" font-style="italic" lengthAdjust="spacing" textLength="69.1406" x="975.2407" y="219.9355">&#171;Concrete&#187;</text><text fill="#000000" font-family="Arial" font-size="10" lengthAdjust="spacing" textLength="91.123" x="964.2495" y="232.0479">RazorpayGateway</text><line style="stroke:#E74C3C;stroke-width:0.5;" x1="891.5" x2="1095.6221" y1="239.4063" y2="239.4063"/><line style="stroke:#E74C3C;stroke-width:0.5;" x1="891.5" x2="1095.6221" y1="247.4063" y2="247.4063"/><polygon fill="#FFFF44" points="901.5,253.7266,905.5,257.7266,901.5,261.7266,897.5,257.7266" style="stroke:#B38D22;stroke-width:1;"/><text fill="#000000" font-family="sans-serif" font-size="10" lengthAdjust="spacing" textLength="180.1221" x="910.5" y="260.6885">validatePayment(request) : boolean</text><polygon fill="#FFFF44" points="901.5,265.3672,905.5,269.3672,901.5,273.3672,897.5,269.3672" style="stroke:#B38D22;stroke-width:1;"/><text fill="#000000" font-family="sans-serif" font-size="10" lengthAdjust="spacing" textLength="174.7656" x="910.5" y="272.3291">initiatePayment(request) : boolean</text><polygon fill="#FFFF44" points="901.5,277.0078,905.5,281.0078,901.5,285.0078,897.5,281.0078" style="stroke:#B38D22;stroke-width:1;"/><text fill="#000000" font-family="sans-serif" font-size="10" lengthAdjust="spacing" textLength="178.0762" x="910.5" y="283.9697">confirmPayment(request) : boolean</text></g><!--class PaymentGatewayProxy--><g class="entity" data-entity="PaymentGatewayProxy" data-source-line="99" data-uid="ent0009" id="entity_PaymentGatewayProxy"><rect fill="#FFFFFF" filter="url(#f1qpfkqevqq6qc)" height="86.5313" rx="5" ry="5" style="stroke:#E74C3C;stroke-width:0.5;" width="204.6182" x="1132" y="203.7969"/><rect fill="#E74C3C" height="35.6094" rx="5" ry="5" style="stroke:#E74C3C;stroke-width:0.5;" width="204.6182" x="1132" y="203.7969"/><rect fill="#E74C3C" height="5" style="stroke:#E74C3C;stroke-width:0.5;" width="204.6182" x="1132" y="234.4063"/><rect fill="none" height="86.5313" rx="5" ry="5" style="stroke:#E74C3C;stroke-width:0.5;" width="204.6182" x="1132" y="203.7969"/><ellipse cx="1172.2536" cy="221.6016" fill="#E8F6F3" rx="11" ry="11" style="stroke:#1ABC9C;stroke-width:1;"/><path d="M1175.2224,227.2422 Q1174.6442,227.5391 1174.0036,227.6797 Q1173.363,227.8359 1172.6599,227.8359 Q1170.1599,227.8359 1168.8317,226.1953 Q1167.5192,224.5391 1167.5192,221.4141 Q1167.5192,218.2891 1168.8317,216.6328 Q1170.1599,214.9766 1172.6599,214.9766 Q1173.363,214.9766 1174.0036,215.1328 Q1174.6599,215.2891 1175.2224,215.5859 L1175.2224,218.3047 Q1174.5974,217.7266 1174.0036,217.4609 Q1173.4099,217.1797 1172.7849,217.1797 Q1171.4411,217.1797 1170.7536,218.2578 Q1170.0661,219.3203 1170.0661,221.4141 Q1170.0661,223.5078 1170.7536,224.5859 Q1171.4411,225.6484 1172.7849,225.6484 Q1173.4099,225.6484 1174.0036,225.3828 Q1174.5974,225.1016 1175.2224,224.5234 L1175.2224,227.2422 Z " fill="#000000"/><text fill="#000000" font-family="sans-serif" font-size="12" font-style="italic" lengthAdjust="spacing" textLength="69.1406" x="1215.5447" y="219.9355">&#171;Concrete&#187;</text><text fill="#000000" font-family="Arial" font-size="10" lengthAdjust="spacing" textLength="116.499" x="1191.8655" y="232.0479">PaymentGatewayProxy</text><line style="stroke:#E74C3C;stroke-width:0.5;" x1="1133" x2="1335.6182" y1="239.4063" y2="239.4063"/><rect fill="none" height="6" style="stroke:#C82930;stroke-width:1;" width="6" x="1140" y="247.7266"/><text fill="#000000" font-family="sans-serif" font-size="10" lengthAdjust="spacing" textLength="161.4746" x="1152" y="252.6885">realGateway : PaymentGateway</text><rect fill="none" height="6" style="stroke:#C82930;stroke-width:1;" width="6" x="1140" y="259.3672"/><text fill="#000000" font-family="sans-serif" font-size="10" lengthAdjust="spacing" textLength="55.2002" x="1152" y="264.3291">retries : int</text><line style="stroke:#E74C3C;stroke-width:0.5;" x1="1133" x2="1335.6182" y1="270.6875" y2="270.6875"/><ellipse cx="1143" cy="282.0078" fill="#84BE84" rx="3" ry="3" style="stroke:#038048;stroke-width:1;"/><text fill="#000000" font-family="sans-serif" font-size="10" lengthAdjust="spacing" textLength="178.6182" x="1152" y="283.9697">processPayment(request) : boolean</text></g><!--class GatewayType--><g class="entity" data-entity="GatewayType" data-source-line="106" data-uid="ent0010" id="entity_GatewayType"><rect fill="#FDEBD0" filter="url(#f1qpfkqevqq6qc)" height="74.8906" rx="5" ry="5" style="stroke:#D35400;stroke-width:0.5;" width="100.7012" x="216" y="396.7969"/><rect fill="#D35400" height="35.6094" rx="5" ry="5" style="stroke:#D35400;stroke-width:0.5;" width="100.7012" x="216" y="396.7969"/><rect fill="#D35400" height="5" style="stroke:#D35400;stroke-width:0.5;" width="100.7012" x="216" y="427.4063"/><rect fill="none" height="74.8906" rx="5" ry="5" style="stroke:#D35400;stroke-width:0.5;" width="100.7012" x="216" y="396.7969"/><ellipse cx="231" cy="414.6016" fill="#EB937F" rx="11" ry="11" style="stroke:#181818;stroke-width:1;"/><path d="M235.1094,420.6016 L227.3906,420.6016 L227.3906,408.2109 L235.1094,408.2109 L235.1094,410.3672 L229.8438,410.3672 L229.8438,413.0391 L234.6094,413.0391 L234.6094,415.1953 L229.8438,415.1953 L229.8438,418.4453 L235.1094,418.4453 L235.1094,420.6016 Z " fill="#000000"/><text fill="#000000" font-family="sans-serif" font-size="12" font-style="italic" lengthAdjust="spacing" textLength="49.2949" x="254.7031" y="412.9355">&#171;Enum&#187;</text><text fill="#000000" font-family="Arial" font-size="10" lengthAdjust="spacing" textLength="68.7012" x="245" y="425.0479">GatewayType</text><line style="stroke:#D35400;stroke-width:0.5;" x1="217" x2="315.7012" y1="432.4063" y2="432.4063"/><text fill="#000000" font-family="sans-serif" font-size="10" lengthAdjust="spacing" textLength="33.7158" x="222" y="445.6885">PAYTM</text><text fill="#000000" font-family="sans-serif" font-size="10" lengthAdjust="spacing" textLength="54.4385" x="222" y="457.3291">RAZORPAY</text><line style="stroke:#D35400;stroke-width:0.5;" x1="217" x2="315.7012" y1="463.6875" y2="463.6875"/></g><!--class GatewayFactory--><g class="entity" data-entity="GatewayFactory" data-source-line="112" data-uid="ent0011" id="entity_GatewayFactory"><rect fill="#E8DAEF" filter="url(#f1qpfkqevqq6qc)" height="86.5313" rx="5" ry="5" style="stroke:#8E44AD;stroke-width:0.5;" width="214.8672" x="159" y="203.7969"/><rect fill="#FFFFFF" height="35.6094" rx="5" ry="5" style="stroke:#FFFFFF;stroke-width:0.5;" width="214.8672" x="159" y="203.7969"/><rect fill="#FFFFFF" height="5" style="stroke:#FFFFFF;stroke-width:0.5;" width="214.8672" x="159" y="234.4063"/><rect fill="none" height="86.5313" rx="5" ry="5" style="stroke:#8E44AD;stroke-width:0.5;" width="214.8672" x="159" y="203.7969"/><ellipse cx="221.373" cy="221.6016" fill="#E8F6F3" rx="11" ry="11" style="stroke:#1ABC9C;stroke-width:1;"/><path d="M224.3418,227.2422 Q223.7637,227.5391 223.123,227.6797 Q222.4824,227.8359 221.7793,227.8359 Q219.2793,227.8359 217.9512,226.1953 Q216.6387,224.5391 216.6387,221.4141 Q216.6387,218.2891 217.9512,216.6328 Q219.2793,214.9766 221.7793,214.9766 Q222.4824,214.9766 223.123,215.1328 Q223.7793,215.2891 224.3418,215.5859 L224.3418,218.3047 Q223.7168,217.7266 223.123,217.4609 Q222.5293,217.1797 221.9043,217.1797 Q220.5605,217.1797 219.873,218.2578 Q219.1855,219.3203 219.1855,221.4141 Q219.1855,223.5078 219.873,224.5859 Q220.5605,225.6484 221.9043,225.6484 Q222.5293,225.6484 223.123,225.3828 Q223.7168,225.1016 224.3418,224.5234 L224.3418,227.2422 Z " fill="#000000"/><text fill="#000000" font-family="sans-serif" font-size="12" font-style="italic" lengthAdjust="spacing" textLength="71.3555" x="247.0059" y="219.9355">&#171;Singleton&#187;</text><text fill="#000000" font-family="Arial" font-size="10" lengthAdjust="spacing" textLength="81.6211" x="241.873" y="232.0479">GatewayFactory</text><line style="stroke:#8E44AD;stroke-width:0.5;" x1="160" x2="372.8672" y1="239.4063" y2="239.4063"/><rect fill="none" height="6" style="stroke:#C82930;stroke-width:1;" width="6" x="167" y="247.7266"/><text fill="#000000" font-family="sans-serif" font-size="10" lengthAdjust="spacing" text-decoration="underline" textLength="133.7109" x="179" y="252.6885">instance : GatewayFactory</text><line style="stroke:#8E44AD;stroke-width:0.5;" x1="160" x2="372.8672" y1="259.0469" y2="259.0469"/><ellipse cx="170" cy="270.3672" fill="#84BE84" rx="3" ry="3" style="stroke:#038048;stroke-width:1;"/><text fill="#000000" font-family="sans-serif" font-size="10" lengthAdjust="spacing" text-decoration="underline" textLength="158.1055" x="179" y="272.3291">getInstance() : GatewayFactory</text><ellipse cx="170" cy="282.0078" fill="#84BE84" rx="3" ry="3" style="stroke:#038048;stroke-width:1;"/><text fill="#000000" font-family="sans-serif" font-size="10" lengthAdjust="spacing" textLength="188.8672" x="179" y="283.9697">getGateway(type) : PaymentGateway</text></g><!--class PaymentService--><g class="entity" data-entity="PaymentService" data-source-line="118" data-uid="ent0012" id="entity_PaymentService"><rect fill="#E8DAEF" filter="url(#f1qpfkqevqq6qc)" height="109.8125" rx="5" ry="5" style="stroke:#8E44AD;stroke-width:0.5;" width="204.6182" x="409" y="192.2969"/><rect fill="#FFFFFF" height="35.6094" rx="5" ry="5" style="stroke:#FFFFFF;stroke-width:0.5;" width="204.6182" x="409" y="192.2969"/><rect fill="#FFFFFF" height="5" style="stroke:#FFFFFF;stroke-width:0.5;" width="204.6182" x="409" y="222.9063"/><rect fill="none" height="109.8125" rx="5" ry="5" style="stroke:#8E44AD;stroke-width:0.5;" width="204.6182" x="409" y="192.2969"/><ellipse cx="466.4658" cy="210.1016" fill="#E8F6F3" rx="11" ry="11" style="stroke:#1ABC9C;stroke-width:1;"/><path d="M469.4346,215.7422 Q468.8564,216.0391 468.2158,216.1797 Q467.5752,216.3359 466.8721,216.3359 Q464.3721,216.3359 463.0439,214.6953 Q461.7314,213.0391 461.7314,209.9141 Q461.7314,206.7891 463.0439,205.1328 Q464.3721,203.4766 466.8721,203.4766 Q467.5752,203.4766 468.2158,203.6328 Q468.8721,203.7891 469.4346,204.0859 L469.4346,206.8047 Q468.8096,206.2266 468.2158,205.9609 Q467.6221,205.6797 466.9971,205.6797 Q465.6533,205.6797 464.9658,206.7578 Q464.2783,207.8203 464.2783,209.9141 Q464.2783,212.0078 464.9658,213.0859 Q465.6533,214.1484 466.9971,214.1484 Q467.6221,214.1484 468.2158,213.8828 Q468.8096,213.6016 469.4346,213.0234 L469.4346,215.7422 Z " fill="#000000"/><text fill="#000000" font-family="sans-serif" font-size="12" font-style="italic" lengthAdjust="spacing" textLength="71.3555" x="491.8813" y="208.4355">&#171;Singleton&#187;</text><text fill="#000000" font-family="Arial" font-size="10" lengthAdjust="spacing" textLength="81.1865" x="486.9658" y="220.5479">PaymentService</text><line style="stroke:#8E44AD;stroke-width:0.5;" x1="410" x2="612.6182" y1="227.9063" y2="227.9063"/><rect fill="none" height="6" style="stroke:#C82930;stroke-width:1;" width="6" x="417" y="236.2266"/><text fill="#000000" font-family="sans-serif" font-size="10" lengthAdjust="spacing" text-decoration="underline" textLength="133.2764" x="429" y="241.1885">instance : PaymentService</text><rect fill="none" height="6" style="stroke:#C82930;stroke-width:1;" width="6" x="417" y="247.8672"/><text fill="#000000" font-family="sans-serif" font-size="10" lengthAdjust="spacing" textLength="140.9033" x="429" y="252.8291">gateway : PaymentGateway</text><line style="stroke:#8E44AD;stroke-width:0.5;" x1="410" x2="612.6182" y1="259.1875" y2="259.1875"/><ellipse cx="420" cy="270.5078" fill="#84BE84" rx="3" ry="3" style="stroke:#038048;stroke-width:1;"/><text fill="#000000" font-family="sans-serif" font-size="10" lengthAdjust="spacing" text-decoration="underline" textLength="157.6709" x="429" y="272.4697">getInstance() : PaymentService</text><ellipse cx="420" cy="282.1484" fill="#84BE84" rx="3" ry="3" style="stroke:#038048;stroke-width:1;"/><text fill="#000000" font-family="sans-serif" font-size="10" lengthAdjust="spacing" textLength="104.4971" x="429" y="284.1104">setGateway(g) : void</text><ellipse cx="420" cy="293.7891" fill="#84BE84" rx="3" ry="3" style="stroke:#038048;stroke-width:1;"/><text fill="#000000" font-family="sans-serif" font-size="10" lengthAdjust="spacing" textLength="178.6182" x="429" y="295.751">processPayment(request) : boolean</text></g><!--class PaymentController--><g class="entity" data-entity="PaymentController" data-source-line="126" data-uid="ent0013" id="entity_PaymentController"><rect fill="#E8DAEF" filter="url(#f1qpfkqevqq6qc)" height="86.5313" rx="5" ry="5" style="stroke:#8E44AD;stroke-width:0.5;" width="207.1279" x="163" y="44.2969"/><rect fill="#FFFFFF" height="35.6094" rx="5" ry="5" style="stroke:#FFFFFF;stroke-width:0.5;" width="207.1279" x="163" y="44.2969"/><rect fill="#FFFFFF" height="5" style="stroke:#FFFFFF;stroke-width:0.5;" width="207.1279" x="163" y="74.9063"/><rect fill="none" height="86.5313" rx="5" ry="5" style="stroke:#8E44AD;stroke-width:0.5;" width="207.1279" x="163" y="44.2969"/><ellipse cx="215.4951" cy="62.1016" fill="#E8F6F3" rx="11" ry="11" style="stroke:#1ABC9C;stroke-width:1;"/><path d="M218.4639,67.7422 Q217.8857,68.0391 217.2451,68.1797 Q216.6045,68.3359 215.9014,68.3359 Q213.4014,68.3359 212.0732,66.6953 Q210.7607,65.0391 210.7607,61.9141 Q210.7607,58.7891 212.0732,57.1328 Q213.4014,55.4766 215.9014,55.4766 Q216.6045,55.4766 217.2451,55.6328 Q217.9014,55.7891 218.4639,56.0859 L218.4639,58.8047 Q217.8389,58.2266 217.2451,57.9609 Q216.6514,57.6797 216.0264,57.6797 Q214.6826,57.6797 213.9951,58.7578 Q213.3076,59.8203 213.3076,61.9141 Q213.3076,64.0078 213.9951,65.0859 Q214.6826,66.1484 216.0264,66.1484 Q216.6514,66.1484 217.2451,65.8828 Q217.8389,65.6016 218.4639,65.0234 L218.4639,67.7422 Z " fill="#000000"/><text fill="#000000" font-family="sans-serif" font-size="12" font-style="italic" lengthAdjust="spacing" textLength="71.3555" x="247.1362" y="60.4355">&#171;Singleton&#187;</text><text fill="#000000" font-family="Arial" font-size="10" lengthAdjust="spacing" textLength="93.6377" x="235.9951" y="72.5479">PaymentController</text><line style="stroke:#8E44AD;stroke-width:0.5;" x1="164" x2="369.1279" y1="79.9063" y2="79.9063"/><rect fill="none" height="6" style="stroke:#C82930;stroke-width:1;" width="6" x="171" y="88.2266"/><text fill="#000000" font-family="sans-serif" font-size="10" lengthAdjust="spacing" text-decoration="underline" textLength="145.7275" x="183" y="93.1885">instance : PaymentController</text><line style="stroke:#8E44AD;stroke-width:0.5;" x1="164" x2="369.1279" y1="99.5469" y2="99.5469"/><ellipse cx="174" cy="110.8672" fill="#84BE84" rx="3" ry="3" style="stroke:#038048;stroke-width:1;"/><text fill="#000000" font-family="sans-serif" font-size="10" lengthAdjust="spacing" text-decoration="underline" textLength="170.1221" x="183" y="112.8291">getInstance() : PaymentController</text><ellipse cx="174" cy="122.5078" fill="#84BE84" rx="3" ry="3" style="stroke:#038048;stroke-width:1;"/><text fill="#000000" font-family="sans-serif" font-size="10" lengthAdjust="spacing" textLength="181.1279" x="183" y="124.4697">handlePayment(type, req) : boolean</text></g><!--link PaytmBankingSystem to BankingSystem--><g class="link" data-entity-1="PaytmBankingSystem" data-entity-2="BankingSystem" data-source-line="133" data-uid="lnk14" id="link_PaytmBankingSystem_BankingSystem"><path codeLine="133" d="M1113.5,465.7969 C1113.5,490.4669 1113.5,507.0469 1113.5,531.8369" fill="none" id="PaytmBankingSystem-to-BankingSystem" style="stroke:#181818;stroke-width:1;stroke-dasharray:7,7;"/><polygon fill="none" points="1113.5,549.8369,1119.5,531.8369,1107.5,531.8369,1113.5,549.8369" style="stroke:#181818;stroke-width:1;"/></g><!--link RazorpayBankingSystem to BankingSystem--><g class="link" data-entity-1="RazorpayBankingSystem" data-entity-2="BankingSystem" data-source-line="134" data-uid="lnk15" id="link_RazorpayBankingSystem_BankingSystem"><path codeLine="134" d="M1303.19,465.7969 C1262.36,490.5469 1220.4609,515.943 1179.5509,540.753" fill="none" id="RazorpayBankingSystem-to-BankingSystem" style="stroke:#181818;stroke-width:1;stroke-dasharray:7,7;"/><polygon fill="none" points="1164.16,550.0869,1182.6622,545.8833,1176.4396,535.6227,1164.16,550.0869" style="stroke:#181818;stroke-width:1;"/></g><!--link PaymentGateway to BankingSystem--><g class="link" data-entity-1="PaymentGateway" data-entity-2="BankingSystem" data-source-line="136" data-uid="lnk16" id="link_PaymentGateway_BankingSystem"><path codeLine="136" d="M972.5131,495.6788 C1006.5031,516.1988 1028.5831,529.5364 1057.7431,547.1364" fill="none" id="PaymentGateway-BankingSystem" style="stroke:#181818;stroke-width:1;"/><polygon fill="none" points="962.24,489.4769,965.3092,496.0022,972.5131,495.6788,969.4438,489.1535,962.24,489.4769" style="stroke:#181818;stroke-width:1;"/><polygon fill="#181818" points="1062.88,550.2369,1057.2417,542.1617,1058.5993,547.6532,1053.1078,549.0108,1062.88,550.2369" style="stroke:#181818;stroke-width:1;"/></g><!--link PaytmGateway to PaymentGateway--><g class="link" data-entity-1="PaytmGateway" data-entity-2="PaymentGateway" data-source-line="138" data-uid="lnk17" id="link_PaytmGateway_PaymentGateway"><path codeLine="138" d="M780.33,291.2069 C797.3,317.3569 809.3329,335.9166 827.4929,363.9066" fill="none" id="PaytmGateway-to-PaymentGateway" style="stroke:#181818;stroke-width:1;"/><polygon fill="none" points="837.29,379.0069,832.5263,360.6409,822.4595,367.1723,837.29,379.0069" style="stroke:#181818;stroke-width:1;"/></g><!--link RazorpayGateway to PaymentGateway--><g class="link" data-entity-1="RazorpayGateway" data-entity-2="PaymentGateway" data-source-line="139" data-uid="lnk18" id="link_RazorpayGateway_PaymentGateway"><path codeLine="139" d="M965.44,291.2069 C948.33,317.3569 936.1738,335.9536 917.8638,363.9436" fill="none" id="RazorpayGateway-to-PaymentGateway" style="stroke:#181818;stroke-width:1;"/><polygon fill="none" points="908.01,379.0069,922.8849,367.2282,912.8427,360.659,908.01,379.0069" style="stroke:#181818;stroke-width:1;"/></g><!--link PaymentGatewayProxy to PaymentGateway--><g class="link" data-entity-1="PaymentGatewayProxy" data-entity-2="PaymentGateway" data-source-line="140" data-uid="lnk19" id="link_PaymentGatewayProxy_PaymentGateway"><path codeLine="140" d="M1151,290.9769 C1098.79,317.6469 1047.1987,344.0165 991.6587,372.3965" fill="none" id="PaymentGatewayProxy-to-PaymentGateway" style="stroke:#181818;stroke-width:1;"/><polygon fill="none" points="975.63,380.5869,994.3888,377.7394,988.9285,367.0536,975.63,380.5869" style="stroke:#181818;stroke-width:1;"/></g><!--link PaymentGatewayProxy to PaymentGateway--><g class="link" data-entity-1="PaymentGatewayProxy" data-entity-2="PaymentGateway" data-source-line="142" data-uid="lnk20" id="link_PaymentGatewayProxy_PaymentGateway"><path codeLine="142" d="M1166.6203,297.698 C1138.3203,317.208 1113.09,332.7969 1079.5,349.2969 C1043.17,367.1469 1031.13,364.3669 993.5,379.2969 C987.62,381.6269 987.1487,381.7798 981.0987,384.2998" fill="none" id="PaymentGatewayProxy-PaymentGateway" style="stroke:#181818;stroke-width:1;"/><polygon fill="none" points="1176.5,290.8869,1169.2898,290.9992,1166.6203,297.698,1173.8305,297.5857,1176.5,290.8869" style="stroke:#181818;stroke-width:1;"/><polygon fill="#181818" points="975.56,386.6069,985.4061,386.8388,980.1756,384.6843,982.3301,379.4538,975.56,386.6069" style="stroke:#181818;stroke-width:1;"/><text fill="#000000" font-family="sans-serif" font-size="13" lengthAdjust="spacing" textLength="38.9683" x="1111.5" y="345.3638">wraps</text></g><!--link GatewayFactory to PaymentGateway--><g class="link" data-entity-1="GatewayFactory" data-entity-2="PaymentGateway" data-source-line="144" data-uid="lnk21" id="link_GatewayFactory_PaymentGateway"><path codeLine="144" d="M361.15,290.8469 C371.32,294.9169 381.57,298.8169 391.5,302.2969 C519.54,347.1369 665.285,384.7793 763.565,408.3193" fill="none" id="GatewayFactory-to-PaymentGateway" style="stroke:#181818;stroke-width:1;stroke-dasharray:7,7;"/><polygon fill="#181818" points="769.4,409.7169,761.5793,403.7305,764.5375,408.5522,759.7158,411.5105,769.4,409.7169" style="stroke:#181818;stroke-width:1;"/><text fill="#000000" font-family="sans-serif" font-size="13" lengthAdjust="spacing" textLength="48.3247" x="535.5" y="345.3638">creates</text></g><!--link GatewayFactory to GatewayType--><g class="link" data-entity-1="GatewayFactory" data-entity-2="GatewayType" data-source-line="145" data-uid="lnk22" id="link_GatewayFactory_GatewayType"><path codeLine="145" d="M266.5,291.2069 C266.5,323.1169 266.5,360.2169 266.5,390.5569" fill="none" id="GatewayFactory-to-GatewayType" style="stroke:#181818;stroke-width:1;stroke-dasharray:7,7;"/><polygon fill="#181818" points="266.5,396.5569,270.5,387.5569,266.5,391.5569,262.5,387.5569,266.5,396.5569" style="stroke:#181818;stroke-width:1;"/></g><!--link PaymentService to PaymentGateway--><g class="link" data-entity-1="PaymentService" data-entity-2="PaymentGateway" data-source-line="147" data-uid="lnk23" id="link_PaymentService_PaymentGateway"><path codeLine="147" d="M625.1398,306.5387 C673.6998,331.4187 715.4801,352.831 764.0601,377.721" fill="none" id="PaymentService-PaymentGateway" style="stroke:#181818;stroke-width:1;"/><polygon fill="none" points="614.46,301.0669,617.976,307.3628,625.1398,306.5387,621.6239,300.2429,614.46,301.0669" style="stroke:#181818;stroke-width:1;"/><polygon fill="#181818" points="769.4,380.4569,763.2141,372.7931,764.9501,378.1769,759.5662,379.913,769.4,380.4569" style="stroke:#181818;stroke-width:1;"/></g><!--link PaymentController to GatewayFactory--><g class="link" data-entity-1="PaymentController" data-entity-2="GatewayFactory" data-source-line="149" data-uid="lnk24" id="link_PaymentController_GatewayFactory"><path codeLine="149" d="M266.5,131.4169 C266.5,153.8269 266.5,175.2269 266.5,197.6369" fill="none" id="PaymentController-to-GatewayFactory" style="stroke:#181818;stroke-width:1;stroke-dasharray:7,7;"/><polygon fill="#181818" points="266.5,203.6369,270.5,194.6369,266.5,198.6369,262.5,194.6369,266.5,203.6369" style="stroke:#181818;stroke-width:1;"/></g><!--link PaymentController to PaymentService--><g class="link" data-entity-1="PaymentController" data-entity-2="PaymentService" data-source-line="150" data-uid="lnk25" id="link_PaymentController_PaymentService"><path codeLine="150" d="M332.8,131.4169 C361.85,150.0969 391.2435,168.9814 422.0935,188.8214" fill="none" id="PaymentController-to-PaymentService" style="stroke:#181818;stroke-width:1;stroke-dasharray:7,7;"/><polygon fill="#181818" points="427.14,192.0669,421.7339,183.8344,422.9346,189.3623,417.4066,190.563,427.14,192.0669" style="stroke:#181818;stroke-width:1;"/></g><!--link PaymentController to PaymentRequest--><g class="link" data-entity-1="PaymentController" data-entity-2="PaymentRequest" data-source-line="151" data-uid="lnk26" id="link_PaymentController_PaymentRequest"><path codeLine="151" d="M212.11,131.4169 C184.9,152.7369 156.6628,174.8662 128.8928,196.6262" fill="none" id="PaymentController-to-PaymentRequest" style="stroke:#181818;stroke-width:1;stroke-dasharray:7,7;"/><polygon fill="#181818" points="124.17,200.3269,133.7213,197.9244,128.1057,197.243,128.7871,191.6273,124.17,200.3269" style="stroke:#181818;stroke-width:1;"/></g><!--SRC=[pLPDRzf04BtxLwoKGnArf2JGXA08oVYZpI5j1BcqjyLCp2hsBbqlIKcQ_zwnlJR6NYoGUcYG8ZFxPjwRdG-JF36-f9B6P4Q3fr2A5Pyx8XAI7FbU-h6I4f4iw5oyC1uI9LTGESYy0Y4vI7BUjIedGKIJXBnP1FzymTKt6WEn9QDHQPgoLo3d5zbtMod9PYi5cuEkzLuDc2YG8DHw2JggCwxhzWR-fT_JXqBEGUg3StliN3jfl6EIczG2OaZgUczkNAheQAGP6WIsvrxwv_bPDVw5DxYqnvdzAr2qDpmhY3J3t3gE4BQTfPPnop7RHnh0RYrkt_DTtw3bolOkkwrQSeI9rvubIj90xQRr7R_d66ZzthMZQxc3LYDCj8xWWGJLagrlksDtSD7azQxwJizfuzK84-yKMpe29VXkOc_WsfuXtu7Nxzjk6-_TxdmzlefRSdMziTjjKhgzp_rkQsKr0YaLKn6GczdedgvZu8fyeGfUw9fqY9DDfijeY8fkFir6wLIaVP-VMFdaQhy9_5f1eaXjCZuam5406P8fpYqFSwE40DXpmqnZbAZGE1UhMGIvCLX92JnORx3PTE8p2WtNoAzm1BZ5Yad0U-9uZ-5qZPiW9gOP-R2K8e0aqTfFSk9Jf9W94G7bAKUPdehh4HjjU4302NqLSadN_oRcCNc0U1dXLP0xK0inB- -3wWabMsKggckOuAFPbgBXzZqQ9Scyw5LDMQItWloTFDE8pP7q01V6cMA7kGI2Fp8PjtXi5tHp3OrhFzfNyRuo3z1MzCP_9- -Ot4lnUpDiffxA4GR97GaqAb8QrhmA18us97YAOxnlgsMwqWrf0Vuh5jT3-kAlRSvx-yV3NVOqiNz-d-1NlKIAjLuiCnt3nwOICasckVWxRucYYWLfd-8JnuKphFdb2PIu4DIjXfwSxW0ZHfjFqbykfyrxgZPmQf-2V6O1xAznso_7XMrLsPs18HGk-ZA3CCKy2pO_e99RkM4BAIcY2DyGXwQtSTqlXpf-GVayAeSchSL7WeeRVJS1NBeCEsV1bebbU4kSdVqPrLQeUVKRW5PjMujEnmJPxB5E1sFKIbXV9YQCQO9DE2CmKrLJEYGlakA5MBL9EZipG75Du7DYmbQ6kIGlEjx0Ms8gdLC9KuoQ6LJhvbQG_fdp5m00]--></g></svg>