<svg xmlns="http://www.w3.org/2000/svg" xmlns:xlink="http://www.w3.org/1999/xlink" contentStyleType="text/css" data-diagram-type="CLASS" height="739px" preserveAspectRatio="none" style="width:433px;height:739px;background:#F8F8FF;" version="1.1" viewBox="0 0 433 739" width="433px" zoomAndPan="magnify"><title>Fan State Pattern</title><defs/><g><rect fill="#F8F8FF" height="739" style="stroke:none;stroke-width:1;" width="433" x="0" y="0"/><g class="title" data-source-line="10"><text fill="#000000" font-family="sans-serif" font-size="14" font-weight="bold" lengthAdjust="spacing" textLength="140.5947" x="139.2226" y="22.9951">Fan State Pattern</text></g><!--class FanState--><g class="entity" data-entity="FanState" data-source-line="12" data-uid="ent0002" id="entity_FanState"><rect fill="#FFF0E0" height="72.5625" rx="2.5" ry="2.5" style="stroke:#444444;stroke-width:0.5;" width="183.165" x="188.43" y="226.2969"/><ellipse cx="243.5965" cy="246.4297" fill="#B4A7E5" rx="11" ry="11" style="stroke:#181818;stroke-width:1;"/><path d="M239.5184,242.1953 L239.5184,240.0391 L246.909,240.0391 L246.909,242.1953 L244.4403,242.1953 L244.4403,250.2734 L246.909,250.2734 L246.909,252.4297 L239.5184,252.4297 L239.5184,250.2734 L241.9871,250.2734 L241.9871,242.1953 L239.5184,242.1953 Z " fill="#000000"/><text fill="#000000" font-family="sans-serif" font-size="12" font-style="italic" lengthAdjust="spacing" textLength="68.332" x="262.0965" y="242.4355">&#171;interface&#187;</text><text fill="#000000" font-family="sans-serif" font-size="14" font-style="italic" lengthAdjust="spacing" textLength="62.5625" x="264.9813" y="258.2607">FanState</text><line style="stroke:#444444;stroke-width:0.5;" x1="189.43" x2="370.595" y1="266.5625" y2="266.5625"/><line style="stroke:#444444;stroke-width:0.5;" x1="189.43" x2="370.595" y1="274.5625" y2="274.5625"/><ellipse cx="199.43" cy="288.2109" fill="#84BE84" rx="3" ry="3" style="stroke:#038048;stroke-width:1;"/><text fill="#000000" font-family="sans-serif" font-size="14" lengthAdjust="spacing" textLength="157.165" x="208.43" y="291.5576">pressButton(fan : Fan)</text></g><!--class Fan--><g class="entity" data-entity="Fan" data-source-line="16" data-uid="ent0003" id="entity_Fan"><rect fill="#E0F0FF" height="105.1563" rx="2.5" ry="2.5" style="stroke:#444444;stroke-width:0.5;" width="207.0225" x="176.43" y="44.2969"/><ellipse cx="247.5653" cy="64.4297" fill="#ADD1B2" rx="11" ry="11" style="stroke:#181818;stroke-width:1;"/><path d="M250.534,70.0703 Q249.9559,70.3672 249.3153,70.5078 Q248.6746,70.6641 247.9715,70.6641 Q245.4715,70.6641 244.1434,69.0234 Q242.8309,67.3672 242.8309,64.2422 Q242.8309,61.1172 244.1434,59.4609 Q245.4715,57.8047 247.9715,57.8047 Q248.6746,57.8047 249.3153,57.9609 Q249.9715,58.1172 250.534,58.4141 L250.534,61.1328 Q249.909,60.5547 249.3153,60.2891 Q248.7215,60.0078 248.0965,60.0078 Q246.7528,60.0078 246.0653,61.0859 Q245.3778,62.1484 245.3778,64.2422 Q245.3778,66.3359 246.0653,67.4141 Q246.7528,68.4766 248.0965,68.4766 Q248.7215,68.4766 249.3153,68.2109 Q249.909,67.9297 250.534,67.3516 L250.534,70.0703 Z " fill="#000000"/><text fill="#000000" font-family="sans-serif" font-size="12" font-style="italic" lengthAdjust="spacing" textLength="60.252" x="266.0653" y="60.4355">&#171;context&#187;</text><text fill="#000000" font-family="sans-serif" font-size="14" lengthAdjust="spacing" textLength="25.5049" x="283.4388" y="76.2607">Fan</text><line style="stroke:#444444;stroke-width:0.5;" x1="177.43" x2="382.4525" y1="84.5625" y2="84.5625"/><rect fill="none" height="6" style="stroke:#C82930;stroke-width:1;" width="6" x="184.43" y="95.2109"/><text fill="#000000" font-family="sans-serif" font-size="14" lengthAdjust="spacing" textLength="111.6445" x="196.43" y="101.5576">state : FanState</text><line style="stroke:#444444;stroke-width:0.5;" x1="177.43" x2="382.4525" y1="108.8594" y2="108.8594"/><ellipse cx="187.43" cy="122.5078" fill="#84BE84" rx="3" ry="3" style="stroke:#038048;stroke-width:1;"/><text fill="#000000" font-family="sans-serif" font-size="14" lengthAdjust="spacing" textLength="181.0225" x="196.43" y="125.8545">setState(state : FanState)</text><ellipse cx="187.43" cy="138.8047" fill="#84BE84" rx="3" ry="3" style="stroke:#038048;stroke-width:1;"/><text fill="#000000" font-family="sans-serif" font-size="14" lengthAdjust="spacing" textLength="95.6621" x="196.43" y="142.1514">pressButton()</text></g><!--class OffState--><g class="entity" data-entity="OffState" data-source-line="22" data-uid="ent0004" id="entity_OffState"><rect fill="#E0FFE0" height="72.5625" rx="2.5" ry="2.5" style="stroke:#444444;stroke-width:0.5;" width="183.165" x="43.43" y="360.2969"/><ellipse cx="101.7952" cy="380.4297" fill="#ADD1B2" rx="11" ry="11" style="stroke:#181818;stroke-width:1;"/><path d="M104.764,386.0703 Q104.1859,386.3672 103.5452,386.5078 Q102.9046,386.6641 102.2015,386.6641 Q99.7015,386.6641 98.3734,385.0234 Q97.0609,383.3672 97.0609,380.2422 Q97.0609,377.1172 98.3734,375.4609 Q99.7015,373.8047 102.2015,373.8047 Q102.9046,373.8047 103.5452,373.9609 Q104.2015,374.1172 104.764,374.4141 L104.764,377.1328 Q104.139,376.5547 103.5452,376.2891 Q102.9515,376.0078 102.3265,376.0078 Q100.9827,376.0078 100.2952,377.0859 Q99.6077,378.1484 99.6077,380.2422 Q99.6077,382.3359 100.2952,383.4141 Q100.9827,384.4766 102.3265,384.4766 Q102.9515,384.4766 103.5452,384.2109 Q104.139,383.9297 104.764,383.3516 L104.764,386.0703 Z " fill="#000000"/><text fill="#000000" font-family="sans-serif" font-size="12" font-style="italic" lengthAdjust="spacing" textLength="45.2109" x="128.6571" y="376.4355">&#171;state&#187;</text><text fill="#000000" font-family="sans-serif" font-size="14" lengthAdjust="spacing" textLength="57.9346" x="122.2952" y="392.2607">OffState</text><line style="stroke:#444444;stroke-width:0.5;" x1="44.43" x2="225.595" y1="400.5625" y2="400.5625"/><line style="stroke:#444444;stroke-width:0.5;" x1="44.43" x2="225.595" y1="408.5625" y2="408.5625"/><ellipse cx="54.43" cy="422.2109" fill="#84BE84" rx="3" ry="3" style="stroke:#038048;stroke-width:1;"/><text fill="#000000" font-family="sans-serif" font-size="14" lengthAdjust="spacing" textLength="157.165" x="63.43" y="425.5576">pressButton(fan : Fan)</text></g><!--class LowSpeedState--><g class="entity" data-entity="LowSpeedState" data-source-line="26" data-uid="ent0005" id="entity_LowSpeedState"><rect fill="#E0FFE0" height="72.5625" rx="2.5" ry="2.5" style="stroke:#444444;stroke-width:0.5;" width="183.165" x="151.43" y="510.2969"/><ellipse cx="185.5124" cy="530.4297" fill="#ADD1B2" rx="11" ry="11" style="stroke:#181818;stroke-width:1;"/><path d="M188.4811,536.0703 Q187.903,536.3672 187.2624,536.5078 Q186.6217,536.6641 185.9186,536.6641 Q183.4186,536.6641 182.0905,535.0234 Q180.778,533.3672 180.778,530.2422 Q180.778,527.1172 182.0905,525.4609 Q183.4186,523.8047 185.9186,523.8047 Q186.6217,523.8047 187.2624,523.9609 Q187.9186,524.1172 188.4811,524.4141 L188.4811,527.1328 Q187.8561,526.5547 187.2624,526.2891 Q186.6686,526.0078 186.0436,526.0078 Q184.6999,526.0078 184.0124,527.0859 Q183.3249,528.1484 183.3249,530.2422 Q183.3249,532.3359 184.0124,533.4141 Q184.6999,534.4766 186.0436,534.4766 Q186.6686,534.4766 187.2624,534.2109 Q187.8561,533.9297 188.4811,533.3516 L188.4811,536.0703 Z " fill="#000000"/><text fill="#000000" font-family="sans-serif" font-size="12" font-style="italic" lengthAdjust="spacing" textLength="45.2109" x="235.5273" y="526.4355">&#171;state&#187;</text><text fill="#000000" font-family="sans-serif" font-size="14" lengthAdjust="spacing" textLength="108.7598" x="203.7529" y="542.2607">LowSpeedState</text><line style="stroke:#444444;stroke-width:0.5;" x1="152.43" x2="333.595" y1="550.5625" y2="550.5625"/><line style="stroke:#444444;stroke-width:0.5;" x1="152.43" x2="333.595" y1="558.5625" y2="558.5625"/><ellipse cx="162.43" cy="572.2109" fill="#84BE84" rx="3" ry="3" style="stroke:#038048;stroke-width:1;"/><text fill="#000000" font-family="sans-serif" font-size="14" lengthAdjust="spacing" textLength="157.165" x="171.43" y="575.5576">pressButton(fan : Fan)</text></g><!--class HighSpeedState--><g class="entity" data-entity="HighSpeedState" data-source-line="30" data-uid="ent0006" id="entity_HighSpeedState"><rect fill="#E0FFE0" height="72.5625" rx="2.5" ry="2.5" style="stroke:#444444;stroke-width:0.5;" width="183.165" x="151.43" y="660.2969"/><ellipse cx="183.5498" cy="680.4297" fill="#ADD1B2" rx="11" ry="11" style="stroke:#181818;stroke-width:1;"/><path d="M186.5185,686.0703 Q185.9404,686.3672 185.2998,686.5078 Q184.6592,686.6641 183.956,686.6641 Q181.456,686.6641 180.1279,685.0234 Q178.8154,683.3672 178.8154,680.2422 Q178.8154,677.1172 180.1279,675.4609 Q181.456,673.8047 183.956,673.8047 Q184.6592,673.8047 185.2998,673.9609 Q185.956,674.1172 186.5185,674.4141 L186.5185,677.1328 Q185.8935,676.5547 185.2998,676.2891 Q184.706,676.0078 184.081,676.0078 Q182.7373,676.0078 182.0498,677.0859 Q181.3623,678.1484 181.3623,680.2422 Q181.3623,682.3359 182.0498,683.4141 Q182.7373,684.4766 184.081,684.4766 Q184.706,684.4766 185.2998,684.2109 Q185.8935,683.9297 186.5185,683.3516 L186.5185,686.0703 Z " fill="#000000"/><text fill="#000000" font-family="sans-serif" font-size="12" font-style="italic" lengthAdjust="spacing" textLength="45.2109" x="235.3092" y="676.4355">&#171;state&#187;</text><text fill="#000000" font-family="sans-serif" font-size="14" lengthAdjust="spacing" textLength="113.1211" x="201.3542" y="692.2607">HighSpeedState</text><line style="stroke:#444444;stroke-width:0.5;" x1="152.43" x2="333.595" y1="700.5625" y2="700.5625"/><line style="stroke:#444444;stroke-width:0.5;" x1="152.43" x2="333.595" y1="708.5625" y2="708.5625"/><ellipse cx="162.43" cy="722.2109" fill="#84BE84" rx="3" ry="3" style="stroke:#038048;stroke-width:1;"/><text fill="#000000" font-family="sans-serif" font-size="14" lengthAdjust="spacing" textLength="157.165" x="171.43" y="725.5576">pressButton(fan : Fan)</text></g><!--link Fan to FanState--><g class="link" data-entity-1="Fan" data-entity-2="FanState" data-source-line="34" data-uid="lnk7" id="link_Fan_FanState"><path codeLine="34" d="M279.93,161.6869 C279.93,186.5569 279.93,197.7169 279.93,220.0569" fill="none" id="Fan-FanState" style="stroke:#444444;stroke-width:1;"/><polygon fill="none" points="279.93,149.6869,275.93,155.6869,279.93,161.6869,283.93,155.6869,279.93,149.6869" style="stroke:#444444;stroke-width:1;"/><polygon fill="#444444" points="279.93,226.0569,283.93,217.0569,279.93,221.0569,275.93,217.0569,279.93,226.0569" style="stroke:#444444;stroke-width:1;"/><text fill="#000000" font-family="sans-serif" font-size="13" lengthAdjust="spacing" textLength="34.8296" x="280.93" y="192.3638">holds</text></g><!--reverse link FanState to OffState--><g class="link" data-entity-1="FanState" data-entity-2="OffState" data-source-line="35" data-uid="lnk8" id="link_FanState_OffState"><path codeLine="35" d="M227.3786,311.6333 C206.6586,330.4933 194.63,341.4469 173.95,360.2769" fill="none" id="FanState-backto-OffState" style="stroke:#444444;stroke-width:1;stroke-dasharray:7,7;"/><polygon fill="none" points="240.69,299.5169,223.3398,307.1962,231.4174,316.0704,240.69,299.5169" style="stroke:#444444;stroke-width:1;"/></g><!--reverse link FanState to LowSpeedState--><g class="link" data-entity-1="FanState" data-entity-2="LowSpeedState" data-source-line="36" data-uid="lnk9" id="link_FanState_LowSpeedState"><path codeLine="36" d="M276.3788,317.5619 C273.3288,360.6419 268.33,417.1069 257.93,480.2969 C256.32,490.0769 254.12,500.5869 251.91,510.2569" fill="none" id="FanState-backto-LowSpeedState" style="stroke:#444444;stroke-width:1;stroke-dasharray:7,7;"/><polygon fill="none" points="277.65,299.6069,270.3938,317.1382,282.3638,317.9857,277.65,299.6069" style="stroke:#444444;stroke-width:1;"/></g><!--reverse link FanState to HighSpeedState--><g class="link" data-entity-1="FanState" data-entity-2="HighSpeedState" data-source-line="37" data-uid="lnk10" id="link_FanState_HighSpeedState"><path codeLine="37" d="M313.3588,314.7903 C356.1388,383.5503 426.04,521.8269 361.93,630.2969 C354.91,642.1769 344.88,652.0469 333.59,660.1969" fill="none" id="FanState-backto-HighSpeedState" style="stroke:#444444;stroke-width:1;stroke-dasharray:7,7;"/><polygon fill="none" points="303.85,299.5069,308.2643,317.9599,318.4533,311.6207,303.85,299.5069" style="stroke:#444444;stroke-width:1;"/></g><!--link OffState to LowSpeedState--><g class="link" data-entity-1="OffState" data-entity-2="LowSpeedState" data-source-line="39" data-uid="lnk11" id="link_OffState_LowSpeedState"><path codeLine="39" d="M131.76,433.6469 C132.02,448.9869 134.59,466.5069 142.93,480.2969 C149.96,491.9269 155.1757,498.2498 166.1357,506.6398" fill="none" id="OffState-to-LowSpeedState" style="stroke:#444444;stroke-width:1;"/><polygon fill="#444444" points="170.9,510.2869,166.185,501.64,166.9298,507.2476,161.3221,507.9924,170.9,510.2869" style="stroke:#444444;stroke-width:1;"/><text fill="#000000" font-family="sans-serif" font-size="13" lengthAdjust="spacing" textLength="109.1543" x="143.93" y="476.3638">on pressButton()</text></g><!--link LowSpeedState to HighSpeedState--><g class="link" data-entity-1="LowSpeedState" data-entity-2="HighSpeedState" data-source-line="40" data-uid="lnk12" id="link_LowSpeedState_HighSpeedState"><path codeLine="40" d="M242.93,583.6269 C242.93,606.8069 242.93,630.8769 242.93,654.0469" fill="none" id="LowSpeedState-to-HighSpeedState" style="stroke:#444444;stroke-width:1;"/><polygon fill="#444444" points="242.93,660.0469,246.93,651.0469,242.93,655.0469,238.93,651.0469,242.93,660.0469" style="stroke:#444444;stroke-width:1;"/><text fill="#000000" font-family="sans-serif" font-size="13" lengthAdjust="spacing" textLength="109.1543" x="243.93" y="626.3638">on pressButton()</text></g><!--link HighSpeedState to OffState--><g class="link" data-entity-1="HighSpeedState" data-entity-2="OffState" data-source-line="41" data-uid="lnk13" id="link_HighSpeedState_OffState"><path codeLine="41" d="M151.33,673.6069 C104.23,657.0469 50.97,629.1269 22.93,583.2969 C6,555.6169 10.54,540.2869 22.93,510.2969 C35.55,479.7269 56.3555,456.9557 79.7755,437.2857" fill="none" id="HighSpeedState-to-OffState" style="stroke:#444444;stroke-width:1;"/><polygon fill="#444444" points="84.37,433.4269,74.9057,436.1521,80.5413,436.6426,80.0508,442.2781,84.37,433.4269" style="stroke:#444444;stroke-width:1;"/><text fill="#000000" font-family="sans-serif" font-size="13" lengthAdjust="spacing" textLength="109.1543" x="23.93" y="551.3638">on pressButton()</text></g><!--SRC=[dP3FQi904CRl-nI3NfGIoQ674YHG1UcXq89Fi4rsD9ZkXDqL2stVlVl7H7VDeRWvPUOtttppwKCZEwxu9tpmwh1JT9JrcbfICCKd-o7J0r6rN6luPc3VAgQNIssu4MK9Kv4ZYdmSgaWQyMNEc0N7iSPI2ddbzH0nx_L8rKATxJtwv-lFIj4fBlyoPXhJ2jXm2Lld3TwviRAIiK7UDKCltXbEVEYKq7frD8Ra3ArCuVYvamv9EEdhcy9OvfC8i1SFObeO_pTBs_FRPLSxtX1xXtt2_tJtIgTj9qHzv_XBizlVD-zYeImhB-aMCDbJM-i9kmJ-irWCnoNbo7dIYsqnDkJZ5iOd5q0IubXZm8qaPuxC98GR6fRUudy0]--></g></svg>