<svg xmlns="http://www.w3.org/2000/svg" xmlns:xlink="http://www.w3.org/1999/xlink" contentStyleType="text/css" data-diagram-type="CLASS" height="1033px" preserveAspectRatio="none" style="width:2807px;height:1033px;background:#FFFFFF;" version="1.1" viewBox="0 0 2807 1033" width="2807px" zoomAndPan="magnify"><defs/><g><!--cluster librarymanagementsystem--><g class="cluster" data-entity="librarymanagementsystem" data-source-line="2" data-uid="ent0004" id="cluster_librarymanagementsystem"><path d="M8.5,6 L221.7764,6 A3.75,3.75 0 0 1 224.2764,8.5 L231.2764,28.2969 L2797.5,28.2969 A2.5,2.5 0 0 1 2800,30.7969 L2800,1023.92 A2.5,2.5 0 0 1 2797.5,1026.42 L8.5,1026.42 A2.5,2.5 0 0 1 6,1023.92 L6,8.5 A2.5,2.5 0 0 1 8.5,6" fill="none" style="stroke:#000000;stroke-width:1.5;"/><line style="stroke:#000000;stroke-width:1.5;" x1="6" x2="231.2764" y1="28.2969" y2="28.2969"/><text fill="#000000" font-family="sans-serif" font-size="14" font-weight="bold" lengthAdjust="spacing" textLength="212.2764" x="10" y="20.9951">librarymanagementsystem</text></g><!--cluster models--><g class="cluster" data-entity="models" data-source-line="1" data-uid="ent0002" id="cluster_models"><path d="M572.5,49 L630.3545,49 A3.75,3.75 0 0 1 632.8545,51.5 L639.8545,71.2969 L1163.5,71.2969 A2.5,2.5 0 0 1 1166,73.7969 L1166,720.03 A2.5,2.5 0 0 1 1163.5,722.53 L572.5,722.53 A2.5,2.5 0 0 1 570,720.03 L570,51.5 A2.5,2.5 0 0 1 572.5,49" fill="none" style="stroke:#000000;stroke-width:1.5;"/><line style="stroke:#000000;stroke-width:1.5;" x1="570" x2="639.8545" y1="71.2969" y2="71.2969"/><text fill="#000000" font-family="sans-serif" font-size="14" font-weight="bold" lengthAdjust="spacing" textLength="56.8545" x="574" y="63.9951">models</text></g><!--cluster state--><g class="cluster" data-entity="state" data-source-line="42" data-uid="ent0009" id="cluster_state"><path d="M537.5,746.53 L579.1602,746.53 A3.75,3.75 0 0 1 581.6602,749.03 L588.6602,768.8269 L1043.5,768.8269 A2.5,2.5 0 0 1 1046,771.3269 L1046,999.92 A2.5,2.5 0 0 1 1043.5,1002.42 L537.5,1002.42 A2.5,2.5 0 0 1 535,999.92 L535,749.03 A2.5,2.5 0 0 1 537.5,746.53" fill="none" style="stroke:#000000;stroke-width:1.5;"/><line style="stroke:#000000;stroke-width:1.5;" x1="535" x2="588.6602" y1="768.8269" y2="768.8269"/><text fill="#000000" font-family="sans-serif" font-size="14" font-weight="bold" lengthAdjust="spacing" textLength="40.6602" x="539" y="761.5251">state</text></g><!--cluster strategy--><g class="cluster" data-entity="strategy" data-source-line="53" data-uid="ent0014" id="cluster_strategy"><path d="M32.5,179.37 L100.2119,179.37 A3.75,3.75 0 0 1 102.7119,181.87 L109.7119,201.6669 L543.5,201.6669 A2.5,2.5 0 0 1 546,204.1669 L546,546.84 A2.5,2.5 0 0 1 543.5,549.34 L32.5,549.34 A2.5,2.5 0 0 1 30,546.84 L30,181.87 A2.5,2.5 0 0 1 32.5,179.37" fill="none" style="stroke:#000000;stroke-width:1.5;"/><line style="stroke:#000000;stroke-width:1.5;" x1="30" x2="109.7119" y1="201.6669" y2="201.6669"/><text fill="#000000" font-family="sans-serif" font-size="14" font-weight="bold" lengthAdjust="spacing" textLength="66.7119" x="34" y="194.3651">strategy</text></g><!--cluster enums--><g class="cluster" data-entity="enums" data-source-line="66" data-uid="ent0022" id="cluster_enums"><path d="M1192.5,171.22 L1245.8496,171.22 A3.75,3.75 0 0 1 1248.3496,173.72 L1255.3496,193.5169 L1317.5,193.5169 A2.5,2.5 0 0 1 1320,196.0169 L1320,300.32 A2.5,2.5 0 0 1 1317.5,302.82 L1192.5,302.82 A2.5,2.5 0 0 1 1190,300.32 L1190,173.72 A2.5,2.5 0 0 1 1192.5,171.22" fill="none" style="stroke:#000000;stroke-width:1.5;"/><line style="stroke:#000000;stroke-width:1.5;" x1="1190" x2="1255.3496" y1="193.5169" y2="193.5169"/><text fill="#000000" font-family="sans-serif" font-size="14" font-weight="bold" lengthAdjust="spacing" textLength="52.3496" x="1194" y="186.2151">enums</text></g><!--cluster factory--><g class="cluster" data-entity="factory" data-source-line="73" data-uid="ent0024" id="cluster_factory"><path d="M1346.5,179.37 L1403.6777,179.37 A3.75,3.75 0 0 1 1406.1777,181.87 L1413.1777,201.6669 L2003.5,201.6669 A2.5,2.5 0 0 1 2006,204.1669 L2006,292.17 A2.5,2.5 0 0 1 2003.5,294.67 L1346.5,294.67 A2.5,2.5 0 0 1 1344,292.17 L1344,181.87 A2.5,2.5 0 0 1 1346.5,179.37" fill="none" style="stroke:#000000;stroke-width:1.5;"/><line style="stroke:#000000;stroke-width:1.5;" x1="1344" x2="1413.1777" y1="201.6669" y2="201.6669"/><text fill="#000000" font-family="sans-serif" font-size="14" font-weight="bold" lengthAdjust="spacing" textLength="56.1777" x="1348" y="194.3651">factory</text></g><!--cluster service--><g class="cluster" data-entity="service" data-source-line="78" data-uid="ent0026" id="cluster_service"><path d="M2032.5,81.59 L2089.9512,81.59 A3.75,3.75 0 0 1 2092.4512,84.09 L2099.4512,103.8869 L2773.5,103.8869 A2.5,2.5 0 0 1 2776,106.3869 L2776,389.95 A2.5,2.5 0 0 1 2773.5,392.45 L2032.5,392.45 A2.5,2.5 0 0 1 2030,389.95 L2030,84.09 A2.5,2.5 0 0 1 2032.5,81.59" fill="none" style="stroke:#000000;stroke-width:1.5;"/><line style="stroke:#000000;stroke-width:1.5;" x1="2030" x2="2099.4512" y1="103.8869" y2="103.8869"/><text fill="#000000" font-family="sans-serif" font-size="14" font-weight="bold" lengthAdjust="spacing" textLength="56.4512" x="2034" y="96.5851">service</text></g><!--class Book--><g class="entity" data-entity="Book" data-source-line="2" data-uid="ent0003" id="entity_Book"><rect fill="#F1F1F1" height="64.2969" rx="2.5" ry="2.5" style="stroke:#181818;stroke-width:0.5;" width="118.3672" x="858.82" y="477.19"/><ellipse cx="897.006" cy="493.19" fill="#ADD1B2" rx="11" ry="11" style="stroke:#181818;stroke-width:1;"/><path d="M899.9747,498.8306 Q899.3966,499.1275 898.756,499.2681 Q898.1154,499.4244 897.4122,499.4244 Q894.9122,499.4244 893.5841,497.7838 Q892.2716,496.1275 892.2716,493.0025 Q892.2716,489.8775 893.5841,488.2213 Q894.9122,486.565 897.4122,486.565 Q898.1154,486.565 898.756,486.7213 Q899.4122,486.8775 899.9747,487.1744 L899.9747,489.8931 Q899.3497,489.315 898.756,489.0494 Q898.1622,488.7681 897.5372,488.7681 Q896.1935,488.7681 895.506,489.8463 Q894.8185,490.9088 894.8185,493.0025 Q894.8185,495.0963 895.506,496.1744 Q896.1935,497.2369 897.5372,497.2369 Q898.1622,497.2369 898.756,496.9713 Q899.3497,496.69 899.9747,496.1119 L899.9747,498.8306 Z " fill="#000000"/><text fill="#000000" font-family="sans-serif" font-size="14" lengthAdjust="spacing" textLength="34.8428" x="916.1584" y="498.0367">Book</text><line style="stroke:#181818;stroke-width:0.5;" x1="859.82" x2="976.1872" y1="509.19" y2="509.19"/><rect fill="none" height="6" style="stroke:#C82930;stroke-width:1;" width="6" x="866.82" y="519.8384"/><text fill="#000000" font-family="sans-serif" font-size="14" lengthAdjust="spacing" textLength="92.3672" x="878.82" y="526.1851">String author</text><line style="stroke:#181818;stroke-width:0.5;" x1="859.82" x2="976.1872" y1="533.4869" y2="533.4869"/></g><!--class Magazine--><g class="entity" data-entity="Magazine" data-source-line="6" data-uid="ent0005" id="entity_Magazine"><rect fill="#F1F1F1" height="64.2969" rx="2.5" ry="2.5" style="stroke:#181818;stroke-width:0.5;" width="137.1934" x="1012.4" y="477.19"/><ellipse cx="1044.6551" cy="493.19" fill="#ADD1B2" rx="11" ry="11" style="stroke:#181818;stroke-width:1;"/><path d="M1047.6239,498.8306 Q1047.0458,499.1275 1046.4051,499.2681 Q1045.7645,499.4244 1045.0614,499.4244 Q1042.5614,499.4244 1041.2333,497.7838 Q1039.9208,496.1275 1039.9208,493.0025 Q1039.9208,489.8775 1041.2333,488.2213 Q1042.5614,486.565 1045.0614,486.565 Q1045.7645,486.565 1046.4051,486.7213 Q1047.0614,486.8775 1047.6239,487.1744 L1047.6239,489.8931 Q1046.9989,489.315 1046.4051,489.0494 Q1045.8114,488.7681 1045.1864,488.7681 Q1043.8426,488.7681 1043.1551,489.8463 Q1042.4676,490.9088 1042.4676,493.0025 Q1042.4676,495.0963 1043.1551,496.1744 Q1043.8426,497.2369 1045.1864,497.2369 Q1045.8114,497.2369 1046.4051,496.9713 Q1046.9989,496.69 1047.6239,496.1119 L1047.6239,498.8306 Z " fill="#000000"/><text fill="#000000" font-family="sans-serif" font-size="14" lengthAdjust="spacing" textLength="66.8486" x="1062.4896" y="498.0367">Magazine</text><line style="stroke:#181818;stroke-width:0.5;" x1="1013.4" x2="1148.5934" y1="509.19" y2="509.19"/><rect fill="none" height="6" style="stroke:#C82930;stroke-width:1;" width="6" x="1020.4" y="519.8384"/><text fill="#000000" font-family="sans-serif" font-size="14" lengthAdjust="spacing" textLength="111.1934" x="1032.4" y="526.1851">String publisher</text><line style="stroke:#181818;stroke-width:0.5;" x1="1013.4" x2="1148.5934" y1="533.4869" y2="533.4869"/></g><!--class BookCopy--><g class="entity" data-entity="BookCopy" data-source-line="9" data-uid="ent0006" id="entity_BookCopy"><rect fill="#F1F1F1" height="96.8906" rx="2.5" ry="2.5" style="stroke:#181818;stroke-width:0.5;" width="134.8418" x="729.58" y="609.64"/><ellipse cx="759.1988" cy="625.64" fill="#ADD1B2" rx="11" ry="11" style="stroke:#181818;stroke-width:1;"/><path d="M762.1676,631.2806 Q761.5895,631.5775 760.9488,631.7181 Q760.3082,631.8744 759.6051,631.8744 Q757.1051,631.8744 755.777,630.2338 Q754.4645,628.5775 754.4645,625.4525 Q754.4645,622.3275 755.777,620.6713 Q757.1051,619.015 759.6051,619.015 Q760.3082,619.015 760.9488,619.1713 Q761.6051,619.3275 762.1676,619.6244 L762.1676,622.3431 Q761.5426,621.765 760.9488,621.4994 Q760.3551,621.2181 759.7301,621.2181 Q758.3863,621.2181 757.6988,622.2963 Q757.0113,623.3588 757.0113,625.4525 Q757.0113,627.5463 757.6988,628.6244 Q758.3863,629.6869 759.7301,629.6869 Q760.3551,629.6869 760.9488,629.4213 Q761.5426,629.14 762.1676,628.5619 L762.1676,631.2806 Z " fill="#000000"/><text fill="#000000" font-family="sans-serif" font-size="14" lengthAdjust="spacing" textLength="70.3555" x="776.4475" y="630.4867">BookCopy</text><line style="stroke:#181818;stroke-width:0.5;" x1="730.58" x2="863.4218" y1="641.64" y2="641.64"/><rect fill="none" height="6" style="stroke:#C82930;stroke-width:1;" width="6" x="737.58" y="652.2884"/><text fill="#000000" font-family="sans-serif" font-size="14" lengthAdjust="spacing" textLength="69.1523" x="749.58" y="658.6351">int copyId</text><rect fill="none" height="6" style="stroke:#C82930;stroke-width:1;" width="6" x="737.58" y="668.5853"/><text fill="#000000" font-family="sans-serif" font-size="14" lengthAdjust="spacing" textLength="73.418" x="749.58" y="674.932">Book book</text><rect fill="none" height="6" style="stroke:#C82930;stroke-width:1;" width="6" x="737.58" y="684.8822"/><text fill="#000000" font-family="sans-serif" font-size="14" lengthAdjust="spacing" textLength="108.8418" x="749.58" y="691.2289">ItemState state</text><line style="stroke:#181818;stroke-width:0.5;" x1="730.58" x2="863.4218" y1="698.5306" y2="698.5306"/></g><!--class LibraryItem--><g class="entity" data-entity="LibraryItem" data-source-line="15" data-uid="ent0007" id="entity_LibraryItem"><rect fill="#F1F1F1" height="325.0469" rx="2.5" ry="2.5" style="stroke:#181818;stroke-width:0.5;" width="563.8447" x="586.08" y="84"/><ellipse cx="823.3417" cy="100" fill="#A9DCDF" rx="11" ry="11" style="stroke:#181818;stroke-width:1;"/><path d="M823.4511,95.3438 L822.2948,100.4219 L824.623,100.4219 L823.4511,95.3438 Z M821.9667,93.1094 L824.9511,93.1094 L828.3105,105.5 L825.8573,105.5 L825.0917,102.4375 L821.8105,102.4375 L821.0605,105.5 L818.623,105.5 L821.9667,93.1094 Z " fill="#000000"/><text fill="#000000" font-family="sans-serif" font-size="14" font-style="italic" lengthAdjust="spacing" textLength="80.8213" x="843.8417" y="104.8467">LibraryItem</text><line style="stroke:#181818;stroke-width:0.5;" x1="587.08" x2="1148.9247" y1="116" y2="116"/><rect fill="none" height="6" style="stroke:#C82930;stroke-width:1;" width="6" x="594.08" y="126.6484"/><text fill="#000000" font-family="sans-serif" font-size="14" lengthAdjust="spacing" textLength="68.1748" x="606.08" y="132.9951">id : String</text><rect fill="none" height="6" style="stroke:#C82930;stroke-width:1;" width="6" x="594.08" y="142.9453"/><text fill="#000000" font-family="sans-serif" font-size="14" lengthAdjust="spacing" textLength="82.7695" x="606.08" y="149.292">title : String</text><rect fill="none" height="6" style="stroke:#C82930;stroke-width:1;" width="6" x="594.08" y="159.2422"/><text fill="#000000" font-family="sans-serif" font-size="14" lengthAdjust="spacing" textLength="176.8525" x="606.08" y="165.5889">copies : List&lt;BookCopy&gt;</text><rect fill="none" height="6" style="stroke:#C82930;stroke-width:1;" width="6" x="594.08" y="175.5391"/><text fill="#000000" font-family="sans-serif" font-size="14" lengthAdjust="spacing" textLength="188.2002" x="606.08" y="181.8857">observers : List&lt;Member&gt;</text><line style="stroke:#181818;stroke-width:0.5;" x1="587.08" x2="1148.9247" y1="189.1875" y2="189.1875"/><ellipse cx="597.08" cy="202.8359" fill="#84BE84" rx="3" ry="3" style="stroke:#038048;stroke-width:1;"/><text fill="#000000" font-family="sans-serif" font-size="14" lengthAdjust="spacing" textLength="251.5898" x="606.08" y="206.1826">LibraryItem(id : String, title : String)</text><ellipse cx="597.08" cy="219.1328" fill="#84BE84" rx="3" ry="3" style="stroke:#038048;stroke-width:1;"/><text fill="#000000" font-family="sans-serif" font-size="14" lengthAdjust="spacing" textLength="376.0996" x="606.08" y="222.4795">addCopy(copy : BookCopy) // Adds a copy to the item</text><ellipse cx="597.08" cy="235.4297" fill="#84BE84" rx="3" ry="3" style="stroke:#038048;stroke-width:1;"/><text fill="#000000" font-family="sans-serif" font-size="14" lengthAdjust="spacing" textLength="461.8018" x="606.08" y="238.7764">addObserver(member : Member) // Adds a member to the waitlist</text><ellipse cx="597.08" cy="251.7266" fill="#84BE84" rx="3" ry="3" style="stroke:#038048;stroke-width:1;"/><text fill="#000000" font-family="sans-serif" font-size="14" lengthAdjust="spacing" textLength="537.8447" x="606.08" y="255.0732">removeObserver(member : Member) // Removes a member from the waitlist</text><ellipse cx="597.08" cy="268.0234" fill="#84BE84" rx="3" ry="3" style="stroke:#038048;stroke-width:1;"/><text fill="#000000" font-family="sans-serif" font-size="14" lengthAdjust="spacing" textLength="341.1543" x="606.08" y="271.3701">notifyObservers() // Notifies all waiting members</text><ellipse cx="597.08" cy="284.3203" fill="#84BE84" rx="3" ry="3" style="stroke:#038048;stroke-width:1;"/><text fill="#000000" font-family="sans-serif" font-size="14" lengthAdjust="spacing" textLength="476.6289" x="606.08" y="287.667">getAvailableCopy() : BookCopy // Returns first available copy or null</text><ellipse cx="597.08" cy="300.6172" fill="#84BE84" rx="3" ry="3" style="stroke:#038048;stroke-width:1;"/><text fill="#000000" font-family="sans-serif" font-size="14" lengthAdjust="spacing" textLength="235.7715" x="606.08" y="303.9639">getId() : String // Gets the item ID</text><ellipse cx="597.08" cy="316.9141" fill="#84BE84" rx="3" ry="3" style="stroke:#038048;stroke-width:1;"/><text fill="#000000" font-family="sans-serif" font-size="14" lengthAdjust="spacing" textLength="265.6514" x="606.08" y="320.2607">getTitle() : String // Gets the item title</text><ellipse cx="597.08" cy="333.2109" fill="#84BE84" rx="3" ry="3" style="stroke:#038048;stroke-width:1;"/><text fill="#000000" font-family="sans-serif" font-size="14" lengthAdjust="spacing" textLength="333.6279" x="606.08" y="336.5576">getCopies() : List&lt;BookCopy&gt; // Gets all copies</text><ellipse cx="597.08" cy="349.5078" fill="#84BE84" rx="3" ry="3" style="stroke:#038048;stroke-width:1;"/><text fill="#000000" font-family="sans-serif" font-size="14" lengthAdjust="spacing" textLength="473.0605" x="606.08" y="352.8545">getAuthorOrPublisher() : String // Abstract: gets author or publisher</text><ellipse cx="597.08" cy="365.8047" fill="#84BE84" rx="3" ry="3" style="stroke:#038048;stroke-width:1;"/><text fill="#000000" font-family="sans-serif" font-size="14" lengthAdjust="spacing" textLength="403.2656" x="606.08" y="369.1514">getAvailableCopyCount() : long // Counts available copies</text><ellipse cx="597.08" cy="382.1016" fill="#84BE84" rx="3" ry="3" style="stroke:#038048;stroke-width:1;"/><text fill="#000000" font-family="sans-serif" font-size="14" lengthAdjust="spacing" textLength="454.3301" x="606.08" y="385.4482">hasObservers() : boolean // Checks if there are waiting members</text><ellipse cx="597.08" cy="398.3984" fill="#84BE84" rx="3" ry="3" style="stroke:#038048;stroke-width:1;"/><text fill="#000000" font-family="sans-serif" font-size="14" lengthAdjust="spacing" textLength="502.9678" x="606.08" y="401.7451">isObserver(member : Member) : boolean // Checks if member is waiting</text></g><!--class Member--><g class="entity" data-entity="Member" data-source-line="37" data-uid="ent0008" id="entity_Member"><rect fill="#F1F1F1" height="80.5938" rx="2.5" ry="2.5" style="stroke:#181818;stroke-width:0.5;" width="111.9346" x="712.03" y="469.04"/><ellipse cx="737.0869" cy="485.04" fill="#ADD1B2" rx="11" ry="11" style="stroke:#181818;stroke-width:1;"/><path d="M740.0556,490.6806 Q739.4775,490.9775 738.8369,491.1181 Q738.1963,491.2744 737.4931,491.2744 Q734.9931,491.2744 733.665,489.6338 Q732.3525,487.9775 732.3525,484.8525 Q732.3525,481.7275 733.665,480.0713 Q734.9931,478.415 737.4931,478.415 Q738.1963,478.415 738.8369,478.5713 Q739.4931,478.7275 740.0556,479.0244 L740.0556,481.7431 Q739.4306,481.165 738.8369,480.8994 Q738.2431,480.6181 737.6181,480.6181 Q736.2744,480.6181 735.5869,481.6963 Q734.8994,482.7588 734.8994,484.8525 Q734.8994,486.9463 735.5869,488.0244 Q736.2744,489.0869 737.6181,489.0869 Q738.2431,489.0869 738.8369,488.8213 Q739.4306,488.54 740.0556,487.9619 L740.0556,490.6806 Z " fill="#000000"/><text fill="#000000" font-family="sans-serif" font-size="14" lengthAdjust="spacing" textLength="57.5859" x="753.3217" y="489.8867">Member</text><line style="stroke:#181818;stroke-width:0.5;" x1="713.03" x2="822.9646" y1="501.04" y2="501.04"/><rect fill="none" height="6" style="stroke:#C82930;stroke-width:1;" width="6" x="720.03" y="511.6884"/><text fill="#000000" font-family="sans-serif" font-size="14" lengthAdjust="spacing" textLength="35.4785" x="732.03" y="518.0351">int id</text><rect fill="none" height="6" style="stroke:#C82930;stroke-width:1;" width="6" x="720.03" y="527.9853"/><text fill="#000000" font-family="sans-serif" font-size="14" lengthAdjust="spacing" textLength="85.9346" x="732.03" y="534.332">String name</text><line style="stroke:#181818;stroke-width:0.5;" x1="713.03" x2="822.9646" y1="541.6338" y2="541.6338"/></g><!--class ItemState--><g class="entity" data-entity="ItemState" data-source-line="43" data-uid="ent0010" id="entity_ItemState"><rect fill="#F1F1F1" height="96.8906" rx="2.5" ry="2.5" style="stroke:#181818;stroke-width:0.5;" width="364.8574" x="614.57" y="781.53"/><ellipse cx="758.2853" cy="797.53" fill="#B4A7E5" rx="11" ry="11" style="stroke:#181818;stroke-width:1;"/><path d="M754.2072,793.2956 L754.2072,791.1394 L761.5978,791.1394 L761.5978,793.2956 L759.1291,793.2956 L759.1291,801.3738 L761.5978,801.3738 L761.5978,803.53 L754.2072,803.53 L754.2072,801.3738 L756.676,801.3738 L756.676,793.2956 L754.2072,793.2956 Z " fill="#000000"/><text fill="#000000" font-family="sans-serif" font-size="14" font-style="italic" lengthAdjust="spacing" textLength="68.9268" x="778.7853" y="802.3767">ItemState</text><line style="stroke:#181818;stroke-width:0.5;" x1="615.57" x2="978.4274" y1="813.53" y2="813.53"/><line style="stroke:#181818;stroke-width:0.5;" x1="615.57" x2="978.4274" y1="821.53" y2="821.53"/><text fill="#000000" font-family="sans-serif" font-size="14" lengthAdjust="spacing" textLength="347.2383" x="620.57" y="838.5251">void checkout(BookCopy copy, Member member)</text><text fill="#000000" font-family="sans-serif" font-size="14" lengthAdjust="spacing" textLength="228.4707" x="620.57" y="854.822">void returnItem(BookCopy copy)</text><text fill="#000000" font-family="sans-serif" font-size="14" lengthAdjust="spacing" textLength="352.8574" x="620.57" y="871.1189">void placeHold(BookCopy copy, Member member)</text></g><!--class AvailableState--><g class="entity" data-entity="AvailableState" data-source-line="48" data-uid="ent0011" id="entity_AvailableState"><rect fill="#F1F1F1" height="48" rx="2.5" ry="2.5" style="stroke:#181818;stroke-width:0.5;" width="133.2471" x="551.38" y="938.42"/><ellipse cx="566.38" cy="954.42" fill="#ADD1B2" rx="11" ry="11" style="stroke:#181818;stroke-width:1;"/><path d="M569.3488,960.0606 Q568.7706,960.3575 568.13,960.4981 Q567.4894,960.6544 566.7863,960.6544 Q564.2863,960.6544 562.9581,959.0138 Q561.6456,957.3575 561.6456,954.2325 Q561.6456,951.1075 562.9581,949.4513 Q564.2863,947.795 566.7863,947.795 Q567.4894,947.795 568.13,947.9513 Q568.7863,948.1075 569.3488,948.4044 L569.3488,951.1231 Q568.7238,950.545 568.13,950.2794 Q567.5363,949.9981 566.9113,949.9981 Q565.5675,949.9981 564.88,951.0763 Q564.1925,952.1388 564.1925,954.2325 Q564.1925,956.3263 564.88,957.4044 Q565.5675,958.4669 566.9113,958.4669 Q567.5363,958.4669 568.13,958.2013 Q568.7238,957.92 569.3488,957.3419 L569.3488,960.0606 Z " fill="#000000"/><text fill="#000000" font-family="sans-serif" font-size="14" lengthAdjust="spacing" textLength="101.2471" x="580.38" y="959.2667">AvailableState</text><line style="stroke:#181818;stroke-width:0.5;" x1="552.38" x2="683.6271" y1="970.42" y2="970.42"/><line style="stroke:#181818;stroke-width:0.5;" x1="552.38" x2="683.6271" y1="978.42" y2="978.42"/></g><!--class CheckedOutState--><g class="entity" data-entity="CheckedOutState" data-source-line="49" data-uid="ent0012" id="entity_CheckedOutState"><rect fill="#F1F1F1" height="48" rx="2.5" ry="2.5" style="stroke:#181818;stroke-width:0.5;" width="155.0059" x="719.5" y="938.42"/><ellipse cx="734.5" cy="954.42" fill="#ADD1B2" rx="11" ry="11" style="stroke:#181818;stroke-width:1;"/><path d="M737.4688,960.0606 Q736.8906,960.3575 736.25,960.4981 Q735.6094,960.6544 734.9063,960.6544 Q732.4063,960.6544 731.0781,959.0138 Q729.7656,957.3575 729.7656,954.2325 Q729.7656,951.1075 731.0781,949.4513 Q732.4063,947.795 734.9063,947.795 Q735.6094,947.795 736.25,947.9513 Q736.9063,948.1075 737.4688,948.4044 L737.4688,951.1231 Q736.8438,950.545 736.25,950.2794 Q735.6563,949.9981 735.0313,949.9981 Q733.6875,949.9981 733,951.0763 Q732.3125,952.1388 732.3125,954.2325 Q732.3125,956.3263 733,957.4044 Q733.6875,958.4669 735.0313,958.4669 Q735.6563,958.4669 736.25,958.2013 Q736.8438,957.92 737.4688,957.3419 L737.4688,960.0606 Z " fill="#000000"/><text fill="#000000" font-family="sans-serif" font-size="14" lengthAdjust="spacing" textLength="123.0059" x="748.5" y="959.2667">CheckedOutState</text><line style="stroke:#181818;stroke-width:0.5;" x1="720.5" x2="873.5059" y1="970.42" y2="970.42"/><line style="stroke:#181818;stroke-width:0.5;" x1="720.5" x2="873.5059" y1="978.42" y2="978.42"/></g><!--class OnHoldState--><g class="entity" data-entity="OnHoldState" data-source-line="50" data-uid="ent0013" id="entity_OnHoldState"><rect fill="#F1F1F1" height="48" rx="2.5" ry="2.5" style="stroke:#181818;stroke-width:0.5;" width="120.8193" x="909.59" y="938.42"/><ellipse cx="924.59" cy="954.42" fill="#ADD1B2" rx="11" ry="11" style="stroke:#181818;stroke-width:1;"/><path d="M927.5588,960.0606 Q926.9806,960.3575 926.34,960.4981 Q925.6994,960.6544 924.9963,960.6544 Q922.4963,960.6544 921.1681,959.0138 Q919.8556,957.3575 919.8556,954.2325 Q919.8556,951.1075 921.1681,949.4513 Q922.4963,947.795 924.9963,947.795 Q925.6994,947.795 926.34,947.9513 Q926.9963,948.1075 927.5588,948.4044 L927.5588,951.1231 Q926.9338,950.545 926.34,950.2794 Q925.7463,949.9981 925.1213,949.9981 Q923.7775,949.9981 923.09,951.0763 Q922.4025,952.1388 922.4025,954.2325 Q922.4025,956.3263 923.09,957.4044 Q923.7775,958.4669 925.1213,958.4669 Q925.7463,958.4669 926.34,958.2013 Q926.9338,957.92 927.5588,957.3419 L927.5588,960.0606 Z " fill="#000000"/><text fill="#000000" font-family="sans-serif" font-size="14" lengthAdjust="spacing" textLength="88.8193" x="938.59" y="959.2667">OnHoldState</text><line style="stroke:#181818;stroke-width:0.5;" x1="910.59" x2="1029.4093" y1="970.42" y2="970.42"/><line style="stroke:#181818;stroke-width:0.5;" x1="910.59" x2="1029.4093" y1="978.42" y2="978.42"/></g><!--class SearchStrategy--><g class="entity" data-entity="SearchStrategy" data-source-line="54" data-uid="ent0015" id="entity_SearchStrategy"><rect fill="#F1F1F1" height="64.2969" rx="2.5" ry="2.5" style="stroke:#181818;stroke-width:0.5;" width="484.8828" x="45.56" y="214.37"/><ellipse cx="229.5561" cy="230.37" fill="#B4A7E5" rx="11" ry="11" style="stroke:#181818;stroke-width:1;"/><path d="M225.478,226.1356 L225.478,223.9794 L232.8686,223.9794 L232.8686,226.1356 L230.3998,226.1356 L230.3998,234.2138 L232.8686,234.2138 L232.8686,236.37 L225.478,236.37 L225.478,234.2138 L227.9467,234.2138 L227.9467,226.1356 L225.478,226.1356 Z " fill="#000000"/><text fill="#000000" font-family="sans-serif" font-size="14" font-style="italic" lengthAdjust="spacing" textLength="108.3906" x="250.0561" y="235.2167">SearchStrategy</text><line style="stroke:#181818;stroke-width:0.5;" x1="46.56" x2="529.4428" y1="246.37" y2="246.37"/><line style="stroke:#181818;stroke-width:0.5;" x1="46.56" x2="529.4428" y1="254.37" y2="254.37"/><ellipse cx="56.56" cy="268.0184" fill="#84BE84" rx="3" ry="3" style="stroke:#038048;stroke-width:1;"/><text fill="#000000" font-family="sans-serif" font-size="14" lengthAdjust="spacing" textLength="458.8828" x="65.56" y="271.3651">search(String query, List&lt;LibraryItem&gt; items):List&lt;LibraryItem&gt;</text></g><!--class SearchByTitleStrategy--><g class="entity" data-entity="SearchByTitleStrategy" data-source-line="57" data-uid="ent0016" id="entity_SearchByTitleStrategy"><rect fill="#F1F1F1" height="48" rx="2.5" ry="2.5" style="stroke:#181818;stroke-width:0.5;" width="188.7139" x="72.64" y="485.34"/><ellipse cx="87.64" cy="501.34" fill="#ADD1B2" rx="11" ry="11" style="stroke:#181818;stroke-width:1;"/><path d="M90.6088,506.9806 Q90.0306,507.2775 89.39,507.4181 Q88.7494,507.5744 88.0463,507.5744 Q85.5463,507.5744 84.2181,505.9338 Q82.9056,504.2775 82.9056,501.1525 Q82.9056,498.0275 84.2181,496.3713 Q85.5463,494.715 88.0463,494.715 Q88.7494,494.715 89.39,494.8713 Q90.0463,495.0275 90.6088,495.3244 L90.6088,498.0431 Q89.9838,497.465 89.39,497.1994 Q88.7963,496.9181 88.1713,496.9181 Q86.8275,496.9181 86.14,497.9963 Q85.4525,499.0588 85.4525,501.1525 Q85.4525,503.2463 86.14,504.3244 Q86.8275,505.3869 88.1713,505.3869 Q88.7963,505.3869 89.39,505.1213 Q89.9838,504.84 90.6088,504.2619 L90.6088,506.9806 Z " fill="#000000"/><text fill="#000000" font-family="sans-serif" font-size="14" lengthAdjust="spacing" textLength="156.7139" x="101.64" y="506.1867">SearchByTitleStrategy</text><line style="stroke:#181818;stroke-width:0.5;" x1="73.64" x2="260.3539" y1="517.34" y2="517.34"/><line style="stroke:#181818;stroke-width:0.5;" x1="73.64" x2="260.3539" y1="525.34" y2="525.34"/></g><!--class SearchByAuthorStrategy--><g class="entity" data-entity="SearchByAuthorStrategy" data-source-line="58" data-uid="ent0017" id="entity_SearchByAuthorStrategy"><rect fill="#F1F1F1" height="48" rx="2.5" ry="2.5" style="stroke:#181818;stroke-width:0.5;" width="205.4141" x="296.29" y="485.34"/><ellipse cx="311.29" cy="501.34" fill="#ADD1B2" rx="11" ry="11" style="stroke:#181818;stroke-width:1;"/><path d="M314.2588,506.9806 Q313.6806,507.2775 313.04,507.4181 Q312.3994,507.5744 311.6963,507.5744 Q309.1963,507.5744 307.8681,505.9338 Q306.5556,504.2775 306.5556,501.1525 Q306.5556,498.0275 307.8681,496.3713 Q309.1963,494.715 311.6963,494.715 Q312.3994,494.715 313.04,494.8713 Q313.6963,495.0275 314.2588,495.3244 L314.2588,498.0431 Q313.6338,497.465 313.04,497.1994 Q312.4463,496.9181 311.8213,496.9181 Q310.4775,496.9181 309.79,497.9963 Q309.1025,499.0588 309.1025,501.1525 Q309.1025,503.2463 309.79,504.3244 Q310.4775,505.3869 311.8213,505.3869 Q312.4463,505.3869 313.04,505.1213 Q313.6338,504.84 314.2588,504.2619 L314.2588,506.9806 Z " fill="#000000"/><text fill="#000000" font-family="sans-serif" font-size="14" lengthAdjust="spacing" textLength="173.4141" x="325.29" y="506.1867">SearchByAuthorStrategy</text><line style="stroke:#181818;stroke-width:0.5;" x1="297.29" x2="500.7041" y1="517.34" y2="517.34"/><line style="stroke:#181818;stroke-width:0.5;" x1="297.29" x2="500.7041" y1="525.34" y2="525.34"/></g><!--class ItemType--><g class="entity" data-entity="ItemType" data-source-line="67" data-uid="ent0023" id="entity_ItemType"><rect fill="#F1F1F1" height="80.5938" rx="2.5" ry="2.5" style="stroke:#181818;stroke-width:0.5;" width="98.2061" x="1205.9" y="206.22"/><ellipse cx="1220.9" cy="222.22" fill="#EB937F" rx="11" ry="11" style="stroke:#181818;stroke-width:1;"/><path d="M1225.0094,228.22 L1217.2906,228.22 L1217.2906,215.8294 L1225.0094,215.8294 L1225.0094,217.9856 L1219.7438,217.9856 L1219.7438,220.6575 L1224.5094,220.6575 L1224.5094,222.8138 L1219.7438,222.8138 L1219.7438,226.0638 L1225.0094,226.0638 L1225.0094,228.22 Z " fill="#000000"/><text fill="#000000" font-family="sans-serif" font-size="14" lengthAdjust="spacing" textLength="66.2061" x="1234.9" y="227.0667">ItemType</text><line style="stroke:#181818;stroke-width:0.5;" x1="1206.9" x2="1303.1061" y1="238.22" y2="238.22"/><text fill="#000000" font-family="sans-serif" font-size="14" lengthAdjust="spacing" textLength="45.2744" x="1211.9" y="255.2151">BOOK,</text><text fill="#000000" font-family="sans-serif" font-size="14" lengthAdjust="spacing" textLength="75.1201" x="1211.9" y="271.512">MAGAZINE</text><line style="stroke:#181818;stroke-width:0.5;" x1="1206.9" x2="1303.1061" y1="278.8138" y2="278.8138"/></g><!--class ItemFactory--><g class="entity" data-entity="ItemFactory" data-source-line="74" data-uid="ent0025" id="entity_ItemFactory"><rect fill="#F1F1F1" height="64.2969" rx="2.5" ry="2.5" style="stroke:#181818;stroke-width:0.5;" width="629.9414" x="1360.03" y="214.37"/><ellipse cx="1628.6037" cy="230.37" fill="#ADD1B2" rx="11" ry="11" style="stroke:#181818;stroke-width:1;"/><path d="M1631.5725,236.0106 Q1630.9944,236.3075 1630.3537,236.4481 Q1629.7131,236.6044 1629.01,236.6044 Q1626.51,236.6044 1625.1819,234.9638 Q1623.8694,233.3075 1623.8694,230.1825 Q1623.8694,227.0575 1625.1819,225.4013 Q1626.51,223.745 1629.01,223.745 Q1629.7131,223.745 1630.3537,223.9013 Q1631.01,224.0575 1631.5725,224.3544 L1631.5725,227.0731 Q1630.9475,226.495 1630.3537,226.2294 Q1629.76,225.9481 1629.135,225.9481 Q1627.7912,225.9481 1627.1037,227.0263 Q1626.4162,228.0888 1626.4162,230.1825 Q1626.4162,232.2763 1627.1037,233.3544 Q1627.7912,234.4169 1629.135,234.4169 Q1629.76,234.4169 1630.3537,234.1513 Q1630.9475,233.87 1631.5725,233.2919 L1631.5725,236.0106 Z " fill="#000000"/><text fill="#000000" font-family="sans-serif" font-size="14" lengthAdjust="spacing" textLength="84.2939" x="1649.1037" y="235.2167">ItemFactory</text><line style="stroke:#181818;stroke-width:0.5;" x1="1361.03" x2="1988.9714" y1="246.37" y2="246.37"/><line style="stroke:#181818;stroke-width:0.5;" x1="1361.03" x2="1988.9714" y1="254.37" y2="254.37"/><ellipse cx="1371.03" cy="268.0184" fill="#84BE84" rx="3" ry="3" style="stroke:#038048;stroke-width:1;"/><text fill="#000000" font-family="sans-serif" font-size="14" lengthAdjust="spacing" textLength="603.9414" x="1380.03" y="271.3651">static createItem(ItemType type, String bookId, String title, String author):LibraryItem</text></g><!--class LibraryManagementSystem--><g class="entity" data-entity="LibraryManagementSystem" data-source-line="79" data-uid="ent0027" id="entity_LibraryManagementSystem"><rect fill="#F1F1F1" height="259.8594" rx="2.5" ry="2.5" style="stroke:#181818;stroke-width:0.5;" width="714.2559" x="2045.87" y="116.59"/><ellipse cx="2302.057" cy="132.59" fill="#ADD1B2" rx="11" ry="11" style="stroke:#181818;stroke-width:1;"/><path d="M2305.0258,138.2306 Q2304.4476,138.5275 2303.807,138.6681 Q2303.1664,138.8244 2302.4633,138.8244 Q2299.9633,138.8244 2298.6351,137.1838 Q2297.3226,135.5275 2297.3226,132.4025 Q2297.3226,129.2775 2298.6351,127.6213 Q2299.9633,125.965 2302.4633,125.965 Q2303.1664,125.965 2303.807,126.1213 Q2304.4633,126.2775 2305.0258,126.5744 L2305.0258,129.2931 Q2304.4008,128.715 2303.807,128.4494 Q2303.2133,128.1681 2302.5883,128.1681 Q2301.2445,128.1681 2300.557,129.2463 Q2299.8695,130.3088 2299.8695,132.4025 Q2299.8695,134.4963 2300.557,135.5744 Q2301.2445,136.6369 2302.5883,136.6369 Q2303.2133,136.6369 2303.807,136.3713 Q2304.4008,136.09 2305.0258,135.5119 L2305.0258,138.2306 Z " fill="#000000"/><text fill="#000000" font-family="sans-serif" font-size="14" lengthAdjust="spacing" textLength="193.3818" x="2322.557" y="137.4367">LibraryManagementSystem</text><line style="stroke:#181818;stroke-width:0.5;" x1="2046.87" x2="2759.1259" y1="148.59" y2="148.59"/><rect fill="none" height="6" style="stroke:#C82930;stroke-width:1;" width="6" x="2053.87" y="159.2384"/><text fill="#000000" font-family="sans-serif" font-size="14" lengthAdjust="spacing" textLength="346.042" x="2065.87" y="165.5851">static final LibraryManagementSystem INSTANCE</text><rect fill="none" height="6" style="stroke:#C82930;stroke-width:1;" width="6" x="2053.87" y="175.5353"/><text fill="#000000" font-family="sans-serif" font-size="14" lengthAdjust="spacing" textLength="240.6455" x="2065.87" y="181.882">Map&lt;String, LibraryItem&gt; catalog</text><rect fill="none" height="6" style="stroke:#C82930;stroke-width:1;" width="6" x="2053.87" y="191.8322"/><text fill="#000000" font-family="sans-serif" font-size="14" lengthAdjust="spacing" textLength="232.1621" x="2065.87" y="198.1789">Map&lt;String, Member&gt; members</text><rect fill="none" height="6" style="stroke:#C82930;stroke-width:1;" width="6" x="2053.87" y="208.1291"/><text fill="#000000" font-family="sans-serif" font-size="14" lengthAdjust="spacing" textLength="223.4395" x="2065.87" y="214.4757">Map&lt;String, BookCopy&gt; copies</text><line style="stroke:#181818;stroke-width:0.5;" x1="2046.87" x2="2759.1259" y1="221.7775" y2="221.7775"/><rect fill="#F24D5C" height="6" style="stroke:#C82930;stroke-width:1;" width="6" x="2053.87" y="232.4259"/><text fill="#000000" font-family="sans-serif" font-size="14" lengthAdjust="spacing" textLength="204.3057" x="2065.87" y="238.7726">LibraryManagementSystem()</text><ellipse cx="2056.87" cy="251.7228" fill="#84BE84" rx="3" ry="3" style="stroke:#038048;stroke-width:1;"/><text fill="#000000" font-family="sans-serif" font-size="14" lengthAdjust="spacing" textLength="300.46" x="2065.87" y="255.0695">getInstance() : LibraryManagementSystem</text><ellipse cx="2056.87" cy="268.0197" fill="#84BE84" rx="3" ry="3" style="stroke:#038048;stroke-width:1;"/><text fill="#000000" font-family="sans-serif" font-size="14" lengthAdjust="spacing" textLength="688.2559" x="2065.87" y="271.3664">addItem(type: ItemType, id: String, title: String, author: String, numCopies: int) : List&lt;BookCopy&gt;</text><ellipse cx="2056.87" cy="284.3166" fill="#84BE84" rx="3" ry="3" style="stroke:#038048;stroke-width:1;"/><text fill="#000000" font-family="sans-serif" font-size="14" lengthAdjust="spacing" textLength="329.3418" x="2065.87" y="287.6632">addMember(id: String, name: String) : Member</text><ellipse cx="2056.87" cy="300.6134" fill="#84BE84" rx="3" ry="3" style="stroke:#038048;stroke-width:1;"/><text fill="#000000" font-family="sans-serif" font-size="14" lengthAdjust="spacing" textLength="338.3242" x="2065.87" y="303.9601">void checkout(memberId: String, copyId: String)</text><ellipse cx="2056.87" cy="316.9103" fill="#84BE84" rx="3" ry="3" style="stroke:#038048;stroke-width:1;"/><text fill="#000000" font-family="sans-serif" font-size="14" lengthAdjust="spacing" textLength="217.6289" x="2065.87" y="320.257">void returnItem(copyId: String)</text><ellipse cx="2056.87" cy="333.2072" fill="#84BE84" rx="3" ry="3" style="stroke:#038048;stroke-width:1;"/><text fill="#000000" font-family="sans-serif" font-size="14" lengthAdjust="spacing" textLength="342.1387" x="2065.87" y="336.5539">void placeHold(memberId: String, itemId: String)</text><ellipse cx="2056.87" cy="349.5041" fill="#84BE84" rx="3" ry="3" style="stroke:#038048;stroke-width:1;"/><text fill="#000000" font-family="sans-serif" font-size="14" lengthAdjust="spacing" textLength="476.3213" x="2065.87" y="352.8507">search(query: String, strategy: SearchStrategy) : List&lt;LibraryItem&gt;</text><ellipse cx="2056.87" cy="365.8009" fill="#84BE84" rx="3" ry="3" style="stroke:#038048;stroke-width:1;"/><text fill="#000000" font-family="sans-serif" font-size="14" lengthAdjust="spacing" textLength="131.6602" x="2065.87" y="369.1476">void printCatalog()</text></g><!--reverse link LibraryItem to Book--><g class="link" data-entity-1="LibraryItem" data-entity-2="Book" data-source-line="62" data-uid="lnk18" id="link_LibraryItem_Book"><path codeLine="62" d="M902.4188,427.0381 C907.3588,452.8081 908.57,459.16 912.01,477.09" fill="none" id="LibraryItem-backto-Book" style="stroke:#181818;stroke-width:1;"/><polygon fill="none" points="899.03,409.36,896.5261,428.1677,908.3115,425.9085,899.03,409.36" style="stroke:#181818;stroke-width:1;"/></g><!--reverse link LibraryItem to Magazine--><g class="link" data-entity-1="LibraryItem" data-entity-2="Magazine" data-source-line="63" data-uid="lnk19" id="link_LibraryItem_Magazine"><path codeLine="63" d="M1011.5538,423.303 C1032.5938,449.073 1040.84,459.16 1055.48,477.09" fill="none" id="LibraryItem-backto-Magazine" style="stroke:#181818;stroke-width:1;"/><polygon fill="none" points="1000.17,409.36,1006.9062,427.0976,1016.2015,419.5084,1000.17,409.36" style="stroke:#181818;stroke-width:1;"/></g><!--reverse link LibraryItem to BookCopy--><g class="link" data-entity-1="LibraryItem" data-entity-2="BookCopy" data-source-line="64" data-uid="lnk20" id="link_LibraryItem_BookCopy"><path codeLine="64" d="M717.1945,419.557 C705.7645,438.727 702.07,448.51 695,469.04 C682.23,506.15 679.78,521.17 695,557.34 C703.21,576.86 717.32,594.47 732.46,609.26" fill="none" id="LibraryItem-backto-BookCopy" style="stroke:#181818;stroke-width:1;"/><polygon fill="none" points="723.34,409.25,716.8316,412.355,717.1945,419.557,723.7029,416.452,723.34,409.25" style="stroke:#181818;stroke-width:1;"/><text fill="#000000" font-family="sans-serif" font-size="13" lengthAdjust="spacing" textLength="41.7358" x="680.0821" y="598.7671">copies</text></g><!--reverse link LibraryItem to Member--><g class="link" data-entity-1="LibraryItem" data-entity-2="Member" data-source-line="65" data-uid="lnk21" id="link_LibraryItem_Member"><path codeLine="65" d="M801.6525,420.5641 C793.2025,442.5941 789.55,452.15 783.12,468.91" fill="none" id="LibraryItem-backto-Member" style="stroke:#181818;stroke-width:1;"/><polygon fill="none" points="805.95,409.36,800.0665,413.5295,801.6525,420.5641,807.5359,416.3945,805.95,409.36" style="stroke:#181818;stroke-width:1;"/><text fill="#000000" font-family="sans-serif" font-size="13" lengthAdjust="spacing" textLength="64.1304" x="716.3355" y="458.05">observers</text></g><!--link Book to BookCopy--><g class="link" data-entity-1="Book" data-entity-2="BookCopy" data-source-line="97" data-uid="lnk28" id="link_Book_BookCopy"><path codeLine="97" d="M892.04,541.82 C875.86,561.44 854.73,587.08 836.49,609.19" fill="none" id="Book-BookCopy" style="stroke:#181818;stroke-width:1;"/><text fill="#000000" font-family="sans-serif" font-size="13" lengthAdjust="spacing" textLength="8.271" x="878.354" y="561.521">1</text><text fill="#000000" font-family="sans-serif" font-size="13" lengthAdjust="spacing" textLength="36.5625" x="803.4154" y="598.6877">many</text></g><!--link BookCopy to ItemState--><g class="link" data-entity-1="BookCopy" data-entity-2="ItemState" data-source-line="98" data-uid="lnk29" id="link_BookCopy_ItemState"><path codeLine="98" d="M797,706.86 C797,730.12 797,758.01 797,781.26" fill="none" id="BookCopy-ItemState" style="stroke:#181818;stroke-width:1;"/><text fill="#000000" font-family="sans-serif" font-size="13" lengthAdjust="spacing" textLength="8.271" x="788.4806" y="726.4977">1</text><text fill="#000000" font-family="sans-serif" font-size="13" lengthAdjust="spacing" textLength="8.271" x="788.4567" y="770.431">1</text></g><!--reverse link ItemState to AvailableState--><g class="link" data-entity-1="ItemState" data-entity-2="AvailableState" data-source-line="102" data-uid="lnk30" id="link_ItemState_AvailableState"><path codeLine="102" d="M716.8134,889.4117 C689.0834,909.6217 672.59,921.64 650.01,938.09" fill="none" id="ItemState-backto-AvailableState" style="stroke:#181818;stroke-width:1;stroke-dasharray:7,7;"/><polygon fill="none" points="731.36,878.81,713.2795,884.5629,720.3473,894.2606,731.36,878.81" style="stroke:#181818;stroke-width:1;"/></g><!--reverse link ItemState to CheckedOutState--><g class="link" data-entity-1="ItemState" data-entity-2="CheckedOutState" data-source-line="103" data-uid="lnk31" id="link_ItemState_CheckedOutState"><path codeLine="103" d="M797,896.81 C797,917.02 797,921.64 797,938.09" fill="none" id="ItemState-backto-CheckedOutState" style="stroke:#181818;stroke-width:1;stroke-dasharray:7,7;"/><polygon fill="none" points="797,878.81,791,896.81,803,896.81,797,878.81" style="stroke:#181818;stroke-width:1;"/></g><!--reverse link ItemState to OnHoldState--><g class="link" data-entity-1="ItemState" data-entity-2="OnHoldState" data-source-line="104" data-uid="lnk32" id="link_ItemState_OnHoldState"><path codeLine="104" d="M874.8136,889.6451 C901.6236,909.8551 917.24,921.64 939.06,938.09" fill="none" id="ItemState-backto-OnHoldState" style="stroke:#181818;stroke-width:1;stroke-dasharray:7,7;"/><polygon fill="none" points="860.44,878.81,871.2019,894.4363,878.4253,884.8539,860.44,878.81" style="stroke:#181818;stroke-width:1;"/></g><!--reverse link SearchStrategy to SearchByTitleStrategy--><g class="link" data-entity-1="SearchStrategy" data-entity-2="SearchByTitleStrategy" data-source-line="107" data-uid="lnk33" id="link_SearchStrategy_SearchByTitleStrategy"><path codeLine="107" d="M265.8271,295.3094 C241.2571,348.2894 199.73,437.78 177.9,484.84" fill="none" id="SearchStrategy-backto-SearchByTitleStrategy" style="stroke:#181818;stroke-width:1;stroke-dasharray:7,7;"/><polygon fill="none" points="273.4,278.98,260.3839,292.7851,271.2702,297.8338,273.4,278.98" style="stroke:#181818;stroke-width:1;"/></g><!--reverse link SearchStrategy to SearchByAuthorStrategy--><g class="link" data-entity-1="SearchStrategy" data-entity-2="SearchByAuthorStrategy" data-source-line="108" data-uid="lnk34" id="link_SearchStrategy_SearchByAuthorStrategy"><path codeLine="108" d="M308.4368,295.5433 C330.9768,348.5233 368.97,437.78 389,484.84" fill="none" id="SearchStrategy-backto-SearchByAuthorStrategy" style="stroke:#181818;stroke-width:1;stroke-dasharray:7,7;"/><polygon fill="none" points="301.39,278.98,302.9157,297.8922,313.9579,293.1944,301.39,278.98" style="stroke:#181818;stroke-width:1;"/></g><!--link ItemFactory to Book--><g class="link" data-entity-1="ItemFactory" data-entity-2="Book" data-source-line="111" data-uid="lnk35" id="link_ItemFactory_Book"><path codeLine="111" d="M1617.38,279.07 C1548.55,315.49 1429,374.76 1320,409.04 C1179.88,453.12 1134.09,421.83 995,469.04 C988.46,471.26 987.267,471.5 980.717,474.43" fill="none" id="ItemFactory-to-Book" style="stroke:#181818;stroke-width:1;stroke-dasharray:7,7;"/><polygon fill="#181818" points="975.24,476.88,985.0888,476.8563,979.8042,474.8383,981.8221,469.5537,975.24,476.88" style="stroke:#181818;stroke-width:1;"/></g><!--link ItemFactory to Magazine--><g class="link" data-entity-1="ItemFactory" data-entity-2="Magazine" data-source-line="112" data-uid="lnk36" id="link_ItemFactory_Magazine"><path codeLine="112" d="M1607.24,279.16 C1536.03,312.22 1420.58,365.28 1320,409.04 C1263.04,433.83 1203.454,458.5299 1155.574,478.0999" fill="none" id="ItemFactory-to-Magazine" style="stroke:#181818;stroke-width:1;stroke-dasharray:7,7;"/><polygon fill="#181818" points="1150.02,480.37,1159.8644,480.6675,1154.6483,478.4783,1156.8376,473.2622,1150.02,480.37" style="stroke:#181818;stroke-width:1;"/></g><!--SRC=[ZLPBR-Cs4BxxLn2-r4OTBterWW2EkzqQNST5dLDlj4JRH2XI9QaKwcx-UuV3XoZ9JjO7MPetv_4DQrgyq3CZWXyrrMr59NnLJ5hJ6ikgPQLA9WpvDY7mAmGrXZmgzH88xdT73bPpUIQqiHUb4nrVtZAz7JtJ_xXaGJNfrSrHS7DXGVLju6gZwhRdZajB2Y1kouo8GHtXaT6sS823fPOHuvuX8FoZHsCrBMpmyzMVtYbuJ-2b9AiGOQ1ORWKR4Y4GpWnGlt9ZxsEy3u6hZeRfLwQJm8vLHwOz- -VSxIppjnYucWTnMfRE-CmT7fZHsPny-aJMPMa8nRmGguYzCCB1RAUv3w7CAWm1z7qikNPW1Vr_AKG1GGSRcbNgbRrhvYyKoIoTjAgksPBAybCRRPaPQZyveaic5G8LN7DuGoRedPbTlr8kw54mJCKyouEFm3PQ6dBYsbX2ewpFYz94Da9qjhOb6WXz2EfVc3KfTsJxQoVwx2hohZJMh5FOO6EWHhyragOxfc-Vx7GuGtlzPvo9WSjrwDkL4pPXvDp1-aCqpjH6DTAYCQ6yAQIOVewwM2xKvELPkTaIZ4hKlB3YnH1-SeVNZ53DRjIBczlzSiDaaECccfo4aPtaKEA5XgZ0op4gILh5oN-Rr1-W7U94C0i6cJxHWdKuuXcl2cQrS06hnivIzxaMMyJ8_2dcdRp6niH9xsba8hK0PxyhKVw0pHmaKvqF2UKy0vFAodrZXvozT7uy5TBxSLeqI9xRKMOEZEhYSWZiRw7g1gcpK81_6gRX43W46U0zuDIO-Mh461tGUtbiSGQZiojyFpn900usoUoI- -ztVa-CgN4rzJWA65C_5DC4CcE9XF7JKAWFqybaKyMLwjwnmPxRElJNutx_nmBVTkilwx-tJvzJ_tve6gfYbMvx-zfP_ytJKuMWyhmWXMQGAcpA60Any5Z4uN4BTLkcJuIuHN_VkmAcZFpue47AU047xktVNH8xe1Y9opZ4U-AIYfl2swV3y_ffypdex6Xz7_Tfh-yAQgbGvojYOJltGAmlqQ5uXfPtjqAQnSsDoqR2AMJ1magugj2jQooAgyKgTSS2y6rmHUW-VJ6wRsWhlu5MRbpdroyewCaVUfRRTfYPBXy9ieDA7_vyghQPih-Q3UykGn1yHwh3mR5nXnbZjG0uY3ITR4IjrG2cKZ96e1C307sxyLq29NGuyXFSB0Jqe9BcmcipmUlcz9SfSGW0tTrc297GE_BXBwqGjEKlfJMrWADoqbrJxxylbqCu7t27c3vWvy2EZW9mHr_zJ7YTw_3wdkG0QC5Hm9T9XZLakNpmS3iaHhJz7m00]--></g></svg>