<svg xmlns="http://www.w3.org/2000/svg" xmlns:xlink="http://www.w3.org/1999/xlink" contentStyleType="text/css" data-diagram-type="CLASS" height="795px" preserveAspectRatio="none" style="width:519px;height:795px;background:#FFFFFF;" version="1.1" viewBox="0 0 519 795" width="519px" zoomAndPan="magnify"><title>Command Pattern for Banking Operations</title><defs/><g><g class="title" data-source-line="7"><text fill="#000000" font-family="sans-serif" font-size="14" font-weight="bold" lengthAdjust="spacing" textLength="331.4336" x="87.2119" y="22.9951">Command Pattern for Banking Operations</text></g><!--class Account--><g class="entity" data-entity="Account" data-source-line="9" data-uid="ent0002" id="entity_Account"><rect fill="#56E2E3" fill-opacity="0.89020" height="113.1875" rx="2.5" ry="2.5" style="stroke:#CCCCCC;stroke-width:0.5;" width="187.1846" x="26" y="169.2969"/><ellipse cx="86.9561" cy="185.2969" fill="#ADD1B2" rx="11" ry="11" style="stroke:#181818;stroke-width:1;"/><path d="M89.9248,190.9375 Q89.3467,191.2344 88.7061,191.375 Q88.0654,191.5313 87.3623,191.5313 Q84.8623,191.5313 83.5342,189.8906 Q82.2217,188.2344 82.2217,185.1094 Q82.2217,181.9844 83.5342,180.3281 Q84.8623,178.6719 87.3623,178.6719 Q88.0654,178.6719 88.7061,178.8281 Q89.3623,178.9844 89.9248,179.2813 L89.9248,182 Q89.2998,181.4219 88.7061,181.1563 Q88.1123,180.875 87.4873,180.875 Q86.1436,180.875 85.4561,181.9531 Q84.7686,183.0156 84.7686,185.1094 Q84.7686,187.2031 85.4561,188.2813 Q86.1436,189.3438 87.4873,189.3438 Q88.1123,189.3438 88.7061,189.0781 Q89.2998,188.7969 89.9248,188.2188 L89.9248,190.9375 Z " fill="#000000"/><text fill="#000000" font-family="sans-serif" font-size="14" lengthAdjust="spacing" textLength="56.7725" x="107.4561" y="190.1436">Account</text><line style="stroke:#CCCCCC;stroke-width:0.5;" x1="27" x2="212.1846" y1="201.2969" y2="201.2969"/><rect fill="none" height="6" style="stroke:#C82930;stroke-width:1;" width="6" x="34" y="211.9453"/><text fill="#000000" font-family="sans-serif" font-size="14" lengthAdjust="spacing" textLength="116.5254" x="46" y="218.292">balance : int = 0</text><line style="stroke:#CCCCCC;stroke-width:0.5;" x1="27" x2="212.1846" y1="225.5938" y2="225.5938"/><ellipse cx="37" cy="239.2422" fill="#84BE84" rx="3" ry="3" style="stroke:#038048;stroke-width:1;"/><text fill="#000000" font-family="sans-serif" font-size="14" lengthAdjust="spacing" textLength="148.4355" x="46" y="242.5889">deposit(amount : int)</text><ellipse cx="37" cy="255.5391" fill="#84BE84" rx="3" ry="3" style="stroke:#038048;stroke-width:1;"/><text fill="#000000" font-family="sans-serif" font-size="14" lengthAdjust="spacing" textLength="161.1846" x="46" y="258.8857">withdraw(amount : int)</text><ellipse cx="37" cy="271.8359" fill="#84BE84" rx="3" ry="3" style="stroke:#038048;stroke-width:1;"/><text fill="#000000" font-family="sans-serif" font-size="14" lengthAdjust="spacing" textLength="121.6182" x="46" y="275.1826">getBalance() : int</text></g><!--class Command--><g class="entity" data-entity="Command" data-source-line="16" data-uid="ent0003" id="entity_Command"><rect fill="#56E2E3" fill-opacity="0.89020" height="80.5938" rx="2.5" ry="2.5" style="stroke:#CCCCCC;stroke-width:0.5;" width="103.9551" x="232.5" y="533.2969"/><ellipse cx="247.5" cy="549.2969" fill="#B4A7E5" rx="11" ry="11" style="stroke:#181818;stroke-width:1;"/><path d="M243.4219,545.0625 L243.4219,542.9063 L250.8125,542.9063 L250.8125,545.0625 L248.3438,545.0625 L248.3438,553.1406 L250.8125,553.1406 L250.8125,555.2969 L243.4219,555.2969 L243.4219,553.1406 L245.8906,553.1406 L245.8906,545.0625 L243.4219,545.0625 Z " fill="#000000"/><text fill="#000000" font-family="sans-serif" font-size="14" font-style="italic" lengthAdjust="spacing" textLength="71.9551" x="261.5" y="554.1436">Command</text><line style="stroke:#CCCCCC;stroke-width:0.5;" x1="233.5" x2="335.4551" y1="565.2969" y2="565.2969"/><line style="stroke:#CCCCCC;stroke-width:0.5;" x1="233.5" x2="335.4551" y1="573.2969" y2="573.2969"/><ellipse cx="243.5" cy="586.9453" fill="#84BE84" rx="3" ry="3" style="stroke:#038048;stroke-width:1;"/><text fill="#000000" font-family="sans-serif" font-size="14" lengthAdjust="spacing" textLength="67.1084" x="252.5" y="590.292">execute()</text><ellipse cx="243.5" cy="603.2422" fill="#84BE84" rx="3" ry="3" style="stroke:#038048;stroke-width:1;"/><text fill="#000000" font-family="sans-serif" font-size="14" lengthAdjust="spacing" textLength="46.1221" x="252.5" y="606.5889">undo()</text></g><!--class DepositCommand--><g class="entity" data-entity="DepositCommand" data-source-line="21" data-uid="ent0004" id="entity_DepositCommand"><rect fill="#56E2E3" fill-opacity="0.89020" height="113.1875" rx="2.5" ry="2.5" style="stroke:#CCCCCC;stroke-width:0.5;" width="157.4736" x="7" y="675.2969"/><ellipse cx="22" cy="691.2969" fill="#ADD1B2" rx="11" ry="11" style="stroke:#181818;stroke-width:1;"/><path d="M24.9688,696.9375 Q24.3906,697.2344 23.75,697.375 Q23.1094,697.5313 22.4063,697.5313 Q19.9063,697.5313 18.5781,695.8906 Q17.2656,694.2344 17.2656,691.1094 Q17.2656,687.9844 18.5781,686.3281 Q19.9063,684.6719 22.4063,684.6719 Q23.1094,684.6719 23.75,684.8281 Q24.4063,684.9844 24.9688,685.2813 L24.9688,688 Q24.3438,687.4219 23.75,687.1563 Q23.1563,686.875 22.5313,686.875 Q21.1875,686.875 20.5,687.9531 Q19.8125,689.0156 19.8125,691.1094 Q19.8125,693.2031 20.5,694.2813 Q21.1875,695.3438 22.5313,695.3438 Q23.1563,695.3438 23.75,695.0781 Q24.3438,694.7969 24.9688,694.2188 L24.9688,696.9375 Z " fill="#000000"/><text fill="#000000" font-family="sans-serif" font-size="14" lengthAdjust="spacing" textLength="125.4736" x="36" y="696.1436">DepositCommand</text><line style="stroke:#CCCCCC;stroke-width:0.5;" x1="8" x2="163.4736" y1="707.2969" y2="707.2969"/><rect fill="none" height="6" style="stroke:#C82930;stroke-width:1;" width="6" x="15" y="717.9453"/><text fill="#000000" font-family="sans-serif" font-size="14" lengthAdjust="spacing" textLength="126.1641" x="27" y="724.292">account : Account</text><rect fill="none" height="6" style="stroke:#C82930;stroke-width:1;" width="6" x="15" y="734.2422"/><text fill="#000000" font-family="sans-serif" font-size="14" lengthAdjust="spacing" textLength="85.8867" x="27" y="740.5889">amount : int</text><line style="stroke:#CCCCCC;stroke-width:0.5;" x1="8" x2="163.4736" y1="747.8906" y2="747.8906"/><ellipse cx="18" cy="761.5391" fill="#84BE84" rx="3" ry="3" style="stroke:#038048;stroke-width:1;"/><text fill="#000000" font-family="sans-serif" font-size="14" lengthAdjust="spacing" textLength="67.1084" x="27" y="764.8857">execute()</text><ellipse cx="18" cy="777.8359" fill="#84BE84" rx="3" ry="3" style="stroke:#038048;stroke-width:1;"/><text fill="#000000" font-family="sans-serif" font-size="14" lengthAdjust="spacing" textLength="46.1221" x="27" y="781.1826">undo()</text></g><!--class WithdrawCommand--><g class="entity" data-entity="WithdrawCommand" data-source-line="28" data-uid="ent0005" id="entity_WithdrawCommand"><rect fill="#56E2E3" fill-opacity="0.89020" height="113.1875" rx="2.5" ry="2.5" style="stroke:#CCCCCC;stroke-width:0.5;" width="170.7217" x="199" y="675.2969"/><ellipse cx="214" cy="691.2969" fill="#ADD1B2" rx="11" ry="11" style="stroke:#181818;stroke-width:1;"/><path d="M216.9688,696.9375 Q216.3906,697.2344 215.75,697.375 Q215.1094,697.5313 214.4063,697.5313 Q211.9063,697.5313 210.5781,695.8906 Q209.2656,694.2344 209.2656,691.1094 Q209.2656,687.9844 210.5781,686.3281 Q211.9063,684.6719 214.4063,684.6719 Q215.1094,684.6719 215.75,684.8281 Q216.4063,684.9844 216.9688,685.2813 L216.9688,688 Q216.3438,687.4219 215.75,687.1563 Q215.1563,686.875 214.5313,686.875 Q213.1875,686.875 212.5,687.9531 Q211.8125,689.0156 211.8125,691.1094 Q211.8125,693.2031 212.5,694.2813 Q213.1875,695.3438 214.5313,695.3438 Q215.1563,695.3438 215.75,695.0781 Q216.3438,694.7969 216.9688,694.2188 L216.9688,696.9375 Z " fill="#000000"/><text fill="#000000" font-family="sans-serif" font-size="14" lengthAdjust="spacing" textLength="138.7217" x="228" y="696.1436">WithdrawCommand</text><line style="stroke:#CCCCCC;stroke-width:0.5;" x1="200" x2="368.7217" y1="707.2969" y2="707.2969"/><rect fill="none" height="6" style="stroke:#C82930;stroke-width:1;" width="6" x="207" y="717.9453"/><text fill="#000000" font-family="sans-serif" font-size="14" lengthAdjust="spacing" textLength="126.1641" x="219" y="724.292">account : Account</text><rect fill="none" height="6" style="stroke:#C82930;stroke-width:1;" width="6" x="207" y="734.2422"/><text fill="#000000" font-family="sans-serif" font-size="14" lengthAdjust="spacing" textLength="85.8867" x="219" y="740.5889">amount : int</text><line style="stroke:#CCCCCC;stroke-width:0.5;" x1="200" x2="368.7217" y1="747.8906" y2="747.8906"/><ellipse cx="210" cy="761.5391" fill="#84BE84" rx="3" ry="3" style="stroke:#038048;stroke-width:1;"/><text fill="#000000" font-family="sans-serif" font-size="14" lengthAdjust="spacing" textLength="67.1084" x="219" y="764.8857">execute()</text><ellipse cx="210" cy="777.8359" fill="#84BE84" rx="3" ry="3" style="stroke:#038048;stroke-width:1;"/><text fill="#000000" font-family="sans-serif" font-size="14" lengthAdjust="spacing" textLength="46.1221" x="219" y="781.1826">undo()</text></g><!--class CommandManager--><g class="entity" data-entity="CommandManager" data-source-line="35" data-uid="ent0006" id="entity_CommandManager"><rect fill="#56E2E3" fill-opacity="0.89020" height="96.8906" rx="2.5" ry="2.5" style="stroke:#CCCCCC;stroke-width:0.5;" width="280.8574" x="232" y="359.2969"/><ellipse cx="301.5181" cy="375.2969" fill="#ADD1B2" rx="11" ry="11" style="stroke:#181818;stroke-width:1;"/><path d="M304.4868,380.9375 Q303.9087,381.2344 303.2681,381.375 Q302.6274,381.5313 301.9243,381.5313 Q299.4243,381.5313 298.0962,379.8906 Q296.7837,378.2344 296.7837,375.1094 Q296.7837,371.9844 298.0962,370.3281 Q299.4243,368.6719 301.9243,368.6719 Q302.6274,368.6719 303.2681,368.8281 Q303.9243,368.9844 304.4868,369.2813 L304.4868,372 Q303.8618,371.4219 303.2681,371.1563 Q302.6743,370.875 302.0493,370.875 Q300.7056,370.875 300.0181,371.9531 Q299.3306,373.0156 299.3306,375.1094 Q299.3306,377.2031 300.0181,378.2813 Q300.7056,379.3438 302.0493,379.3438 Q302.6743,379.3438 303.2681,379.0781 Q303.8618,378.7969 304.4868,378.2188 L304.4868,380.9375 Z " fill="#000000"/><text fill="#000000" font-family="sans-serif" font-size="14" lengthAdjust="spacing" textLength="133.3213" x="322.0181" y="380.1436">CommandManager</text><line style="stroke:#CCCCCC;stroke-width:0.5;" x1="233" x2="511.8574" y1="391.2969" y2="391.2969"/><rect fill="none" height="6" style="stroke:#C82930;stroke-width:1;" width="6" x="240" y="401.9453"/><text fill="#000000" font-family="sans-serif" font-size="14" lengthAdjust="spacing" textLength="195.9453" x="252" y="408.292">history : Stack&lt;Command&gt;</text><line style="stroke:#CCCCCC;stroke-width:0.5;" x1="233" x2="511.8574" y1="415.5938" y2="415.5938"/><ellipse cx="243" cy="429.2422" fill="#84BE84" rx="3" ry="3" style="stroke:#038048;stroke-width:1;"/><text fill="#000000" font-family="sans-serif" font-size="14" lengthAdjust="spacing" textLength="254.8574" x="252" y="432.5889">executeCommand(cmd : Command)</text><ellipse cx="243" cy="445.5391" fill="#84BE84" rx="3" ry="3" style="stroke:#038048;stroke-width:1;"/><text fill="#000000" font-family="sans-serif" font-size="14" lengthAdjust="spacing" textLength="46.1221" x="252" y="448.8857">undo()</text></g><!--class BankService--><g class="entity" data-entity="BankService" data-source-line="41" data-uid="ent0007" id="entity_BankService"><rect fill="#56E2E3" fill-opacity="0.89020" height="96.8906" rx="2.5" ry="2.5" style="stroke:#CCCCCC;stroke-width:0.5;" width="248.1748" x="248.5" y="177.2969"/><ellipse cx="324.8848" cy="193.2969" fill="#ADD1B2" rx="11" ry="11" style="stroke:#181818;stroke-width:1;"/><path d="M327.8535,198.9375 Q327.2754,199.2344 326.6348,199.375 Q325.9941,199.5313 325.291,199.5313 Q322.791,199.5313 321.4629,197.8906 Q320.1504,196.2344 320.1504,193.1094 Q320.1504,189.9844 321.4629,188.3281 Q322.791,186.6719 325.291,186.6719 Q325.9941,186.6719 326.6348,186.8281 Q327.291,186.9844 327.8535,187.2813 L327.8535,190 Q327.2285,189.4219 326.6348,189.1563 Q326.041,188.875 325.416,188.875 Q324.0723,188.875 323.3848,189.9531 Q322.6973,191.0156 322.6973,193.1094 Q322.6973,195.2031 323.3848,196.2813 Q324.0723,197.3438 325.416,197.3438 Q326.041,197.3438 326.6348,197.0781 Q327.2285,196.7969 327.8535,196.2188 L327.8535,198.9375 Z " fill="#000000"/><text fill="#000000" font-family="sans-serif" font-size="14" lengthAdjust="spacing" textLength="86.9053" x="345.3848" y="198.1436">BankService</text><line style="stroke:#CCCCCC;stroke-width:0.5;" x1="249.5" x2="495.6748" y1="209.2969" y2="209.2969"/><rect fill="none" height="6" style="stroke:#C82930;stroke-width:1;" width="6" x="256.5" y="219.9453"/><text fill="#000000" font-family="sans-serif" font-size="14" lengthAdjust="spacing" textLength="209.8633" x="268.5" y="226.292">manager : CommandManager</text><line style="stroke:#CCCCCC;stroke-width:0.5;" x1="249.5" x2="495.6748" y1="233.5938" y2="233.5938"/><ellipse cx="259.5" cy="247.2422" fill="#84BE84" rx="3" ry="3" style="stroke:#038048;stroke-width:1;"/><text fill="#000000" font-family="sans-serif" font-size="14" lengthAdjust="spacing" textLength="222.1748" x="268.5" y="250.5889">runCommand(cmd : Command)</text><ellipse cx="259.5" cy="263.5391" fill="#84BE84" rx="3" ry="3" style="stroke:#038048;stroke-width:1;"/><text fill="#000000" font-family="sans-serif" font-size="14" lengthAdjust="spacing" textLength="75.2842" x="268.5" y="266.8857">undoLast()</text></g><!--class Main--><g class="entity" data-entity="Main" data-source-line="47" data-uid="ent0008" id="entity_Main"><rect fill="#56E2E3" fill-opacity="0.89020" height="48" rx="2.5" ry="2.5" style="stroke:#CCCCCC;stroke-width:0.5;" width="65.4209" x="213" y="44.2969"/><ellipse cx="228" cy="60.2969" fill="#ADD1B2" rx="11" ry="11" style="stroke:#181818;stroke-width:1;"/><path d="M230.9688,65.9375 Q230.3906,66.2344 229.75,66.375 Q229.1094,66.5313 228.4063,66.5313 Q225.9063,66.5313 224.5781,64.8906 Q223.2656,63.2344 223.2656,60.1094 Q223.2656,56.9844 224.5781,55.3281 Q225.9063,53.6719 228.4063,53.6719 Q229.1094,53.6719 229.75,53.8281 Q230.4063,53.9844 230.9688,54.2813 L230.9688,57 Q230.3438,56.4219 229.75,56.1563 Q229.1563,55.875 228.5313,55.875 Q227.1875,55.875 226.5,56.9531 Q225.8125,58.0156 225.8125,60.1094 Q225.8125,62.2031 226.5,63.2813 Q227.1875,64.3438 228.5313,64.3438 Q229.1563,64.3438 229.75,64.0781 Q230.3438,63.7969 230.9688,63.2188 L230.9688,65.9375 Z " fill="#000000"/><text fill="#000000" font-family="sans-serif" font-size="14" lengthAdjust="spacing" textLength="33.4209" x="242" y="65.1436">Main</text><line style="stroke:#CCCCCC;stroke-width:0.5;" x1="214" x2="277.4209" y1="76.2969" y2="76.2969"/><line style="stroke:#CCCCCC;stroke-width:0.5;" x1="214" x2="277.4209" y1="84.2969" y2="84.2969"/></g><!--link Account to DepositCommand--><g class="link" data-entity-1="Account" data-entity-2="DepositCommand" data-source-line="49" data-uid="lnk9" id="link_Account_DepositCommand"><path codeLine="49" d="M109.23,282.4869 C100.12,334.8669 87.51,415.5969 82.5,486.2969 C81.97,493.8369 82.45,495.7369 82.5,503.2969 C82.89,561.9569 83.7349,623.1076 84.4649,669.1676" fill="none" id="Account-to-DepositCommand" style="stroke:#CCCCCC;stroke-width:1;"/><polygon fill="#CCCCCC" points="84.56,675.1669,88.4169,666.1046,84.4808,670.1675,80.4179,666.2314,84.56,675.1669" style="stroke:#CCCCCC;stroke-width:1;"/><text fill="#000000" font-family="sans-serif" font-size="13" lengthAdjust="spacing" textLength="51.3398" x="83.5" y="499.3638">used by</text></g><!--link Account to WithdrawCommand--><g class="link" data-entity-1="Account" data-entity-2="WithdrawCommand" data-source-line="50" data-uid="lnk10" id="link_Account_WithdrawCommand"><path codeLine="50" d="M128.05,282.6169 C140.99,359.3969 169.06,500.9369 215.5,614.2969 C223.97,634.9669 232.5368,651.2077 243.8868,669.9077" fill="none" id="Account-to-WithdrawCommand" style="stroke:#CCCCCC;stroke-width:1;"/><polygon fill="#CCCCCC" points="247,675.0369,245.7497,665.2677,244.4057,670.7626,238.9108,669.4186,247,675.0369" style="stroke:#CCCCCC;stroke-width:1;"/><text fill="#000000" font-family="sans-serif" font-size="13" lengthAdjust="spacing" textLength="51.3398" x="178.5" y="499.3638">used by</text></g><!--reverse link Command to DepositCommand--><g class="link" data-entity-1="Command" data-entity-2="DepositCommand" data-source-line="52" data-uid="lnk11" id="link_Command_DepositCommand"><path codeLine="52" d="M219.8627,625.4703 C196.3727,643.8803 182.19,655.0069 156.58,675.0769" fill="none" id="Command-backto-DepositCommand" style="stroke:#CCCCCC;stroke-width:1;stroke-dasharray:7,7;"/><polygon fill="none" points="234.03,614.3669,216.1615,620.7479,223.5638,630.1928,234.03,614.3669" style="stroke:#CCCCCC;stroke-width:1;"/></g><!--reverse link Command to WithdrawCommand--><g class="link" data-entity-1="Command" data-entity-2="WithdrawCommand" data-source-line="53" data-uid="lnk12" id="link_Command_WithdrawCommand"><path codeLine="53" d="M284.5,632.5669 C284.5,650.9769 284.5,655.1769 284.5,675.2069" fill="none" id="Command-backto-WithdrawCommand" style="stroke:#CCCCCC;stroke-width:1;stroke-dasharray:7,7;"/><polygon fill="none" points="284.5,614.5669,278.5,632.5669,290.5,632.5669,284.5,614.5669" style="stroke:#CCCCCC;stroke-width:1;"/></g><!--link CommandManager to Command--><g class="link" data-entity-1="CommandManager" data-entity-2="Command" data-source-line="55" data-uid="lnk13" id="link_CommandManager_Command"><path codeLine="55" d="M346.81,456.6769 C333.77,480.9669 320.9565,504.8497 308.6065,527.8697" fill="none" id="CommandManager-to-Command" style="stroke:#CCCCCC;stroke-width:1;"/><polygon fill="#CCCCCC" points="305.77,533.1569,313.5496,527.1171,308.1338,528.7509,306.5,523.3351,305.77,533.1569" style="stroke:#CCCCCC;stroke-width:1;"/><text fill="#000000" font-family="sans-serif" font-size="13" lengthAdjust="spacing" textLength="59.8584" x="329.5" y="499.3638">manages</text></g><!--link BankService to CommandManager--><g class="link" data-entity-1="BankService" data-entity-2="CommandManager" data-source-line="56" data-uid="lnk14" id="link_BankService_CommandManager"><path codeLine="56" d="M372.5,274.5569 C372.5,300.7069 372.5,326.9969 372.5,353.1269" fill="none" id="BankService-to-CommandManager" style="stroke:#CCCCCC;stroke-width:1;"/><polygon fill="#CCCCCC" points="372.5,359.1269,376.5,350.1269,372.5,354.1269,368.5,350.1269,372.5,359.1269" style="stroke:#CCCCCC;stroke-width:1;"/><text fill="#000000" font-family="sans-serif" font-size="13" lengthAdjust="spacing" textLength="81.1294" x="373.5" y="325.3638">delegates to</text></g><!--link Main to BankService--><g class="link" data-entity-1="Main" data-entity-2="BankService" data-source-line="57" data-uid="lnk15" id="link_Main_BankService"><path codeLine="57" d="M264.51,92.5769 C282.71,114.8569 306.9152,144.4894 329.8352,172.5594" fill="none" id="Main-to-BankService" style="stroke:#CCCCCC;stroke-width:1;"/><polygon fill="#CCCCCC" points="333.63,177.2069,331.0361,167.7057,330.4676,173.334,324.8394,172.7655,333.63,177.2069" style="stroke:#CCCCCC;stroke-width:1;"/><text fill="#000000" font-family="sans-serif" font-size="13" lengthAdjust="spacing" textLength="29.7832" x="301.5" y="135.3638">uses</text></g><!--link Main to Account--><g class="link" data-entity-1="Main" data-entity-2="Account" data-source-line="58" data-uid="lnk16" id="link_Main_Account"><path codeLine="58" d="M226.64,92.5769 C210.3,112.7369 189.7777,138.0654 168.4477,164.3854" fill="none" id="Main-to-Account" style="stroke:#CCCCCC;stroke-width:1;"/><polygon fill="#CCCCCC" points="164.67,169.0469,173.4442,164.5732,167.8181,165.1623,167.2289,159.5362,164.67,169.0469" style="stroke:#CCCCCC;stroke-width:1;"/><text fill="#000000" font-family="sans-serif" font-size="13" lengthAdjust="spacing" textLength="29.7832" x="201.5" y="135.3638">uses</text></g><!--SRC=[jLB1JW8n4BttAoRn0Z4G8z43KHB0Yub44mwUX-wmDEosP3g81FbtozA5tOr4B_QosNbltfithLyQkqB677I6tezGBrDsQvkCNUOOhkxkwPPwr5E-GNIS44UIBaw5WinkSmcSEoiHcnUdgJqKOJDR2prhP-igIena16ENvsWJU4CHOXia6KPeWqmAhojY5EEiLwgGWw7M8P70Ja4u7PXXXbOJzC64wYFS5FLhI6Zbl94MvWMzWDiHsnXP98oR7y6KP7JKRBMFYDeh5Jx4SzJdSNUHJv-aGxnMsH_MxSBFlXpuwJX8lQq367FqoqHblJBI7ntUOvn_j8ZI4xIO4fyS5iQBussGcafuR0-HDgYhncfBvqbWnhzBJeURdn9_cB3gqYQFjlt67562r_PNYnVqKhMPeB5AbO-fqnaqxwaFQqy9pBOrKdFLPvOgImzVtMv3h8urD4wTvN8FFcVzOtQlgdkfC2QdrIIKKOf27iIfGxo2LcqhXlLdR7Xw7uVwDm00]--></g></svg>