<svg xmlns="http://www.w3.org/2000/svg" xmlns:xlink="http://www.w3.org/1999/xlink" contentStyleType="text/css" data-diagram-type="CLASS" height="1034px" preserveAspectRatio="none" style="width:1740px;height:1034px;background:#FFFFFF;" version="1.1" viewBox="0 0 1740 1034" width="1740px" zoomAndPan="magnify"><defs/><g><!--class Vehicle--><g class="entity" data-entity="Vehicle" data-source-line="2" data-uid="ent0002" id="entity_Vehicle"><rect fill="#F1F1F1" height="113.1875" rx="2.5" ry="2.5" style="stroke:#181818;stroke-width:0.5;" width="184.1904" x="516.64" y="914.42"/><ellipse cx="578.9086" cy="930.42" fill="#ADD1B2" rx="11" ry="11" style="stroke:#181818;stroke-width:1;"/><path d="M581.8773,936.0606 Q581.2992,936.3575 580.6586,936.4981 Q580.0179,936.6544 579.3148,936.6544 Q576.8148,936.6544 575.4867,935.0138 Q574.1742,933.3575 574.1742,930.2325 Q574.1742,927.1075 575.4867,925.4513 Q576.8148,923.795 579.3148,923.795 Q580.0179,923.795 580.6586,923.9513 Q581.3148,924.1075 581.8773,924.4044 L581.8773,927.1231 Q581.2523,926.545 580.6586,926.2794 Q580.0648,925.9981 579.4398,925.9981 Q578.0961,925.9981 577.4086,927.0763 Q576.7211,928.1388 576.7211,930.2325 Q576.7211,932.3263 577.4086,933.4044 Q578.0961,934.4669 579.4398,934.4669 Q580.0648,934.4669 580.6586,934.2013 Q581.2523,933.92 581.8773,933.3419 L581.8773,936.0606 Z " fill="#000000"/><text fill="#000000" font-family="sans-serif" font-size="14" lengthAdjust="spacing" textLength="51.1533" x="599.4086" y="935.2667">Vehicle</text><line style="stroke:#181818;stroke-width:0.5;" x1="517.64" x2="699.8304" y1="946.42" y2="946.42"/><rect fill="none" height="6" style="stroke:#C82930;stroke-width:1;" width="6" x="524.64" y="957.0684"/><text fill="#000000" font-family="sans-serif" font-size="14" lengthAdjust="spacing" textLength="100.8711" x="536.64" y="963.4151">String number</text><rect fill="none" height="6" style="stroke:#C82930;stroke-width:1;" width="6" x="524.64" y="973.3653"/><text fill="#000000" font-family="sans-serif" font-size="14" lengthAdjust="spacing" textLength="121.2148" x="536.64" y="979.712">VehicleType type</text><line style="stroke:#181818;stroke-width:0.5;" x1="517.64" x2="699.8304" y1="987.0138" y2="987.0138"/><ellipse cx="527.64" cy="1000.6622" fill="#84BE84" rx="3" ry="3" style="stroke:#038048;stroke-width:1;"/><text fill="#000000" font-family="sans-serif" font-size="14" lengthAdjust="spacing" textLength="136.3838" x="536.64" y="1004.0089">String getNumber()</text><ellipse cx="527.64" cy="1016.9591" fill="#84BE84" rx="3" ry="3" style="stroke:#038048;stroke-width:1;"/><text fill="#000000" font-family="sans-serif" font-size="14" lengthAdjust="spacing" textLength="158.1904" x="536.64" y="1020.3057">VehicleType getType()</text></g><!--class VehicleType--><g class="entity" data-entity="VehicleType" data-source-line="9" data-uid="ent0003" id="entity_VehicleType"><rect fill="#F1F1F1" height="96.8906" rx="2.5" ry="2.5" style="stroke:#181818;stroke-width:0.5;" width="117.4902" x="887.99" y="7"/><ellipse cx="902.99" cy="23" fill="#EB937F" rx="11" ry="11" style="stroke:#181818;stroke-width:1;"/><path d="M907.0994,29 L899.3806,29 L899.3806,16.6094 L907.0994,16.6094 L907.0994,18.7656 L901.8338,18.7656 L901.8338,21.4375 L906.5994,21.4375 L906.5994,23.5938 L901.8338,23.5938 L901.8338,26.8438 L907.0994,26.8438 L907.0994,29 Z " fill="#000000"/><text fill="#000000" font-family="sans-serif" font-size="14" lengthAdjust="spacing" textLength="85.4902" x="916.99" y="27.8467">VehicleType</text><line style="stroke:#181818;stroke-width:0.5;" x1="888.99" x2="1004.4802" y1="39" y2="39"/><text fill="#000000" font-family="sans-serif" font-size="14" lengthAdjust="spacing" textLength="29.0801" x="893.99" y="55.9951">CAR</text><text fill="#000000" font-family="sans-serif" font-size="14" lengthAdjust="spacing" textLength="31.7598" x="893.99" y="72.292">BIKE</text><text fill="#000000" font-family="sans-serif" font-size="14" lengthAdjust="spacing" textLength="47.4824" x="893.99" y="88.5889">TRUCK</text><line style="stroke:#181818;stroke-width:0.5;" x1="888.99" x2="1004.4802" y1="95.8906" y2="95.8906"/></g><!--class ParkingSpot--><g class="entity" data-entity="ParkingSpot" data-source-line="15" data-uid="ent0004" id="entity_ParkingSpot"><rect fill="#F1F1F1" height="194.6719" rx="2.5" ry="2.5" style="stroke:#181818;stroke-width:0.5;" width="216.0186" x="500.73" y="642.75"/><ellipse cx="562.3081" cy="658.75" fill="#ADD1B2" rx="11" ry="11" style="stroke:#181818;stroke-width:1;"/><path d="M565.2769,664.3906 Q564.6988,664.6875 564.0581,664.8281 Q563.4175,664.9844 562.7144,664.9844 Q560.2144,664.9844 558.8863,663.3438 Q557.5738,661.6875 557.5738,658.5625 Q557.5738,655.4375 558.8863,653.7813 Q560.2144,652.125 562.7144,652.125 Q563.4175,652.125 564.0581,652.2813 Q564.7144,652.4375 565.2769,652.7344 L565.2769,655.4531 Q564.6519,654.875 564.0581,654.6094 Q563.4644,654.3281 562.8394,654.3281 Q561.4956,654.3281 560.8081,655.4063 Q560.1206,656.4688 560.1206,658.5625 Q560.1206,660.6563 560.8081,661.7344 Q561.4956,662.7969 562.8394,662.7969 Q563.4644,662.7969 564.0581,662.5313 Q564.6519,662.25 565.2769,661.6719 L565.2769,664.3906 Z " fill="#000000"/><text fill="#000000" font-family="sans-serif" font-size="14" lengthAdjust="spacing" textLength="84.3623" x="582.8081" y="663.5967">ParkingSpot</text><line style="stroke:#181818;stroke-width:0.5;" x1="501.73" x2="715.7486" y1="674.75" y2="674.75"/><rect fill="none" height="6" style="stroke:#C82930;stroke-width:1;" width="6" x="508.73" y="685.3984"/><text fill="#000000" font-family="sans-serif" font-size="14" lengthAdjust="spacing" textLength="35.4785" x="520.73" y="691.7451">int id</text><rect fill="none" height="6" style="stroke:#C82930;stroke-width:1;" width="6" x="508.73" y="701.6953"/><text fill="#000000" font-family="sans-serif" font-size="14" lengthAdjust="spacing" textLength="154.5127" x="520.73" y="708.042">VehicleType spotType</text><rect fill="none" height="6" style="stroke:#C82930;stroke-width:1;" width="6" x="508.73" y="717.9922"/><text fill="#000000" font-family="sans-serif" font-size="14" lengthAdjust="spacing" textLength="102.6416" x="520.73" y="724.3389">boolean isFree</text><rect fill="none" height="6" style="stroke:#C82930;stroke-width:1;" width="6" x="508.73" y="734.2891"/><text fill="#000000" font-family="sans-serif" font-size="14" lengthAdjust="spacing" textLength="169.0732" x="520.73" y="740.6357">Vehicle assignedVehicle</text><line style="stroke:#181818;stroke-width:0.5;" x1="501.73" x2="715.7486" y1="747.9375" y2="747.9375"/><ellipse cx="511.73" cy="761.5859" fill="#84BE84" rx="3" ry="3" style="stroke:#038048;stroke-width:1;"/><text fill="#000000" font-family="sans-serif" font-size="14" lengthAdjust="spacing" textLength="113.5654" x="520.73" y="764.9326">boolean isFree()</text><ellipse cx="511.73" cy="777.8828" fill="#84BE84" rx="3" ry="3" style="stroke:#038048;stroke-width:1;"/><text fill="#000000" font-family="sans-serif" font-size="14" lengthAdjust="spacing" textLength="190.0186" x="520.73" y="781.2295">VehicleType getSpotType()</text><ellipse cx="511.73" cy="794.1797" fill="#84BE84" rx="3" ry="3" style="stroke:#038048;stroke-width:1;"/><text fill="#000000" font-family="sans-serif" font-size="14" lengthAdjust="spacing" textLength="69.6309" x="520.73" y="797.5264">int getId()</text><ellipse cx="511.73" cy="810.4766" fill="#84BE84" rx="3" ry="3" style="stroke:#038048;stroke-width:1;"/><text fill="#000000" font-family="sans-serif" font-size="14" lengthAdjust="spacing" textLength="180.0518" x="520.73" y="813.8232">boolean assign(Vehicle v)</text><ellipse cx="511.73" cy="826.7734" fill="#84BE84" rx="3" ry="3" style="stroke:#038048;stroke-width:1;"/><text fill="#000000" font-family="sans-serif" font-size="14" lengthAdjust="spacing" textLength="149.625" x="520.73" y="830.1201">void removeVehicle()</text></g><!--class VehicleFactory--><g class="entity" data-entity="VehicleFactory" data-source-line="26" data-uid="ent0005" id="entity_VehicleFactory"><rect fill="#F1F1F1" height="64.2969" rx="2.5" ry="2.5" style="stroke:#181818;stroke-width:0.5;" width="462.3037" x="351.59" y="229.78"/><ellipse cx="526.7028" cy="245.78" fill="#ADD1B2" rx="11" ry="11" style="stroke:#181818;stroke-width:1;"/><path d="M529.6715,251.4206 Q529.0934,251.7175 528.4528,251.8581 Q527.8122,252.0144 527.109,252.0144 Q524.609,252.0144 523.2809,250.3737 Q521.9684,248.7175 521.9684,245.5925 Q521.9684,242.4675 523.2809,240.8112 Q524.609,239.155 527.109,239.155 Q527.8122,239.155 528.4528,239.3112 Q529.109,239.4675 529.6715,239.7644 L529.6715,242.4831 Q529.0465,241.905 528.4528,241.6394 Q527.859,241.3581 527.234,241.3581 Q525.8903,241.3581 525.2028,242.4362 Q524.5153,243.4987 524.5153,245.5925 Q524.5153,247.6862 525.2028,248.7644 Q525.8903,249.8269 527.234,249.8269 Q527.859,249.8269 528.4528,249.5612 Q529.0465,249.28 529.6715,248.7019 L529.6715,251.4206 Z " fill="#000000"/><text fill="#000000" font-family="sans-serif" font-size="14" lengthAdjust="spacing" textLength="103.5781" x="547.2028" y="250.6267">VehicleFactory</text><line style="stroke:#181818;stroke-width:0.5;" x1="352.59" x2="812.8937" y1="261.78" y2="261.78"/><line style="stroke:#181818;stroke-width:0.5;" x1="352.59" x2="812.8937" y1="269.78" y2="269.78"/><ellipse cx="362.59" cy="283.4284" fill="#84BE84" rx="3" ry="3" style="stroke:#038048;stroke-width:1;"/><text fill="#000000" font-family="sans-serif" font-size="14" lengthAdjust="spacing" textLength="436.3037" x="371.59" y="286.7751">static Vehicle createVehicle(String number, VehicleType type)</text></g><!--class ParkingFloor--><g class="entity" data-entity="ParkingFloor" data-source-line="30" data-uid="ent0006" id="entity_ParkingFloor"><rect fill="#F1F1F1" height="113.1875" rx="2.5" ry="2.5" style="stroke:#181818;stroke-width:0.5;" width="235.7813" x="490.85" y="436.27"/><ellipse cx="560.809" cy="452.27" fill="#ADD1B2" rx="11" ry="11" style="stroke:#181818;stroke-width:1;"/><path d="M563.7777,457.9106 Q563.1996,458.2075 562.559,458.3481 Q561.9184,458.5044 561.2152,458.5044 Q558.7152,458.5044 557.3871,456.8638 Q556.0746,455.2075 556.0746,452.0825 Q556.0746,448.9575 557.3871,447.3013 Q558.7152,445.645 561.2152,445.645 Q561.9184,445.645 562.559,445.8013 Q563.2152,445.9575 563.7777,446.2544 L563.7777,448.9731 Q563.1527,448.395 562.559,448.1294 Q561.9652,447.8481 561.3402,447.8481 Q559.9965,447.8481 559.309,448.9263 Q558.6215,449.9888 558.6215,452.0825 Q558.6215,454.1763 559.309,455.2544 Q559.9965,456.3169 561.3402,456.3169 Q561.9652,456.3169 562.559,456.0513 Q563.1527,455.77 563.7777,455.1919 L563.7777,457.9106 Z " fill="#000000"/><text fill="#000000" font-family="sans-serif" font-size="14" lengthAdjust="spacing" textLength="87.3633" x="581.309" y="457.1167">ParkingFloor</text><line style="stroke:#181818;stroke-width:0.5;" x1="491.85" x2="725.6313" y1="468.27" y2="468.27"/><rect fill="none" height="6" style="stroke:#C82930;stroke-width:1;" width="6" x="498.85" y="478.9184"/><text fill="#000000" font-family="sans-serif" font-size="14" lengthAdjust="spacing" textLength="67.4229" x="510.85" y="485.2651">int floorId</text><rect fill="none" height="6" style="stroke:#C82930;stroke-width:1;" width="6" x="498.85" y="495.2153"/><text fill="#000000" font-family="sans-serif" font-size="14" lengthAdjust="spacing" textLength="174.2754" x="510.85" y="501.562">List&lt;ParkingSpot&gt; spots</text><line style="stroke:#181818;stroke-width:0.5;" x1="491.85" x2="725.6313" y1="508.8638" y2="508.8638"/><ellipse cx="501.85" cy="522.5122" fill="#84BE84" rx="3" ry="3" style="stroke:#038048;stroke-width:1;"/><text fill="#000000" font-family="sans-serif" font-size="14" lengthAdjust="spacing" textLength="104.46" x="510.85" y="525.8589">int getFloorId()</text><ellipse cx="501.85" cy="538.8091" fill="#84BE84" rx="3" ry="3" style="stroke:#038048;stroke-width:1;"/><text fill="#000000" font-family="sans-serif" font-size="14" lengthAdjust="spacing" textLength="209.7813" x="510.85" y="542.1557">List&lt;ParkingSpot&gt; getSpots()</text></g><!--class Ticket--><g class="entity" data-entity="Ticket" data-source-line="37" data-uid="ent0007" id="entity_Ticket"><rect fill="#F1F1F1" height="145.7813" rx="2.5" ry="2.5" style="stroke:#181818;stroke-width:0.5;" width="213.5371" x="761.97" y="419.97"/><ellipse cx="843.3142" cy="435.97" fill="#ADD1B2" rx="11" ry="11" style="stroke:#181818;stroke-width:1;"/><path d="M846.283,441.6106 Q845.7049,441.9075 845.0642,442.0481 Q844.4236,442.2044 843.7205,442.2044 Q841.2205,442.2044 839.8924,440.5638 Q838.5799,438.9075 838.5799,435.7825 Q838.5799,432.6575 839.8924,431.0013 Q841.2205,429.345 843.7205,429.345 Q844.4236,429.345 845.0642,429.5013 Q845.7205,429.6575 846.283,429.9544 L846.283,432.6731 Q845.658,432.095 845.0642,431.8294 Q844.4705,431.5481 843.8455,431.5481 Q842.5017,431.5481 841.8142,432.6263 Q841.1267,433.6888 841.1267,435.7825 Q841.1267,437.8763 841.8142,438.9544 Q842.5017,440.0169 843.8455,440.0169 Q844.4705,440.0169 845.0642,439.7513 Q845.658,439.47 846.283,438.8919 L846.283,441.6106 Z " fill="#000000"/><text fill="#000000" font-family="sans-serif" font-size="14" lengthAdjust="spacing" textLength="42.3486" x="863.8142" y="440.8167">Ticket</text><line style="stroke:#181818;stroke-width:0.5;" x1="762.97" x2="974.5071" y1="451.97" y2="451.97"/><rect fill="none" height="6" style="stroke:#C82930;stroke-width:1;" width="6" x="769.97" y="462.6184"/><text fill="#000000" font-family="sans-serif" font-size="14" lengthAdjust="spacing" textLength="75.0039" x="781.97" y="468.9651">int ticketId</text><rect fill="none" height="6" style="stroke:#C82930;stroke-width:1;" width="6" x="769.97" y="478.9153"/><text fill="#000000" font-family="sans-serif" font-size="14" lengthAdjust="spacing" textLength="152.332" x="781.97" y="485.262">String vehicleNumber</text><rect fill="none" height="6" style="stroke:#C82930;stroke-width:1;" width="6" x="769.97" y="495.2122"/><text fill="#000000" font-family="sans-serif" font-size="14" lengthAdjust="spacing" textLength="65.9531" x="781.97" y="501.5589">int spotId</text><line style="stroke:#181818;stroke-width:0.5;" x1="762.97" x2="974.5071" y1="508.8606" y2="508.8606"/><ellipse cx="772.97" cy="522.5091" fill="#84BE84" rx="3" ry="3" style="stroke:#038048;stroke-width:1;"/><text fill="#000000" font-family="sans-serif" font-size="14" lengthAdjust="spacing" textLength="111.9795" x="781.97" y="525.8557">int getTicketId()</text><ellipse cx="772.97" cy="538.8059" fill="#84BE84" rx="3" ry="3" style="stroke:#038048;stroke-width:1;"/><text fill="#000000" font-family="sans-serif" font-size="14" lengthAdjust="spacing" textLength="187.5371" x="781.97" y="542.1526">String getVehicleNumber()</text><ellipse cx="772.97" cy="555.1028" fill="#84BE84" rx="3" ry="3" style="stroke:#038048;stroke-width:1;"/><text fill="#000000" font-family="sans-serif" font-size="14" lengthAdjust="spacing" textLength="101.459" x="781.97" y="558.4495">int getSpotId()</text></g><!--class TicketRepository--><g class="entity" data-entity="TicketRepository" data-source-line="46" data-uid="ent0008" id="entity_TicketRepository"><rect fill="#F1F1F1" height="96.8906" rx="2.5" ry="2.5" style="stroke:#181818;stroke-width:0.5;" width="224.0645" x="1010.71" y="444.41"/><ellipse cx="1059.7818" cy="460.41" fill="#ADD1B2" rx="11" ry="11" style="stroke:#181818;stroke-width:1;"/><path d="M1062.7505,466.0506 Q1062.1724,466.3475 1061.5318,466.4881 Q1060.8912,466.6444 1060.188,466.6444 Q1057.688,466.6444 1056.3599,465.0037 Q1055.0474,463.3475 1055.0474,460.2225 Q1055.0474,457.0975 1056.3599,455.4412 Q1057.688,453.785 1060.188,453.785 Q1060.8912,453.785 1061.5318,453.9412 Q1062.188,454.0975 1062.7505,454.3944 L1062.7505,457.1131 Q1062.1255,456.535 1061.5318,456.2694 Q1060.938,455.9881 1060.313,455.9881 Q1058.9693,455.9881 1058.2818,457.0662 Q1057.5943,458.1287 1057.5943,460.2225 Q1057.5943,462.3162 1058.2818,463.3944 Q1058.9693,464.4569 1060.313,464.4569 Q1060.938,464.4569 1061.5318,464.1912 Q1062.1255,463.91 1062.7505,463.3319 L1062.7505,466.0506 Z " fill="#000000"/><text fill="#000000" font-family="sans-serif" font-size="14" lengthAdjust="spacing" textLength="117.4209" x="1080.2818" y="465.2567">TicketRepository</text><line style="stroke:#181818;stroke-width:0.5;" x1="1011.71" x2="1233.7745" y1="476.41" y2="476.41"/><rect fill="none" height="6" style="stroke:#C82930;stroke-width:1;" width="6" x="1018.71" y="487.0584"/><text fill="#000000" font-family="sans-serif" font-size="14" lengthAdjust="spacing" textLength="173.5371" x="1030.71" y="493.4051">Map&lt;int, Ticket&gt; tickets</text><line style="stroke:#181818;stroke-width:0.5;" x1="1011.71" x2="1233.7745" y1="500.7069" y2="500.7069"/><ellipse cx="1021.71" cy="514.3553" fill="#84BE84" rx="3" ry="3" style="stroke:#038048;stroke-width:1;"/><text fill="#000000" font-family="sans-serif" font-size="14" lengthAdjust="spacing" textLength="163.8574" x="1030.71" y="517.702">void save(Ticket ticket)</text><ellipse cx="1021.71" cy="530.6522" fill="#84BE84" rx="3" ry="3" style="stroke:#038048;stroke-width:1;"/><text fill="#000000" font-family="sans-serif" font-size="14" lengthAdjust="spacing" textLength="198.0645" x="1030.71" y="533.9989">Ticket getTicket(int ticketId)</text></g><!--class SpotAllocator--><g class="entity" data-entity="SpotAllocator" data-source-line="53" data-uid="ent0009" id="entity_SpotAllocator"><rect fill="#F1F1F1" height="64.2969" rx="2.5" ry="2.5" style="stroke:#181818;stroke-width:0.5;" width="464.4023" x="1269.54" y="460.71"/><ellipse cx="1450.5727" cy="476.71" fill="#ADD1B2" rx="11" ry="11" style="stroke:#181818;stroke-width:1;"/><path d="M1453.5415,482.3506 Q1452.9633,482.6475 1452.3227,482.7881 Q1451.6821,482.9444 1450.979,482.9444 Q1448.479,482.9444 1447.1508,481.3038 Q1445.8383,479.6475 1445.8383,476.5225 Q1445.8383,473.3975 1447.1508,471.7413 Q1448.479,470.085 1450.979,470.085 Q1451.6821,470.085 1452.3227,470.2413 Q1452.979,470.3975 1453.5415,470.6944 L1453.5415,473.4131 Q1452.9165,472.835 1452.3227,472.5694 Q1451.729,472.2881 1451.104,472.2881 Q1449.7602,472.2881 1449.0727,473.3663 Q1448.3852,474.4288 1448.3852,476.5225 Q1448.3852,478.6163 1449.0727,479.6944 Q1449.7602,480.7569 1451.104,480.7569 Q1451.729,480.7569 1452.3227,480.4913 Q1452.9165,480.21 1453.5415,479.6319 L1453.5415,482.3506 Z " fill="#000000"/><text fill="#000000" font-family="sans-serif" font-size="14" lengthAdjust="spacing" textLength="93.8369" x="1471.0727" y="481.5567">SpotAllocator</text><line style="stroke:#181818;stroke-width:0.5;" x1="1270.54" x2="1732.9423" y1="492.71" y2="492.71"/><line style="stroke:#181818;stroke-width:0.5;" x1="1270.54" x2="1732.9423" y1="500.71" y2="500.71"/><ellipse cx="1280.54" cy="514.3584" fill="#84BE84" rx="3" ry="3" style="stroke:#038048;stroke-width:1;"/><text fill="#000000" font-family="sans-serif" font-size="14" lengthAdjust="spacing" textLength="438.4023" x="1289.54" y="517.7051">ParkingSpot allocateSpot(List&lt;ParkingFloor&gt; floors, Vehicle v)</text></g><!--class ParkingLot--><g class="entity" data-entity="ParkingLot" data-source-line="57" data-uid="ent0010" id="entity_ParkingLot"><rect fill="#F1F1F1" height="162.0781" rx="2.5" ry="2.5" style="stroke:#181818;stroke-width:0.5;" width="292.9912" x="849.24" y="180.89"/><ellipse cx="954.2913" cy="196.89" fill="#ADD1B2" rx="11" ry="11" style="stroke:#181818;stroke-width:1;"/><path d="M957.26,202.5306 Q956.6819,202.8275 956.0413,202.9681 Q955.4006,203.1244 954.6975,203.1244 Q952.1975,203.1244 950.8694,201.4838 Q949.5569,199.8275 949.5569,196.7025 Q949.5569,193.5775 950.8694,191.9213 Q952.1975,190.265 954.6975,190.265 Q955.4006,190.265 956.0413,190.4213 Q956.6975,190.5775 957.26,190.8744 L957.26,193.5931 Q956.635,193.015 956.0413,192.7494 Q955.4475,192.4681 954.8225,192.4681 Q953.4788,192.4681 952.7913,193.5463 Q952.1038,194.6088 952.1038,196.7025 Q952.1038,198.7963 952.7913,199.8744 Q953.4788,200.9369 954.8225,200.9369 Q955.4475,200.9369 956.0413,200.6713 Q956.635,200.39 957.26,199.8119 L957.26,202.5306 Z " fill="#000000"/><text fill="#000000" font-family="sans-serif" font-size="14" lengthAdjust="spacing" textLength="74.3887" x="974.7913" y="201.7367">ParkingLot</text><line style="stroke:#181818;stroke-width:0.5;" x1="850.24" x2="1141.2312" y1="212.89" y2="212.89"/><rect fill="none" height="6" style="stroke:#C82930;stroke-width:1;" width="6" x="857.24" y="223.5384"/><text fill="#000000" font-family="sans-serif" font-size="14" lengthAdjust="spacing" textLength="178.7461" x="869.24" y="229.8851">List&lt;ParkingFloor&gt; floors</text><rect fill="none" height="6" style="stroke:#C82930;stroke-width:1;" width="6" x="857.24" y="239.8353"/><text fill="#000000" font-family="sans-serif" font-size="14" lengthAdjust="spacing" textLength="159.2979" x="869.24" y="246.182">SpotAllocator allocator</text><rect fill="none" height="6" style="stroke:#C82930;stroke-width:1;" width="6" x="857.24" y="256.1322"/><text fill="#000000" font-family="sans-serif" font-size="14" lengthAdjust="spacing" textLength="196.9502" x="869.24" y="262.4789">TicketRepository ticketRepo</text><rect fill="none" height="6" style="stroke:#C82930;stroke-width:1;" width="6" x="857.24" y="272.4291"/><text fill="#000000" font-family="sans-serif" font-size="14" lengthAdjust="spacing" textLength="266.9912" x="869.24" y="278.7757">NotificationService notificationService</text><line style="stroke:#181818;stroke-width:0.5;" x1="850.24" x2="1141.2312" y1="286.0775" y2="286.0775"/><ellipse cx="860.24" cy="299.7259" fill="#84BE84" rx="3" ry="3" style="stroke:#038048;stroke-width:1;"/><text fill="#000000" font-family="sans-serif" font-size="14" lengthAdjust="spacing" textLength="204.0938" x="869.24" y="303.0726">Ticket parkVehicle(Vehicle v)</text><ellipse cx="860.24" cy="316.0228" fill="#84BE84" rx="3" ry="3" style="stroke:#038048;stroke-width:1;"/><text fill="#000000" font-family="sans-serif" font-size="14" lengthAdjust="spacing" textLength="228.9971" x="869.24" y="319.3695">void addObserver(Observer obs)</text><ellipse cx="860.24" cy="332.3197" fill="#84BE84" rx="3" ry="3" style="stroke:#038048;stroke-width:1;"/><text fill="#000000" font-family="sans-serif" font-size="14" lengthAdjust="spacing" textLength="231.3145" x="869.24" y="335.6664">void unparkVehicle(Ticket ticket)</text></g><!--class EntrancePanel--><g class="entity" data-entity="EntrancePanel" data-source-line="67" data-uid="ent0011" id="entity_EntrancePanel"><rect fill="#F1F1F1" height="80.5938" rx="2.5" ry="2.5" style="stroke:#181818;stroke-width:0.5;" width="456.835" x="396.32" y="15.15"/><ellipse cx="569.9255" cy="31.15" fill="#ADD1B2" rx="11" ry="11" style="stroke:#181818;stroke-width:1;"/><path d="M572.8942,36.7906 Q572.3161,37.0875 571.6755,37.2281 Q571.0348,37.3844 570.3317,37.3844 Q567.8317,37.3844 566.5036,35.7437 Q565.1911,34.0875 565.1911,30.9625 Q565.1911,27.8375 566.5036,26.1812 Q567.8317,24.525 570.3317,24.525 Q571.0348,24.525 571.6755,24.6812 Q572.3317,24.8375 572.8942,25.1344 L572.8942,27.8531 Q572.2692,27.275 571.6755,27.0094 Q571.0817,26.7281 570.4567,26.7281 Q569.113,26.7281 568.4255,27.8062 Q567.738,28.8687 567.738,30.9625 Q567.738,33.0562 568.4255,34.1344 Q569.113,35.1969 570.4567,35.1969 Q571.0817,35.1969 571.6755,34.9312 Q572.2692,34.65 572.8942,34.0719 L572.8942,36.7906 Z " fill="#000000"/><text fill="#000000" font-family="sans-serif" font-size="14" lengthAdjust="spacing" textLength="101.124" x="590.4255" y="35.9967">EntrancePanel</text><line style="stroke:#181818;stroke-width:0.5;" x1="397.32" x2="852.155" y1="47.15" y2="47.15"/><rect fill="none" height="6" style="stroke:#C82930;stroke-width:1;" width="6" x="404.32" y="57.7984"/><text fill="#000000" font-family="sans-serif" font-size="14" lengthAdjust="spacing" textLength="96.7832" x="416.32" y="64.1451">ParkingLot lot</text><line style="stroke:#181818;stroke-width:0.5;" x1="397.32" x2="852.155" y1="71.4469" y2="71.4469"/><ellipse cx="407.32" cy="85.0953" fill="#84BE84" rx="3" ry="3" style="stroke:#038048;stroke-width:1;"/><text fill="#000000" font-family="sans-serif" font-size="14" lengthAdjust="spacing" textLength="430.835" x="416.32" y="88.442">Ticket scanAndPark(String vehicleNumber, VehicleType type)</text></g><!--class Observer--><g class="entity" data-entity="Observer" data-source-line="73" data-uid="ent0012" id="entity_Observer"><rect fill="#F1F1F1" height="64.2969" rx="2.5" ry="2.5" style="stroke:#181818;stroke-width:0.5;" width="301.4199" x="144.03" y="707.94"/><ellipse cx="258.3781" cy="723.94" fill="#B4A7E5" rx="11" ry="11" style="stroke:#181818;stroke-width:1;"/><path d="M254.3,719.7056 L254.3,717.5494 L261.6906,717.5494 L261.6906,719.7056 L259.2219,719.7056 L259.2219,727.7837 L261.6906,727.7837 L261.6906,729.94 L254.3,729.94 L254.3,727.7837 L256.7688,727.7837 L256.7688,719.7056 L254.3,719.7056 Z " fill="#000000"/><text fill="#000000" font-family="sans-serif" font-size="14" font-style="italic" lengthAdjust="spacing" textLength="64.2236" x="278.8781" y="728.7867">Observer</text><line style="stroke:#181818;stroke-width:0.5;" x1="145.03" x2="444.4499" y1="739.94" y2="739.94"/><line style="stroke:#181818;stroke-width:0.5;" x1="145.03" x2="444.4499" y1="747.94" y2="747.94"/><ellipse cx="155.03" cy="761.5884" fill="#84BE84" rx="3" ry="3" style="stroke:#038048;stroke-width:1;"/><text fill="#000000" font-family="sans-serif" font-size="14" lengthAdjust="spacing" textLength="275.4199" x="164.03" y="764.9351">void update(String event, Ticket ticket)</text></g><!--class ConsoleLogger--><g class="entity" data-entity="ConsoleLogger" data-source-line="77" data-uid="ent0013" id="entity_ConsoleLogger"><rect fill="#F1F1F1" height="64.2969" rx="2.5" ry="2.5" style="stroke:#181818;stroke-width:0.5;" width="301.4199" x="144.03" y="938.87"/><ellipse cx="238.448" cy="954.87" fill="#ADD1B2" rx="11" ry="11" style="stroke:#181818;stroke-width:1;"/><path d="M241.4167,960.5106 Q240.8386,960.8075 240.198,960.9481 Q239.5573,961.1044 238.8542,961.1044 Q236.3542,961.1044 235.0261,959.4638 Q233.7136,957.8075 233.7136,954.6825 Q233.7136,951.5575 235.0261,949.9013 Q236.3542,948.245 238.8542,948.245 Q239.5573,948.245 240.198,948.4013 Q240.8542,948.5575 241.4167,948.8544 L241.4167,951.5731 Q240.7917,950.995 240.198,950.7294 Q239.6042,950.4481 238.9792,950.4481 Q237.6355,950.4481 236.948,951.5263 Q236.2605,952.5888 236.2605,954.6825 Q236.2605,956.7763 236.948,957.8544 Q237.6355,958.9169 238.9792,958.9169 Q239.6042,958.9169 240.198,958.6513 Q240.7917,958.37 241.4167,957.7919 L241.4167,960.5106 Z " fill="#000000"/><text fill="#000000" font-family="sans-serif" font-size="14" lengthAdjust="spacing" textLength="104.084" x="258.948" y="959.7167">ConsoleLogger</text><line style="stroke:#181818;stroke-width:0.5;" x1="145.03" x2="444.4499" y1="970.87" y2="970.87"/><line style="stroke:#181818;stroke-width:0.5;" x1="145.03" x2="444.4499" y1="978.87" y2="978.87"/><ellipse cx="155.03" cy="992.5184" fill="#84BE84" rx="3" ry="3" style="stroke:#038048;stroke-width:1;"/><text fill="#000000" font-family="sans-serif" font-size="14" lengthAdjust="spacing" textLength="275.4199" x="164.03" y="995.8651">void update(String event, Ticket ticket)</text></g><!--class Subject--><g class="entity" data-entity="Subject" data-source-line="81" data-uid="ent0015" id="entity_Subject"><rect fill="#F1F1F1" height="96.8906" rx="2.5" ry="2.5" style="stroke:#181818;stroke-width:0.5;" width="309.4795" x="7" y="213.48"/><ellipse cx="131.3218" cy="229.48" fill="#B4A7E5" rx="11" ry="11" style="stroke:#181818;stroke-width:1;"/><path d="M127.2437,225.2456 L127.2437,223.0894 L134.6343,223.0894 L134.6343,225.2456 L132.1655,225.2456 L132.1655,233.3238 L134.6343,233.3238 L134.6343,235.48 L127.2437,235.48 L127.2437,233.3238 L129.7124,233.3238 L129.7124,225.2456 L127.2437,225.2456 Z " fill="#000000"/><text fill="#000000" font-family="sans-serif" font-size="14" font-style="italic" lengthAdjust="spacing" textLength="52.3359" x="151.8218" y="234.3267">Subject</text><line style="stroke:#181818;stroke-width:0.5;" x1="8" x2="315.4795" y1="245.48" y2="245.48"/><line style="stroke:#181818;stroke-width:0.5;" x1="8" x2="315.4795" y1="253.48" y2="253.48"/><ellipse cx="18" cy="267.1284" fill="#84BE84" rx="3" ry="3" style="stroke:#038048;stroke-width:1;"/><text fill="#000000" font-family="sans-serif" font-size="14" lengthAdjust="spacing" textLength="212.8164" x="27" y="270.4751">void addObserver(Observer o)</text><ellipse cx="18" cy="283.4253" fill="#84BE84" rx="3" ry="3" style="stroke:#038048;stroke-width:1;"/><text fill="#000000" font-family="sans-serif" font-size="14" lengthAdjust="spacing" textLength="239.9346" x="27" y="286.772">void removeObserver(Observer o)</text><ellipse cx="18" cy="299.7222" fill="#84BE84" rx="3" ry="3" style="stroke:#038048;stroke-width:1;"/><text fill="#000000" font-family="sans-serif" font-size="14" lengthAdjust="spacing" textLength="283.4795" x="27" y="303.0689">void notifyAll(String event, Ticket ticket)</text></g><!--class NotificationService--><g class="entity" data-entity="NotificationService" data-source-line="87" data-uid="ent0016" id="entity_NotificationService"><rect fill="#F1F1F1" height="113.1875" rx="2.5" ry="2.5" style="stroke:#181818;stroke-width:0.5;" width="309.4795" x="140" y="436.27"/><ellipse cx="224.4546" cy="452.27" fill="#ADD1B2" rx="11" ry="11" style="stroke:#181818;stroke-width:1;"/><path d="M227.4233,457.9106 Q226.8452,458.2075 226.2046,458.3481 Q225.564,458.5044 224.8608,458.5044 Q222.3608,458.5044 221.0327,456.8638 Q219.7202,455.2075 219.7202,452.0825 Q219.7202,448.9575 221.0327,447.3013 Q222.3608,445.645 224.8608,445.645 Q225.564,445.645 226.2046,445.8013 Q226.8608,445.9575 227.4233,446.2544 L227.4233,448.9731 Q226.7983,448.395 226.2046,448.1294 Q225.6108,447.8481 224.9858,447.8481 Q223.6421,447.8481 222.9546,448.9263 Q222.2671,449.9888 222.2671,452.0825 Q222.2671,454.1763 222.9546,455.2544 Q223.6421,456.3169 224.9858,456.3169 Q225.6108,456.3169 226.2046,456.0513 Q226.7983,455.77 227.4233,455.1919 L227.4233,457.9106 Z " fill="#000000"/><text fill="#000000" font-family="sans-serif" font-size="14" lengthAdjust="spacing" textLength="132.0703" x="244.9546" y="457.1167">NotificationService</text><line style="stroke:#181818;stroke-width:0.5;" x1="141" x2="448.4795" y1="468.27" y2="468.27"/><rect fill="none" height="6" style="stroke:#C82930;stroke-width:1;" width="6" x="148" y="478.9184"/><text fill="#000000" font-family="sans-serif" font-size="14" lengthAdjust="spacing" textLength="185.6709" x="160" y="485.2651">List&lt;Observer&gt; observers</text><line style="stroke:#181818;stroke-width:0.5;" x1="141" x2="448.4795" y1="492.5669" y2="492.5669"/><ellipse cx="151" cy="506.2153" fill="#84BE84" rx="3" ry="3" style="stroke:#038048;stroke-width:1;"/><text fill="#000000" font-family="sans-serif" font-size="14" lengthAdjust="spacing" textLength="212.8164" x="160" y="509.562">void addObserver(Observer o)</text><ellipse cx="151" cy="522.5122" fill="#84BE84" rx="3" ry="3" style="stroke:#038048;stroke-width:1;"/><text fill="#000000" font-family="sans-serif" font-size="14" lengthAdjust="spacing" textLength="239.9346" x="160" y="525.8589">void removeObserver(Observer o)</text><ellipse cx="151" cy="538.8091" fill="#84BE84" rx="3" ry="3" style="stroke:#038048;stroke-width:1;"/><text fill="#000000" font-family="sans-serif" font-size="14" lengthAdjust="spacing" textLength="283.4795" x="160" y="542.1557">void notifyAll(String event, Ticket ticket)</text></g><!--reverse link Observer to ConsoleLogger--><g class="link" data-entity-1="Observer" data-entity-2="ConsoleLogger" data-source-line="78" data-uid="lnk14" id="link_Observer_ConsoleLogger"><path d="M283.6473,790.3294 C278.7773,834.0494 280.77,894.97 285.64,938.68" fill="none" id="Observer-backto-ConsoleLogger" style="stroke:#181818;stroke-width:1;stroke-dasharray:7,7;"/><polygon fill="none" points="285.64,772.44,277.6842,789.6651,289.6104,790.9936,285.64,772.44" style="stroke:#181818;stroke-width:1;"/></g><!--reverse link Observer to ConsoleLogger--><g class="link" data-entity-1="Observer" data-entity-2="ConsoleLogger" data-source-line="107" data-uid="lnk28" id="link_Observer_ConsoleLogger"><path codeLine="107" d="M306.4798,790.3159 C311.6398,834.0359 309.53,894.97 304.37,938.68" fill="none" id="Observer-backto-ConsoleLogger-1" style="stroke:#181818;stroke-width:1;stroke-dasharray:7,7;"/><polygon fill="none" points="304.37,772.44,300.5211,791.0192,312.4384,789.6127,304.37,772.44" style="stroke:#181818;stroke-width:1;"/></g><!--reverse link Subject to NotificationService--><g class="link" data-entity-1="Subject" data-entity-2="NotificationService" data-source-line="88" data-uid="lnk17" id="link_Subject_NotificationService"><path d="M198.5021,326.2041 C219.7421,362.7641 240.05,397.73 262.37,436.14" fill="none" id="Subject-backto-NotificationService" style="stroke:#181818;stroke-width:1;stroke-dasharray:7,7;"/><polygon fill="none" points="189.46,310.64,193.3141,329.2181,203.6902,323.19,189.46,310.64" style="stroke:#181818;stroke-width:1;"/></g><!--link ParkingLot to ParkingFloor--><g class="link" data-entity-1="ParkingLot" data-entity-2="ParkingFloor" data-source-line="95" data-uid="lnk18" id="link_ParkingLot_ParkingFloor"><path codeLine="95" d="M859.84,343.32 C808.12,373.92 755.5141,405.0352 708.4341,432.8852" fill="none" id="ParkingLot-to-ParkingFloor" style="stroke:#181818;stroke-width:1;"/><polygon fill="#181818" points="703.27,435.94,713.0527,434.8005,707.5734,433.3943,708.9796,427.915,703.27,435.94" style="stroke:#181818;stroke-width:1;"/><polygon fill="#000000" points="802.4366,384.0821,811.7179,382.0064,808.7252,376.9474,802.4366,384.0821" style="stroke:#000000;stroke-width:1;"/><text fill="#000000" font-family="sans-serif" font-size="13" lengthAdjust="spacing" textLength="55.0278" x="815.74" y="386.0369">contains</text></g><!--link ParkingFloor to ParkingSpot--><g class="link" data-entity-1="ParkingFloor" data-entity-2="ParkingSpot" data-source-line="96" data-uid="lnk19" id="link_ParkingFloor_ParkingSpot"><path codeLine="96" d="M608.74,549.81 C608.74,577.24 608.74,605.05 608.74,636.48" fill="none" id="ParkingFloor-to-ParkingSpot" style="stroke:#181818;stroke-width:1;"/><polygon fill="#181818" points="608.74,642.48,612.74,633.48,608.74,637.48,604.74,633.48,608.74,642.48" style="stroke:#181818;stroke-width:1;"/><polygon fill="#000000" points="613.74,609.3164,616.6789,600.2713,610.8011,600.2713,613.74,609.3164" style="stroke:#000000;stroke-width:1;"/><text fill="#000000" font-family="sans-serif" font-size="13" lengthAdjust="spacing" textLength="55.0278" x="622.74" y="608.8169">contains</text></g><!--link ParkingSpot to Vehicle--><g class="link" data-entity-1="ParkingSpot" data-entity-2="Vehicle" data-source-line="97" data-uid="lnk20" id="link_ParkingSpot_Vehicle"><path codeLine="97" d="M608.74,837.84 C608.74,863.83 608.74,885.08 608.74,908.03" fill="none" id="ParkingSpot-to-Vehicle" style="stroke:#181818;stroke-width:1;"/><polygon fill="#181818" points="608.74,914.03,612.74,905.03,608.74,909.03,604.74,905.03,608.74,914.03" style="stroke:#181818;stroke-width:1;"/><polygon fill="#000000" points="613.74,880.9864,616.6789,871.9413,610.8011,871.9413,613.74,880.9864" style="stroke:#000000;stroke-width:1;"/><text fill="#000000" font-family="sans-serif" font-size="13" lengthAdjust="spacing" textLength="48.3882" x="622.74" y="880.4869">assigns</text></g><!--link ParkingLot to TicketRepository--><g class="link" data-entity-1="ParkingLot" data-entity-2="TicketRepository" data-source-line="98" data-uid="lnk21" id="link_ParkingLot_TicketRepository"><path codeLine="98" d="M1040.34,343.32 C1058.99,376.95 1077.13,409.6429 1093.28,438.7629" fill="none" id="ParkingLot-to-TicketRepository" style="stroke:#181818;stroke-width:1;"/><polygon fill="#181818" points="1096.19,444.01,1095.323,434.1994,1093.765,439.6374,1088.3269,438.0794,1096.19,444.01" style="stroke:#181818;stroke-width:1;"/><polygon fill="#000000" points="1070.1653,385.9088,1068.348,376.5735,1063.2079,379.4246,1070.1653,385.9088" style="stroke:#000000;stroke-width:1;"/><text fill="#000000" font-family="sans-serif" font-size="13" lengthAdjust="spacing" textLength="29.7832" x="1076.74" y="386.0369">uses</text></g><!--link ParkingLot to SpotAllocator--><g class="link" data-entity-1="ParkingLot" data-entity-2="SpotAllocator" data-source-line="99" data-uid="lnk22" id="link_ParkingLot_SpotAllocator"><path codeLine="99" d="M1142.44,329.3 C1237.72,372.41 1352.1234,424.1669 1426.4834,457.8069" fill="none" id="ParkingLot-to-SpotAllocator" style="stroke:#181818;stroke-width:1;"/><polygon fill="#181818" points="1431.95,460.28,1425.3988,452.926,1427.3945,458.2191,1422.1014,460.2148,1431.95,460.28" style="stroke:#181818;stroke-width:1;"/><polygon fill="#000000" points="1273.2955,383.5974,1266.266,377.1914,1263.8431,382.5467,1273.2955,383.5974" style="stroke:#000000;stroke-width:1;"/><text fill="#000000" font-family="sans-serif" font-size="13" lengthAdjust="spacing" textLength="29.7832" x="1277.74" y="386.0369">uses</text></g><!--link ParkingLot to NotificationService--><g class="link" data-entity-1="ParkingLot" data-entity-2="NotificationService" data-source-line="100" data-uid="lnk23" id="link_ParkingLot_NotificationService"><path codeLine="100" d="M848.94,336.65 C843.18,338.89 837.43,341 831.74,342.97 C754.83,369.56 551.55,396.16 473.74,419.97 C458.37,424.67 448.1001,428.0659 432.4101,433.8459" fill="none" id="ParkingLot-to-NotificationService" style="stroke:#181818;stroke-width:1;"/><polygon fill="#181818" points="426.78,435.92,436.6079,436.5623,431.4718,434.1916,433.8425,429.0555,426.78,435.92" style="stroke:#181818;stroke-width:1;"/><polygon fill="#000000" points="702.8708,382.6726,712.3471,383.4792,711.0114,377.7552,702.8708,382.6726" style="stroke:#000000;stroke-width:1;"/><text fill="#000000" font-family="sans-serif" font-size="13" lengthAdjust="spacing" textLength="47.8613" x="716.74" y="386.0369">notifies</text></g><!--link EntrancePanel to ParkingLot--><g class="link" data-entity-1="EntrancePanel" data-entity-2="ParkingLot" data-source-line="102" data-uid="lnk24" id="link_EntrancePanel_ParkingLot"><path codeLine="102" d="M696.71,96.11 C740.23,120.1 792.0252,148.6539 844.6252,177.6439" fill="none" id="EntrancePanel-to-ParkingLot" style="stroke:#181818;stroke-width:1;"/><polygon fill="#181818" points="849.88,180.54,843.9286,172.6927,845.501,178.1266,840.0671,179.699,849.88,180.54" style="stroke:#181818;stroke-width:1;"/><polygon fill="#000000" points="797.1188,144.8701,790.6162,137.9299,787.7787,143.0775,797.1188,144.8701" style="stroke:#000000;stroke-width:1;"/><text fill="#000000" font-family="sans-serif" font-size="13" lengthAdjust="spacing" textLength="29.1104" x="801.74" y="146.9569">calls</text></g><!--link EntrancePanel to VehicleFactory--><g class="link" data-entity-1="EntrancePanel" data-entity-2="VehicleFactory" data-source-line="103" data-uid="lnk25" id="link_EntrancePanel_VehicleFactory"><path codeLine="103" d="M616.64,95.87 C608.66,134.75 597.8178,187.5428 590.4378,223.4528" fill="none" id="EntrancePanel-to-VehicleFactory" style="stroke:#181818;stroke-width:1;"/><polygon fill="#181818" points="589.23,229.33,594.9599,221.3195,590.2365,224.4324,587.1236,219.709,589.23,229.33" style="stroke:#181818;stroke-width:1;"/><polygon fill="#000000" points="612.7341,147.3542,617.4326,139.0853,611.6749,137.9028,612.7341,147.3542" style="stroke:#000000;stroke-width:1;"/><text fill="#000000" font-family="sans-serif" font-size="13" lengthAdjust="spacing" textLength="29.1104" x="622.74" y="146.9569">calls</text></g><!--link ParkingLot to Ticket--><g class="link" data-entity-1="ParkingLot" data-entity-2="Ticket" data-source-line="104" data-uid="lnk26" id="link_ParkingLot_Ticket"><path codeLine="104" d="M951.14,343.32 C937.35,368.19 925.1617,390.1638 911.6917,414.4338" fill="none" id="ParkingLot-to-Ticket" style="stroke:#181818;stroke-width:1;"/><polygon fill="#181818" points="908.78,419.68,916.6449,413.7519,911.2064,415.3082,909.65,409.8696,908.78,419.68" style="stroke:#181818;stroke-width:1;"/><polygon fill="#000000" points="934.3146,385.9087,941.2722,379.4247,936.1322,376.5735,934.3146,385.9087" style="stroke:#000000;stroke-width:1;"/><text fill="#000000" font-family="sans-serif" font-size="13" lengthAdjust="spacing" textLength="48.3247" x="945.74" y="386.0369">creates</text></g><!--link NotificationService to Observer--><g class="link" data-entity-1="NotificationService" data-entity-2="Observer" data-source-line="106" data-uid="lnk27" id="link_NotificationService_Observer"><path codeLine="106" d="M294.74,549.81 C294.74,598.72 294.74,661.97 294.74,701.72" fill="none" id="NotificationService-to-Observer" style="stroke:#181818;stroke-width:1;"/><polygon fill="#181818" points="294.74,707.72,298.74,698.72,294.74,702.72,290.74,698.72,294.74,707.72" style="stroke:#181818;stroke-width:1;"/><polygon fill="#000000" points="299.74,609.3164,302.6789,600.2713,296.8011,600.2713,299.74,609.3164" style="stroke:#000000;stroke-width:1;"/><text fill="#000000" font-family="sans-serif" font-size="13" lengthAdjust="spacing" textLength="47.8613" x="308.74" y="608.8169">notifies</text></g><!--SRC=[nLLHRzem47xFh_1RKr7w0n2BrA4YeJA62EkxSGxgDTYHRIAXRlzzjcCRcmHrqXx60uIxptVVtNVdtA4lzeDcN01wPeeg2j8PCr9ZAT4hl55I0_h8aFwCKQa4PGV4JiST26TpcEsv0QJqbpMFFFG0QcNH-Rrpn7ZjDR_QzplBG8TDl5tMsTF6_dvTl3pRX-tcn-p57EWuhh5urvdAXgl0apA5Q3L0K6hKrfCSentdDM26g9mBW1IFT71wO52v_uv-UkHMLQNB4_o6aROlgc3nWReqkS_QUd_BQOK477aBpcVRb0WpnqHnSNPrZv1KM54IAY02i0gd4_4UUhhTzrewhpaNIK_tnhBmZLrIgQPH-mlRNfbMFE-EXBBxXroxP1uns5Bo3gcUoff2SbTDsrMnYYVIe0qJXmrKjYv2u7APqTSupBLefOtLfxU1XaiQ2J16tt0prQSU7A9mh6MigSGjvAx0pktpEMEWciTrs_HtVcbB42qbr_jgc3xLDITO1UL6oORWpWlcJnvhONKgEeLbc0upZjTZiOmMxMO4hr922Fidv-srKGM3Gwouedkgpr3ENCc8zMrf_nhDnm_zy5hXglg-a_gi5ji_8BwJ2UZ4ua1NWeMcw8jJO4PWZHdKeIzHgsgkKdgIOFR4AWF9XwRunce6wGFXDLOA1FCZe8S5n1xh3WN4Hr9FKsdXVKfeuJAd_R9cd4bzFotvuQ3Zq6DJmr4VaFyM-qAnFEr-0b5fb65P1Yx4pr1sHCvwyFwosg4nYsfEoRgfzwaBCpZsIVxdMiA4RA2sfSWtseGR8Xh9yRX8x_W98fmfJ9b4HPPu8gYzFuQGrc60VjacxgKMONpQtifFq4d2032zEMwXXeIRk1l2uhDqFwDobbqr-auok3xiwXLxWGvMPFpsRMkJ3j4os21nmZ5OfxyU7zFD-mC0]--></g></svg>