<svg xmlns="http://www.w3.org/2000/svg" xmlns:xlink="http://www.w3.org/1999/xlink" contentStyleType="text/css" data-diagram-type="CLASS" height="413px" preserveAspectRatio="none" style="width:589px;height:413px;background:#FFFFFF;" version="1.1" viewBox="0 0 589 413" width="589px" zoomAndPan="magnify"><title>Simple Rule Engine UML</title><defs/><g><g class="title" data-source-line="1"><text fill="#000000" font-family="sans-serif" font-size="14" font-weight="bold" lengthAdjust="spacing" textLength="191.4814" x="192.233" y="22.9951">Simple Rule Engine UML</text></g><!--class Rule--><g class="entity" data-entity="Rule" data-source-line="3" data-uid="ent0002" id="entity_Rule"><rect fill="#F1F1F1" height="80.5938" rx="2.5" ry="2.5" style="stroke:#181818;stroke-width:0.5;" width="239.2813" x="101.9" y="209.3369"/><ellipse cx="201.7389" cy="225.3369" fill="#B4A7E5" rx="11" ry="11" style="stroke:#181818;stroke-width:1;"/><path d="M197.6607,221.1025 L197.6607,218.9462 L205.0514,218.9462 L205.0514,221.1025 L202.5826,221.1025 L202.5826,229.1806 L205.0514,229.1806 L205.0514,231.3369 L197.6607,231.3369 L197.6607,229.1806 L200.1295,229.1806 L200.1295,221.1025 L197.6607,221.1025 Z " fill="#000000"/><text fill="#000000" font-family="sans-serif" font-size="14" font-style="italic" lengthAdjust="spacing" textLength="31.1035" x="222.2389" y="230.1836">Rule</text><line style="stroke:#181818;stroke-width:0.5;" x1="102.9" x2="340.1813" y1="241.3369" y2="241.3369"/><line style="stroke:#181818;stroke-width:0.5;" x1="102.9" x2="340.1813" y1="249.3369" y2="249.3369"/><ellipse cx="112.9" cy="262.9853" fill="#84BE84" rx="3" ry="3" style="stroke:#038048;stroke-width:1;"/><text fill="#000000" font-family="sans-serif" font-size="14" lengthAdjust="spacing" textLength="213.2813" x="121.9" y="266.332">boolean evaluate(Context ctx)</text><ellipse cx="112.9" cy="279.2822" fill="#84BE84" rx="3" ry="3" style="stroke:#038048;stroke-width:1;"/><text fill="#000000" font-family="sans-serif" font-size="14" lengthAdjust="spacing" textLength="182.1982" x="121.9" y="282.6289">void execute(Context ctx)</text></g><!--class RuleEngine--><g class="entity" data-entity="RuleEngine" data-source-line="8" data-uid="ent0003" id="entity_RuleEngine"><rect fill="#F1F1F1" height="96.8906" rx="2.5" ry="2.5" style="stroke:#181818;stroke-width:0.5;" width="143.9131" x="278.58" y="44.2969"/><ellipse cx="308.3527" cy="60.2969" fill="#ADD1B2" rx="11" ry="11" style="stroke:#181818;stroke-width:1;"/><path d="M311.3214,65.9375 Q310.7433,66.2344 310.1027,66.375 Q309.462,66.5313 308.7589,66.5313 Q306.2589,66.5313 304.9308,64.8906 Q303.6183,63.2344 303.6183,60.1094 Q303.6183,56.9844 304.9308,55.3281 Q306.2589,53.6719 308.7589,53.6719 Q309.462,53.6719 310.1027,53.8281 Q310.7589,53.9844 311.3214,54.2813 L311.3214,57 Q310.6964,56.4219 310.1027,56.1563 Q309.5089,55.875 308.8839,55.875 Q307.5402,55.875 306.8527,56.9531 Q306.1652,58.0156 306.1652,60.1094 Q306.1652,62.2031 306.8527,63.2813 Q307.5402,64.3438 308.8839,64.3438 Q309.5089,64.3438 310.1027,64.0781 Q310.6964,63.7969 311.3214,63.2188 L311.3214,65.9375 Z " fill="#000000"/><text fill="#000000" font-family="sans-serif" font-size="14" lengthAdjust="spacing" textLength="79.085" x="325.6355" y="65.1436">RuleEngine</text><line style="stroke:#181818;stroke-width:0.5;" x1="279.58" x2="421.4931" y1="76.2969" y2="76.2969"/><rect fill="none" height="6" style="stroke:#C82930;stroke-width:1;" width="6" x="286.58" y="86.9453"/><text fill="#000000" font-family="sans-serif" font-size="14" lengthAdjust="spacing" textLength="117.9131" x="298.58" y="93.292">List&lt;Rule&gt; rules</text><line style="stroke:#181818;stroke-width:0.5;" x1="279.58" x2="421.4931" y1="100.5938" y2="100.5938"/><ellipse cx="289.58" cy="114.2422" fill="#84BE84" rx="3" ry="3" style="stroke:#038048;stroke-width:1;"/><text fill="#000000" font-family="sans-serif" font-size="14" lengthAdjust="spacing" textLength="109.6895" x="298.58" y="117.5889">addRule(Rule r)</text><ellipse cx="289.58" cy="130.5391" fill="#84BE84" rx="3" ry="3" style="stroke:#038048;stroke-width:1;"/><text fill="#000000" font-family="sans-serif" font-size="14" lengthAdjust="spacing" textLength="115.4385" x="298.58" y="133.8857">run(Context ctx)</text></g><!--class Context--><g class="entity" data-entity="Context" data-source-line="14" data-uid="ent0004" id="entity_Context"><rect fill="#F1F1F1" height="96.8906" rx="2.5" ry="2.5" style="stroke:#181818;stroke-width:0.5;" width="206.8174" x="376.13" y="201.1869"/><ellipse cx="447.7433" cy="217.1869" fill="#ADD1B2" rx="11" ry="11" style="stroke:#181818;stroke-width:1;"/><path d="M450.712,222.8275 Q450.1339,223.1244 449.4933,223.265 Q448.8527,223.4213 448.1495,223.4213 Q445.6495,223.4213 444.3214,221.7806 Q443.0089,220.1244 443.0089,216.9994 Q443.0089,213.8744 444.3214,212.2181 Q445.6495,210.5619 448.1495,210.5619 Q448.8527,210.5619 449.4933,210.7181 Q450.1495,210.8744 450.712,211.1713 L450.712,213.89 Q450.087,213.3119 449.4933,213.0463 Q448.8995,212.765 448.2745,212.765 Q446.9308,212.765 446.2433,213.8431 Q445.5558,214.9056 445.5558,216.9994 Q445.5558,219.0931 446.2433,220.1713 Q446.9308,221.2338 448.2745,221.2338 Q448.8995,221.2338 449.4933,220.9681 Q450.087,220.6869 450.712,220.1088 L450.712,222.8275 Z " fill="#000000"/><text fill="#000000" font-family="sans-serif" font-size="14" lengthAdjust="spacing" textLength="55.0908" x="468.2433" y="222.0336">Context</text><line style="stroke:#181818;stroke-width:0.5;" x1="377.13" x2="581.9474" y1="233.1869" y2="233.1869"/><rect fill="none" height="6" style="stroke:#C82930;stroke-width:1;" width="6" x="384.13" y="243.8353"/><text fill="#000000" font-family="sans-serif" font-size="14" lengthAdjust="spacing" textLength="180.8174" x="396.13" y="250.182">Map&lt;String,Object&gt; data</text><line style="stroke:#181818;stroke-width:0.5;" x1="377.13" x2="581.9474" y1="257.4838" y2="257.4838"/><ellipse cx="387.13" cy="271.1322" fill="#84BE84" rx="3" ry="3" style="stroke:#038048;stroke-width:1;"/><text fill="#000000" font-family="sans-serif" font-size="14" lengthAdjust="spacing" textLength="109.2314" x="396.13" y="274.4789">get(key):Object</text><ellipse cx="387.13" cy="287.4291" fill="#84BE84" rx="3" ry="3" style="stroke:#038048;stroke-width:1;"/><text fill="#000000" font-family="sans-serif" font-size="14" lengthAdjust="spacing" textLength="136.2129" x="396.13" y="290.7757">put(key,value):void</text></g><!--class SalaryRule--><g class="entity" data-entity="SalaryRule" data-source-line="20" data-uid="ent0005" id="entity_SalaryRule"><rect fill="#F1F1F1" height="48" rx="2.5" ry="2.5" style="stroke:#181818;stroke-width:0.5;" width="107.0791" x="7" y="358.0769"/><ellipse cx="22" cy="374.0769" fill="#ADD1B2" rx="11" ry="11" style="stroke:#181818;stroke-width:1;"/><path d="M24.9688,379.7175 Q24.3906,380.0144 23.75,380.155 Q23.1094,380.3113 22.4063,380.3113 Q19.9063,380.3113 18.5781,378.6706 Q17.2656,377.0144 17.2656,373.8894 Q17.2656,370.7644 18.5781,369.1081 Q19.9063,367.4519 22.4063,367.4519 Q23.1094,367.4519 23.75,367.6081 Q24.4063,367.7644 24.9688,368.0613 L24.9688,370.78 Q24.3438,370.2019 23.75,369.9363 Q23.1563,369.655 22.5313,369.655 Q21.1875,369.655 20.5,370.7331 Q19.8125,371.7956 19.8125,373.8894 Q19.8125,375.9831 20.5,377.0613 Q21.1875,378.1238 22.5313,378.1238 Q23.1563,378.1238 23.75,377.8581 Q24.3438,377.5769 24.9688,376.9988 L24.9688,379.7175 Z " fill="#000000"/><text fill="#000000" font-family="sans-serif" font-size="14" lengthAdjust="spacing" textLength="75.0791" x="36" y="378.9236">SalaryRule</text><line style="stroke:#181818;stroke-width:0.5;" x1="8" x2="113.0791" y1="390.0769" y2="390.0769"/><line style="stroke:#181818;stroke-width:0.5;" x1="8" x2="113.0791" y1="398.0769" y2="398.0769"/></g><!--class CreditScoreRule--><g class="entity" data-entity="CreditScoreRule" data-source-line="21" data-uid="ent0006" id="entity_CreditScoreRule"><rect fill="#F1F1F1" height="48" rx="2.5" ry="2.5" style="stroke:#181818;stroke-width:0.5;" width="145.0322" x="149.02" y="358.0769"/><ellipse cx="164.02" cy="374.0769" fill="#ADD1B2" rx="11" ry="11" style="stroke:#181818;stroke-width:1;"/><path d="M166.9888,379.7175 Q166.4106,380.0144 165.77,380.155 Q165.1294,380.3113 164.4263,380.3113 Q161.9263,380.3113 160.5981,378.6706 Q159.2856,377.0144 159.2856,373.8894 Q159.2856,370.7644 160.5981,369.1081 Q161.9263,367.4519 164.4263,367.4519 Q165.1294,367.4519 165.77,367.6081 Q166.4263,367.7644 166.9888,368.0613 L166.9888,370.78 Q166.3638,370.2019 165.77,369.9363 Q165.1763,369.655 164.5513,369.655 Q163.2075,369.655 162.52,370.7331 Q161.8325,371.7956 161.8325,373.8894 Q161.8325,375.9831 162.52,377.0613 Q163.2075,378.1238 164.5513,378.1238 Q165.1763,378.1238 165.77,377.8581 Q166.3638,377.5769 166.9888,376.9988 L166.9888,379.7175 Z " fill="#000000"/><text fill="#000000" font-family="sans-serif" font-size="14" lengthAdjust="spacing" textLength="113.0322" x="178.02" y="378.9236">CreditScoreRule</text><line style="stroke:#181818;stroke-width:0.5;" x1="150.02" x2="293.0522" y1="390.0769" y2="390.0769"/><line style="stroke:#181818;stroke-width:0.5;" x1="150.02" x2="293.0522" y1="398.0769" y2="398.0769"/></g><!--class DiscountRule--><g class="entity" data-entity="DiscountRule" data-source-line="22" data-uid="ent0007" id="entity_DiscountRule"><rect fill="#F1F1F1" height="48" rx="2.5" ry="2.5" style="stroke:#181818;stroke-width:0.5;" width="124.5654" x="329.26" y="358.0769"/><ellipse cx="344.26" cy="374.0769" fill="#ADD1B2" rx="11" ry="11" style="stroke:#181818;stroke-width:1;"/><path d="M347.2288,379.7175 Q346.6506,380.0144 346.01,380.155 Q345.3694,380.3113 344.6663,380.3113 Q342.1663,380.3113 340.8381,378.6706 Q339.5256,377.0144 339.5256,373.8894 Q339.5256,370.7644 340.8381,369.1081 Q342.1663,367.4519 344.6663,367.4519 Q345.3694,367.4519 346.01,367.6081 Q346.6663,367.7644 347.2288,368.0613 L347.2288,370.78 Q346.6038,370.2019 346.01,369.9363 Q345.4163,369.655 344.7913,369.655 Q343.4475,369.655 342.76,370.7331 Q342.0725,371.7956 342.0725,373.8894 Q342.0725,375.9831 342.76,377.0613 Q343.4475,378.1238 344.7913,378.1238 Q345.4163,378.1238 346.01,377.8581 Q346.6038,377.5769 347.2288,376.9988 L347.2288,379.7175 Z " fill="#000000"/><text fill="#000000" font-family="sans-serif" font-size="14" lengthAdjust="spacing" textLength="92.5654" x="358.26" y="378.9236">DiscountRule</text><line style="stroke:#181818;stroke-width:0.5;" x1="330.26" x2="452.8254" y1="390.0769" y2="390.0769"/><line style="stroke:#181818;stroke-width:0.5;" x1="330.26" x2="452.8254" y1="398.0769" y2="398.0769"/></g><!--reverse link Rule to SalaryRule--><g class="link" data-entity-1="Rule" data-entity-2="SalaryRule" data-source-line="24" data-uid="lnk8" id="link_Rule_SalaryRule"><path codeLine="24" d="M158.8128,301.4564 C131.6028,323.4964 112.61,338.8869 89.46,357.6369" fill="none" id="Rule-backto-SalaryRule" style="stroke:#181818;stroke-width:1;stroke-dasharray:7,7;"/><polygon fill="none" points="172.8,290.1269,155.0363,296.794,162.5893,306.1188,172.8,290.1269" style="stroke:#181818;stroke-width:1;"/></g><!--reverse link Rule to CreditScoreRule--><g class="link" data-entity-1="Rule" data-entity-2="CreditScoreRule" data-source-line="25" data-uid="lnk9" id="link_Rule_CreditScoreRule"><path codeLine="25" d="M221.54,308.1269 C221.54,330.1669 221.54,338.8869 221.54,357.6369" fill="none" id="Rule-backto-CreditScoreRule" style="stroke:#181818;stroke-width:1;stroke-dasharray:7,7;"/><polygon fill="none" points="221.54,290.1269,215.54,308.1269,227.54,308.1269,221.54,290.1269" style="stroke:#181818;stroke-width:1;"/></g><!--reverse link Rule to DiscountRule--><g class="link" data-entity-1="Rule" data-entity-2="DiscountRule" data-source-line="26" data-uid="lnk10" id="link_Rule_DiscountRule"><path codeLine="26" d="M287.2916,301.0829 C316.0216,323.1229 336.56,338.8869 361,357.6369" fill="none" id="Rule-backto-DiscountRule" style="stroke:#181818;stroke-width:1;stroke-dasharray:7,7;"/><polygon fill="none" points="273.01,290.1269,283.6396,305.8435,290.9436,296.3224,273.01,290.1269" style="stroke:#181818;stroke-width:1;"/></g><!--link RuleEngine to Rule--><g class="link" data-entity-1="RuleEngine" data-entity-2="Rule" data-source-line="28" data-uid="lnk11" id="link_RuleEngine_Rule"><path codeLine="28" d="M310.78,141.4769 C292.79,163.0769 275.6193,183.6961 258.4993,204.2561" fill="none" id="RuleEngine-to-Rule" style="stroke:#181818;stroke-width:1;"/><polygon fill="#181818" points="254.66,208.8669,263.4929,204.5102,257.8595,205.0245,257.3451,199.3911,254.66,208.8669" style="stroke:#181818;stroke-width:1;"/></g><!--link RuleEngine to Context--><g class="link" data-entity-1="RuleEngine" data-entity-2="Context" data-source-line="29" data-uid="lnk12" id="link_RuleEngine_Context"><path codeLine="29" d="M390.3,141.4769 C405.99,160.3169 420.1513,177.3155 435.8513,196.1755" fill="none" id="RuleEngine-to-Context" style="stroke:#181818;stroke-width:1;"/><polygon fill="#181818" points="439.69,200.7869,437.0062,191.3107,436.4911,196.9441,430.8577,196.429,439.69,200.7869" style="stroke:#181818;stroke-width:1;"/></g><!--SRC=[TP31JiCm38RlUGeVMx7k0QQg5-2s2OcA1_0IKmMwf4gSgHFmxjIXezKGbqJwVkUp7RRS4xJsD4pNSvgEHzTPH_1os2jb7LDuHJr77mhWxkXzJ-Y0pjWdP2hk_LGrCcWUIoauUsk0HjBfDlnIIlSOOxRDVSHPxMtaMc03OJgZQD0O8KNk7B8v9FUFy4gpxO13tNAmhjiy7Tz8SmC66SNG4HVlT2btFu6W8MMqaNMetCdqYxV57iD5HhWs2cGijze7Mj476xLFZZDIUUBwSxjTFr_WhM99_chcJwgg1dvhLsnU-ni0]--></g></svg>