<svg xmlns="http://www.w3.org/2000/svg" xmlns:xlink="http://www.w3.org/1999/xlink" contentStyleType="text/css" data-diagram-type="CLASS" height="737px" preserveAspectRatio="none" style="width:1724px;height:737px;background:#FFFFFF;" version="1.1" viewBox="0 0 1724 737" width="1724px" zoomAndPan="magnify"><defs/><g><!--class RateLimiter--><g class="entity" data-entity="RateLimiter" data-source-line="8" data-uid="ent0002" id="entity_RateLimiter"><rect fill="#F1F1F1" height="90.5625" rx="2.5" ry="2.5" style="stroke:#181818;stroke-width:0.5;" width="199.665" x="433.07" y="351.55"/><ellipse cx="484.9103" cy="377.6828" fill="#B1B1B1" rx="11" ry="11" style="stroke:#181818;stroke-width:1;"/><path d="M480.8322,373.4484 L480.8322,371.2922 L488.2228,371.2922 L488.2228,373.4484 L485.7541,373.4484 L485.7541,381.5266 L488.2228,381.5266 L488.2228,383.6828 L480.8322,383.6828 L480.8322,381.5266 L483.301,381.5266 L483.301,373.4484 L480.8322,373.4484 Z " fill="#000000"/><text fill="#000000" font-family="sans-serif" font-size="12" font-style="italic" lengthAdjust="spacing" textLength="68.2031" x="515.051" y="370.6887">&#171;interface&#187;</text><text fill="#000000" font-family="sans-serif" font-size="14" font-style="italic" lengthAdjust="spacing" textLength="81.4844" x="508.4103" y="392.5139">RateLimiter</text><line style="stroke:#181818;stroke-width:0.5;" x1="434.07" x2="631.735" y1="403.8156" y2="403.8156"/><line style="stroke:#181818;stroke-width:0.5;" x1="434.07" x2="631.735" y1="411.8156" y2="411.8156"/><text fill="#000000" font-family="sans-serif" font-size="14" lengthAdjust="spacing" textLength="181.665" x="442.07" y="431.8107">+allowRequest(): boolean</text></g><!--class TokenBucketRateLimiter--><g class="entity" data-entity="TokenBucketRateLimiter" data-source-line="13" data-uid="ent0003" id="entity_TokenBucketRateLimiter"><rect fill="#F1F1F1" height="226.6719" rx="2.5" ry="2.5" style="stroke:#181818;stroke-width:0.5;" width="399.4521" x="999.18" y="504.28"/><ellipse cx="1105.366" cy="520.4284" fill="#C2C2C2" rx="11" ry="11" style="stroke:#181818;stroke-width:1;"/><path d="M1108.3348,526.0691 Q1107.7567,526.3659 1107.116,526.5066 Q1106.4754,526.6628 1105.7723,526.6628 Q1103.2723,526.6628 1101.9442,525.0222 Q1100.6317,523.3659 1100.6317,520.2409 Q1100.6317,517.1159 1101.9442,515.4597 Q1103.2723,513.8034 1105.7723,513.8034 Q1106.4754,513.8034 1107.116,513.9597 Q1107.7723,514.1159 1108.3348,514.4128 L1108.3348,517.1316 Q1107.7098,516.5534 1107.116,516.2878 Q1106.5223,516.0066 1105.8973,516.0066 Q1104.5535,516.0066 1103.866,517.0847 Q1103.1785,518.1472 1103.1785,520.2409 Q1103.1785,522.3347 1103.866,523.4128 Q1104.5535,524.4753 1105.8973,524.4753 Q1106.5223,524.4753 1107.116,524.2097 Q1107.7098,523.9284 1108.3348,523.3503 L1108.3348,526.0691 Z " fill="#000000"/><text fill="#000000" font-family="sans-serif" font-size="14" lengthAdjust="spacing" textLength="172.5801" x="1128.866" y="525.2751">TokenBucketRateLimiter</text><line style="stroke:#181818;stroke-width:0.5;" x1="1000.18" x2="1397.6321" y1="536.5769" y2="536.5769"/><text fill="#000000" font-family="sans-serif" font-size="14" lengthAdjust="spacing" textLength="91.5742" x="1008.18" y="556.572">-capacity: int</text><text fill="#000000" font-family="sans-serif" font-size="14" lengthAdjust="spacing" textLength="95.8467" x="1008.18" y="578.8689">-refillRate: int</text><text fill="#000000" font-family="sans-serif" font-size="14" lengthAdjust="spacing" textLength="162.9961" x="1008.18" y="601.1657">-currentTokens: double</text><text fill="#000000" font-family="sans-serif" font-size="14" lengthAdjust="spacing" textLength="183.2031" x="1008.18" y="623.4626">-lastRefillTimestamp: long</text><text fill="#000000" font-family="sans-serif" font-size="14" lengthAdjust="spacing" textLength="144.6621" x="1008.18" y="645.7595">-lock: ReentrantLock</text><line style="stroke:#181818;stroke-width:1;stroke-dasharray:1,2;" x1="1000.18" x2="1397.6321" y1="656.0613" y2="656.0613"/><text fill="#000000" font-family="sans-serif" font-size="14" lengthAdjust="spacing" textLength="381.4521" x="1008.18" y="676.0564">+TokenBucketRateLimiter(capacity: int, refillRate: int)</text><text fill="#000000" font-family="sans-serif" font-size="14" lengthAdjust="spacing" textLength="181.665" x="1008.18" y="698.3532">+allowRequest(): boolean</text><text fill="#000000" font-family="sans-serif" font-size="14" lengthAdjust="spacing" textLength="85.7363" x="1008.18" y="720.6501">-refill(): void</text></g><!--class LeakyBucketRateLimiter--><g class="entity" data-entity="LeakyBucketRateLimiter" data-source-line="26" data-uid="ent0004" id="entity_LeakyBucketRateLimiter"><rect fill="#F1F1F1" height="204.375" rx="2.5" ry="2.5" style="stroke:#181818;stroke-width:0.5;" width="396.3486" x="397.73" y="515.43"/><ellipse cx="503.0274" cy="531.5784" fill="#C2C2C2" rx="11" ry="11" style="stroke:#181818;stroke-width:1;"/><path d="M505.9961,537.2191 Q505.418,537.5159 504.7774,537.6566 Q504.1367,537.8128 503.4336,537.8128 Q500.9336,537.8128 499.6055,536.1722 Q498.293,534.5159 498.293,531.3909 Q498.293,528.2659 499.6055,526.6097 Q500.9336,524.9534 503.4336,524.9534 Q504.1367,524.9534 504.7774,525.1097 Q505.4336,525.2659 505.9961,525.5628 L505.9961,528.2816 Q505.3711,527.7034 504.7774,527.4378 Q504.1836,527.1566 503.5586,527.1566 Q502.2149,527.1566 501.5274,528.2347 Q500.8399,529.2972 500.8399,531.3909 Q500.8399,533.4847 501.5274,534.5628 Q502.2149,535.6253 503.5586,535.6253 Q504.1836,535.6253 504.7774,535.3597 Q505.3711,535.0784 505.9961,534.5003 L505.9961,537.2191 Z " fill="#000000"/><text fill="#000000" font-family="sans-serif" font-size="14" lengthAdjust="spacing" textLength="171.2539" x="526.5274" y="536.4251">LeakyBucketRateLimiter</text><line style="stroke:#181818;stroke-width:0.5;" x1="398.73" x2="793.0786" y1="547.7269" y2="547.7269"/><text fill="#000000" font-family="sans-serif" font-size="14" lengthAdjust="spacing" textLength="91.5742" x="406.73" y="567.722">-capacity: int</text><text fill="#000000" font-family="sans-serif" font-size="14" lengthAdjust="spacing" textLength="94.0693" x="406.73" y="590.0189">-leakRate: int</text><text fill="#000000" font-family="sans-serif" font-size="14" lengthAdjust="spacing" textLength="72.3584" x="406.73" y="612.3157">-water: int</text><text fill="#000000" font-family="sans-serif" font-size="14" lengthAdjust="spacing" textLength="181.3643" x="406.73" y="634.6126">-lastLeakTimestamp: long</text><line style="stroke:#181818;stroke-width:1;stroke-dasharray:1,2;" x1="398.73" x2="793.0786" y1="644.9144" y2="644.9144"/><text fill="#000000" font-family="sans-serif" font-size="14" lengthAdjust="spacing" textLength="378.3486" x="406.73" y="664.9095">+LeakyBucketRateLimiter(capacity: int, leakRate: int)</text><text fill="#000000" font-family="sans-serif" font-size="14" lengthAdjust="spacing" textLength="181.665" x="406.73" y="687.2064">+allowRequest(): boolean</text><text fill="#000000" font-family="sans-serif" font-size="14" lengthAdjust="spacing" textLength="83.959" x="406.73" y="709.5032">-leak(): void</text></g><!--class Algorithm--><g class="entity" data-entity="Algorithm" data-source-line="38" data-uid="ent0005" id="entity_Algorithm"><rect fill="#F1F1F1" height="92.8906" rx="2.5" ry="2.5" style="stroke:#181818;stroke-width:0.5;" width="129.2754" x="712.27" y="350.39"/><ellipse cx="737.4899" cy="366.5384" fill="#ABABAB" rx="11" ry="11" style="stroke:#181818;stroke-width:1;"/><path d="M741.5993,372.5384 L733.8805,372.5384 L733.8805,360.1478 L741.5993,360.1478 L741.5993,362.3041 L736.3337,362.3041 L736.3337,364.9759 L741.0993,364.9759 L741.0993,367.1322 L736.3337,367.1322 L736.3337,370.3822 L741.5993,370.3822 L741.5993,372.5384 Z " fill="#000000"/><text fill="#000000" font-family="sans-serif" font-size="14" lengthAdjust="spacing" textLength="68.5645" x="756.761" y="371.3851">Algorithm</text><line style="stroke:#181818;stroke-width:0.5;" x1="713.27" x2="840.5454" y1="382.6869" y2="382.6869"/><text fill="#000000" font-family="sans-serif" font-size="14" lengthAdjust="spacing" textLength="111.2754" x="721.27" y="402.682">TOKEN_BUCKET</text><text fill="#000000" font-family="sans-serif" font-size="14" lengthAdjust="spacing" textLength="107.1602" x="721.27" y="424.9789">LEAKY_BUCKET</text><line style="stroke:#181818;stroke-width:0.5;" x1="713.27" x2="840.5454" y1="435.2806" y2="435.2806"/></g><!--class RateLimiterFactory--><g class="entity" data-entity="RateLimiterFactory" data-source-line="44" data-uid="ent0006" id="entity_RateLimiterFactory"><rect fill="#F1F1F1" height="90.5625" rx="2.5" ry="2.5" style="stroke:#181818;stroke-width:0.5;" width="503.6113" x="811.1" y="168.71"/><ellipse cx="988.7011" cy="194.8428" fill="#C2C2C2" rx="11" ry="11" style="stroke:#181818;stroke-width:1;"/><path d="M991.6698,200.4834 Q991.0917,200.7803 990.4511,200.9209 Q989.8104,201.0772 989.1073,201.0772 Q986.6073,201.0772 985.2792,199.4366 Q983.9667,197.7803 983.9667,194.6553 Q983.9667,191.5303 985.2792,189.8741 Q986.6073,188.2178 989.1073,188.2178 Q989.8104,188.2178 990.4511,188.3741 Q991.1073,188.5303 991.6698,188.8272 L991.6698,191.5459 Q991.0448,190.9678 990.4511,190.7022 Q989.8573,190.4209 989.2323,190.4209 Q987.8886,190.4209 987.2011,191.4991 Q986.5136,192.5616 986.5136,194.6553 Q986.5136,196.7491 987.2011,197.8272 Q987.8886,198.8897 989.2323,198.8897 Q989.8573,198.8897 990.4511,198.6241 Q991.0448,198.3428 991.6698,197.7647 L991.6698,200.4834 Z " fill="#000000"/><text fill="#000000" font-family="sans-serif" font-size="12" font-style="italic" lengthAdjust="spacing" textLength="59.6191" x="1049.3461" y="187.8487">&#171;Factory&#187;</text><text fill="#000000" font-family="sans-serif" font-size="14" lengthAdjust="spacing" textLength="133.9092" x="1012.2011" y="209.6739">RateLimiterFactory</text><line style="stroke:#181818;stroke-width:0.5;" x1="812.1" x2="1313.7113" y1="220.9756" y2="220.9756"/><line style="stroke:#181818;stroke-width:0.5;" x1="812.1" x2="1313.7113" y1="228.9756" y2="228.9756"/><text fill="#000000" font-family="sans-serif" font-size="14" lengthAdjust="spacing" text-decoration="underline" textLength="485.6113" x="820.1" y="248.9707">+getRateLimiter(algo: Algorithm, capacity: int, rate: int): RateLimiter</text></g><!--class RateLimiterDemo--><g class="entity" data-entity="RateLimiterDemo" data-source-line="49" data-uid="ent0007" id="entity_RateLimiterDemo"><rect fill="#F1F1F1" height="70.5938" rx="2.5" ry="2.5" style="stroke:#181818;stroke-width:0.5;" width="206.8154" x="307.5" y="7"/><ellipse cx="343.0805" cy="23.1484" fill="#C2C2C2" rx="11" ry="11" style="stroke:#181818;stroke-width:1;"/><path d="M346.0492,28.7891 Q345.4711,29.0859 344.8305,29.2266 Q344.1898,29.3828 343.4867,29.3828 Q340.9867,29.3828 339.6586,27.7422 Q338.3461,26.0859 338.3461,22.9609 Q338.3461,19.8359 339.6586,18.1797 Q340.9867,16.5234 343.4867,16.5234 Q344.1898,16.5234 344.8305,16.6797 Q345.4867,16.8359 346.0492,17.1328 L346.0492,19.8516 Q345.4242,19.2734 344.8305,19.0078 Q344.2367,18.7266 343.6117,18.7266 Q342.268,18.7266 341.5805,19.8047 Q340.893,20.8672 340.893,22.9609 Q340.893,25.0547 341.5805,26.1328 Q342.268,27.1953 343.6117,27.1953 Q344.2367,27.1953 344.8305,26.9297 Q345.4242,26.6484 346.0492,26.0703 L346.0492,28.7891 Z " fill="#000000"/><text fill="#000000" font-family="sans-serif" font-size="14" lengthAdjust="spacing" textLength="123.0811" x="364.6539" y="27.9951">RateLimiterDemo</text><line style="stroke:#181818;stroke-width:0.5;" x1="308.5" x2="513.3154" y1="39.2969" y2="39.2969"/><line style="stroke:#181818;stroke-width:0.5;" x1="308.5" x2="513.3154" y1="47.2969" y2="47.2969"/><text fill="#000000" font-family="sans-serif" font-size="14" lengthAdjust="spacing" text-decoration="underline" textLength="188.8154" x="316.5" y="67.292">+main(args: String[]): void</text></g><g class="entity" data-entity="GMN16" data-source-line="67" data-uid="ent0017" id="entity_GMN16"><path d="M6,175.72 L6,252.2513 L187.8066,252.2513 L187.8066,185.72 L177.8066,175.72 L6,175.72" fill="#FAFAFA" style="stroke:#181818;stroke-width:0.5;"/><path d="M177.8066,175.72 L177.8066,185.72 L187.8066,185.72 L177.8066,175.72" fill="#FAFAFA" style="stroke:#181818;stroke-width:1;"/><text fill="#000000" font-family="sans-serif" font-size="13" font-weight="bold" lengthAdjust="spacing" textLength="123.3096" x="15" y="195.7869">Strategy Pattern</text><text fill="#000000" font-family="sans-serif" font-size="13" lengthAdjust="spacing" textLength="4.1323" x="15" y="210.9197">&#160;</text><text fill="#000000" font-family="sans-serif" font-size="13" lengthAdjust="spacing" textLength="154.8066" x="15" y="226.0525">Defines the contract for</text><text fill="#000000" font-family="sans-serif" font-size="13" lengthAdjust="spacing" textLength="152.8833" x="15" y="241.1853">rate limiting algorithms</text></g><g class="entity" data-entity="GMN19" data-source-line="74" data-uid="ent0020" id="entity_GMN19"><path d="M1478.42,556.65 L1478.42,613.61 L1398.79,617.61 L1478.42,621.61 L1478.42,678.5797 A0,0 0 0 0 1478.42,678.5797 L1717.3873,678.5797 A0,0 0 0 0 1717.3873,678.5797 L1717.3873,566.65 L1707.3873,556.65 L1478.42,556.65 A0,0 0 0 0 1478.42,556.65" fill="#FAFAFA" style="stroke:#181818;stroke-width:0.5;"/><path d="M1707.3873,556.65 L1707.3873,566.65 L1717.3873,566.65 L1707.3873,556.65" fill="#FAFAFA" style="stroke:#181818;stroke-width:0.5;"/><text fill="#000000" font-family="sans-serif" font-size="13" font-weight="bold" lengthAdjust="spacing" textLength="176.7505" x="1487.42" y="576.7169">Token Bucket Algorithm</text><text fill="#000000" font-family="sans-serif" font-size="13" lengthAdjust="spacing" textLength="4.1323" x="1487.42" y="591.8497">&#160;</text><text fill="#000000" font-family="sans-serif" font-size="13" lengthAdjust="spacing" textLength="133.5674" x="1487.42" y="606.9825">&#8226; Allows burst traffic</text><text fill="#000000" font-family="sans-serif" font-size="13" lengthAdjust="spacing" textLength="199.5005" x="1487.42" y="622.1153">&#8226; Tokens refill at constant rate</text><text fill="#000000" font-family="sans-serif" font-size="13" lengthAdjust="spacing" textLength="211.9673" x="1487.42" y="637.2481">&#8226; Thread-safe via ReentrantLock</text><text fill="#000000" font-family="sans-serif" font-size="13" lengthAdjust="spacing" textLength="200.3003" x="1487.42" y="652.381">&#8226; Bucket capacity: max tokens</text><text fill="#000000" font-family="sans-serif" font-size="13" lengthAdjust="spacing" textLength="177.6265" x="1487.42" y="667.5138">&#8226; Refill rate: tokens/second</text></g><g class="entity" data-entity="GMN22" data-source-line="84" data-uid="ent0023" id="entity_GMN22"><path d="M87.7,556.65 L87.7,678.5797 A0,0 0 0 0 87.7,678.5797 L318.0979,678.5797 A0,0 0 0 0 318.0979,678.5797 L318.0979,621.61 L397.28,617.61 L318.0979,613.61 L318.0979,566.65 L308.0979,556.65 L87.7,556.65 A0,0 0 0 0 87.7,556.65" fill="#FAFAFA" style="stroke:#181818;stroke-width:0.5;"/><path d="M308.0979,556.65 L308.0979,566.65 L318.0979,566.65 L308.0979,556.65" fill="#FAFAFA" style="stroke:#181818;stroke-width:0.5;"/><text fill="#000000" font-family="sans-serif" font-size="13" font-weight="bold" lengthAdjust="spacing" textLength="175.2271" x="96.7" y="576.7169">Leaky Bucket Algorithm</text><text fill="#000000" font-family="sans-serif" font-size="13" lengthAdjust="spacing" textLength="4.1323" x="96.7" y="591.8497">&#160;</text><text fill="#000000" font-family="sans-serif" font-size="13" lengthAdjust="spacing" textLength="142.0923" x="96.7" y="606.9825">&#8226; Smooths traffic flow</text><text fill="#000000" font-family="sans-serif" font-size="13" lengthAdjust="spacing" textLength="132.0186" x="96.7" y="622.1153">&#8226; Constant leak rate</text><text fill="#000000" font-family="sans-serif" font-size="13" lengthAdjust="spacing" textLength="203.3979" x="96.7" y="637.2481">&#8226; Thread-safe via synchronized</text><text fill="#000000" font-family="sans-serif" font-size="13" lengthAdjust="spacing" textLength="181.6636" x="96.7" y="652.381">&#8226; Capacity: max water level</text><text fill="#000000" font-family="sans-serif" font-size="13" lengthAdjust="spacing" textLength="188.8047" x="96.7" y="667.5138">&#8226; Leak rate: requests/second</text></g><g class="entity" data-entity="GMN25" data-source-line="94" data-uid="ent0026" id="entity_GMN25"><path d="M481.07,160.59 L481.07,267.3869 A0,0 0 0 0 481.07,267.3869 L730.7394,267.3869 A0,0 0 0 0 730.7394,267.3869 L730.7394,217.99 L810.63,213.99 L730.7394,209.99 L730.7394,170.59 L720.7394,160.59 L481.07,160.59 A0,0 0 0 0 481.07,160.59" fill="#FAFAFA" style="stroke:#181818;stroke-width:0.5;"/><path d="M720.7394,160.59 L720.7394,170.59 L730.7394,170.59 L720.7394,160.59" fill="#FAFAFA" style="stroke:#181818;stroke-width:0.5;"/><text fill="#000000" font-family="sans-serif" font-size="13" font-weight="bold" lengthAdjust="spacing" textLength="115.1274" x="490.07" y="180.6569">Factory Pattern</text><text fill="#000000" font-family="sans-serif" font-size="13" lengthAdjust="spacing" textLength="4.1323" x="490.07" y="195.7897">&#160;</text><text fill="#000000" font-family="sans-serif" font-size="13" lengthAdjust="spacing" textLength="207.0352" x="490.07" y="210.9225">Creates appropriate rate limiter</text><text fill="#000000" font-family="sans-serif" font-size="13" lengthAdjust="spacing" textLength="189.0015" x="490.07" y="226.0553">based on algorithm selection</text><text fill="#000000" font-family="sans-serif" font-size="13" lengthAdjust="spacing" textLength="4.1323" x="490.07" y="241.1881">&#160;</text><text fill="#000000" font-family="sans-serif" font-size="13" lengthAdjust="spacing" textLength="222.6694" x="490.07" y="256.321">Encapsulates object creation logic</text></g><!--reverse link RateLimiter to TokenBucketRateLimiter--><g class="link" data-entity-1="RateLimiter" data-entity-2="TokenBucketRateLimiter" data-source-line="54" data-uid="lnk8" id="link_RateLimiter_TokenBucketRateLimiter"><path codeLine="54" d="M650.0704,436.3191 C746.4804,467.9991 877.98,511.19 998.72,550.85" fill="none" id="RateLimiter-backto-TokenBucketRateLimiter" style="stroke:#181818;stroke-width:1;stroke-dasharray:7,7;"/><polygon fill="none" points="632.97,430.7,648.1974,442.0193,651.9435,430.619,632.97,430.7" style="stroke:#181818;stroke-width:1;"/></g><!--reverse link RateLimiter to LeakyBucketRateLimiter--><g class="link" data-entity-1="RateLimiter" data-entity-2="LeakyBucketRateLimiter" data-source-line="55" data-uid="lnk9" id="link_RateLimiter_LeakyBucketRateLimiter"><path codeLine="55" d="M550.7118,459.6669 C556.7918,480.7769 559.34,489.64 566.71,515.22" fill="none" id="RateLimiter-backto-LeakyBucketRateLimiter" style="stroke:#181818;stroke-width:1;stroke-dasharray:7,7;"/><polygon fill="none" points="545.73,442.37,544.9461,461.3275,556.4774,458.0063,545.73,442.37" style="stroke:#181818;stroke-width:1;"/></g><!--link RateLimiterFactory to Algorithm--><g class="link" data-entity-1="RateLimiterFactory" data-entity-2="Algorithm" data-source-line="57" data-uid="lnk10" id="link_RateLimiterFactory_Algorithm"><path codeLine="57" d="M955.24,259.75 C932.34,270.89 908.79,283.62 887.9,297.39 C864.89,312.56 846.1191,328.1598 826.9491,345.9398" fill="none" id="RateLimiterFactory-to-Algorithm" style="stroke:#181818;stroke-width:1;stroke-dasharray:7,7;"/><polygon fill="#181818" points="822.55,350.02,831.8688,346.8325,826.2159,346.6199,826.4286,340.967,822.55,350.02" style="stroke:#181818;stroke-width:1;"/><text fill="#000000" font-family="sans-serif" font-size="13" lengthAdjust="spacing" textLength="45.6904" x="891.9" y="313.4569">&#171;uses&#187;</text></g><!--link RateLimiterFactory to RateLimiter--><g class="link" data-entity-1="RateLimiterFactory" data-entity-2="RateLimiter" data-source-line="58" data-uid="lnk11" id="link_RateLimiterFactory_RateLimiter"><path codeLine="58" d="M887.03,259.74 C846.91,271.06 804.69,283.88 765.9,297.39 C720.91,313.06 677.7014,330.7353 636.5114,348.6653" fill="none" id="RateLimiterFactory-to-RateLimiter" style="stroke:#181818;stroke-width:1;stroke-dasharray:7,7;"/><polygon fill="#181818" points="631.01,351.06,640.8586,351.1355,635.5945,349.0644,637.6656,343.8003,631.01,351.06" style="stroke:#181818;stroke-width:1;"/><text fill="#000000" font-family="sans-serif" font-size="13" lengthAdjust="spacing" textLength="64.2319" x="769.9" y="313.4569">&#171;creates&#187;</text></g><!--link RateLimiterFactory to TokenBucketRateLimiter--><g class="link" data-entity-1="RateLimiterFactory" data-entity-2="TokenBucketRateLimiter" data-source-line="59" data-uid="lnk12" id="link_RateLimiterFactory_TokenBucketRateLimiter"><path codeLine="59" d="M1084.05,259.53 C1096.01,285.66 1110.76,319.51 1121.9,350.39 C1139.82,400.06 1154.9281,450.2878 1168.1681,498.0778" fill="none" id="RateLimiterFactory-to-TokenBucketRateLimiter" style="stroke:#181818;stroke-width:1;stroke-dasharray:7,7;"/><polygon fill="#181818" points="1169.77,503.86,1171.2219,494.1187,1168.4351,499.0415,1163.5123,496.2547,1169.77,503.86" style="stroke:#181818;stroke-width:1;"/><text fill="#000000" font-family="sans-serif" font-size="13" lengthAdjust="spacing" textLength="92.3774" x="1155.9" y="401.3969">&#171;instantiates&#187;</text></g><!--link RateLimiterFactory to LeakyBucketRateLimiter--><g class="link" data-entity-1="RateLimiterFactory" data-entity-2="LeakyBucketRateLimiter" data-source-line="60" data-uid="lnk13" id="link_RateLimiterFactory_LeakyBucketRateLimiter"><path codeLine="60" d="M1034.58,259.65 C1001.94,308.72 944.69,387.92 881.9,443.28 C852.62,469.1 824.0258,490.0735 790.3458,511.7435" fill="none" id="RateLimiterFactory-to-LeakyBucketRateLimiter" style="stroke:#181818;stroke-width:1;stroke-dasharray:7,7;"/><polygon fill="#181818" points="785.3,514.99,795.033,513.4841,789.5048,512.2846,790.7044,506.7564,785.3,514.99" style="stroke:#181818;stroke-width:1;"/><text fill="#000000" font-family="sans-serif" font-size="13" lengthAdjust="spacing" textLength="92.3774" x="971.9" y="401.3969">&#171;instantiates&#187;</text></g><!--link RateLimiterDemo to RateLimiterFactory--><g class="link" data-entity-1="RateLimiterDemo" data-entity-2="RateLimiterFactory" data-source-line="62" data-uid="lnk14" id="link_RateLimiterDemo_RateLimiterFactory"><path codeLine="62" d="M514.57,70.28 C615.72,96.6 765.5835,135.6087 885.2635,166.7587" fill="none" id="RateLimiterDemo-to-RateLimiterFactory" style="stroke:#181818;stroke-width:1;stroke-dasharray:7,7;"/><polygon fill="#181818" points="891.07,168.27,883.3677,162.132,886.2312,167.0106,881.3526,169.8741,891.07,168.27" style="stroke:#181818;stroke-width:1;"/><text fill="#000000" font-family="sans-serif" font-size="13" lengthAdjust="spacing" textLength="45.6904" x="740.9" y="123.6569">&#171;uses&#187;</text></g><!--link RateLimiterDemo to RateLimiter--><g class="link" data-entity-1="RateLimiterDemo" data-entity-2="RateLimiter" data-source-line="63" data-uid="lnk15" id="link_RateLimiterDemo_RateLimiter"><path codeLine="63" d="M396.88,78.05 C380.75,123.64 359.89,205.15 387.9,267.39 C403.09,301.12 427.2278,325.9302 455.2678,347.4202" fill="none" id="RateLimiterDemo-to-RateLimiter" style="stroke:#181818;stroke-width:1;stroke-dasharray:7,7;"/><polygon fill="#181818" points="460.03,351.07,455.3198,342.4205,456.0615,348.0285,450.4534,348.7701,460.03,351.07" style="stroke:#181818;stroke-width:1;"/><text fill="#000000" font-family="sans-serif" font-size="13" lengthAdjust="spacing" textLength="45.6904" x="391.9" y="218.5569">&#171;uses&#187;</text></g><!--link GMN16 to RateLimiter--><g class="link" data-entity-1="GMN16" data-entity-2="RateLimiter" data-source-line="67" data-uid="lnk18" id="link_GMN16_RateLimiter"><path d="M156.88,252.51 C193.48,274.32 241.78,301.2 286.9,320.39 C333.67,340.27 387.44,357.38 432.76,370.25" fill="none" id="GMN16-RateLimiter" style="stroke:#181818;stroke-width:1;stroke-dasharray:7,7;"/></g><!--SRC=[ZLNlRjCm4F-UfxXlR89r0oI4eghIrXLfMZLGMpuWX92JN59Jnmwsir7699w5H-D9E3j9cxJDXbIbyTtvxdw_-nEpuh9WckKG2sRCkRMQHwN5grZ9EV-9S1QOZKckf8gNMkK8LfVOqXGiIRZCu7LB9bM21WjustQXcLmvuPkp87W6SwkPnMmD7vYrg2LSIVfBMOm1RzvWHYPJddCwmt2uaOz6S1y0F6T2gBiPVY_HsAFZ42Ab138PFBW0OoLZZHQtaLw6i50hb71HnYkqWOTTYIf9EvmBS1ApWiNShaEWs4wWCUL2EBkDA2wrHccz6nD2eif8e5EGTplpzWkUKuOiBq8GIcPUgU9L23EacyIBdTAHn8E1WtKuewDECYzW9vNZnmZPPEw4juedVHIz2c6ARBNkKkH5_qiH1Lnr2BgZWzwgYHNdRv-J2lpXMBlWEq6UWkwCky3FHQOqjyiSvYWmjbn9cCWo3v0UBQr3k7X_FRdvUl5nV3rPq74wER_-r1ozitSijaglOUougXbhfTweXyFwhUdUUu9lUVm0MHSge_3XDeaNi5lu3Uwm7QSkgU3KKgUNcAk-XBokcq7Ek3nYEgF-fLQWQVxyfSFN30Lp99abBqpGcSfVWq7F2EtR7Qvj41nWQp0OjUeG4dkbGJCQzTcsOpbhwckIF7AXP-n3lsU85sdvumvwXkA0Ws2N_9s46w-7KHwwqJQbyboYuPdSRD8RHN43IK-mgW2LTje4O1YDThVly3GQaOP-bxGd91gmImJw491TR25Lxfwx0iAvSVkUDTKnD3K9k7115LJpR6bTs9w-y1cqD_6sqjiy_lx-GsAQQGDHgOsbpmvBKnxNgchTraiGc7MvUj9zbetHaheWEJ4iHRZbR6_TEfiwW-sCvUm7qUQyrnRL3g_7hjAS6gHuoIvmWQd7tTFd7dTxlVRXdkTAsQLf84DADDIgSGFJBRN7i9grTDzhIH_ofBdRmUZNChcvHL7hfutBa7ZrY_GfeFjDN85iEdglkyRLM08h2gqAxIQarLQUeuWPJ80MygR1m3HBkd8oaLGjKmhlIKNVI0T-tjqQ5ogZ9cdo_GS0]--></g></svg>