<svg xmlns="http://www.w3.org/2000/svg" xmlns:xlink="http://www.w3.org/1999/xlink" contentStyleType="text/css" data-diagram-type="CLASS" height="1439px" preserveAspectRatio="none" style="width:2077px;height:1439px;background:#FFFFFF;" version="1.1" viewBox="0 0 2077 1439" width="2077px" zoomAndPan="magnify"><title>Splitwise System - Class Diagram</title><defs/><g><g class="title" data-source-line="2"><text fill="#000000" font-family="sans-serif" font-size="14" font-weight="bold" lengthAdjust="spacing" textLength="263.5938" x="899.7223" y="22.9951">Splitwise System - Class Diagram</text></g><!--class SplitType--><g class="entity" data-entity="SplitType" data-source-line="4" data-uid="ent0002" id="entity_SplitType"><rect fill="#F1F1F1" height="96.8906" rx="2.5" ry="2.5" style="stroke:#181818;stroke-width:0.5;" width="105.9326" x="1786.21" y="44.2969"/><ellipse cx="1805.0592" cy="60.2969" fill="#EB937F" rx="11" ry="11" style="stroke:#181818;stroke-width:1;"/><path d="M1809.1685,66.2969 L1801.4498,66.2969 L1801.4498,53.9063 L1809.1685,53.9063 L1809.1685,56.0625 L1803.9029,56.0625 L1803.9029,58.7344 L1808.6685,58.7344 L1808.6685,60.8906 L1803.9029,60.8906 L1803.9029,64.1406 L1809.1685,64.1406 L1809.1685,66.2969 Z " fill="#000000"/><text fill="#000000" font-family="sans-serif" font-size="14" lengthAdjust="spacing" textLength="65.3789" x="1819.9145" y="65.1436">SplitType</text><line style="stroke:#181818;stroke-width:0.5;" x1="1787.21" x2="1891.1426" y1="76.2969" y2="76.2969"/><text fill="#000000" font-family="sans-serif" font-size="14" lengthAdjust="spacing" textLength="47.4893" x="1792.21" y="93.292">EQUAL</text><text fill="#000000" font-family="sans-serif" font-size="14" lengthAdjust="spacing" textLength="46.3408" x="1792.21" y="109.5889">EXACT</text><text fill="#000000" font-family="sans-serif" font-size="14" lengthAdjust="spacing" textLength="93.9326" x="1792.21" y="125.8857">PERCENTAGE</text><line style="stroke:#181818;stroke-width:0.5;" x1="1787.21" x2="1891.1426" y1="133.1875" y2="133.1875"/></g><!--class Observer--><g class="entity" data-entity="Observer" data-source-line="10" data-uid="ent0003" id="entity_Observer"><rect fill="#F1F1F1" height="64.2969" rx="2.5" ry="2.5" style="stroke:#181818;stroke-width:0.5;" width="193.3984" x="1760.48" y="732.0969"/><ellipse cx="1820.8174" cy="748.0969" fill="#B4A7E5" rx="11" ry="11" style="stroke:#181818;stroke-width:1;"/><path d="M1816.7393,743.8625 L1816.7393,741.7063 L1824.1299,741.7063 L1824.1299,743.8625 L1821.6612,743.8625 L1821.6612,751.9406 L1824.1299,751.9406 L1824.1299,754.0969 L1816.7393,754.0969 L1816.7393,751.9406 L1819.208,751.9406 L1819.208,743.8625 L1816.7393,743.8625 Z " fill="#000000"/><text fill="#000000" font-family="sans-serif" font-size="14" font-style="italic" lengthAdjust="spacing" textLength="64.2236" x="1841.3174" y="752.9436">Observer</text><line style="stroke:#181818;stroke-width:0.5;" x1="1761.48" x2="1952.8784" y1="764.0969" y2="764.0969"/><line style="stroke:#181818;stroke-width:0.5;" x1="1761.48" x2="1952.8784" y1="772.0969" y2="772.0969"/><text fill="#000000" font-family="sans-serif" font-size="14" lengthAdjust="spacing" textLength="181.3984" x="1766.48" y="789.092">+update(message:String)</text></g><!--class User--><g class="entity" data-entity="User" data-source-line="14" data-uid="ent0004" id="entity_User"><rect fill="#F1F1F1" height="202.9375" rx="2.5" ry="2.5" style="stroke:#181818;stroke-width:0.5;" width="383.8887" x="1665.24" y="979.3269"/><ellipse cx="1820.0681" cy="999.4597" fill="#ADD1B2" rx="11" ry="11" style="stroke:#181818;stroke-width:1;"/><path d="M1823.0369,1005.1003 Q1822.4588,1005.3972 1821.8181,1005.5378 Q1821.1775,1005.6941 1820.4744,1005.6941 Q1817.9744,1005.6941 1816.6463,1004.0534 Q1815.3338,1002.3972 1815.3338,999.2722 Q1815.3338,996.1472 1816.6463,994.4909 Q1817.9744,992.8347 1820.4744,992.8347 Q1821.1775,992.8347 1821.8181,992.9909 Q1822.4744,993.1472 1823.0369,993.4441 L1823.0369,996.1628 Q1822.4119,995.5847 1821.8181,995.3191 Q1821.2244,995.0378 1820.5994,995.0378 Q1819.2556,995.0378 1818.5681,996.1159 Q1817.8806,997.1784 1817.8806,999.2722 Q1817.8806,1001.3659 1818.5681,1002.4441 Q1819.2556,1003.5066 1820.5994,1003.5066 Q1821.2244,1003.5066 1821.8181,1003.2409 Q1822.4119,1002.9597 1823.0369,1002.3816 L1823.0369,1005.1003 Z " fill="#000000"/><text fill="#000000" font-family="sans-serif" font-size="12" font-style="italic" lengthAdjust="spacing" textLength="69.7324" x="1838.5681" y="995.4655">&#171;Observer&#187;</text><text fill="#000000" font-family="sans-serif" font-size="14" lengthAdjust="spacing" textLength="31.9102" x="1857.4793" y="1011.2907">User</text><line style="stroke:#181818;stroke-width:0.5;" x1="1666.24" x2="2048.1287" y1="1019.5925" y2="1019.5925"/><text fill="#000000" font-family="sans-serif" font-size="14" lengthAdjust="spacing" textLength="147.0957" x="1671.24" y="1036.5876">-static nextUserId:int</text><text fill="#000000" font-family="sans-serif" font-size="14" lengthAdjust="spacing" textLength="101.7803" x="1671.24" y="1052.8845">+userId:String</text><text fill="#000000" font-family="sans-serif" font-size="14" lengthAdjust="spacing" textLength="97.9316" x="1671.24" y="1069.1814">+name:String</text><text fill="#000000" font-family="sans-serif" font-size="14" lengthAdjust="spacing" textLength="96.8379" x="1671.24" y="1085.4782">+email:String</text><text fill="#000000" font-family="sans-serif" font-size="14" lengthAdjust="spacing" textLength="221.0264" x="1671.24" y="1101.7751">-balances:Map&lt;String,Double&gt;</text><line style="stroke:#181818;stroke-width:0.5;" x1="1666.24" x2="2048.1287" y1="1109.0769" y2="1109.0769"/><text fill="#000000" font-family="sans-serif" font-size="14" lengthAdjust="spacing" textLength="181.3984" x="1671.24" y="1126.072">+update(message:String)</text><text fill="#000000" font-family="sans-serif" font-size="14" lengthAdjust="spacing" textLength="371.8887" x="1671.24" y="1142.3689">+updateBalance(otherUserId:String, amount:double)</text><text fill="#000000" font-family="sans-serif" font-size="14" lengthAdjust="spacing" textLength="173.1201" x="1671.24" y="1158.6657">+getTotalOwed():double</text><text fill="#000000" font-family="sans-serif" font-size="14" lengthAdjust="spacing" textLength="177.2695" x="1671.24" y="1174.9626">+getTotalOwing():double</text></g><!--class Split--><g class="entity" data-entity="Split" data-source-line="26" data-uid="ent0005" id="entity_Split"><rect fill="#F1F1F1" height="80.5938" rx="2.5" ry="2.5" style="stroke:#181818;stroke-width:0.5;" width="130.1797" x="1529.09" y="1243.2669"/><ellipse cx="1574.4088" cy="1259.2669" fill="#ADD1B2" rx="11" ry="11" style="stroke:#181818;stroke-width:1;"/><path d="M1577.3776,1264.9075 Q1576.7995,1265.2044 1576.1588,1265.345 Q1575.5182,1265.5013 1574.8151,1265.5013 Q1572.3151,1265.5013 1570.987,1263.8606 Q1569.6745,1262.2044 1569.6745,1259.0794 Q1569.6745,1255.9544 1570.987,1254.2981 Q1572.3151,1252.6419 1574.8151,1252.6419 Q1575.5182,1252.6419 1576.1588,1252.7981 Q1576.8151,1252.9544 1577.3776,1253.2513 L1577.3776,1255.97 Q1576.7526,1255.3919 1576.1588,1255.1263 Q1575.5651,1254.845 1574.9401,1254.845 Q1573.5963,1254.845 1572.9088,1255.9231 Q1572.2213,1256.9856 1572.2213,1259.0794 Q1572.2213,1261.1731 1572.9088,1262.2513 Q1573.5963,1263.3138 1574.9401,1263.3138 Q1575.5651,1263.3138 1576.1588,1263.0481 Q1576.7526,1262.7669 1577.3776,1262.1888 L1577.3776,1264.9075 Z " fill="#000000"/><text fill="#000000" font-family="sans-serif" font-size="14" lengthAdjust="spacing" textLength="31.042" x="1594.9088" y="1264.1136">Split</text><line style="stroke:#181818;stroke-width:0.5;" x1="1530.09" x2="1658.2697" y1="1275.2669" y2="1275.2669"/><text fill="#000000" font-family="sans-serif" font-size="14" lengthAdjust="spacing" textLength="101.7803" x="1535.09" y="1292.262">+userId:String</text><text fill="#000000" font-family="sans-serif" font-size="14" lengthAdjust="spacing" textLength="118.1797" x="1535.09" y="1308.5589">+amount:double</text><line style="stroke:#181818;stroke-width:0.5;" x1="1530.09" x2="1658.2697" y1="1315.8606" y2="1315.8606"/></g><!--class SplitStrategy--><g class="entity" data-entity="SplitStrategy" data-source-line="31" data-uid="ent0006" id="entity_SplitStrategy"><rect fill="#F1F1F1" height="64.2969" rx="2.5" ry="2.5" style="stroke:#181818;stroke-width:0.5;" width="663.0273" x="644.67" y="1251.4069"/><ellipse cx="926.42" cy="1267.4069" fill="#B4A7E5" rx="11" ry="11" style="stroke:#181818;stroke-width:1;"/><path d="M922.3419,1263.1725 L922.3419,1261.0163 L929.7325,1261.0163 L929.7325,1263.1725 L927.2638,1263.1725 L927.2638,1271.2506 L929.7325,1271.2506 L929.7325,1273.4069 L922.3419,1273.4069 L922.3419,1271.2506 L924.8106,1271.2506 L924.8106,1263.1725 L922.3419,1263.1725 Z " fill="#000000"/><text fill="#000000" font-family="sans-serif" font-size="14" font-style="italic" lengthAdjust="spacing" textLength="91.0273" x="946.92" y="1272.2536">SplitStrategy</text><line style="stroke:#181818;stroke-width:0.5;" x1="645.67" x2="1306.6973" y1="1283.4069" y2="1283.4069"/><line style="stroke:#181818;stroke-width:0.5;" x1="645.67" x2="1306.6973" y1="1291.4069" y2="1291.4069"/><text fill="#000000" font-family="sans-serif" font-size="14" lengthAdjust="spacing" textLength="651.0273" x="650.67" y="1308.402">+calculateSplit(totalAmount:double, userIds:List&lt;String&gt;, values:List&lt;Double&gt;):List&lt;Split&gt;</text></g><!--class EqualSplit--><g class="entity" data-entity="EqualSplit" data-source-line="35" data-uid="ent0007" id="entity_EqualSplit"><rect fill="#F1F1F1" height="48" rx="2.5" ry="2.5" style="stroke:#181818;stroke-width:0.5;" width="102.1162" x="788.12" y="1384.8569"/><ellipse cx="803.12" cy="1400.8569" fill="#ADD1B2" rx="11" ry="11" style="stroke:#181818;stroke-width:1;"/><path d="M806.0888,1406.4975 Q805.5106,1406.7944 804.87,1406.935 Q804.2294,1407.0913 803.5263,1407.0913 Q801.0263,1407.0913 799.6981,1405.4506 Q798.3856,1403.7944 798.3856,1400.6694 Q798.3856,1397.5444 799.6981,1395.8881 Q801.0263,1394.2319 803.5263,1394.2319 Q804.2294,1394.2319 804.87,1394.3881 Q805.5263,1394.5444 806.0888,1394.8413 L806.0888,1397.56 Q805.4638,1396.9819 804.87,1396.7163 Q804.2763,1396.435 803.6513,1396.435 Q802.3075,1396.435 801.62,1397.5131 Q800.9325,1398.5756 800.9325,1400.6694 Q800.9325,1402.7631 801.62,1403.8413 Q802.3075,1404.9038 803.6513,1404.9038 Q804.2763,1404.9038 804.87,1404.6381 Q805.4638,1404.3569 806.0888,1403.7788 L806.0888,1406.4975 Z " fill="#000000"/><text fill="#000000" font-family="sans-serif" font-size="14" lengthAdjust="spacing" textLength="70.1162" x="817.12" y="1405.7036">EqualSplit</text><line style="stroke:#181818;stroke-width:0.5;" x1="789.12" x2="889.2362" y1="1416.8569" y2="1416.8569"/><line style="stroke:#181818;stroke-width:0.5;" x1="789.12" x2="889.2362" y1="1424.8569" y2="1424.8569"/></g><!--class ExactSplit--><g class="entity" data-entity="ExactSplit" data-source-line="36" data-uid="ent0008" id="entity_ExactSplit"><rect fill="#F1F1F1" height="48" rx="2.5" ry="2.5" style="stroke:#181818;stroke-width:0.5;" width="101.9385" x="925.21" y="1384.8569"/><ellipse cx="940.21" cy="1400.8569" fill="#ADD1B2" rx="11" ry="11" style="stroke:#181818;stroke-width:1;"/><path d="M943.1787,1406.4975 Q942.6006,1406.7944 941.96,1406.935 Q941.3194,1407.0913 940.6162,1407.0913 Q938.1162,1407.0913 936.7881,1405.4506 Q935.4756,1403.7944 935.4756,1400.6694 Q935.4756,1397.5444 936.7881,1395.8881 Q938.1162,1394.2319 940.6162,1394.2319 Q941.3194,1394.2319 941.96,1394.3881 Q942.6162,1394.5444 943.1787,1394.8413 L943.1787,1397.56 Q942.5537,1396.9819 941.96,1396.7163 Q941.3662,1396.435 940.7412,1396.435 Q939.3975,1396.435 938.71,1397.5131 Q938.0225,1398.5756 938.0225,1400.6694 Q938.0225,1402.7631 938.71,1403.8413 Q939.3975,1404.9038 940.7412,1404.9038 Q941.3662,1404.9038 941.96,1404.6381 Q942.5537,1404.3569 943.1787,1403.7788 L943.1787,1406.4975 Z " fill="#000000"/><text fill="#000000" font-family="sans-serif" font-size="14" lengthAdjust="spacing" textLength="69.9385" x="954.21" y="1405.7036">ExactSplit</text><line style="stroke:#181818;stroke-width:0.5;" x1="926.21" x2="1026.1485" y1="1416.8569" y2="1416.8569"/><line style="stroke:#181818;stroke-width:0.5;" x1="926.21" x2="1026.1485" y1="1424.8569" y2="1424.8569"/></g><!--class PercentageSplit--><g class="entity" data-entity="PercentageSplit" data-source-line="37" data-uid="ent0009" id="entity_PercentageSplit"><rect fill="#F1F1F1" height="48" rx="2.5" ry="2.5" style="stroke:#181818;stroke-width:0.5;" width="142.6055" x="1061.88" y="1384.8569"/><ellipse cx="1076.88" cy="1400.8569" fill="#ADD1B2" rx="11" ry="11" style="stroke:#181818;stroke-width:1;"/><path d="M1079.8488,1406.4975 Q1079.2706,1406.7944 1078.63,1406.935 Q1077.9894,1407.0913 1077.2863,1407.0913 Q1074.7863,1407.0913 1073.4581,1405.4506 Q1072.1456,1403.7944 1072.1456,1400.6694 Q1072.1456,1397.5444 1073.4581,1395.8881 Q1074.7863,1394.2319 1077.2863,1394.2319 Q1077.9894,1394.2319 1078.63,1394.3881 Q1079.2863,1394.5444 1079.8488,1394.8413 L1079.8488,1397.56 Q1079.2238,1396.9819 1078.63,1396.7163 Q1078.0363,1396.435 1077.4113,1396.435 Q1076.0675,1396.435 1075.38,1397.5131 Q1074.6925,1398.5756 1074.6925,1400.6694 Q1074.6925,1402.7631 1075.38,1403.8413 Q1076.0675,1404.9038 1077.4113,1404.9038 Q1078.0363,1404.9038 1078.63,1404.6381 Q1079.2238,1404.3569 1079.8488,1403.7788 L1079.8488,1406.4975 Z " fill="#000000"/><text fill="#000000" font-family="sans-serif" font-size="14" lengthAdjust="spacing" textLength="110.6055" x="1090.88" y="1405.7036">PercentageSplit</text><line style="stroke:#181818;stroke-width:0.5;" x1="1062.88" x2="1203.4855" y1="1416.8569" y2="1416.8569"/><line style="stroke:#181818;stroke-width:0.5;" x1="1062.88" x2="1203.4855" y1="1424.8569" y2="1424.8569"/></g><!--class SplitFactory--><g class="entity" data-entity="SplitFactory" data-source-line="43" data-uid="ent0013" id="entity_SplitFactory"><rect fill="#F1F1F1" height="64.2969" rx="2.5" ry="2.5" style="stroke:#181818;stroke-width:0.5;" width="345.7852" x="859.29" y="1048.6469"/><ellipse cx="986.1992" cy="1064.6469" fill="#ADD1B2" rx="11" ry="11" style="stroke:#181818;stroke-width:1;"/><path d="M989.1679,1070.2875 Q988.5898,1070.5844 987.9492,1070.725 Q987.3086,1070.8813 986.6054,1070.8813 Q984.1054,1070.8813 982.7773,1069.2406 Q981.4648,1067.5844 981.4648,1064.4594 Q981.4648,1061.3344 982.7773,1059.6781 Q984.1054,1058.0219 986.6054,1058.0219 Q987.3086,1058.0219 987.9492,1058.1781 Q988.6054,1058.3344 989.1679,1058.6313 L989.1679,1061.35 Q988.5429,1060.7719 987.9492,1060.5063 Q987.3554,1060.225 986.7304,1060.225 Q985.3867,1060.225 984.6992,1061.3031 Q984.0117,1062.3656 984.0117,1064.4594 Q984.0117,1066.5531 984.6992,1067.6313 Q985.3867,1068.6938 986.7304,1068.6938 Q987.3554,1068.6938 987.9492,1068.4281 Q988.5429,1068.1469 989.1679,1067.5688 L989.1679,1070.2875 Z " fill="#000000"/><text fill="#000000" font-family="sans-serif" font-size="14" lengthAdjust="spacing" textLength="83.4668" x="1006.6992" y="1069.4936">SplitFactory</text><line style="stroke:#181818;stroke-width:0.5;" x1="860.29" x2="1204.0752" y1="1080.6469" y2="1080.6469"/><line style="stroke:#181818;stroke-width:0.5;" x1="860.29" x2="1204.0752" y1="1088.6469" y2="1088.6469"/><text fill="#000000" font-family="sans-serif" font-size="14" lengthAdjust="spacing" textLength="333.7852" x="865.29" y="1105.642">+getSplitStrategy(type:SplitType):SplitStrategy</text></g><!--class Expense--><g class="entity" data-entity="Expense" data-source-line="47" data-uid="ent0014" id="entity_Expense"><rect fill="#F1F1F1" height="162.0781" rx="2.5" ry="2.5" style="stroke:#181818;stroke-width:0.5;" width="186.5967" x="1403.88" y="999.7569"/><ellipse cx="1463.2228" cy="1015.7569" fill="#ADD1B2" rx="11" ry="11" style="stroke:#181818;stroke-width:1;"/><path d="M1466.1915,1021.3975 Q1465.6134,1021.6944 1464.9728,1021.835 Q1464.3321,1021.9912 1463.629,1021.9912 Q1461.129,1021.9912 1459.8009,1020.3506 Q1458.4884,1018.6944 1458.4884,1015.5694 Q1458.4884,1012.4444 1459.8009,1010.7881 Q1461.129,1009.1319 1463.629,1009.1319 Q1464.3321,1009.1319 1464.9728,1009.2881 Q1465.629,1009.4444 1466.1915,1009.7412 L1466.1915,1012.46 Q1465.5665,1011.8819 1464.9728,1011.6162 Q1464.379,1011.335 1463.754,1011.335 Q1462.4103,1011.335 1461.7228,1012.4131 Q1461.0353,1013.4756 1461.0353,1015.5694 Q1461.0353,1017.6631 1461.7228,1018.7412 Q1462.4103,1019.8037 1463.754,1019.8037 Q1464.379,1019.8037 1464.9728,1019.5381 Q1465.5665,1019.2569 1466.1915,1018.6787 L1466.1915,1021.3975 Z " fill="#000000"/><text fill="#000000" font-family="sans-serif" font-size="14" lengthAdjust="spacing" textLength="59.4111" x="1483.7228" y="1020.6036">Expense</text><line style="stroke:#181818;stroke-width:0.5;" x1="1404.88" x2="1589.4767" y1="1031.7569" y2="1031.7569"/><text fill="#000000" font-family="sans-serif" font-size="14" lengthAdjust="spacing" textLength="174.5967" x="1409.88" y="1048.752">-static nextExpenseId:int</text><text fill="#000000" font-family="sans-serif" font-size="14" lengthAdjust="spacing" textLength="130.4229" x="1409.88" y="1065.0489">+expenseId:String</text><text fill="#000000" font-family="sans-serif" font-size="14" lengthAdjust="spacing" textLength="136.0693" x="1409.88" y="1081.3457">+description:String</text><text fill="#000000" font-family="sans-serif" font-size="14" lengthAdjust="spacing" textLength="151.1904" x="1409.88" y="1097.6426">+totalAmount:double</text><text fill="#000000" font-family="sans-serif" font-size="14" lengthAdjust="spacing" textLength="151.2861" x="1409.88" y="1113.9395">+paidByUserId:String</text><text fill="#000000" font-family="sans-serif" font-size="14" lengthAdjust="spacing" textLength="132.166" x="1409.88" y="1130.2364">+splits:List&lt;Split&gt;</text><text fill="#000000" font-family="sans-serif" font-size="14" lengthAdjust="spacing" textLength="112.2119" x="1409.88" y="1146.5332">+groupId:String</text><line style="stroke:#181818;stroke-width:0.5;" x1="1404.88" x2="1589.4767" y1="1153.835" y2="1153.835"/></g><!--class DebtSimplifier--><g class="entity" data-entity="DebtSimplifier" data-source-line="57" data-uid="ent0015" id="entity_DebtSimplifier"><rect fill="#F1F1F1" height="64.2969" rx="2.5" ry="2.5" style="stroke:#181818;stroke-width:0.5;" width="740.1162" x="84.12" y="1048.6469"/><ellipse cx="399.9096" cy="1064.6469" fill="#ADD1B2" rx="11" ry="11" style="stroke:#181818;stroke-width:1;"/><path d="M402.8783,1070.2875 Q402.3002,1070.5844 401.6596,1070.725 Q401.0189,1070.8813 400.3158,1070.8813 Q397.8158,1070.8813 396.4877,1069.2406 Q395.1752,1067.5844 395.1752,1064.4594 Q395.1752,1061.3344 396.4877,1059.6781 Q397.8158,1058.0219 400.3158,1058.0219 Q401.0189,1058.0219 401.6596,1058.1781 Q402.3158,1058.3344 402.8783,1058.6313 L402.8783,1061.35 Q402.2533,1060.7719 401.6596,1060.5063 Q401.0658,1060.225 400.4408,1060.225 Q399.0971,1060.225 398.4096,1061.3031 Q397.7221,1062.3656 397.7221,1064.4594 Q397.7221,1066.5531 398.4096,1067.6313 Q399.0971,1068.6938 400.4408,1068.6938 Q401.0658,1068.6938 401.6596,1068.4281 Q402.2533,1068.1469 402.8783,1067.5688 L402.8783,1070.2875 Z " fill="#000000"/><text fill="#000000" font-family="sans-serif" font-size="14" lengthAdjust="spacing" textLength="100.0371" x="420.4096" y="1069.4936">DebtSimplifier</text><line style="stroke:#181818;stroke-width:0.5;" x1="85.12" x2="823.2362" y1="1080.6469" y2="1080.6469"/><line style="stroke:#181818;stroke-width:0.5;" x1="85.12" x2="823.2362" y1="1088.6469" y2="1088.6469"/><text fill="#000000" font-family="sans-serif" font-size="14" lengthAdjust="spacing" textLength="728.1162" x="90.12" y="1105.642">+simplifyDebts(groupBalances:Map&lt;String,Map&lt;String,Double&gt;&gt;):Map&lt;String,Map&lt;String,Double&gt;&gt;</text></g><!--class Group--><g class="entity" data-entity="Group" data-source-line="61" data-uid="ent0016" id="entity_Group"><rect fill="#F1F1F1" height="276.1563" rx="2.5" ry="2.5" style="stroke:#181818;stroke-width:0.5;" width="541.792" x="761.28" y="626.1669"/><ellipse cx="1006.4612" cy="642.1669" fill="#ADD1B2" rx="11" ry="11" style="stroke:#181818;stroke-width:1;"/><path d="M1009.4299,647.8075 Q1008.8518,648.1044 1008.2112,648.245 Q1007.5705,648.4012 1006.8674,648.4012 Q1004.3674,648.4012 1003.0393,646.7606 Q1001.7268,645.1044 1001.7268,641.9794 Q1001.7268,638.8544 1003.0393,637.1981 Q1004.3674,635.5419 1006.8674,635.5419 Q1007.5705,635.5419 1008.2112,635.6981 Q1008.8674,635.8544 1009.4299,636.1512 L1009.4299,638.87 Q1008.8049,638.2919 1008.2112,638.0262 Q1007.6174,637.745 1006.9924,637.745 Q1005.6487,637.745 1004.9612,638.8231 Q1004.2737,639.8856 1004.2737,641.9794 Q1004.2737,644.0731 1004.9612,645.1512 Q1005.6487,646.2137 1006.9924,646.2137 Q1007.6174,646.2137 1008.2112,645.9481 Q1008.8049,645.6669 1009.4299,645.0887 L1009.4299,647.8075 Z " fill="#000000"/><text fill="#000000" font-family="sans-serif" font-size="14" lengthAdjust="spacing" textLength="42.9297" x="1026.9612" y="647.0136">Group</text><line style="stroke:#181818;stroke-width:0.5;" x1="762.28" x2="1302.072" y1="658.1669" y2="658.1669"/><text fill="#000000" font-family="sans-serif" font-size="14" lengthAdjust="spacing" textLength="158.1152" x="767.28" y="675.162">-static nextGroupId:int</text><text fill="#000000" font-family="sans-serif" font-size="14" lengthAdjust="spacing" textLength="112.2119" x="767.28" y="691.4589">+groupId:String</text><text fill="#000000" font-family="sans-serif" font-size="14" lengthAdjust="spacing" textLength="97.9316" x="767.28" y="707.7557">+name:String</text><text fill="#000000" font-family="sans-serif" font-size="14" lengthAdjust="spacing" textLength="156.0508" x="767.28" y="724.0526">-members:List&lt;User&gt;</text><text fill="#000000" font-family="sans-serif" font-size="14" lengthAdjust="spacing" textLength="276.0898" x="767.28" y="740.3495">-groupExpenses:Map&lt;String,Expense&gt;</text><text fill="#000000" font-family="sans-serif" font-size="14" lengthAdjust="spacing" textLength="361.9492" x="767.28" y="756.6464">-groupBalances:Map&lt;String,Map&lt;String,Double&gt;&gt;</text><line style="stroke:#181818;stroke-width:0.5;" x1="762.28" x2="1302.072" y1="763.9481" y2="763.9481"/><text fill="#000000" font-family="sans-serif" font-size="14" lengthAdjust="spacing" textLength="173.7559" x="767.28" y="780.9432">+addMember(user:User)</text><text fill="#000000" font-family="sans-serif" font-size="14" lengthAdjust="spacing" textLength="284.4502" x="767.28" y="797.2401">+removeMember(userId:String):boolean</text><text fill="#000000" font-family="sans-serif" font-size="14" lengthAdjust="spacing" textLength="121.7686" x="767.28" y="813.537">+addExpense(...)</text><text fill="#000000" font-family="sans-serif" font-size="14" lengthAdjust="spacing" textLength="529.792" x="767.28" y="829.8339">+settlePayment(fromUserId:String,toUserId:String,amount:double):boolean</text><text fill="#000000" font-family="sans-serif" font-size="14" lengthAdjust="spacing" textLength="161.3486" x="767.28" y="846.1307">+simplifyGroupDebts()</text><text fill="#000000" font-family="sans-serif" font-size="14" lengthAdjust="spacing" textLength="164.8965" x="767.28" y="862.4276">+showGroupBalances()</text><text fill="#000000" font-family="sans-serif" font-size="14" lengthAdjust="spacing" textLength="315.2734" x="767.28" y="878.7245">+canUserLeaveGroup(userId:String):boolean</text><text fill="#000000" font-family="sans-serif" font-size="14" lengthAdjust="spacing" textLength="236.9814" x="767.28" y="895.0214">+notifyMembers(message:String)</text></g><!--class Splitwise--><g class="entity" data-entity="Splitwise" data-source-line="78" data-uid="ent0017" id="entity_Splitwise"><rect fill="#F1F1F1" height="330.9844" rx="2.5" ry="2.5" style="stroke:#181818;stroke-width:0.5;" width="459.0977" x="1291.63" y="218.1869"/><ellipse cx="1483.3155" cy="245.3041" fill="#ADD1B2" rx="11" ry="11" style="stroke:#181818;stroke-width:1;"/><path d="M1486.2843,250.9447 Q1485.7062,251.2416 1485.0655,251.3822 Q1484.4249,251.5384 1483.7218,251.5384 Q1481.2218,251.5384 1479.8937,249.8978 Q1478.5812,248.2416 1478.5812,245.1166 Q1478.5812,241.9916 1479.8937,240.3353 Q1481.2218,238.6791 1483.7218,238.6791 Q1484.4249,238.6791 1485.0655,238.8353 Q1485.7218,238.9916 1486.2843,239.2884 L1486.2843,242.0072 Q1485.6593,241.4291 1485.0655,241.1634 Q1484.4718,240.8822 1483.8468,240.8822 Q1482.503,240.8822 1481.8155,241.9603 Q1481.128,243.0228 1481.128,245.1166 Q1481.128,247.2103 1481.8155,248.2884 Q1482.503,249.3509 1483.8468,249.3509 Q1484.4718,249.3509 1485.0655,249.0853 Q1485.6593,248.8041 1486.2843,248.2259 L1486.2843,250.9447 Z " fill="#000000"/><text fill="#000000" font-family="sans-serif" font-size="12" font-style="italic" lengthAdjust="spacing" textLength="71.2266" x="1501.8155" y="234.3255">&#171;Singleton&#187;</text><text fill="#000000" font-family="sans-serif" font-size="12" font-style="italic" lengthAdjust="spacing" textLength="57.8906" x="1508.4835" y="248.2943">&#171;Facade&#187;</text><text fill="#000000" font-family="sans-serif" font-size="14" lengthAdjust="spacing" textLength="62.2891" x="1506.2843" y="264.1195">Splitwise</text><line style="stroke:#181818;stroke-width:0.5;" x1="1292.63" x2="1749.7277" y1="272.4212" y2="272.4212"/><text fill="#000000" font-family="sans-serif" font-size="14" lengthAdjust="spacing" textLength="178.7461" x="1297.63" y="289.4164">-users:Map&lt;String,User&gt;</text><text fill="#000000" font-family="sans-serif" font-size="14" lengthAdjust="spacing" textLength="200.1973" x="1297.63" y="305.7132">-groups:Map&lt;String,Group&gt;</text><text fill="#000000" font-family="sans-serif" font-size="14" lengthAdjust="spacing" textLength="234.8896" x="1297.63" y="322.0101">-expenses:Map&lt;String,Expense&gt;</text><text fill="#000000" font-family="sans-serif" font-size="14" lengthAdjust="spacing" textLength="174.2549" x="1297.63" y="338.307">-static instance:Splitwise</text><line style="stroke:#181818;stroke-width:0.5;" x1="1292.63" x2="1749.7277" y1="345.6087" y2="345.6087"/><text fill="#000000" font-family="sans-serif" font-size="14" lengthAdjust="spacing" textLength="172.1973" x="1297.63" y="362.6039">+getInstance():Splitwise</text><text fill="#000000" font-family="sans-serif" font-size="14" lengthAdjust="spacing" textLength="311.6982" x="1297.63" y="378.9007">+createUser(name:String,email:String):User</text><text fill="#000000" font-family="sans-serif" font-size="14" lengthAdjust="spacing" textLength="244.1797" x="1297.63" y="395.1976">+createGroup(name:String):Group</text><text fill="#000000" font-family="sans-serif" font-size="14" lengthAdjust="spacing" textLength="340.3955" x="1297.63" y="411.4945">+addUserToGroup(userId:String, groupId:String)</text><text fill="#000000" font-family="sans-serif" font-size="14" lengthAdjust="spacing" textLength="447.0977" x="1297.63" y="427.7914">+removeUserFromGroup(userId:String, groupId:String):boolean</text><text fill="#000000" font-family="sans-serif" font-size="14" lengthAdjust="spacing" textLength="181.8154" x="1297.63" y="444.0882">+addExpenseToGroup(...)</text><text fill="#000000" font-family="sans-serif" font-size="14" lengthAdjust="spacing" textLength="189.9502" x="1297.63" y="460.3851">+addIndividualExpense(...)</text><text fill="#000000" font-family="sans-serif" font-size="14" lengthAdjust="spacing" textLength="193.2451" x="1297.63" y="476.682">+settlePaymentInGroup(...)</text><text fill="#000000" font-family="sans-serif" font-size="14" lengthAdjust="spacing" textLength="205.4951" x="1297.63" y="492.9789">+settleIndividualPayment(...)</text><text fill="#000000" font-family="sans-serif" font-size="14" lengthAdjust="spacing" textLength="236.6328" x="1297.63" y="509.2757">+showUserBalance(userId:String)</text><text fill="#000000" font-family="sans-serif" font-size="14" lengthAdjust="spacing" textLength="265.3779" x="1297.63" y="525.5726">+showGroupBalances(groupId:String)</text><text fill="#000000" font-family="sans-serif" font-size="14" lengthAdjust="spacing" textLength="261.8301" x="1297.63" y="541.8695">+simplifyGroupDebts(groupId:String)</text></g><!--class SplitwiseApp--><g class="entity" data-entity="SplitwiseApp" data-source-line="97" data-uid="ent0018" id="entity_SplitwiseApp"><rect fill="#F1F1F1" height="64.2969" rx="2.5" ry="2.5" style="stroke:#181818;stroke-width:0.5;" width="157.5713" x="1328.39" y="60.5869"/><ellipse cx="1359.5592" cy="76.5869" fill="#ADD1B2" rx="11" ry="11" style="stroke:#181818;stroke-width:1;"/><path d="M1362.528,82.2275 Q1361.9499,82.5244 1361.3092,82.665 Q1360.6686,82.8212 1359.9655,82.8212 Q1357.4655,82.8212 1356.1374,81.1806 Q1354.8249,79.5244 1354.8249,76.3994 Q1354.8249,73.2744 1356.1374,71.6181 Q1357.4655,69.9619 1359.9655,69.9619 Q1360.6686,69.9619 1361.3092,70.1181 Q1361.9655,70.2744 1362.528,70.5712 L1362.528,73.29 Q1361.903,72.7119 1361.3092,72.4462 Q1360.7155,72.165 1360.0905,72.165 Q1358.7467,72.165 1358.0592,73.2431 Q1357.3717,74.3056 1357.3717,76.3994 Q1357.3717,78.4931 1358.0592,79.5712 Q1358.7467,80.6337 1360.0905,80.6337 Q1360.7155,80.6337 1361.3092,80.3681 Q1361.903,80.0869 1362.528,79.5087 L1362.528,82.2275 Z " fill="#000000"/><text fill="#000000" font-family="sans-serif" font-size="14" lengthAdjust="spacing" textLength="89.6396" x="1377.1524" y="81.4336">SplitwiseApp</text><line style="stroke:#181818;stroke-width:0.5;" x1="1329.39" x2="1484.9613" y1="92.5869" y2="92.5869"/><line style="stroke:#181818;stroke-width:0.5;" x1="1329.39" x2="1484.9613" y1="100.5869" y2="100.5869"/><text fill="#000000" font-family="sans-serif" font-size="14" lengthAdjust="spacing" textLength="145.5713" x="1334.39" y="117.582">+main(args:String[])</text></g><g class="entity" data-entity="GMN39" data-source-line="120" data-uid="ent0040" id="entity_GMN39"><path d="M1521.04,72.6069 L1521.04,112.8725 A0,0 0 0 0 1521.04,112.8725 L1624.46,112.8725 L1586.71,218.0369 L1632.46,112.8725 L1751.3286,112.8725 A0,0 0 0 0 1751.3286,112.8725 L1751.3286,82.6069 L1741.3286,72.6069 L1521.04,72.6069 A0,0 0 0 0 1521.04,72.6069" fill="#FEFFDD" style="stroke:#181818;stroke-width:0.5;"/><path d="M1741.3286,72.6069 L1741.3286,82.6069 L1751.3286,82.6069 L1741.3286,72.6069" fill="#FEFFDD" style="stroke:#181818;stroke-width:0.5;"/><text fill="#000000" font-family="sans-serif" font-size="13" lengthAdjust="spacing" textLength="163.4141" x="1527.04" y="89.6738">Central facade singleton.</text><text fill="#000000" font-family="sans-serif" font-size="13" lengthAdjust="spacing" textLength="209.2886" x="1527.04" y="104.8066">Delegates operations to groups.</text></g><g class="entity" data-entity="GMN42" data-source-line="125" data-uid="ent0043" id="entity_GMN42"><path d="M1338.52,736.5469 L1338.52,760.2469 L1303.18,764.2469 L1338.52,768.2469 L1338.52,791.9453 A0,0 0 0 0 1338.52,791.9453 L1613.8388,791.9453 A0,0 0 0 0 1613.8388,791.9453 L1613.8388,746.5469 L1603.8388,736.5469 L1338.52,736.5469 A0,0 0 0 0 1338.52,736.5469" fill="#FEFFDD" style="stroke:#181818;stroke-width:0.5;"/><path d="M1603.8388,736.5469 L1603.8388,746.5469 L1613.8388,746.5469 L1603.8388,736.5469" fill="#FEFFDD" style="stroke:#181818;stroke-width:0.5;"/><text fill="#000000" font-family="sans-serif" font-size="13" lengthAdjust="spacing" textLength="129.5049" x="1344.52" y="753.6138">Observable subject.</text><text fill="#000000" font-family="sans-serif" font-size="13" lengthAdjust="spacing" textLength="227.2271" x="1344.52" y="768.7466">Maintains antisymmetric balances:</text><text fill="#000000" font-family="sans-serif" font-size="13" lengthAdjust="spacing" textLength="254.3188" x="1344.52" y="783.8794">balance[A][B] = +x means B owes A x.</text></g><g class="entity" data-entity="GMN45" data-source-line="131" data-uid="ent0046" id="entity_GMN45"><path d="M354.4,1263.4269 L354.4,1303.6925 A0,0 0 0 0 354.4,1303.6925 L553.9659,1303.6925 A0,0 0 0 0 553.9659,1303.6925 L553.9659,1273.4269 L543.9659,1263.4269 L458.18,1263.4269 L454.18,1113.1669 L450.18,1263.4269 L354.4,1263.4269 A0,0 0 0 0 354.4,1263.4269" fill="#FEFFDD" style="stroke:#181818;stroke-width:0.5;"/><path d="M543.9659,1263.4269 L543.9659,1273.4269 L553.9659,1273.4269 L543.9659,1263.4269" fill="#FEFFDD" style="stroke:#181818;stroke-width:0.5;"/><text fill="#000000" font-family="sans-serif" font-size="13" lengthAdjust="spacing" textLength="178.5659" x="360.4" y="1280.4938">Greedy netting to minimize</text><text fill="#000000" font-family="sans-serif" font-size="13" lengthAdjust="spacing" textLength="153.9053" x="360.4" y="1295.6266">number of owed edges.</text></g><g class="entity" data-entity="GMN48" data-source-line="136" data-uid="ent0049" id="entity_GMN48"><path d="M1342.76,1263.4269 L1342.76,1279.5569 L1308.11,1283.5569 L1342.76,1287.5569 L1342.76,1303.6925 A0,0 0 0 0 1342.76,1303.6925 L1493.595,1303.6925 A0,0 0 0 0 1493.595,1303.6925 L1493.595,1273.4269 L1483.595,1263.4269 L1342.76,1263.4269 A0,0 0 0 0 1342.76,1263.4269" fill="#FEFFDD" style="stroke:#181818;stroke-width:0.5;"/><path d="M1483.595,1263.4269 L1483.595,1273.4269 L1493.595,1273.4269 L1483.595,1263.4269" fill="#FEFFDD" style="stroke:#181818;stroke-width:0.5;"/><text fill="#000000" font-family="sans-serif" font-size="13" lengthAdjust="spacing" textLength="129.835" x="1348.76" y="1280.4938">Strategy pattern for</text><text fill="#000000" font-family="sans-serif" font-size="13" lengthAdjust="spacing" textLength="117.8315" x="1348.76" y="1295.6266">split computation.</text></g><!--reverse link SplitStrategy to EqualSplit--><g class="link" data-entity-1="SplitStrategy" data-entity-2="EqualSplit" data-source-line="39" data-uid="lnk10" id="link_SplitStrategy_EqualSplit"><path codeLine="39" d="M916.0714,1327.4228 C890.0214,1348.8228 873.32,1365.2569 854.73,1384.6569" fill="none" id="SplitStrategy-backto-EqualSplit" style="stroke:#181818;stroke-width:1;stroke-dasharray:7,7;"/><polygon fill="none" points="929.98,1315.9969,912.2628,1322.7866,919.88,1332.059,929.98,1315.9969" style="stroke:#181818;stroke-width:1;"/></g><!--reverse link SplitStrategy to EqualSplit--><g class="link" data-entity-1="SplitStrategy" data-entity-2="EqualSplit" data-source-line="114" data-uid="lnk33" id="link_SplitStrategy_EqualSplit"><path codeLine="114" d="M940.4751,1328.7278 C919.0851,1350.1278 900.48,1365.2569 875.78,1384.6569" fill="none" id="SplitStrategy-backto-EqualSplit-1" style="stroke:#181818;stroke-width:1;"/><polygon fill="none" points="953.2,1315.9969,936.2314,1324.4861,944.7187,1332.9694,953.2,1315.9969" style="stroke:#181818;stroke-width:1;"/></g><!--reverse link SplitStrategy to ExactSplit--><g class="link" data-entity-1="SplitStrategy" data-entity-2="ExactSplit" data-source-line="40" data-uid="lnk11" id="link_SplitStrategy_ExactSplit"><path codeLine="40" d="M963.0013,1333.8965 C960.7313,1355.2965 962.99,1365.2569 965.96,1384.6569" fill="none" id="SplitStrategy-backto-ExactSplit" style="stroke:#181818;stroke-width:1;stroke-dasharray:7,7;"/><polygon fill="none" points="964.9,1315.9969,957.0348,1333.2636,968.9678,1334.5294,964.9,1315.9969" style="stroke:#181818;stroke-width:1;"/></g><!--reverse link SplitStrategy to ExactSplit--><g class="link" data-entity-1="SplitStrategy" data-entity-2="ExactSplit" data-source-line="115" data-uid="lnk35" id="link_SplitStrategy_ExactSplit"><path codeLine="115" d="M990.1261,1333.8847 C992.5261,1355.2847 990.15,1365.2569 987,1384.6569" fill="none" id="SplitStrategy-backto-ExactSplit-1" style="stroke:#181818;stroke-width:1;"/><polygon fill="none" points="988.12,1315.9969,984.1635,1334.5534,996.0887,1333.216,988.12,1315.9969" style="stroke:#181818;stroke-width:1;"/></g><!--reverse link SplitStrategy to PercentageSplit--><g class="link" data-entity-1="SplitStrategy" data-entity-2="PercentageSplit" data-source-line="41" data-uid="lnk12" id="link_SplitStrategy_PercentageSplit"><path codeLine="41" d="M1018.6001,1327.7071 C1043.5001,1349.0371 1065.5,1365.0669 1093.14,1384.4669" fill="none" id="SplitStrategy-backto-PercentageSplit" style="stroke:#181818;stroke-width:1;stroke-dasharray:7,7;"/><polygon fill="none" points="1004.93,1315.9969,1014.6967,1332.2638,1022.5035,1323.1503,1004.93,1315.9969" style="stroke:#181818;stroke-width:1;"/></g><!--reverse link SplitStrategy to PercentageSplit--><g class="link" data-entity-1="SplitStrategy" data-entity-2="PercentageSplit" data-source-line="116" data-uid="lnk37" id="link_SplitStrategy_PercentageSplit"><path codeLine="116" d="M1042.7372,1326.5289 C1072.3972,1347.9289 1092.9,1365.2569 1114.46,1384.6569" fill="none" id="SplitStrategy-backto-PercentageSplit-1" style="stroke:#181818;stroke-width:1;"/><polygon fill="none" points="1028.14,1315.9969,1039.2265,1331.3946,1046.2478,1321.6632,1028.14,1315.9969" style="stroke:#181818;stroke-width:1;"/></g><!--reverse link Observer to User--><g class="link" data-entity-1="Observer" data-entity-2="User" data-source-line="101" data-uid="lnk19" id="link_Observer_User"><path codeLine="101" d="M1857.18,814.8469 C1857.18,857.1469 1857.18,916.1469 1857.18,979.1469" fill="none" id="Observer-backto-User" style="stroke:#181818;stroke-width:1;stroke-dasharray:7,7;"/><polygon fill="none" points="1857.18,796.8469,1851.18,814.8469,1863.18,814.8469,1857.18,796.8469" style="stroke:#181818;stroke-width:1;"/></g><!--reverse link Group to User--><g class="link" data-entity-1="Group" data-entity-2="User" data-source-line="102" data-uid="lnk20" id="link_Group_User"><path codeLine="102" d="M1314.9503,900.5032 C1320.8403,902.4732 1315.34,900.5469 1321.18,902.3269 C1407.59,928.6269 1435.41,907.2369 1522.18,932.3269 C1569.64,946.0469 1619.18,965.0369 1665.14,984.8269" fill="none" id="Group-backto-User" style="stroke:#181818;stroke-width:1;"/><polygon fill="none" points="1303.57,896.6969,1307.9914,902.3935,1314.9503,900.5032,1310.5289,894.8066,1303.57,896.6969" style="stroke:#181818;stroke-width:1;"/><text fill="#000000" font-family="sans-serif" font-size="13" lengthAdjust="spacing" textLength="61.6929" x="1570.18" y="945.3938">members</text><text fill="#000000" font-family="sans-serif" font-size="13" lengthAdjust="spacing" textLength="8.271" x="1310.8888" y="897.0846">1</text><text fill="#000000" font-family="sans-serif" font-size="13" lengthAdjust="spacing" textLength="6.5" x="1650.9221" y="977.5315">*</text></g><!--reverse link Group to Expense--><g class="link" data-entity-1="Group" data-entity-2="Expense" data-source-line="103" data-uid="lnk21" id="link_Group_Expense"><path codeLine="103" d="M1314.4388,899.3937 C1320.3888,902.0337 1315.33,899.7669 1321.18,902.3269 C1354.08,916.6969 1368.16,909.8769 1396.18,932.3269 C1418.95,950.5669 1438.61,975.2869 1454.38,999.2769" fill="none" id="Group-backto-Expense" style="stroke:#181818;stroke-width:1;"/><polygon fill="none" points="1303.47,894.5269,1307.3321,900.6165,1314.4388,899.3937,1310.5767,893.304,1303.47,894.5269" style="stroke:#181818;stroke-width:1;"/><text fill="#000000" font-family="sans-serif" font-size="13" lengthAdjust="spacing" textLength="99.9819" x="1414.18" y="945.3938">groupExpenses</text><text fill="#000000" font-family="sans-serif" font-size="13" lengthAdjust="spacing" textLength="8.271" x="1310.7861" y="910.2554">1</text><text fill="#000000" font-family="sans-serif" font-size="13" lengthAdjust="spacing" textLength="6.5" x="1444.4657" y="988.6994">*</text></g><!--link Group to Expense--><g class="link" data-entity-1="Group" data-entity-2="Expense" data-source-line="108" data-uid="lnk26" id="link_Group_Expense"><path codeLine="108" d="M1254.88,902.6969 C1269.96,912.5869 1284.85,922.5269 1299.18,932.3269 C1333.77,955.9669 1366.0118,979.4545 1398.5918,1003.9145" fill="none" id="Group-to-Expense" style="stroke:#181818;stroke-width:1;stroke-dasharray:7,7;"/><polygon fill="#181818" points="1403.39,1007.5169,1398.5942,998.9145,1399.3915,1004.5149,1393.7911,1005.3122,1403.39,1007.5169" style="stroke:#181818;stroke-width:1;"/><text fill="#000000" font-family="sans-serif" font-size="13" lengthAdjust="spacing" textLength="48.3247" x="1321.18" y="945.3938">creates</text></g><!--reverse link Expense to Split--><g class="link" data-entity-1="Expense" data-entity-2="Split" data-source-line="104" data-uid="lnk22" id="link_Expense_Split"><path codeLine="104" d="M1541.291,1173.1015 C1554.681,1200.8115 1563.87,1219.8169 1574.99,1242.8269" fill="none" id="Expense-backto-Split" style="stroke:#181818;stroke-width:1;"/><polygon fill="#181818" points="1536.07,1162.2969,1535.079,1169.4396,1541.291,1173.1015,1542.2821,1165.9589,1536.07,1162.2969" style="stroke:#181818;stroke-width:1;"/><text fill="#000000" font-family="sans-serif" font-size="13" lengthAdjust="spacing" textLength="8.271" x="1531.0801" y="1182.018">1</text><text fill="#000000" font-family="sans-serif" font-size="13" lengthAdjust="spacing" textLength="6.5" x="1565.4933" y="1232.2166">*</text></g><!--link Group to SplitStrategy--><g class="link" data-entity-1="Group" data-entity-2="SplitStrategy" data-source-line="105" data-uid="lnk23" id="link_Group_SplitStrategy"><path codeLine="105" d="M1178.75,902.6769 C1196.47,926.4369 1211.9,952.2669 1222.18,979.3269 C1254.2,1063.6469 1272.5,1107.4069 1222.18,1182.2669 C1200.63,1214.3169 1172.3898,1233.8325 1136.6898,1248.6825" fill="none" id="Group-to-SplitStrategy" style="stroke:#181818;stroke-width:1;stroke-dasharray:7,7;"/><polygon fill="#181818" points="1131.15,1250.9869,1140.996,1251.2235,1135.7665,1249.0666,1137.9235,1243.8371,1131.15,1250.9869" style="stroke:#181818;stroke-width:1;"/><text fill="#000000" font-family="sans-serif" font-size="13" lengthAdjust="spacing" textLength="29.7832" x="1254.18" y="1085.3638">uses</text></g><!--link Group to SplitFactory--><g class="link" data-entity-1="Group" data-entity-2="SplitFactory" data-source-line="106" data-uid="lnk24" id="link_Group_SplitFactory"><path codeLine="106" d="M1032.18,902.7569 C1032.18,956.8069 1032.18,1008.0369 1032.18,1042.3269" fill="none" id="Group-to-SplitFactory" style="stroke:#181818;stroke-width:1;stroke-dasharray:7,7;"/><polygon fill="#181818" points="1032.18,1048.3269,1036.18,1039.3269,1032.18,1043.3269,1028.18,1039.3269,1032.18,1048.3269" style="stroke:#181818;stroke-width:1;"/><text fill="#000000" font-family="sans-serif" font-size="13" lengthAdjust="spacing" textLength="45.3984" x="1033.18" y="945.3938">selects</text></g><!--link Group to DebtSimplifier--><g class="link" data-entity-1="Group" data-entity-2="DebtSimplifier" data-source-line="107" data-uid="lnk25" id="link_Group_DebtSimplifier"><path codeLine="107" d="M779.5,902.7569 C680.32,956.7269 580.6102,1010.989 517.5602,1045.299" fill="none" id="Group-to-DebtSimplifier" style="stroke:#181818;stroke-width:1;stroke-dasharray:7,7;"/><polygon fill="#181818" points="512.29,1048.1669,522.1073,1047.3785,516.6818,1045.777,518.2834,1040.3516,512.29,1048.1669" style="stroke:#181818;stroke-width:1;"/><text fill="#000000" font-family="sans-serif" font-size="13" lengthAdjust="spacing" textLength="61.4834" x="709.18" y="945.3938">simplifies</text></g><!--link Splitwise to Group--><g class="link" data-entity-1="Splitwise" data-entity-2="Group" data-source-line="109" data-uid="lnk27" id="link_Splitwise_Group"><path codeLine="109" d="M1308.12,549.6269 C1275.3,575.0269 1246.4643,597.3538 1214.5343,622.0738" fill="none" id="Splitwise-to-Group" style="stroke:#181818;stroke-width:1;stroke-dasharray:7,7;"/><polygon fill="#181818" points="1209.79,625.7469,1219.3552,623.4002,1213.7436,622.686,1214.4578,617.0744,1209.79,625.7469" style="stroke:#181818;stroke-width:1;"/><text fill="#000000" font-family="sans-serif" font-size="13" lengthAdjust="spacing" textLength="59.8584" x="1262.18" y="592.2338">manages</text></g><!--link Splitwise to User--><g class="link" data-entity-1="Splitwise" data-entity-2="User" data-source-line="110" data-uid="lnk28" id="link_Splitwise_User"><path codeLine="110" d="M1750.96,451.8769 C1835.46,488.9469 1922.36,544.5669 1971.18,626.1669 C2034.19,731.4969 2005.75,784.5569 1971.18,902.3269 C1963.39,928.8569 1953.4065,950.0459 1938.7965,973.9759" fill="none" id="Splitwise-to-User" style="stroke:#181818;stroke-width:1;stroke-dasharray:7,7;"/><polygon fill="#181818" points="1935.67,979.0969,1943.7738,973.4997,1938.2754,974.8294,1936.9458,969.331,1935.67,979.0969" style="stroke:#181818;stroke-width:1;"/><text fill="#000000" font-family="sans-serif" font-size="13" lengthAdjust="spacing" textLength="59.8584" x="2009.18" y="768.8138">manages</text></g><!--link Splitwise to Expense--><g class="link" data-entity-1="Splitwise" data-entity-2="Expense" data-source-line="111" data-uid="lnk29" id="link_Splitwise_Expense"><path codeLine="111" d="M1607.74,549.6169 C1656.2,665.2869 1696.6,821.4669 1640.18,949.3269 C1629.19,974.2269 1615.2164,992.3324 1595.2564,1011.0524" fill="none" id="Splitwise-to-Expense" style="stroke:#181818;stroke-width:1;stroke-dasharray:7,7;"/><polygon fill="#181818" points="1590.88,1015.1569,1600.181,1011.9177,1594.527,1011.7364,1594.7083,1006.0825,1590.88,1015.1569" style="stroke:#181818;stroke-width:1;"/><text fill="#000000" font-family="sans-serif" font-size="13" lengthAdjust="spacing" textLength="39.8569" x="1668.18" y="768.8138">tracks</text></g><!--link Splitwise to SplitStrategy--><g class="link" data-entity-1="Splitwise" data-entity-2="SplitStrategy" data-source-line="112" data-uid="lnk30" id="link_Splitwise_SplitStrategy"><path codeLine="112" d="M1291.31,398.5669 C950.51,433.2869 323.78,554.6969 66.18,979.3269 C19.4,1056.4369 6,1115.0869 66.18,1182.2669 C71.33,1188.0069 399.4721,1223.1072 661.3421,1250.2972" fill="none" id="Splitwise-to-SplitStrategy" style="stroke:#181818;stroke-width:1;stroke-dasharray:7,7;"/><polygon fill="#181818" points="667.31,1250.9169,658.7712,1246.0088,662.3367,1250.4005,657.945,1253.966,667.31,1250.9169" style="stroke:#181818;stroke-width:1;"/><text fill="#000000" font-family="sans-serif" font-size="13" lengthAdjust="spacing" textLength="29.7832" x="94.18" y="945.3938">uses</text></g><!--link SplitFactory to SplitStrategy--><g class="link" data-entity-1="SplitFactory" data-entity-2="SplitStrategy" data-source-line="113" data-uid="lnk31" id="link_SplitFactory_SplitStrategy"><path codeLine="113" d="M1023.43,1113.1669 C1012.94,1150.7669 997.0718,1207.6474 986.5718,1245.2974" fill="none" id="SplitFactory-to-SplitStrategy" style="stroke:#181818;stroke-width:1;stroke-dasharray:7,7;"/><polygon fill="#181818" points="984.96,1251.0769,991.2307,1243.4822,986.3032,1246.2607,983.5247,1241.3332,984.96,1251.0769" style="stroke:#181818;stroke-width:1;"/></g><!--link SplitwiseApp to Splitwise--><g class="link" data-entity-1="SplitwiseApp" data-entity-2="Splitwise" data-source-line="117" data-uid="lnk38" id="link_SplitwiseApp_Splitwise"><path codeLine="117" d="M1419.6,125.2069 C1428.8,148.5369 1439.928,176.7355 1453.918,212.1955" fill="none" id="SplitwiseApp-to-Splitwise" style="stroke:#181818;stroke-width:1;stroke-dasharray:7,7;"/><polygon fill="#181818" points="1456.12,217.7769,1456.5379,207.9369,1454.285,213.1258,1449.0961,210.8729,1456.12,217.7769" style="stroke:#181818;stroke-width:1;"/><text fill="#000000" font-family="sans-serif" font-size="13" lengthAdjust="spacing" textLength="62.6895" x="1444.18" y="184.2538">bootstrap</text></g><!--SRC=[ZLPBRziu4BxhLn0voOqjj5V1Qy1EtC10iatN3h10a0CjZHrk9L8hKexTxVxt7JxqeAHcUp0ipllnpP3o6-C5BMbEaenAkLIgPFjAmIOHVCk-0_aOAAOo8DiYO-gDIVowI0KvcP4RhK5k6JsYVX00ht8hjhiKGFu925b_VLhUw_y_bpSx_7zS_t6p_dstl5i7_mO1umhA0qs0VDbBA4zG6gNhgaYfWZ07AUaHuYs6n8yJhM5Y94yeJERpMccnC6epgQXY2U5mLbfYayRemDYp9sj74pZDeNE4dBAiFS_sDACy0Ha_q69koTDRKUqpMBmJNiDPMVLGg5Sedxg-fuJcek8gJeqretC4jHEAPb_U80qdZkCpKBFbD5KmbNO5woVekV5BRTHG4WCzNgnwGhEaof1WUA7INfTT2rDYFSZudadbIhAOaXFDAd14Lw294z6M5csmwxyhcXbYJJZJH7K9Zr0cm1LMr583Fz3vZoZgMXdZjYP7k0FxdIf-HaLHkcfWtJtrK26QumRNazZZTb8y5y0b3B3ew2qSeI6q3Kj19YKh51EyGnrsGbCBojBLvQdVSwd3abxvTJQbg8fMheds5lPgotAKEx1wxgGzNpHFXaPpDJ8Amwd0hh_FR_tUQQk36jsvA5s5Ua4F9dQMGxw7qYMhAw5pdHarLsulOaThXNunBJDAQVfWl8Lw1cBjpCnj2RauGOVLn3k9zq9aGBbJTzx3A8gCfWI52_MHNdB4OtWeHUul2INyixypkiRhXfdosQvP3w_YxQwRfoKdb6lBzq1FODZlnCs5GiCsFVdpLTpU2lFv5baPAC5n8S_dE5CqXNetQqTUjVscUImJck71__JI8OXn_C0quoOQDySRnmWdFYif0OTNXn1sW3NjtWCJq-bMsDQh8ps93SdrM0lln4XHfyG7SmSxMkSpTlzNjCOXLNkiaOMS3K_PYQMu9z-5tORxcfRPAjVeRFY8A1rlVRVvm1d7t4ZY8u3jImsXjIpimhZ6zl2GbaVfX9zVZ7ZpU31xthJDRfchJrT4p6RawiELVJF4n2sE4O5wVSV4MoD1JTUo7voilK6iZIXQzExKMD-Mii-kxvYOICWWKLs1tZ96aVhGbMeZj92KGJjzccybCKVASLRxtBe0eypMD2QHVEkpH_FpiXf81UrTZTDVp7uC-CrjFSxltTVZGXv6cXXCt371aL4I9OiWm6q6H8c2Y4Ch4joW_P9cv61M5HRTxQyekCKM7NM9YIW0VU6rB57VGaD6-DHDYRRfB9Vi-AgqRRiIB20fRciYg_rVsEmeU43iAln9GhbYyfBdW1XEIFFM3DpNy_BbUVL2VYFNPqGhHOKL4MyOoPAS1uxtGYcHQyy-X10r0Ea5xrQbC2iTUiuuo_517-0h7KT0ww3Pb42ASFXvHhrwrnWegC879IS7KGRcuK4IaHULCgLghVq7]--></g></svg>