<svg xmlns="http://www.w3.org/2000/svg" xmlns:xlink="http://www.w3.org/1999/xlink" contentStyleType="text/css" data-diagram-type="CLASS" height="600px" preserveAspectRatio="none" style="width:974px;height:600px;background:#FFFFFF;" version="1.1" viewBox="0 0 974 600" width="974px" zoomAndPan="magnify"><defs/><g><!--class Observer--><g class="entity" data-entity="Observer" data-source-line="4" data-uid="ent0002" id="entity_Observer"><rect fill="#F1F1F1" height="64.2969" rx="2.5" ry="2.5" style="stroke:#181818;stroke-width:0.5;" width="236.6426" x="459.11" y="403.68"/><ellipse cx="541.0695" cy="419.68" fill="#B1B1B1" rx="11" ry="11" style="stroke:#181818;stroke-width:1;"/><path d="M536.9913,415.4456 L536.9913,413.2894 L544.382,413.2894 L544.382,415.4456 L541.9132,415.4456 L541.9132,423.5237 L544.382,423.5237 L544.382,425.68 L536.9913,425.68 L536.9913,423.5237 L539.4601,423.5237 L539.4601,415.4456 L536.9913,415.4456 Z " fill="#000000"/><text fill="#000000" font-family="sans-serif" font-size="14" font-style="italic" lengthAdjust="spacing" textLength="64.2236" x="561.5695" y="424.5267">Observer</text><line style="stroke:#181818;stroke-width:0.5;" x1="460.11" x2="694.7526" y1="435.68" y2="435.68"/><line style="stroke:#181818;stroke-width:0.5;" x1="460.11" x2="694.7526" y1="443.68" y2="443.68"/><text fill="#000000" font-family="sans-serif" font-size="14" lengthAdjust="spacing" textLength="224.6426" x="465.11" y="460.6751">+update(message: String): void</text></g><!--class Subject--><g class="entity" data-entity="Subject" data-source-line="8" data-uid="ent0003" id="entity_Subject"><rect fill="#F1F1F1" height="96.8906" rx="2.5" ry="2.5" style="stroke:#181818;stroke-width:0.5;" width="298.8633" x="7" y="7"/><ellipse cx="126.0137" cy="23" fill="#B1B1B1" rx="11" ry="11" style="stroke:#181818;stroke-width:1;"/><path d="M121.9355,18.7656 L121.9355,16.6094 L129.3262,16.6094 L129.3262,18.7656 L126.8574,18.7656 L126.8574,26.8438 L129.3262,26.8438 L129.3262,29 L121.9355,29 L121.9355,26.8438 L124.4043,26.8438 L124.4043,18.7656 L121.9355,18.7656 Z " fill="#000000"/><text fill="#000000" font-family="sans-serif" font-size="14" font-style="italic" lengthAdjust="spacing" textLength="52.3359" x="146.5137" y="27.8467">Subject</text><line style="stroke:#181818;stroke-width:0.5;" x1="8" x2="304.8633" y1="39" y2="39"/><line style="stroke:#181818;stroke-width:0.5;" x1="8" x2="304.8633" y1="47" y2="47"/><text fill="#000000" font-family="sans-serif" font-size="14" lengthAdjust="spacing" textLength="261.9258" x="13" y="63.9951">+registerObserver(o: Observer): void</text><text fill="#000000" font-family="sans-serif" font-size="14" lengthAdjust="spacing" textLength="261.0986" x="13" y="80.292">+removeObserver(o: Observer): void</text><text fill="#000000" font-family="sans-serif" font-size="14" lengthAdjust="spacing" textLength="286.8633" x="13" y="96.5889">+notifyObservers(message: String): void</text></g><!--class NotificationService--><g class="entity" data-entity="NotificationService" data-source-line="14" data-uid="ent0004" id="entity_NotificationService"><rect fill="#F1F1F1" height="145.7813" rx="2.5" ry="2.5" style="stroke:#181818;stroke-width:0.5;" width="298.8633" x="82" y="180.89"/><ellipse cx="161.1465" cy="196.89" fill="#C2C2C2" rx="11" ry="11" style="stroke:#181818;stroke-width:1;"/><path d="M164.1152,202.5306 Q163.5371,202.8275 162.8965,202.9681 Q162.2559,203.1244 161.5527,203.1244 Q159.0527,203.1244 157.7246,201.4838 Q156.4121,199.8275 156.4121,196.7025 Q156.4121,193.5775 157.7246,191.9213 Q159.0527,190.265 161.5527,190.265 Q162.2559,190.265 162.8965,190.4213 Q163.5527,190.5775 164.1152,190.8744 L164.1152,193.5931 Q163.4902,193.015 162.8965,192.7494 Q162.3027,192.4681 161.6777,192.4681 Q160.334,192.4681 159.6465,193.5463 Q158.959,194.6088 158.959,196.7025 Q158.959,198.7963 159.6465,199.8744 Q160.334,200.9369 161.6777,200.9369 Q162.3027,200.9369 162.8965,200.6713 Q163.4902,200.39 164.1152,199.8119 L164.1152,202.5306 Z " fill="#000000"/><text fill="#000000" font-family="sans-serif" font-size="14" lengthAdjust="spacing" textLength="132.0703" x="181.6465" y="201.7367">NotificationService</text><line style="stroke:#181818;stroke-width:0.5;" x1="83" x2="379.8633" y1="212.89" y2="212.89"/><text fill="#000000" font-family="sans-serif" font-size="14" lengthAdjust="spacing" textLength="195.4395" x="88" y="229.8851">-observers: List&lt;Observer&gt;</text><line style="stroke:#181818;stroke-width:0.5;" x1="83" x2="379.8633" y1="237.1869" y2="237.1869"/><text fill="#000000" font-family="sans-serif" font-size="14" lengthAdjust="spacing" textLength="154.7246" x="88" y="254.182">+NotificationService()</text><text fill="#000000" font-family="sans-serif" font-size="14" lengthAdjust="spacing" textLength="261.9258" x="88" y="270.4789">+registerObserver(o: Observer): void</text><text fill="#000000" font-family="sans-serif" font-size="14" lengthAdjust="spacing" textLength="261.0986" x="88" y="286.7757">+removeObserver(o: Observer): void</text><text fill="#000000" font-family="sans-serif" font-size="14" lengthAdjust="spacing" textLength="286.8633" x="88" y="303.0726">+notifyObservers(message: String): void</text><text fill="#000000" font-family="sans-serif" font-size="14" lengthAdjust="spacing" textLength="254.9531" x="88" y="319.3695">+newUpdate(message: String): void</text></g><!--class SMSNotifier--><g class="entity" data-entity="SMSNotifier" data-source-line="23" data-uid="ent0005" id="entity_SMSNotifier"><rect fill="#F1F1F1" height="64.2969" rx="2.5" ry="2.5" style="stroke:#181818;stroke-width:0.5;" width="236.6426" x="187.11" y="528.97"/><ellipse cx="260.4528" cy="544.97" fill="#C2C2C2" rx="11" ry="11" style="stroke:#181818;stroke-width:1;"/><path d="M263.4215,550.6106 Q262.8434,550.9075 262.2028,551.0481 Q261.5621,551.2044 260.859,551.2044 Q258.359,551.2044 257.0309,549.5638 Q255.7184,547.9075 255.7184,544.7825 Q255.7184,541.6575 257.0309,540.0013 Q258.359,538.345 260.859,538.345 Q261.5621,538.345 262.2028,538.5013 Q262.859,538.6575 263.4215,538.9544 L263.4215,541.6731 Q262.7965,541.095 262.2028,540.8294 Q261.609,540.5481 260.984,540.5481 Q259.6403,540.5481 258.9528,541.6263 Q258.2653,542.6888 258.2653,544.7825 Q258.2653,546.8763 258.9528,547.9544 Q259.6403,549.0169 260.984,549.0169 Q261.609,549.0169 262.2028,548.7513 Q262.7965,548.47 263.4215,547.8919 L263.4215,550.6106 Z " fill="#000000"/><text fill="#000000" font-family="sans-serif" font-size="14" lengthAdjust="spacing" textLength="81.457" x="280.9528" y="549.8167">SMSNotifier</text><line style="stroke:#181818;stroke-width:0.5;" x1="188.11" x2="422.7526" y1="560.97" y2="560.97"/><line style="stroke:#181818;stroke-width:0.5;" x1="188.11" x2="422.7526" y1="568.97" y2="568.97"/><text fill="#000000" font-family="sans-serif" font-size="14" lengthAdjust="spacing" textLength="224.6426" x="193.11" y="585.9651">+update(message: String): void</text></g><!--class EmailNotifier--><g class="entity" data-entity="EmailNotifier" data-source-line="27" data-uid="ent0006" id="entity_EmailNotifier"><rect fill="#F1F1F1" height="64.2969" rx="2.5" ry="2.5" style="stroke:#181818;stroke-width:0.5;" width="236.6426" x="459.11" y="528.97"/><ellipse cx="527.9581" cy="544.97" fill="#C2C2C2" rx="11" ry="11" style="stroke:#181818;stroke-width:1;"/><path d="M530.9269,550.6106 Q530.3488,550.9075 529.7081,551.0481 Q529.0675,551.2044 528.3644,551.2044 Q525.8644,551.2044 524.5363,549.5638 Q523.2238,547.9075 523.2238,544.7825 Q523.2238,541.6575 524.5363,540.0013 Q525.8644,538.345 528.3644,538.345 Q529.0675,538.345 529.7081,538.5013 Q530.3644,538.6575 530.9269,538.9544 L530.9269,541.6731 Q530.3019,541.095 529.7081,540.8294 Q529.1144,540.5481 528.4894,540.5481 Q527.1456,540.5481 526.4581,541.6263 Q525.7706,542.6888 525.7706,544.7825 Q525.7706,546.8763 526.4581,547.9544 Q527.1456,549.0169 528.4894,549.0169 Q529.1144,549.0169 529.7081,548.7513 Q530.3019,548.47 530.9269,547.8919 L530.9269,550.6106 Z " fill="#000000"/><text fill="#000000" font-family="sans-serif" font-size="14" lengthAdjust="spacing" textLength="90.4463" x="548.4581" y="549.8167">EmailNotifier</text><line style="stroke:#181818;stroke-width:0.5;" x1="460.11" x2="694.7526" y1="560.97" y2="560.97"/><line style="stroke:#181818;stroke-width:0.5;" x1="460.11" x2="694.7526" y1="568.97" y2="568.97"/><text fill="#000000" font-family="sans-serif" font-size="14" lengthAdjust="spacing" textLength="224.6426" x="465.11" y="585.9651">+update(message: String): void</text></g><!--class WhatsAppNotifier--><g class="entity" data-entity="WhatsAppNotifier" data-source-line="31" data-uid="ent0007" id="entity_WhatsAppNotifier"><rect fill="#F1F1F1" height="64.2969" rx="2.5" ry="2.5" style="stroke:#181818;stroke-width:0.5;" width="236.6426" x="731.11" y="528.97"/><ellipse cx="783.6647" cy="544.97" fill="#C2C2C2" rx="11" ry="11" style="stroke:#181818;stroke-width:1;"/><path d="M786.6334,550.6106 Q786.0553,550.9075 785.4147,551.0481 Q784.7741,551.2044 784.0709,551.2044 Q781.5709,551.2044 780.2428,549.5638 Q778.9303,547.9075 778.9303,544.7825 Q778.9303,541.6575 780.2428,540.0013 Q781.5709,538.345 784.0709,538.345 Q784.7741,538.345 785.4147,538.5013 Q786.0709,538.6575 786.6334,538.9544 L786.6334,541.6731 Q786.0084,541.095 785.4147,540.8294 Q784.8209,540.5481 784.1959,540.5481 Q782.8522,540.5481 782.1647,541.6263 Q781.4772,542.6888 781.4772,544.7825 Q781.4772,546.8763 782.1647,547.9544 Q782.8522,549.0169 784.1959,549.0169 Q784.8209,549.0169 785.4147,548.7513 Q786.0084,548.47 786.6334,547.8919 L786.6334,550.6106 Z " fill="#000000"/><text fill="#000000" font-family="sans-serif" font-size="14" lengthAdjust="spacing" textLength="123.0332" x="804.1647" y="549.8167">WhatsAppNotifier</text><line style="stroke:#181818;stroke-width:0.5;" x1="732.11" x2="966.7526" y1="560.97" y2="560.97"/><line style="stroke:#181818;stroke-width:0.5;" x1="732.11" x2="966.7526" y1="568.97" y2="568.97"/><text fill="#000000" font-family="sans-serif" font-size="14" lengthAdjust="spacing" textLength="224.6426" x="737.11" y="585.9651">+update(message: String): void</text></g><!--class ObserverDesignPattern--><g class="entity" data-entity="ObserverDesignPattern" data-source-line="35" data-uid="ent0008" id="entity_ObserverDesignPattern"><rect fill="#F1F1F1" height="64.2969" rx="2.5" ry="2.5" style="stroke:#181818;stroke-width:0.5;" width="200.8154" x="621.02" y="23.3"/><ellipse cx="638.2757" cy="39.3" fill="#C2C2C2" rx="11" ry="11" style="stroke:#181818;stroke-width:1;"/><path d="M641.2445,44.9406 Q640.6663,45.2375 640.0257,45.3781 Q639.3851,45.5344 638.682,45.5344 Q636.182,45.5344 634.8538,43.8937 Q633.5413,42.2375 633.5413,39.1125 Q633.5413,35.9875 634.8538,34.3312 Q636.182,32.675 638.682,32.675 Q639.3851,32.675 640.0257,32.8312 Q640.682,32.9875 641.2445,33.2844 L641.2445,36.0031 Q640.6195,35.425 640.0257,35.1594 Q639.432,34.8781 638.807,34.8781 Q637.4632,34.8781 636.7757,35.9562 Q636.0882,37.0187 636.0882,39.1125 Q636.0882,41.2062 636.7757,42.2844 Q637.4632,43.3469 638.807,43.3469 Q639.432,43.3469 640.0257,43.0812 Q640.6195,42.8 641.2445,42.2219 L641.2445,44.9406 Z " fill="#000000"/><text fill="#000000" font-family="sans-serif" font-size="14" lengthAdjust="spacing" textLength="163.8027" x="652.777" y="44.1467">ObserverDesignPattern</text><line style="stroke:#181818;stroke-width:0.5;" x1="622.02" x2="820.8354" y1="55.3" y2="55.3"/><line style="stroke:#181818;stroke-width:0.5;" x1="622.02" x2="820.8354" y1="63.3" y2="63.3"/><text fill="#000000" font-family="sans-serif" font-size="14" lengthAdjust="spacing" text-decoration="underline" textLength="188.8154" x="627.02" y="80.2951">+main(args: String[]): void</text></g><g class="entity" data-entity="GMN16" data-source-line="49" data-uid="ent0017" id="entity_GMN16"><path d="M341.21,35.32 L341.21,51.45 L306.33,55.45 L341.21,59.45 L341.21,75.5856 A0,0 0 0 0 341.21,75.5856 L585.6602,75.5856 A0,0 0 0 0 585.6602,75.5856 L585.6602,45.32 L575.6602,35.32 L341.21,35.32 A0,0 0 0 0 341.21,35.32" fill="#FAFAFA" style="stroke:#181818;stroke-width:0.5;"/><path d="M575.6602,35.32 L575.6602,45.32 L585.6602,45.32 L575.6602,35.32" fill="#FAFAFA" style="stroke:#181818;stroke-width:0.5;"/><text fill="#000000" font-family="sans-serif" font-size="13" lengthAdjust="spacing" textLength="154.8066" x="347.21" y="52.3869">Defines the contract for</text><text fill="#000000" font-family="sans-serif" font-size="13" lengthAdjust="spacing" textLength="223.4502" x="347.21" y="67.5197">managing and notifying observers</text></g><g class="entity" data-entity="GMN19" data-source-line="54" data-uid="ent0020" id="entity_GMN19"><path d="M415.47,226.09 L415.47,249.79 L381.25,253.79 L415.47,257.79 L415.47,281.4884 A0,0 0 0 0 415.47,281.4884 L651.4016,281.4884 A0,0 0 0 0 651.4016,281.4884 L651.4016,236.09 L641.4016,226.09 L415.47,226.09 A0,0 0 0 0 415.47,226.09" fill="#FAFAFA" style="stroke:#181818;stroke-width:0.5;"/><path d="M641.4016,226.09 L641.4016,236.09 L651.4016,236.09 L641.4016,226.09" fill="#FAFAFA" style="stroke:#181818;stroke-width:0.5;"/><text fill="#000000" font-family="sans-serif" font-size="13" lengthAdjust="spacing" textLength="208.9395" x="421.47" y="243.1569">Concrete subject that maintains</text><text fill="#000000" font-family="sans-serif" font-size="13" lengthAdjust="spacing" textLength="187.4146" x="421.47" y="258.2897">list of observers and triggers</text><text fill="#000000" font-family="sans-serif" font-size="13" lengthAdjust="spacing" textLength="214.9316" x="421.47" y="273.4225">notifications when state changes</text></g><g class="entity" data-entity="GMN22" data-source-line="60" data-uid="ent0023" id="entity_GMN22"><path d="M178.52,415.69 L178.52,455.9556 A0,0 0 0 0 178.52,455.9556 L424.3413,455.9556 A0,0 0 0 0 424.3413,455.9556 L424.3413,439.82 L458.63,435.82 L424.3413,431.82 L424.3413,425.69 L414.3413,415.69 L178.52,415.69 A0,0 0 0 0 178.52,415.69" fill="#FAFAFA" style="stroke:#181818;stroke-width:0.5;"/><path d="M414.3413,415.69 L414.3413,425.69 L424.3413,425.69 L414.3413,415.69" fill="#FAFAFA" style="stroke:#181818;stroke-width:0.5;"/><text fill="#000000" font-family="sans-serif" font-size="13" lengthAdjust="spacing" textLength="179.042" x="184.52" y="432.7569">Concrete observers receive</text><text fill="#000000" font-family="sans-serif" font-size="13" lengthAdjust="spacing" textLength="224.8213" x="184.52" y="447.8897">updates via their update() method</text></g><!--reverse link Subject to NotificationService--><g class="link" data-entity-1="Subject" data-entity-2="NotificationService" data-source-line="39" data-uid="lnk9" id="link_Subject_NotificationService"><path codeLine="39" d="M181.1038,121.0447 C189.8638,143.9747 194.12,155.12 203.85,180.57" fill="none" id="Subject-backto-NotificationService" style="stroke:#181818;stroke-width:1;stroke-dasharray:7,7;"/><polygon fill="none" points="174.68,104.23,175.4989,123.186,186.7087,118.9035,174.68,104.23" style="stroke:#181818;stroke-width:1;"/></g><!--reverse link Observer to SMSNotifier--><g class="link" data-entity-1="Observer" data-entity-2="SMSNotifier" data-source-line="40" data-uid="lnk10" id="link_Observer_SMSNotifier"><path codeLine="40" d="M491.3456,475.8512 C450.5756,494.3312 415.68,510.15 374.94,528.61" fill="none" id="Observer-backto-SMSNotifier" style="stroke:#181818;stroke-width:1;stroke-dasharray:7,7;"/><polygon fill="none" points="507.74,468.42,488.8685,470.3864,493.8226,481.316,507.74,468.42" style="stroke:#181818;stroke-width:1;"/></g><!--reverse link Observer to EmailNotifier--><g class="link" data-entity-1="Observer" data-entity-2="EmailNotifier" data-source-line="41" data-uid="lnk11" id="link_Observer_EmailNotifier"><path codeLine="41" d="M577.43,486.26 C577.43,504.81 577.43,510.21 577.43,528.75" fill="none" id="Observer-backto-EmailNotifier" style="stroke:#181818;stroke-width:1;stroke-dasharray:7,7;"/><polygon fill="none" points="577.43,468.26,571.43,486.26,583.43,486.26,577.43,468.26" style="stroke:#181818;stroke-width:1;"/></g><!--reverse link Observer to WhatsAppNotifier--><g class="link" data-entity-1="Observer" data-entity-2="WhatsAppNotifier" data-source-line="42" data-uid="lnk12" id="link_Observer_WhatsAppNotifier"><path codeLine="42" d="M663.5238,475.8527 C704.2838,494.3327 739.18,510.15 779.92,528.61" fill="none" id="Observer-backto-WhatsAppNotifier" style="stroke:#181818;stroke-width:1;stroke-dasharray:7,7;"/><polygon fill="none" points="647.13,468.42,661.0462,481.3173,666.0013,470.3881,647.13,468.42" style="stroke:#181818;stroke-width:1;"/></g><!--link NotificationService to Observer--><g class="link" data-entity-1="NotificationService" data-entity-2="Observer" data-source-line="43" data-uid="lnk13" id="link_NotificationService_Observer"><path codeLine="43" d="M380.8152,332.5189 C431.7652,359.0289 470.8777,379.3799 511.4377,400.4899" fill="none" id="NotificationService-Observer" style="stroke:#181818;stroke-width:1;"/><polygon fill="none" points="370.17,326.98,373.6463,333.2978,380.8152,332.5189,377.3389,326.201,370.17,326.98" style="stroke:#181818;stroke-width:1;"/><polygon fill="#181818" points="516.76,403.26,510.6233,395.5567,512.3248,400.9516,506.9299,402.6531,516.76,403.26" style="stroke:#181818;stroke-width:1;"/><text fill="#000000" font-family="sans-serif" font-size="13" lengthAdjust="spacing" textLength="64.1304" x="456.43" y="369.7469">observers</text><text fill="#000000" font-family="sans-serif" font-size="13" lengthAdjust="spacing" textLength="23.0356" x="480.0057" y="392.7015">0..*</text></g><!--link ObserverDesignPattern to NotificationService--><g class="link" data-entity-1="ObserverDesignPattern" data-entity-2="NotificationService" data-source-line="45" data-uid="lnk14" id="link_ObserverDesignPattern_NotificationService"><path codeLine="45" d="M643.46,88.09 C630.13,93.42 616.4,98.85 603.43,103.89 C512.72,139.16 488.71,144.53 398.43,180.89 C392.72,183.19 392.459,183.2779 386.599,185.6879" fill="none" id="ObserverDesignPattern-to-NotificationService" style="stroke:#181818;stroke-width:1;stroke-dasharray:7,7;"/><polygon fill="#181818" points="381.05,187.97,390.895,188.2462,385.6742,186.0682,387.8522,180.8475,381.05,187.97" style="stroke:#181818;stroke-width:1;"/><text fill="#000000" font-family="sans-serif" font-size="13" lengthAdjust="spacing" textLength="29.7832" x="522.43" y="146.9569">uses</text></g><!--link ObserverDesignPattern to Observer--><g class="link" data-entity-1="ObserverDesignPattern" data-entity-2="Observer" data-source-line="46" data-uid="lnk15" id="link_ObserverDesignPattern_Observer"><path codeLine="46" d="M720.33,88.02 C717.41,140.16 706.84,246.47 668.43,326.68 C654.55,355.67 635.2354,379.0206 615.5954,399.1006" fill="none" id="ObserverDesignPattern-to-Observer" style="stroke:#181818;stroke-width:1;stroke-dasharray:7,7;"/><polygon fill="#181818" points="611.4,403.39,620.5527,399.7529,614.8962,399.8155,614.8335,394.159,611.4,403.39" style="stroke:#181818;stroke-width:1;"/><text fill="#000000" font-family="sans-serif" font-size="13" lengthAdjust="spacing" textLength="48.3247" x="710.43" y="258.3569">creates</text></g><!--SRC=[nLGzRzim4DtvAmwPv1OMCWk1WQ3f4A1VW51qA3hGz8bYQv46ZrBGfldlFOgchBf2KcJ9e46wU-_UFJwAVXXxa5vseFQIw3e4RxPzm5lbR6r-8LmAcbewPvrglUiGWkzH26C3-aOgX8zRGZ-WXti1yBe_x6J0eaCYgR62cbcjNbKmEBCJ3tDWtM-_eme9vr4RuafcArmrCMVqsDQv0PzeiYwOvcSkq2DYnitXG-mtIWR3cpF6iBWeQkqoHGNlMDrLfjp4AGkeOlL2gyHElFlybFTftVfzdRJ_zvabtDjEclspa5zQ6UZwS7WME2z_WsIq_IG3MsiJmpq5jbyz02kpXVIQCilNRpEU7BIhtsMvTDXYYl3OCVFdhFAN0sUrynt5KghSUhs1YykoV7LnkZSLJ3aJOddRijmifhI2df0U0Ss6A8ziDu_WJ25uezi0hictaEsymSPO90Wj0ly3WfViMUCybpfffMPRGTeTf4p6jvDkJD_nd7t9RO0tph8QxgFZoGGsRpp4m0znnvvlKCHF4yR9VBHQnt6GH1o92UvQj133mCfRQJN-esYFpKYO3PchE0tngD0CKM8A9y5WP3J4-EENOWKTXjRjfW5_0000]--></g></svg>