<svg xmlns="http://www.w3.org/2000/svg" xmlns:xlink="http://www.w3.org/1999/xlink" contentStyleType="text/css" data-diagram-type="CLASS" height="701px" preserveAspectRatio="none" style="width:2100px;height:701px;background:#FFFFFF;" version="1.1" viewBox="0 0 2100 701" width="2100px" zoomAndPan="magnify"><defs/><g><!--class VehicleCategory--><g class="entity" data-entity="VehicleCategory" data-source-line="2" data-uid="ent0002" id="entity_VehicleCategory"><rect fill="#F1F1F1" height="64.2969" rx="2.5" ry="2.5" style="stroke:#181818;stroke-width:0.5;" width="147.1035" x="7" y="121.08"/><ellipse cx="22" cy="137.08" fill="#EB937F" rx="11" ry="11" style="stroke:#181818;stroke-width:1;"/><path d="M26.1094,143.08 L18.3906,143.08 L18.3906,130.6894 L26.1094,130.6894 L26.1094,132.8456 L20.8438,132.8456 L20.8438,135.5175 L25.6094,135.5175 L25.6094,137.6738 L20.8438,137.6738 L20.8438,140.9238 L26.1094,140.9238 L26.1094,143.08 Z " fill="#000000"/><text fill="#000000" font-family="sans-serif" font-size="14" lengthAdjust="spacing" textLength="115.1035" x="36" y="141.9267">VehicleCategory</text><line style="stroke:#181818;stroke-width:0.5;" x1="8" x2="153.1035" y1="153.08" y2="153.08"/><text fill="#000000" font-family="sans-serif" font-size="14" lengthAdjust="spacing" textLength="108.4863" x="13" y="170.0751">BIKE, SCOOTER</text><line style="stroke:#181818;stroke-width:0.5;" x1="8" x2="153.1035" y1="177.3769" y2="177.3769"/></g><!--class BikeSize--><g class="entity" data-entity="BikeSize" data-source-line="5" data-uid="ent0003" id="entity_BikeSize"><rect fill="#F1F1F1" height="64.2969" rx="2.5" ry="2.5" style="stroke:#181818;stroke-width:0.5;" width="180.9023" x="189.1" y="121.08"/><ellipse cx="245.8246" cy="137.08" fill="#EB937F" rx="11" ry="11" style="stroke:#181818;stroke-width:1;"/><path d="M249.934,143.08 L242.2152,143.08 L242.2152,130.6894 L249.934,130.6894 L249.934,132.8456 L244.6684,132.8456 L244.6684,135.5175 L249.434,135.5175 L249.434,137.6738 L244.6684,137.6738 L244.6684,140.9238 L249.934,140.9238 L249.934,143.08 Z " fill="#000000"/><text fill="#000000" font-family="sans-serif" font-size="14" lengthAdjust="spacing" textLength="58.9531" x="266.3246" y="141.9267">BikeSize</text><line style="stroke:#181818;stroke-width:0.5;" x1="190.1" x2="369.0023" y1="153.08" y2="153.08"/><text fill="#000000" font-family="sans-serif" font-size="14" lengthAdjust="spacing" textLength="168.9023" x="195.1" y="170.0751">SMALL, MEDIUM, LARGE</text><line style="stroke:#181818;stroke-width:0.5;" x1="190.1" x2="369.0023" y1="177.3769" y2="177.3769"/></g><!--class FuelType--><g class="entity" data-entity="FuelType" data-source-line="8" data-uid="ent0004" id="entity_FuelType"><rect fill="#F1F1F1" height="64.2969" rx="2.5" ry="2.5" style="stroke:#181818;stroke-width:0.5;" width="142.7373" x="9.18" y="416.49"/><ellipse cx="45.3173" cy="432.49" fill="#EB937F" rx="11" ry="11" style="stroke:#181818;stroke-width:1;"/><path d="M49.4266,438.49 L41.7079,438.49 L41.7079,426.0994 L49.4266,426.0994 L49.4266,428.2556 L44.161,428.2556 L44.161,430.9275 L48.9266,430.9275 L48.9266,433.0838 L44.161,433.0838 L44.161,436.3338 L49.4266,436.3338 L49.4266,438.49 Z " fill="#000000"/><text fill="#000000" font-family="sans-serif" font-size="14" lengthAdjust="spacing" textLength="63.7656" x="64.0144" y="437.3367">FuelType</text><line style="stroke:#181818;stroke-width:0.5;" x1="10.18" x2="150.9173" y1="448.49" y2="448.49"/><text fill="#000000" font-family="sans-serif" font-size="14" lengthAdjust="spacing" textLength="130.7373" x="15.18" y="465.4851">PETROL, ELECTRIC</text><line style="stroke:#181818;stroke-width:0.5;" x1="10.18" x2="150.9173" y1="472.7869" y2="472.7869"/></g><!--class RentalStatus--><g class="entity" data-entity="RentalStatus" data-source-line="11" data-uid="ent0005" id="entity_RentalStatus"><rect fill="#F1F1F1" height="64.2969" rx="2.5" ry="2.5" style="stroke:#181818;stroke-width:0.5;" width="259.9873" x="186.56" y="416.49"/><ellipse cx="267.4121" cy="432.49" fill="#EB937F" rx="11" ry="11" style="stroke:#181818;stroke-width:1;"/><path d="M271.5214,438.49 L263.8027,438.49 L263.8027,426.0994 L271.5214,426.0994 L271.5214,428.2556 L266.2558,428.2556 L266.2558,430.9275 L271.0214,430.9275 L271.0214,433.0838 L266.2558,433.0838 L266.2558,436.3338 L271.5214,436.3338 L271.5214,438.49 Z " fill="#000000"/><text fill="#000000" font-family="sans-serif" font-size="14" lengthAdjust="spacing" textLength="89.7832" x="287.9121" y="437.3367">RentalStatus</text><line style="stroke:#181818;stroke-width:0.5;" x1="187.56" x2="445.5473" y1="448.49" y2="448.49"/><text fill="#000000" font-family="sans-serif" font-size="14" lengthAdjust="spacing" textLength="247.9873" x="192.56" y="465.4851">RESERVED, ONGOING, COMPLETED</text><line style="stroke:#181818;stroke-width:0.5;" x1="187.56" x2="445.5473" y1="472.7869" y2="472.7869"/></g><!--class Vehicle--><g class="entity" data-entity="Vehicle" data-source-line="17" data-uid="ent0006" id="entity_Vehicle"><rect fill="#F1F1F1" height="178.375" rx="2.5" ry="2.5" style="stroke:#181818;stroke-width:0.5;" width="212.1426" x="925.48" y="359.45"/><ellipse cx="1001.7246" cy="375.45" fill="#A9DCDF" rx="11" ry="11" style="stroke:#181818;stroke-width:1;"/><path d="M1001.834,370.7938 L1000.6778,375.8719 L1003.0059,375.8719 L1001.834,370.7938 Z M1000.3496,368.5594 L1003.334,368.5594 L1006.6934,380.95 L1004.2403,380.95 L1003.4746,377.8875 L1000.1934,377.8875 L999.4434,380.95 L997.0059,380.95 L1000.3496,368.5594 Z " fill="#000000"/><text fill="#000000" font-family="sans-serif" font-size="14" font-style="italic" lengthAdjust="spacing" textLength="51.1533" x="1022.2246" y="380.2967">Vehicle</text><line style="stroke:#181818;stroke-width:0.5;" x1="926.48" x2="1136.6226" y1="391.45" y2="391.45"/><rect fill="none" height="6" style="stroke:#C82930;stroke-width:1;" width="6" x="933.48" y="402.0984"/><text fill="#000000" font-family="sans-serif" font-size="14" lengthAdjust="spacing" textLength="63.7246" x="945.48" y="408.4451">id: String</text><rect fill="none" height="6" style="stroke:#C82930;stroke-width:1;" width="6" x="933.48" y="418.3953"/><text fill="#000000" font-family="sans-serif" font-size="14" lengthAdjust="spacing" textLength="186.1426" x="945.48" y="424.742">category: VehicleCategory</text><rect fill="none" height="6" style="stroke:#C82930;stroke-width:1;" width="6" x="933.48" y="434.6922"/><text fill="#000000" font-family="sans-serif" font-size="14" lengthAdjust="spacing" textLength="128.3311" x="945.48" y="441.0389">available: boolean</text><line style="stroke:#181818;stroke-width:0.5;" x1="926.48" x2="1136.6226" y1="448.3406" y2="448.3406"/><ellipse cx="936.48" cy="461.9891" fill="#84BE84" rx="3" ry="3" style="stroke:#038048;stroke-width:1;"/><text fill="#000000" font-family="sans-serif" font-size="14" lengthAdjust="spacing" textLength="46.9287" x="945.48" y="465.3357">getId()</text><ellipse cx="936.48" cy="478.2859" fill="#84BE84" rx="3" ry="3" style="stroke:#038048;stroke-width:1;"/><text fill="#000000" font-family="sans-serif" font-size="14" lengthAdjust="spacing" textLength="97.8633" x="945.48" y="481.6326">getCategory()</text><ellipse cx="936.48" cy="494.5828" fill="#84BE84" rx="3" ry="3" style="stroke:#038048;stroke-width:1;"/><text fill="#000000" font-family="sans-serif" font-size="14" lengthAdjust="spacing" textLength="86.2969" x="945.48" y="497.9295">isAvailable()</text><ellipse cx="936.48" cy="510.8797" fill="#84BE84" rx="3" ry="3" style="stroke:#038048;stroke-width:1;"/><text fill="#000000" font-family="sans-serif" font-size="14" lengthAdjust="spacing" textLength="97.207" x="945.48" y="514.2264">markRented()</text><ellipse cx="936.48" cy="527.1766" fill="#84BE84" rx="3" ry="3" style="stroke:#038048;stroke-width:1;"/><text fill="#000000" font-family="sans-serif" font-size="14" lengthAdjust="spacing" textLength="111.1934" x="945.48" y="530.5232">markAvailable()</text></g><!--class Bike--><g class="entity" data-entity="Bike" data-source-line="28" data-uid="ent0007" id="entity_Bike"><rect fill="#F1F1F1" height="80.5938" rx="2.5" ry="2.5" style="stroke:#181818;stroke-width:0.5;" width="121.2656" x="596.92" y="605.98"/><ellipse cx="638.4929" cy="621.98" fill="#ADD1B2" rx="11" ry="11" style="stroke:#181818;stroke-width:1;"/><path d="M641.4616,627.6206 Q640.8835,627.9175 640.2429,628.0581 Q639.6022,628.2144 638.8991,628.2144 Q636.3991,628.2144 635.071,626.5738 Q633.7585,624.9175 633.7585,621.7925 Q633.7585,618.6675 635.071,617.0113 Q636.3991,615.355 638.8991,615.355 Q639.6022,615.355 640.2429,615.5113 Q640.8991,615.6675 641.4616,615.9644 L641.4616,618.6831 Q640.8366,618.105 640.2429,617.8394 Q639.6491,617.5581 639.0241,617.5581 Q637.6804,617.5581 636.9929,618.6363 Q636.3054,619.6988 636.3054,621.7925 Q636.3054,623.8863 636.9929,624.9644 Q637.6804,626.0269 639.0241,626.0269 Q639.6491,626.0269 640.2429,625.7613 Q640.8366,625.48 641.4616,624.9019 L641.4616,627.6206 Z " fill="#000000"/><text fill="#000000" font-family="sans-serif" font-size="14" lengthAdjust="spacing" textLength="30.2148" x="658.3979" y="626.8267">Bike</text><line style="stroke:#181818;stroke-width:0.5;" x1="597.92" x2="717.1856" y1="637.98" y2="637.98"/><rect fill="none" height="6" style="stroke:#C82930;stroke-width:1;" width="6" x="604.92" y="648.6284"/><text fill="#000000" font-family="sans-serif" font-size="14" lengthAdjust="spacing" textLength="95.2656" x="616.92" y="654.9751">size: BikeSize</text><line style="stroke:#181818;stroke-width:0.5;" x1="597.92" x2="717.1856" y1="662.2769" y2="662.2769"/><ellipse cx="607.92" cy="675.9253" fill="#84BE84" rx="3" ry="3" style="stroke:#038048;stroke-width:1;"/><text fill="#000000" font-family="sans-serif" font-size="14" lengthAdjust="spacing" textLength="62.6514" x="616.92" y="679.272">getSize()</text></g><!--class Scooter--><g class="entity" data-entity="Scooter" data-source-line="33" data-uid="ent0008" id="entity_Scooter"><rect fill="#F1F1F1" height="80.5938" rx="2.5" ry="2.5" style="stroke:#181818;stroke-width:0.5;" width="159.5742" x="818.76" y="605.98"/><ellipse cx="867.5105" cy="621.98" fill="#ADD1B2" rx="11" ry="11" style="stroke:#181818;stroke-width:1;"/><path d="M870.4792,627.6206 Q869.9011,627.9175 869.2605,628.0581 Q868.6199,628.2144 867.9167,628.2144 Q865.4167,628.2144 864.0886,626.5738 Q862.7761,624.9175 862.7761,621.7925 Q862.7761,618.6675 864.0886,617.0113 Q865.4167,615.355 867.9167,615.355 Q868.6199,615.355 869.2605,615.5113 Q869.9167,615.6675 870.4792,615.9644 L870.4792,618.6831 Q869.8542,618.105 869.2605,617.8394 Q868.6667,617.5581 868.0417,617.5581 Q866.698,617.5581 866.0105,618.6363 Q865.323,619.6988 865.323,621.7925 Q865.323,623.8863 866.0105,624.9644 Q866.698,626.0269 868.0417,626.0269 Q868.6667,626.0269 869.2605,625.7613 Q869.8542,625.48 870.4792,624.9019 L870.4792,627.6206 Z " fill="#000000"/><text fill="#000000" font-family="sans-serif" font-size="14" lengthAdjust="spacing" textLength="53.5732" x="888.0105" y="626.8267">Scooter</text><line style="stroke:#181818;stroke-width:0.5;" x1="819.76" x2="977.3342" y1="637.98" y2="637.98"/><rect fill="none" height="6" style="stroke:#C82930;stroke-width:1;" width="6" x="826.76" y="648.6284"/><text fill="#000000" font-family="sans-serif" font-size="14" lengthAdjust="spacing" textLength="133.5742" x="838.76" y="654.9751">fuelType: FuelType</text><line style="stroke:#181818;stroke-width:0.5;" x1="819.76" x2="977.3342" y1="662.2769" y2="662.2769"/><ellipse cx="829.76" cy="675.9253" fill="#84BE84" rx="3" ry="3" style="stroke:#038048;stroke-width:1;"/><text fill="#000000" font-family="sans-serif" font-size="14" lengthAdjust="spacing" textLength="97.6787" x="838.76" y="679.272">getFuelType()</text></g><!--class Customer--><g class="entity" data-entity="Customer" data-source-line="38" data-uid="ent0009" id="entity_Customer"><rect fill="#F1F1F1" height="113.1875" rx="2.5" ry="2.5" style="stroke:#181818;stroke-width:0.5;" width="155.8896" x="734.61" y="392.05"/><ellipse cx="774.7586" cy="408.05" fill="#ADD1B2" rx="11" ry="11" style="stroke:#181818;stroke-width:1;"/><path d="M777.7273,413.6906 Q777.1492,413.9875 776.5086,414.1281 Q775.868,414.2844 775.1648,414.2844 Q772.6648,414.2844 771.3367,412.6438 Q770.0242,410.9875 770.0242,407.8625 Q770.0242,404.7375 771.3367,403.0813 Q772.6648,401.425 775.1648,401.425 Q775.868,401.425 776.5086,401.5813 Q777.1648,401.7375 777.7273,402.0344 L777.7273,404.7531 Q777.1023,404.175 776.5086,403.9094 Q775.9148,403.6281 775.2898,403.6281 Q773.9461,403.6281 773.2586,404.7063 Q772.5711,405.7688 772.5711,407.8625 Q772.5711,409.9563 773.2586,411.0344 Q773.9461,412.0969 775.2898,412.0969 Q775.9148,412.0969 776.5086,411.8313 Q777.1023,411.55 777.7273,410.9719 L777.7273,413.6906 Z " fill="#000000"/><text fill="#000000" font-family="sans-serif" font-size="14" lengthAdjust="spacing" textLength="68.0039" x="794.3472" y="412.8967">Customer</text><line style="stroke:#181818;stroke-width:0.5;" x1="735.61" x2="889.4996" y1="424.05" y2="424.05"/><rect fill="none" height="6" style="stroke:#C82930;stroke-width:1;" width="6" x="742.61" y="434.6984"/><text fill="#000000" font-family="sans-serif" font-size="14" lengthAdjust="spacing" textLength="129.8896" x="754.61" y="441.0451">customerId: String</text><rect fill="none" height="6" style="stroke:#C82930;stroke-width:1;" width="6" x="742.61" y="450.9953"/><text fill="#000000" font-family="sans-serif" font-size="14" lengthAdjust="spacing" textLength="90.6514" x="754.61" y="457.342">name: String</text><line style="stroke:#181818;stroke-width:0.5;" x1="735.61" x2="889.4996" y1="464.6438" y2="464.6438"/><ellipse cx="745.61" cy="478.2922" fill="#84BE84" rx="3" ry="3" style="stroke:#038048;stroke-width:1;"/><text fill="#000000" font-family="sans-serif" font-size="14" lengthAdjust="spacing" textLength="114.9326" x="754.61" y="481.6389">getCustomerId()</text><ellipse cx="745.61" cy="494.5891" fill="#84BE84" rx="3" ry="3" style="stroke:#038048;stroke-width:1;"/><text fill="#000000" font-family="sans-serif" font-size="14" lengthAdjust="spacing" textLength="75.2158" x="754.61" y="497.9357">getName()</text></g><!--class Rental--><g class="entity" data-entity="Rental" data-source-line="45" data-uid="ent0010" id="entity_Rental"><rect fill="#F1F1F1" height="292.4531" rx="2.5" ry="2.5" style="stroke:#181818;stroke-width:0.5;" width="207.1523" x="809.98" y="7"/><ellipse cx="886.7202" cy="23" fill="#ADD1B2" rx="11" ry="11" style="stroke:#181818;stroke-width:1;"/><path d="M889.689,28.6406 Q889.1109,28.9375 888.4702,29.0781 Q887.8296,29.2344 887.1265,29.2344 Q884.6265,29.2344 883.2984,27.5938 Q881.9859,25.9375 881.9859,22.8125 Q881.9859,19.6875 883.2984,18.0313 Q884.6265,16.375 887.1265,16.375 Q887.8296,16.375 888.4702,16.5313 Q889.1265,16.6875 889.689,16.9844 L889.689,19.7031 Q889.064,19.125 888.4702,18.8594 Q887.8765,18.5781 887.2515,18.5781 Q885.9077,18.5781 885.2202,19.6563 Q884.5327,20.7188 884.5327,22.8125 Q884.5327,24.9063 885.2202,25.9844 Q885.9077,27.0469 887.2515,27.0469 Q887.8765,27.0469 888.4702,26.7813 Q889.064,26.5 889.689,25.9219 L889.689,28.6406 Z " fill="#000000"/><text fill="#000000" font-family="sans-serif" font-size="14" lengthAdjust="spacing" textLength="45.1719" x="907.2202" y="27.8467">Rental</text><line style="stroke:#181818;stroke-width:0.5;" x1="810.98" x2="1016.1323" y1="39" y2="39"/><rect fill="none" height="6" style="stroke:#C82930;stroke-width:1;" width="6" x="817.98" y="49.6484"/><text fill="#000000" font-family="sans-serif" font-size="14" lengthAdjust="spacing" textLength="105.1641" x="829.98" y="55.9951">rentalId: String</text><rect fill="none" height="6" style="stroke:#C82930;stroke-width:1;" width="6" x="817.98" y="65.9453"/><text fill="#000000" font-family="sans-serif" font-size="14" lengthAdjust="spacing" textLength="110.1816" x="829.98" y="72.292">vehicle: Vehicle</text><rect fill="none" height="6" style="stroke:#C82930;stroke-width:1;" width="6" x="817.98" y="82.2422"/><text fill="#000000" font-family="sans-serif" font-size="14" lengthAdjust="spacing" textLength="143.0967" x="829.98" y="88.5889">customer: Customer</text><rect fill="none" height="6" style="stroke:#C82930;stroke-width:1;" width="6" x="817.98" y="98.5391"/><text fill="#000000" font-family="sans-serif" font-size="14" lengthAdjust="spacing" textLength="181.1523" x="829.98" y="104.8857">startTime: LocalDateTime</text><rect fill="none" height="6" style="stroke:#C82930;stroke-width:1;" width="6" x="817.98" y="114.8359"/><text fill="#000000" font-family="sans-serif" font-size="14" lengthAdjust="spacing" textLength="174.918" x="829.98" y="121.1826">endTime: LocalDateTime</text><rect fill="none" height="6" style="stroke:#C82930;stroke-width:1;" width="6" x="817.98" y="131.1328"/><text fill="#000000" font-family="sans-serif" font-size="14" lengthAdjust="spacing" textLength="141.9688" x="829.98" y="137.4795">status: RentalStatus</text><rect fill="none" height="6" style="stroke:#C82930;stroke-width:1;" width="6" x="817.98" y="147.4297"/><text fill="#000000" font-family="sans-serif" font-size="14" lengthAdjust="spacing" textLength="110.8994" x="829.98" y="153.7764">amount: double</text><line style="stroke:#181818;stroke-width:0.5;" x1="810.98" x2="1016.1323" y1="161.0781" y2="161.0781"/><ellipse cx="820.98" cy="174.7266" fill="#84BE84" rx="3" ry="3" style="stroke:#038048;stroke-width:1;"/><text fill="#000000" font-family="sans-serif" font-size="14" lengthAdjust="spacing" textLength="82.4688" x="829.98" y="178.0732">endRental()</text><ellipse cx="820.98" cy="191.0234" fill="#84BE84" rx="3" ry="3" style="stroke:#038048;stroke-width:1;"/><text fill="#000000" font-family="sans-serif" font-size="14" lengthAdjust="spacing" textLength="92.1006" x="829.98" y="194.3701">getRentalId()</text><ellipse cx="820.98" cy="207.3203" fill="#84BE84" rx="3" ry="3" style="stroke:#038048;stroke-width:1;"/><text fill="#000000" font-family="sans-serif" font-size="14" lengthAdjust="spacing" textLength="85.0664" x="829.98" y="210.667">getVehicle()</text><ellipse cx="820.98" cy="223.6172" fill="#84BE84" rx="3" ry="3" style="stroke:#038048;stroke-width:1;"/><text fill="#000000" font-family="sans-serif" font-size="14" lengthAdjust="spacing" textLength="101.917" x="829.98" y="226.9639">getCustomer()</text><ellipse cx="820.98" cy="239.9141" fill="#84BE84" rx="3" ry="3" style="stroke:#038048;stroke-width:1;"/><text fill="#000000" font-family="sans-serif" font-size="14" lengthAdjust="spacing" textLength="102.8057" x="829.98" y="243.2607">getStartTime()</text><ellipse cx="820.98" cy="256.2109" fill="#84BE84" rx="3" ry="3" style="stroke:#038048;stroke-width:1;"/><text fill="#000000" font-family="sans-serif" font-size="14" lengthAdjust="spacing" textLength="95.2109" x="829.98" y="259.5576">getEndTime()</text><ellipse cx="820.98" cy="272.5078" fill="#84BE84" rx="3" ry="3" style="stroke:#038048;stroke-width:1;"/><text fill="#000000" font-family="sans-serif" font-size="14" lengthAdjust="spacing" textLength="88.9287" x="829.98" y="275.8545">getAmount()</text><ellipse cx="820.98" cy="288.8047" fill="#84BE84" rx="3" ry="3" style="stroke:#038048;stroke-width:1;"/><text fill="#000000" font-family="sans-serif" font-size="14" lengthAdjust="spacing" textLength="78.5244" x="829.98" y="292.1514">getStatus()</text></g><!--class VehicleFactory--><g class="entity" data-entity="VehicleFactory" data-source-line="64" data-uid="ent0011" id="entity_VehicleFactory"><rect fill="#F1F1F1" height="80.5938" rx="2.5" ry="2.5" style="stroke:#181818;stroke-width:0.5;" width="217.5635" x="481.77" y="408.34"/><ellipse cx="534.5127" cy="424.34" fill="#ADD1B2" rx="11" ry="11" style="stroke:#181818;stroke-width:1;"/><path d="M537.4814,429.9806 Q536.9033,430.2775 536.2627,430.4181 Q535.6221,430.5744 534.9189,430.5744 Q532.4189,430.5744 531.0908,428.9338 Q529.7783,427.2775 529.7783,424.1525 Q529.7783,421.0275 531.0908,419.3713 Q532.4189,417.715 534.9189,417.715 Q535.6221,417.715 536.2627,417.8713 Q536.9189,418.0275 537.4814,418.3244 L537.4814,421.0431 Q536.8564,420.465 536.2627,420.1994 Q535.6689,419.9181 535.0439,419.9181 Q533.7002,419.9181 533.0127,420.9963 Q532.3252,422.0588 532.3252,424.1525 Q532.3252,426.2463 533.0127,427.3244 Q533.7002,428.3869 535.0439,428.3869 Q535.6689,428.3869 536.2627,428.1213 Q536.8564,427.84 537.4814,427.2619 L537.4814,429.9806 Z " fill="#000000"/><text fill="#000000" font-family="sans-serif" font-size="14" lengthAdjust="spacing" textLength="103.5781" x="555.0127" y="429.1867">VehicleFactory</text><line style="stroke:#181818;stroke-width:0.5;" x1="482.77" x2="698.3335" y1="440.34" y2="440.34"/><line style="stroke:#181818;stroke-width:0.5;" x1="482.77" x2="698.3335" y1="448.34" y2="448.34"/><ellipse cx="492.77" cy="461.9884" fill="#84BE84" rx="3" ry="3" style="stroke:#038048;stroke-width:1;"/><text fill="#000000" font-family="sans-serif" font-size="14" lengthAdjust="spacing" textLength="134.709" x="501.77" y="465.3351">createBike(id, size)</text><ellipse cx="492.77" cy="478.2853" fill="#84BE84" rx="3" ry="3" style="stroke:#038048;stroke-width:1;"/><text fill="#000000" font-family="sans-serif" font-size="14" lengthAdjust="spacing" textLength="191.5635" x="501.77" y="481.632">createScooter(id, fuelType)</text></g><!--class PricingStrategy--><g class="entity" data-entity="PricingStrategy" data-source-line="70" data-uid="ent0012" id="entity_PricingStrategy"><rect fill="#F1F1F1" height="64.2969" rx="2.5" ry="2.5" style="stroke:#181818;stroke-width:0.5;" width="175.8301" x="1172.64" y="416.49"/><ellipse cx="1204.0246" cy="432.49" fill="#B4A7E5" rx="11" ry="11" style="stroke:#181818;stroke-width:1;"/><path d="M1199.9464,428.2556 L1199.9464,426.0994 L1207.3371,426.0994 L1207.3371,428.2556 L1204.8683,428.2556 L1204.8683,436.3338 L1207.3371,436.3338 L1207.3371,438.49 L1199.9464,438.49 L1199.9464,436.3338 L1202.4152,436.3338 L1202.4152,428.2556 L1199.9464,428.2556 Z " fill="#000000"/><text fill="#000000" font-family="sans-serif" font-size="14" font-style="italic" lengthAdjust="spacing" textLength="107.4199" x="1221.6656" y="437.3367">PricingStrategy</text><line style="stroke:#181818;stroke-width:0.5;" x1="1173.64" x2="1347.4701" y1="448.49" y2="448.49"/><line style="stroke:#181818;stroke-width:0.5;" x1="1173.64" x2="1347.4701" y1="456.49" y2="456.49"/><ellipse cx="1183.64" cy="470.1384" fill="#84BE84" rx="3" ry="3" style="stroke:#038048;stroke-width:1;"/><text fill="#000000" font-family="sans-serif" font-size="14" lengthAdjust="spacing" textLength="149.8301" x="1192.64" y="473.4851">calculatePrice(rental)</text></g><!--class HourlyPricingStrategy--><g class="entity" data-entity="HourlyPricingStrategy" data-source-line="73" data-uid="ent0013" id="entity_HourlyPricingStrategy"><rect fill="#F1F1F1" height="64.2969" rx="2.5" ry="2.5" style="stroke:#181818;stroke-width:0.5;" width="185.3164" x="1153.89" y="121.08"/><ellipse cx="1168.89" cy="137.08" fill="#ADD1B2" rx="11" ry="11" style="stroke:#181818;stroke-width:1;"/><path d="M1171.8588,142.7206 Q1171.2806,143.0175 1170.64,143.1581 Q1169.9994,143.3144 1169.2963,143.3144 Q1166.7963,143.3144 1165.4681,141.6738 Q1164.1556,140.0175 1164.1556,136.8925 Q1164.1556,133.7675 1165.4681,132.1113 Q1166.7963,130.455 1169.2963,130.455 Q1169.9994,130.455 1170.64,130.6113 Q1171.2963,130.7675 1171.8588,131.0644 L1171.8588,133.7831 Q1171.2338,133.205 1170.64,132.9394 Q1170.0463,132.6581 1169.4213,132.6581 Q1168.0775,132.6581 1167.39,133.7363 Q1166.7025,134.7988 1166.7025,136.8925 Q1166.7025,138.9863 1167.39,140.0644 Q1168.0775,141.1269 1169.4213,141.1269 Q1170.0463,141.1269 1170.64,140.8613 Q1171.2338,140.58 1171.8588,140.0019 L1171.8588,142.7206 Z " fill="#000000"/><text fill="#000000" font-family="sans-serif" font-size="14" lengthAdjust="spacing" textLength="153.3164" x="1182.89" y="141.9267">HourlyPricingStrategy</text><line style="stroke:#181818;stroke-width:0.5;" x1="1154.89" x2="1338.2064" y1="153.08" y2="153.08"/><line style="stroke:#181818;stroke-width:0.5;" x1="1154.89" x2="1338.2064" y1="161.08" y2="161.08"/><ellipse cx="1164.89" cy="174.7284" fill="#84BE84" rx="3" ry="3" style="stroke:#038048;stroke-width:1;"/><text fill="#000000" font-family="sans-serif" font-size="14" lengthAdjust="spacing" textLength="149.8301" x="1173.89" y="178.0751">calculatePrice(rental)</text></g><!--class VehicleRepository--><g class="entity" data-entity="VehicleRepository" data-source-line="78" data-uid="ent0014" id="entity_VehicleRepository"><rect fill="#F1F1F1" height="96.8906" rx="2.5" ry="2.5" style="stroke:#181818;stroke-width:0.5;" width="164.291" x="1667.41" y="597.83"/><ellipse cx="1685.1394" cy="613.83" fill="#B4A7E5" rx="11" ry="11" style="stroke:#181818;stroke-width:1;"/><path d="M1681.0613,609.5956 L1681.0613,607.4394 L1688.4519,607.4394 L1688.4519,609.5956 L1685.9832,609.5956 L1685.9832,617.6738 L1688.4519,617.6738 L1688.4519,619.83 L1681.0613,619.83 L1681.0613,617.6738 L1683.5301,617.6738 L1683.5301,609.5956 L1681.0613,609.5956 Z " fill="#000000"/><text fill="#000000" font-family="sans-serif" font-size="14" font-style="italic" lengthAdjust="spacing" textLength="126.2256" x="1699.746" y="618.6767">VehicleRepository</text><line style="stroke:#181818;stroke-width:0.5;" x1="1668.41" x2="1830.701" y1="629.83" y2="629.83"/><line style="stroke:#181818;stroke-width:0.5;" x1="1668.41" x2="1830.701" y1="637.83" y2="637.83"/><ellipse cx="1678.41" cy="651.4784" fill="#84BE84" rx="3" ry="3" style="stroke:#038048;stroke-width:1;"/><text fill="#000000" font-family="sans-serif" font-size="14" lengthAdjust="spacing" textLength="138.291" x="1687.41" y="654.8251">addVehicle(vehicle)</text><ellipse cx="1678.41" cy="667.7753" fill="#84BE84" rx="3" ry="3" style="stroke:#038048;stroke-width:1;"/><text fill="#000000" font-family="sans-serif" font-size="14" lengthAdjust="spacing" textLength="51.2695" x="1687.41" y="671.122">getAll()</text><ellipse cx="1678.41" cy="684.0722" fill="#84BE84" rx="3" ry="3" style="stroke:#038048;stroke-width:1;"/><text fill="#000000" font-family="sans-serif" font-size="14" lengthAdjust="spacing" textLength="81.1836" x="1687.41" y="687.4189">findById(id)</text></g><!--class InMemoryVehicleRepository--><g class="entity" data-entity="InMemoryVehicleRepository" data-source-line="83" data-uid="ent0015" id="entity_InMemoryVehicleRepository"><rect fill="#F1F1F1" height="64.2969" rx="2.5" ry="2.5" style="stroke:#181818;stroke-width:0.5;" width="228.1641" x="1865.47" y="416.49"/><ellipse cx="1880.47" cy="432.49" fill="#ADD1B2" rx="11" ry="11" style="stroke:#181818;stroke-width:1;"/><path d="M1883.4388,438.1306 Q1882.8606,438.4275 1882.22,438.5681 Q1881.5794,438.7244 1880.8763,438.7244 Q1878.3763,438.7244 1877.0481,437.0838 Q1875.7356,435.4275 1875.7356,432.3025 Q1875.7356,429.1775 1877.0481,427.5213 Q1878.3763,425.865 1880.8763,425.865 Q1881.5794,425.865 1882.22,426.0213 Q1882.8763,426.1775 1883.4388,426.4744 L1883.4388,429.1931 Q1882.8138,428.615 1882.22,428.3494 Q1881.6263,428.0681 1881.0013,428.0681 Q1879.6575,428.0681 1878.97,429.1463 Q1878.2825,430.2088 1878.2825,432.3025 Q1878.2825,434.3963 1878.97,435.4744 Q1879.6575,436.5369 1881.0013,436.5369 Q1881.6263,436.5369 1882.22,436.2713 Q1882.8138,435.99 1883.4388,435.4119 L1883.4388,438.1306 Z " fill="#000000"/><text fill="#000000" font-family="sans-serif" font-size="14" lengthAdjust="spacing" textLength="196.1641" x="1894.47" y="437.3367">InMemoryVehicleRepository</text><line style="stroke:#181818;stroke-width:0.5;" x1="1866.47" x2="2092.6341" y1="448.49" y2="448.49"/><rect fill="none" height="6" style="stroke:#C82930;stroke-width:1;" width="6" x="1873.47" y="459.1384"/><text fill="#000000" font-family="sans-serif" font-size="14" lengthAdjust="spacing" textLength="165.4092" x="1885.47" y="465.4851">vehicles: List&lt;Vehicle&gt;</text><line style="stroke:#181818;stroke-width:0.5;" x1="1866.47" x2="2092.6341" y1="472.7869" y2="472.7869"/></g><!--class RentalRepository--><g class="entity" data-entity="RentalRepository" data-source-line="87" data-uid="ent0016" id="entity_RentalRepository"><rect fill="#F1F1F1" height="96.8906" rx="2.5" ry="2.5" style="stroke:#181818;stroke-width:0.5;" width="152.2441" x="1678.43" y="400.2"/><ellipse cx="1693.43" cy="416.2" fill="#B4A7E5" rx="11" ry="11" style="stroke:#181818;stroke-width:1;"/><path d="M1689.3519,411.9656 L1689.3519,409.8094 L1696.7425,409.8094 L1696.7425,411.9656 L1694.2738,411.9656 L1694.2738,420.0438 L1696.7425,420.0438 L1696.7425,422.2 L1689.3519,422.2 L1689.3519,420.0438 L1691.8206,420.0438 L1691.8206,411.9656 L1689.3519,411.9656 Z " fill="#000000"/><text fill="#000000" font-family="sans-serif" font-size="14" font-style="italic" lengthAdjust="spacing" textLength="120.2441" x="1707.43" y="421.0467">RentalRepository</text><line style="stroke:#181818;stroke-width:0.5;" x1="1679.43" x2="1829.6741" y1="432.2" y2="432.2"/><line style="stroke:#181818;stroke-width:0.5;" x1="1679.43" x2="1829.6741" y1="440.2" y2="440.2"/><ellipse cx="1689.43" cy="453.8484" fill="#84BE84" rx="3" ry="3" style="stroke:#038048;stroke-width:1;"/><text fill="#000000" font-family="sans-serif" font-size="14" lengthAdjust="spacing" textLength="84.8955" x="1698.43" y="457.1951">save(rental)</text><ellipse cx="1689.43" cy="470.1453" fill="#84BE84" rx="3" ry="3" style="stroke:#038048;stroke-width:1;"/><text fill="#000000" font-family="sans-serif" font-size="14" lengthAdjust="spacing" textLength="122.623" x="1698.43" y="473.492">findById(rentalId)</text><ellipse cx="1689.43" cy="486.4422" fill="#84BE84" rx="3" ry="3" style="stroke:#038048;stroke-width:1;"/><text fill="#000000" font-family="sans-serif" font-size="14" lengthAdjust="spacing" textLength="51.2695" x="1698.43" y="489.7889">getAll()</text></g><!--class InMemoryRentalRepository--><g class="entity" data-entity="InMemoryRentalRepository" data-source-line="92" data-uid="ent0017" id="entity_InMemoryRentalRepository"><rect fill="#F1F1F1" height="64.2969" rx="2.5" ry="2.5" style="stroke:#181818;stroke-width:0.5;" width="232.5205" x="1700.29" y="121.08"/><ellipse cx="1719.9421" cy="137.08" fill="#ADD1B2" rx="11" ry="11" style="stroke:#181818;stroke-width:1;"/><path d="M1722.9108,142.7206 Q1722.3327,143.0175 1721.6921,143.1581 Q1721.0514,143.3144 1720.3483,143.3144 Q1717.8483,143.3144 1716.5202,141.6738 Q1715.2077,140.0175 1715.2077,136.8925 Q1715.2077,133.7675 1716.5202,132.1113 Q1717.8483,130.455 1720.3483,130.455 Q1721.0514,130.455 1721.6921,130.6113 Q1722.3483,130.7675 1722.9108,131.0644 L1722.9108,133.7831 Q1722.2858,133.205 1721.6921,132.9394 Q1721.0983,132.6581 1720.4733,132.6581 Q1719.1296,132.6581 1718.4421,133.7363 Q1717.7546,134.7988 1717.7546,136.8925 Q1717.7546,138.9863 1718.4421,140.0644 Q1719.1296,141.1269 1720.4733,141.1269 Q1721.0983,141.1269 1721.6921,140.8613 Q1722.2858,140.58 1722.9108,140.0019 L1722.9108,142.7206 Z " fill="#000000"/><text fill="#000000" font-family="sans-serif" font-size="14" lengthAdjust="spacing" textLength="190.1826" x="1734.9758" y="141.9267">InMemoryRentalRepository</text><line style="stroke:#181818;stroke-width:0.5;" x1="1701.29" x2="1931.8105" y1="153.08" y2="153.08"/><rect fill="none" height="6" style="stroke:#C82930;stroke-width:1;" width="6" x="1708.29" y="163.7284"/><text fill="#000000" font-family="sans-serif" font-size="14" lengthAdjust="spacing" textLength="206.5205" x="1720.29" y="170.0751">rentals: Map&lt;String, Rental&gt;</text><line style="stroke:#181818;stroke-width:0.5;" x1="1701.29" x2="1931.8105" y1="177.3769" y2="177.3769"/></g><!--class InventoryManager--><g class="entity" data-entity="InventoryManager" data-source-line="97" data-uid="ent0018" id="entity_InventoryManager"><rect fill="#F1F1F1" height="113.1875" rx="2.5" ry="2.5" style="stroke:#181818;stroke-width:0.5;" width="247.0469" x="1396.03" y="392.05"/><ellipse cx="1451.1858" cy="408.05" fill="#ADD1B2" rx="11" ry="11" style="stroke:#181818;stroke-width:1;"/><path d="M1454.1545,413.6906 Q1453.5764,413.9875 1452.9358,414.1281 Q1452.2951,414.2844 1451.592,414.2844 Q1449.092,414.2844 1447.7639,412.6438 Q1446.4514,410.9875 1446.4514,407.8625 Q1446.4514,404.7375 1447.7639,403.0813 Q1449.092,401.425 1451.592,401.425 Q1452.2951,401.425 1452.9358,401.5813 Q1453.592,401.7375 1454.1545,402.0344 L1454.1545,404.7531 Q1453.5295,404.175 1452.9358,403.9094 Q1452.342,403.6281 1451.717,403.6281 Q1450.3733,403.6281 1449.6858,404.7063 Q1448.9983,405.7688 1448.9983,407.8625 Q1448.9983,409.9563 1449.6858,411.0344 Q1450.3733,412.0969 1451.717,412.0969 Q1452.342,412.0969 1452.9358,411.8313 Q1453.5295,411.55 1454.1545,410.9719 L1454.1545,413.6906 Z " fill="#000000"/><text fill="#000000" font-family="sans-serif" font-size="14" lengthAdjust="spacing" textLength="128.2354" x="1471.6858" y="412.8967">InventoryManager</text><line style="stroke:#181818;stroke-width:0.5;" x1="1397.03" x2="1642.0769" y1="424.05" y2="424.05"/><rect fill="none" height="6" style="stroke:#C82930;stroke-width:1;" width="6" x="1404.03" y="434.6984"/><text fill="#000000" font-family="sans-serif" font-size="14" lengthAdjust="spacing" textLength="221.0469" x="1416.03" y="441.0451">vehicleRepo: VehicleRepository</text><line style="stroke:#181818;stroke-width:0.5;" x1="1397.03" x2="1642.0769" y1="448.3469" y2="448.3469"/><ellipse cx="1407.03" cy="461.9953" fill="#84BE84" rx="3" ry="3" style="stroke:#038048;stroke-width:1;"/><text fill="#000000" font-family="sans-serif" font-size="14" lengthAdjust="spacing" textLength="156.5498" x="1416.03" y="465.342">getAvailableVehicles()</text><ellipse cx="1407.03" cy="478.2922" fill="#84BE84" rx="3" ry="3" style="stroke:#038048;stroke-width:1;"/><text fill="#000000" font-family="sans-serif" font-size="14" lengthAdjust="spacing" textLength="180.2568" x="1416.03" y="481.6389">allocateVehicle(vehicleId)</text><ellipse cx="1407.03" cy="494.5891" fill="#84BE84" rx="3" ry="3" style="stroke:#038048;stroke-width:1;"/><text fill="#000000" font-family="sans-serif" font-size="14" lengthAdjust="spacing" textLength="176.3125" x="1416.03" y="497.9357">releaseVehicle(vehicleId)</text></g><!--class RentalService--><g class="entity" data-entity="RentalService" data-source-line="104" data-uid="ent0019" id="entity_RentalService"><rect fill="#F1F1F1" height="129.4844" rx="2.5" ry="2.5" style="stroke:#181818;stroke-width:0.5;" width="291.3984" x="1373.85" y="88.49"/><ellipse cx="1466.8427" cy="104.49" fill="#ADD1B2" rx="11" ry="11" style="stroke:#181818;stroke-width:1;"/><path d="M1469.8114,110.1306 Q1469.2333,110.4275 1468.5927,110.5681 Q1467.9521,110.7244 1467.2489,110.7244 Q1464.7489,110.7244 1463.4208,109.0838 Q1462.1083,107.4275 1462.1083,104.3025 Q1462.1083,101.1775 1463.4208,99.5213 Q1464.7489,97.865 1467.2489,97.865 Q1467.9521,97.865 1468.5927,98.0213 Q1469.2489,98.1775 1469.8114,98.4744 L1469.8114,101.1931 Q1469.1864,100.615 1468.5927,100.3494 Q1467.9989,100.0681 1467.3739,100.0681 Q1466.0302,100.0681 1465.3427,101.1463 Q1464.6552,102.2088 1464.6552,104.3025 Q1464.6552,106.3963 1465.3427,107.4744 Q1466.0302,108.5369 1467.3739,108.5369 Q1467.9989,108.5369 1468.5927,108.2713 Q1469.1864,107.99 1469.8114,107.4119 L1469.8114,110.1306 Z " fill="#000000"/><text fill="#000000" font-family="sans-serif" font-size="14" lengthAdjust="spacing" textLength="96.9131" x="1487.3427" y="109.3367">RentalService</text><line style="stroke:#181818;stroke-width:0.5;" x1="1374.85" x2="1664.2484" y1="120.49" y2="120.49"/><rect fill="none" height="6" style="stroke:#C82930;stroke-width:1;" width="6" x="1381.85" y="131.1384"/><text fill="#000000" font-family="sans-serif" font-size="14" lengthAdjust="spacing" textLength="265.3984" x="1393.85" y="137.4851">inventoryManager: InventoryManager</text><rect fill="none" height="6" style="stroke:#C82930;stroke-width:1;" width="6" x="1381.85" y="147.4353"/><text fill="#000000" font-family="sans-serif" font-size="14" lengthAdjust="spacing" textLength="206.4043" x="1393.85" y="153.782">rentalRepo: RentalRepository</text><rect fill="none" height="6" style="stroke:#C82930;stroke-width:1;" width="6" x="1381.85" y="163.7322"/><text fill="#000000" font-family="sans-serif" font-size="14" lengthAdjust="spacing" textLength="224.4512" x="1393.85" y="170.0789">pricingStrategy: PricingStrategy</text><line style="stroke:#181818;stroke-width:0.5;" x1="1374.85" x2="1664.2484" y1="177.3806" y2="177.3806"/><ellipse cx="1384.85" cy="191.0291" fill="#84BE84" rx="3" ry="3" style="stroke:#038048;stroke-width:1;"/><text fill="#000000" font-family="sans-serif" font-size="14" lengthAdjust="spacing" textLength="228.5117" x="1393.85" y="194.3757">rentVehicle(customer, vehicleId)</text><ellipse cx="1384.85" cy="207.3259" fill="#84BE84" rx="3" ry="3" style="stroke:#038048;stroke-width:1;"/><text fill="#000000" font-family="sans-serif" font-size="14" lengthAdjust="spacing" textLength="159.6533" x="1393.85" y="210.6726">returnVehicle(rentalId)</text></g><!--reverse link Vehicle to Bike--><g class="link" data-entity-1="Vehicle" data-entity-2="Bike" data-source-line="113" data-uid="lnk20" id="link_Vehicle_Bike"><path codeLine="113" d="M909.9697,536.8155 C904.0497,540.4755 913.42,534.53 907.55,537.83 C845.68,572.61 770.31,603.57 718.61,623.22" fill="none" id="Vehicle-backto-Bike" style="stroke:#181818;stroke-width:1;"/><polygon fill="none" points="925.28,527.35,906.8146,531.7121,913.1249,541.9189,925.28,527.35" style="stroke:#181818;stroke-width:1;"/></g><!--reverse link Vehicle to Scooter--><g class="link" data-entity-1="Vehicle" data-entity-2="Scooter" data-source-line="114" data-uid="lnk21" id="link_Vehicle_Scooter"><path codeLine="114" d="M961.1622,553.1873 C945.0822,576.8473 938.62,586.33 925.37,605.83" fill="none" id="Vehicle-backto-Scooter" style="stroke:#181818;stroke-width:1;"/><polygon fill="none" points="971.28,538.3,956.1998,549.8147,966.1246,556.5598,971.28,538.3" style="stroke:#181818;stroke-width:1;"/></g><!--reverse link Rental to Vehicle--><g class="link" data-entity-1="Rental" data-entity-2="Vehicle" data-source-line="115" data-uid="lnk22" id="link_Rental_Vehicle"><path codeLine="115" d="M976.5084,310.783 C984.6784,331.093 988.39,340.32 995.96,359.14" fill="none" id="Rental-backto-Vehicle" style="stroke:#181818;stroke-width:1;"/><polygon fill="none" points="972.03,299.65,970.5582,306.7093,976.5084,310.783,977.9802,303.7237,972.03,299.65" style="stroke:#181818;stroke-width:1;"/></g><!--reverse link Rental to Customer--><g class="link" data-entity-1="Rental" data-entity-2="Customer" data-source-line="116" data-uid="lnk23" id="link_Rental_Customer"><path codeLine="116" d="M859.5935,310.9963 C848.2835,343.8463 840.85,365.44 831.75,391.88" fill="none" id="Rental-backto-Customer" style="stroke:#181818;stroke-width:1;"/><polygon fill="none" points="863.5,299.65,857.7647,304.021,859.5935,310.9963,865.3289,306.6253,863.5,299.65" style="stroke:#181818;stroke-width:1;"/></g><!--link VehicleFactory to Bike--><g class="link" data-entity-1="VehicleFactory" data-entity-2="Bike" data-source-line="117" data-uid="lnk24" id="link_VehicleFactory_Bike"><path codeLine="117" d="M604.11,489.23 C615.73,523.17 630.457,566.1433 642.067,600.0633" fill="none" id="VehicleFactory-to-Bike" style="stroke:#181818;stroke-width:1;stroke-dasharray:7,7;"/><polygon fill="#181818" points="644.01,605.74,644.88,595.9296,642.3908,601.0094,637.3111,598.5203,644.01,605.74" style="stroke:#181818;stroke-width:1;"/></g><!--link VehicleFactory to Scooter--><g class="link" data-entity-1="VehicleFactory" data-entity-2="Scooter" data-source-line="118" data-uid="lnk25" id="link_VehicleFactory_Scooter"><path codeLine="118" d="M645.92,489.36 C667.97,504.85 693.73,522.52 717.55,537.83 C753.82,561.15 789.9259,582.7792 823.9059,602.5792" fill="none" id="VehicleFactory-to-Scooter" style="stroke:#181818;stroke-width:1;stroke-dasharray:7,7;"/><polygon fill="#181818" points="829.09,605.6,823.3277,597.6128,824.7699,603.0827,819.3,604.5249,829.09,605.6" style="stroke:#181818;stroke-width:1;"/></g><!--link HourlyPricingStrategy to PricingStrategy--><g class="link" data-entity-1="HourlyPricingStrategy" data-entity-2="PricingStrategy" data-source-line="119" data-uid="lnk26" id="link_HourlyPricingStrategy_PricingStrategy"><path codeLine="119" d="M1248.05,185.63 C1250.74,241.95 1255.4937,341.5604 1258.1837,398.0404" fill="none" id="HourlyPricingStrategy-to-PricingStrategy" style="stroke:#181818;stroke-width:1;stroke-dasharray:7,7;"/><polygon fill="none" points="1259.04,416.02,1264.1769,397.7549,1252.1905,398.3258,1259.04,416.02" style="stroke:#181818;stroke-width:1;"/></g><!--link InMemoryVehicleRepository to VehicleRepository--><g class="link" data-entity-1="InMemoryVehicleRepository" data-entity-2="VehicleRepository" data-source-line="120" data-uid="lnk27" id="link_InMemoryVehicleRepository_VehicleRepository"><path codeLine="120" d="M1942.6,481.07 C1905.65,512.5 1862.052,549.5889 1819.462,585.8089" fill="none" id="InMemoryVehicleRepository-to-VehicleRepository" style="stroke:#181818;stroke-width:1;stroke-dasharray:7,7;"/><polygon fill="none" points="1805.75,597.47,1823.349,590.3795,1815.5749,581.2382,1805.75,597.47" style="stroke:#181818;stroke-width:1;"/></g><!--link InMemoryRentalRepository to RentalRepository--><g class="link" data-entity-1="InMemoryRentalRepository" data-entity-2="RentalRepository" data-source-line="121" data-uid="lnk28" id="link_InMemoryRentalRepository_RentalRepository"><path codeLine="121" d="M1809.92,185.63 C1799.06,237 1781.1632,321.7293 1768.3832,382.1793" fill="none" id="InMemoryRentalRepository-to-RentalRepository" style="stroke:#181818;stroke-width:1;stroke-dasharray:7,7;"/><polygon fill="none" points="1764.66,399.79,1774.2534,383.4203,1762.5129,380.9382,1764.66,399.79" style="stroke:#181818;stroke-width:1;"/></g><!--link InventoryManager to VehicleRepository--><g class="link" data-entity-1="InventoryManager" data-entity-2="VehicleRepository" data-source-line="122" data-uid="lnk29" id="link_InventoryManager_VehicleRepository"><path codeLine="122" d="M1585.46,505.7 C1619.58,534.72 1656.2202,565.8819 1688.8002,593.6019" fill="none" id="InventoryManager-to-VehicleRepository" style="stroke:#181818;stroke-width:1;"/><polygon fill="#181818" points="1693.37,597.49,1689.1074,588.6114,1689.5619,594.2499,1683.9233,594.7044,1693.37,597.49" style="stroke:#181818;stroke-width:1;"/></g><!--link RentalService to InventoryManager--><g class="link" data-entity-1="RentalService" data-entity-2="InventoryManager" data-source-line="123" data-uid="lnk30" id="link_RentalService_InventoryManager"><path codeLine="123" d="M1519.55,218.26 C1519.55,270.02 1519.55,336.18 1519.55,385.67" fill="none" id="RentalService-to-InventoryManager" style="stroke:#181818;stroke-width:1;"/><polygon fill="#181818" points="1519.55,391.67,1523.55,382.67,1519.55,386.67,1515.55,382.67,1519.55,391.67" style="stroke:#181818;stroke-width:1;"/></g><!--link RentalService to RentalRepository--><g class="link" data-entity-1="RentalService" data-entity-2="RentalRepository" data-source-line="124" data-uid="lnk31" id="link_RentalService_RentalRepository"><path codeLine="124" d="M1570.83,218.26 C1614.72,273.06 1673.1693,346.0268 1712.7493,395.4468" fill="none" id="RentalService-to-RentalRepository" style="stroke:#181818;stroke-width:1;"/><polygon fill="#181818" points="1716.5,400.13,1713.9961,390.6048,1713.3744,396.2274,1707.7518,395.6057,1716.5,400.13" style="stroke:#181818;stroke-width:1;"/></g><!--link RentalService to PricingStrategy--><g class="link" data-entity-1="RentalService" data-entity-2="PricingStrategy" data-source-line="125" data-uid="lnk32" id="link_RentalService_PricingStrategy"><path codeLine="125" d="M1463.03,218.26 C1409,279.47 1333.7805,364.6816 1292.2605,411.7216" fill="none" id="RentalService-to-PricingStrategy" style="stroke:#181818;stroke-width:1;"/><polygon fill="#181818" points="1288.29,416.22,1297.2446,412.1195,1291.5987,412.4714,1291.2468,406.8255,1288.29,416.22" style="stroke:#181818;stroke-width:1;"/></g><!--SRC=[bLN1RgCm4Btp5RwrrP9y0AeYfGdjeeKcWcpl3hYfLSUEi8cKRVVVTmosCP0SjeTAZD-CtxnvdjoXc3T76H3uZzx81oqPMM553gA-e2yKF2M_uX0Lgyrc5-Se-Di1d-WdAUWVeX55japJ46NnElcTXIXTvY-n0putXEqkfnQuZNVv1f1n6gzsUR9oe9nmXLcXi6ea-Whok8ZpjtWTeithooPvVGdHQfDjqtWNhtLE4Dm1QKKL9JB0UwbgN2fKCYobxG2g8FYR8Lf5g50rvGSJA4rlqRXPSuxFc3AyPoH2Uo4OmRmz-84EH2NL_KF_PHDTZCgbJNQn8wu_TNka6eHy83JKSTUYEk8Ir8sSplsj-ijFAaeX5AbTthiHF7BIzxasukUl6gd4qIjGca0oLexZ8nc4EXKStDVc5R3-BTs4tHrr-pcvuTnDn8rcn2XoPAr62jTgHpMjL9IOhM4Y-jCS4rxTFfIjswA1zwm5ZgBXAaALQFRCoWV5EgZVPcxwy6E6-y0fXhOVAontFnXtZFtGiYKpoWIkdRftw1cyhv_g5Ykm0Gy6py0UVfdiiYQWWZRLFQt2rcCFWoFZflRKEibS19FIXkzlek3g-XsN16rhMi8K7S9TXrdPC8Xf0BdlfgxBTIH_YgPcb_zE1YuvEGb9szPIV04_z5nCvnx25iHLPMTZZERBpFh1lbDUFLrWghJgoIOy8qSeTwk-SozuAgLIFHhWGZFkwNMEkS9EudFVv8Y7VIuJlcDoDwhR1mVKCdnwxDvSQBWip7X9VGQTZPwsx1aWK2V371-y7N7kHOYcYdiixPep6Eaqnem9lOf74-bxh0diNddjVBHKB76tyKUaeqaR0qsw7iR26SXfwCrex7J7bRjdRvTLYAwqf9gQMs0_L6Dfy3eLN7xGampipzZZzspM_WWC8-QP1cQj2WZPbUc5tBOSROFvV36ewSTjvUjlSpx_NamqkFqoMlZK7ZVTsk8devYuS3QxLdNe1esPp7qAcLmsXOpQ_GS0]--></g></svg>