<svg xmlns="http://www.w3.org/2000/svg" xmlns:xlink="http://www.w3.org/1999/xlink" contentStyleType="text/css" data-diagram-type="CLASS" height="651px" preserveAspectRatio="none" style="width:1446px;height:651px;background:#FFFFFF;" version="1.1" viewBox="0 0 1446 651" width="1446px" zoomAndPan="magnify"><title>TicTacToe - Refactored UML</title><defs/><g><g class="title" data-source-line="1"><text fill="#000000" font-family="sans-serif" font-size="14" font-weight="bold" lengthAdjust="spacing" textLength="220.1035" x="606.3186" y="22.9951">TicTacToe - Refactored UML</text></g><!--class PieceType--><g class="entity" data-entity="PieceType" data-source-line="4" data-uid="ent0002" id="entity_PieceType"><rect fill="#F1F1F1" height="64.2969" rx="2.5" ry="2.5" style="stroke:#181818;stroke-width:0.5;" width="103.5928" x="255.21" y="44.2969"/><ellipse cx="270.21" cy="60.2969" fill="#EB937F" rx="11" ry="11" style="stroke:#181818;stroke-width:1;"/><path d="M274.3194,66.2969 L266.6006,66.2969 L266.6006,53.9063 L274.3194,53.9063 L274.3194,56.0625 L269.0538,56.0625 L269.0538,58.7344 L273.8194,58.7344 L273.8194,60.8906 L269.0538,60.8906 L269.0538,64.1406 L274.3194,64.1406 L274.3194,66.2969 Z " fill="#000000"/><text fill="#000000" font-family="sans-serif" font-size="14" lengthAdjust="spacing" textLength="71.5928" x="284.21" y="65.1436">PieceType</text><line style="stroke:#181818;stroke-width:0.5;" x1="256.21" x2="357.8028" y1="76.2969" y2="76.2969"/><text fill="#000000" font-family="sans-serif" font-size="14" lengthAdjust="spacing" textLength="29.5107" x="261.21" y="93.292">X, O</text><line style="stroke:#181818;stroke-width:0.5;" x1="256.21" x2="357.8028" y1="100.5938" y2="100.5938"/></g><!--class PlayingPiece--><g class="entity" data-entity="PlayingPiece" data-source-line="8" data-uid="ent0003" id="entity_PlayingPiece"><rect fill="#F1F1F1" height="64.2969" rx="2.5" ry="2.5" style="stroke:#181818;stroke-width:0.5;" width="174.0801" x="41.96" y="572.0069"/><ellipse cx="81.2503" cy="588.0069" fill="#ADD1B2" rx="11" ry="11" style="stroke:#181818;stroke-width:1;"/><path d="M84.2191,593.6475 Q83.641,593.9444 83.0003,594.085 Q82.3597,594.2412 81.6566,594.2412 Q79.1566,594.2412 77.8285,592.6006 Q76.516,590.9444 76.516,587.8194 Q76.516,584.6944 77.8285,583.0381 Q79.1566,581.3819 81.6566,581.3819 Q82.3597,581.3819 83.0003,581.5381 Q83.6566,581.6944 84.2191,581.9912 L84.2191,584.71 Q83.5941,584.1319 83.0003,583.8662 Q82.4066,583.585 81.7816,583.585 Q80.4378,583.585 79.7503,584.6631 Q79.0628,585.7256 79.0628,587.8194 Q79.0628,589.9131 79.7503,590.9912 Q80.4378,592.0537 81.7816,592.0537 Q82.4066,592.0537 83.0003,591.7881 Q83.5941,591.5069 84.2191,590.9287 L84.2191,593.6475 Z " fill="#000000"/><text fill="#000000" font-family="sans-serif" font-size="14" lengthAdjust="spacing" textLength="88.1016" x="100.6482" y="592.8536">PlayingPiece</text><line style="stroke:#181818;stroke-width:0.5;" x1="42.96" x2="215.0401" y1="604.0069" y2="604.0069"/><rect fill="none" height="6" style="stroke:#C82930;stroke-width:1;" width="6" x="49.96" y="614.6553"/><text fill="#000000" font-family="sans-serif" font-size="14" lengthAdjust="spacing" textLength="148.0801" x="61.96" y="621.002">PieceType pieceType</text><line style="stroke:#181818;stroke-width:0.5;" x1="42.96" x2="215.0401" y1="628.3037" y2="628.3037"/></g><!--class Player--><g class="entity" data-entity="Player" data-source-line="12" data-uid="ent0004" id="entity_Player"><rect fill="#F1F1F1" height="80.5938" rx="2.5" ry="2.5" style="stroke:#181818;stroke-width:0.5;" width="156.252" x="50.88" y="390.6769"/><ellipse cx="102.9733" cy="406.6769" fill="#ADD1B2" rx="11" ry="11" style="stroke:#181818;stroke-width:1;"/><path d="M105.942,412.3175 Q105.3639,412.6144 104.7233,412.755 Q104.0826,412.9113 103.3795,412.9113 Q100.8795,412.9113 99.5514,411.2706 Q98.2389,409.6144 98.2389,406.4894 Q98.2389,403.3644 99.5514,401.7081 Q100.8795,400.0519 103.3795,400.0519 Q104.0826,400.0519 104.7233,400.2081 Q105.3795,400.3644 105.942,400.6613 L105.942,403.38 Q105.317,402.8019 104.7233,402.5363 Q104.1295,402.255 103.5045,402.255 Q102.1608,402.255 101.4733,403.3331 Q100.7858,404.3956 100.7858,406.4894 Q100.7858,408.5831 101.4733,409.6613 Q102.1608,410.7238 103.5045,410.7238 Q104.1295,410.7238 104.7233,410.4581 Q105.317,410.1769 105.942,409.5988 L105.942,412.3175 Z " fill="#000000"/><text fill="#000000" font-family="sans-serif" font-size="14" lengthAdjust="spacing" textLength="43.5654" x="123.4733" y="411.5236">Player</text><line style="stroke:#181818;stroke-width:0.5;" x1="51.88" x2="206.132" y1="422.6769" y2="422.6769"/><rect fill="none" height="6" style="stroke:#C82930;stroke-width:1;" width="6" x="58.88" y="433.3253"/><text fill="#000000" font-family="sans-serif" font-size="14" lengthAdjust="spacing" textLength="85.9346" x="70.88" y="439.672">String name</text><rect fill="none" height="6" style="stroke:#C82930;stroke-width:1;" width="6" x="58.88" y="449.6222"/><text fill="#000000" font-family="sans-serif" font-size="14" lengthAdjust="spacing" textLength="130.252" x="70.88" y="455.9689">PlayingPiece piece</text><line style="stroke:#181818;stroke-width:0.5;" x1="51.88" x2="206.132" y1="463.2706" y2="463.2706"/></g><!--class Position--><g class="entity" data-entity="Position" data-source-line="17" data-uid="ent0005" id="entity_Position"><rect fill="#F1F1F1" height="80.5938" rx="2.5" ry="2.5" style="stroke:#181818;stroke-width:0.5;" width="87.0088" x="355.5" y="563.8669"/><ellipse cx="370.5" cy="579.8669" fill="#ADD1B2" rx="11" ry="11" style="stroke:#181818;stroke-width:1;"/><path d="M373.4688,585.5075 Q372.8906,585.8044 372.25,585.945 Q371.6094,586.1012 370.9063,586.1012 Q368.4063,586.1012 367.0781,584.4606 Q365.7656,582.8044 365.7656,579.6794 Q365.7656,576.5544 367.0781,574.8981 Q368.4063,573.2419 370.9063,573.2419 Q371.6094,573.2419 372.25,573.3981 Q372.9063,573.5544 373.4688,573.8512 L373.4688,576.57 Q372.8438,575.9919 372.25,575.7262 Q371.6563,575.445 371.0313,575.445 Q369.6875,575.445 369,576.5231 Q368.3125,577.5856 368.3125,579.6794 Q368.3125,581.7731 369,582.8512 Q369.6875,583.9137 371.0313,583.9137 Q371.6563,583.9137 372.25,583.6481 Q372.8438,583.3669 373.4688,582.7887 L373.4688,585.5075 Z " fill="#000000"/><text fill="#000000" font-family="sans-serif" font-size="14" lengthAdjust="spacing" textLength="55.0088" x="384.5" y="584.7136">Position</text><line style="stroke:#181818;stroke-width:0.5;" x1="356.5" x2="441.5088" y1="595.8669" y2="595.8669"/><rect fill="none" height="6" style="stroke:#C82930;stroke-width:1;" width="6" x="363.5" y="606.5153"/><text fill="#000000" font-family="sans-serif" font-size="14" lengthAdjust="spacing" textLength="48.4736" x="375.5" y="612.862">int row</text><rect fill="none" height="6" style="stroke:#C82930;stroke-width:1;" width="6" x="363.5" y="622.8122"/><text fill="#000000" font-family="sans-serif" font-size="14" lengthAdjust="spacing" textLength="42.8545" x="375.5" y="629.1589">int col</text><line style="stroke:#181818;stroke-width:0.5;" x1="356.5" x2="441.5088" y1="636.4606" y2="636.4606"/></g><!--class GameResult--><g class="entity" data-entity="GameResult" data-source-line="22" data-uid="ent0006" id="entity_GameResult"><rect fill="#F1F1F1" height="80.5938" rx="2.5" ry="2.5" style="stroke:#181818;stroke-width:0.5;" width="121.4707" x="1318.27" y="390.6769"/><ellipse cx="1335.0274" cy="406.6769" fill="#ADD1B2" rx="11" ry="11" style="stroke:#181818;stroke-width:1;"/><path d="M1337.9961,412.3175 Q1337.418,412.6144 1336.7774,412.755 Q1336.1367,412.9113 1335.4336,412.9113 Q1332.9336,412.9113 1331.6055,411.2706 Q1330.293,409.6144 1330.293,406.4894 Q1330.293,403.3644 1331.6055,401.7081 Q1332.9336,400.0519 1335.4336,400.0519 Q1336.1367,400.0519 1336.7774,400.2081 Q1337.4336,400.3644 1337.9961,400.6613 L1337.9961,403.38 Q1337.3711,402.8019 1336.7774,402.5363 Q1336.1836,402.255 1335.5586,402.255 Q1334.2149,402.255 1333.5274,403.3331 Q1332.8399,404.3956 1332.8399,406.4894 Q1332.8399,408.5831 1333.5274,409.6613 Q1334.2149,410.7238 1335.5586,410.7238 Q1336.1836,410.7238 1336.7774,410.4581 Q1337.3711,410.1769 1337.9961,409.5988 L1337.9961,412.3175 Z " fill="#000000"/><text fill="#000000" font-family="sans-serif" font-size="14" lengthAdjust="spacing" textLength="85.5654" x="1349.4179" y="411.5236">GameResult</text><line style="stroke:#181818;stroke-width:0.5;" x1="1319.27" x2="1438.7407" y1="422.6769" y2="422.6769"/><rect fill="none" height="6" style="stroke:#C82930;stroke-width:1;" width="6" x="1326.27" y="433.3253"/><text fill="#000000" font-family="sans-serif" font-size="14" lengthAdjust="spacing" textLength="78.415" x="1338.27" y="439.672">boolean tie</text><rect fill="none" height="6" style="stroke:#C82930;stroke-width:1;" width="6" x="1326.27" y="449.6222"/><text fill="#000000" font-family="sans-serif" font-size="14" lengthAdjust="spacing" textLength="95.4707" x="1338.27" y="455.9689">Player winner</text><line style="stroke:#181818;stroke-width:0.5;" x1="1319.27" x2="1438.7407" y1="463.2706" y2="463.2706"/></g><!--class Board--><g class="entity" data-entity="Board" data-source-line="28" data-uid="ent0007" id="entity_Board"><rect fill="#F1F1F1" height="145.7813" rx="2.5" ry="2.5" style="stroke:#181818;stroke-width:0.5;" width="312.7813" x="242.61" y="358.0769"/><ellipse cx="374.0548" cy="374.0769" fill="#ADD1B2" rx="11" ry="11" style="stroke:#181818;stroke-width:1;"/><path d="M377.0236,379.7175 Q376.4454,380.0144 375.8048,380.155 Q375.1642,380.3113 374.4611,380.3113 Q371.9611,380.3113 370.6329,378.6706 Q369.3204,377.0144 369.3204,373.8894 Q369.3204,370.7644 370.6329,369.1081 Q371.9611,367.4519 374.4611,367.4519 Q375.1642,367.4519 375.8048,367.6081 Q376.4611,367.7644 377.0236,368.0613 L377.0236,370.78 Q376.3986,370.2019 375.8048,369.9363 Q375.2111,369.655 374.5861,369.655 Q373.2423,369.655 372.5548,370.7331 Q371.8673,371.7956 371.8673,373.8894 Q371.8673,375.9831 372.5548,377.0613 Q373.2423,378.1238 374.5861,378.1238 Q375.2111,378.1238 375.8048,377.8581 Q376.3986,377.5769 377.0236,376.9988 L377.0236,379.7175 Z " fill="#000000"/><text fill="#000000" font-family="sans-serif" font-size="14" lengthAdjust="spacing" textLength="41.3916" x="394.5548" y="378.9236">Board</text><line style="stroke:#181818;stroke-width:0.5;" x1="243.61" x2="554.3913" y1="390.0769" y2="390.0769"/><rect fill="none" height="6" style="stroke:#C82930;stroke-width:1;" width="6" x="250.61" y="400.7253"/><text fill="#000000" font-family="sans-serif" font-size="14" lengthAdjust="spacing" textLength="49.8477" x="262.61" y="407.072">int size</text><rect fill="none" height="6" style="stroke:#C82930;stroke-width:1;" width="6" x="250.61" y="417.0222"/><text fill="#000000" font-family="sans-serif" font-size="14" lengthAdjust="spacing" textLength="155.0732" x="262.61" y="423.3689">PlayingPiece[][] board</text><line style="stroke:#181818;stroke-width:0.5;" x1="243.61" x2="554.3913" y1="430.6706" y2="430.6706"/><ellipse cx="253.61" cy="444.3191" fill="#84BE84" rx="3" ry="3" style="stroke:#038048;stroke-width:1;"/><text fill="#000000" font-family="sans-serif" font-size="14" lengthAdjust="spacing" textLength="286.7813" x="262.61" y="447.6657">boolean addPiece(row, col, PlayingPiece)</text><ellipse cx="253.61" cy="460.6159" fill="#84BE84" rx="3" ry="3" style="stroke:#038048;stroke-width:1;"/><text fill="#000000" font-family="sans-serif" font-size="14" lengthAdjust="spacing" textLength="205.8027" x="262.61" y="463.9626">List&lt;Position&gt; getFreeCells()</text><ellipse cx="253.61" cy="476.9128" fill="#84BE84" rx="3" ry="3" style="stroke:#038048;stroke-width:1;"/><text fill="#000000" font-family="sans-serif" font-size="14" lengthAdjust="spacing" textLength="119.2871" x="262.61" y="480.2595">void printBoard()</text><ellipse cx="253.61" cy="493.2097" fill="#84BE84" rx="3" ry="3" style="stroke:#038048;stroke-width:1;"/><text fill="#000000" font-family="sans-serif" font-size="14" lengthAdjust="spacing" textLength="160.5283" x="262.61" y="496.5564">void clearCell(row, col)</text></g><!--class WinnerStrategy--><g class="entity" data-entity="WinnerStrategy" data-source-line="38" data-uid="ent0008" id="entity_WinnerStrategy"><rect fill="#F1F1F1" height="64.2969" rx="2.5" ry="2.5" style="stroke:#181818;stroke-width:0.5;" width="373.9766" x="590.02" y="398.8269"/><ellipse cx="717.8418" cy="414.8269" fill="#B4A7E5" rx="11" ry="11" style="stroke:#181818;stroke-width:1;"/><path d="M713.7637,410.5925 L713.7637,408.4363 L721.1543,408.4363 L721.1543,410.5925 L718.6855,410.5925 L718.6855,418.6706 L721.1543,418.6706 L721.1543,420.8269 L713.7637,420.8269 L713.7637,418.6706 L716.2324,418.6706 L716.2324,410.5925 L713.7637,410.5925 Z " fill="#000000"/><text fill="#000000" font-family="sans-serif" font-size="14" font-style="italic" lengthAdjust="spacing" textLength="109.833" x="738.3418" y="419.6736">WinnerStrategy</text><line style="stroke:#181818;stroke-width:0.5;" x1="591.02" x2="962.9966" y1="430.8269" y2="430.8269"/><line style="stroke:#181818;stroke-width:0.5;" x1="591.02" x2="962.9966" y1="438.8269" y2="438.8269"/><ellipse cx="601.02" cy="452.4753" fill="#84BE84" rx="3" ry="3" style="stroke:#038048;stroke-width:1;"/><text fill="#000000" font-family="sans-serif" font-size="14" lengthAdjust="spacing" textLength="347.9766" x="610.02" y="455.822">boolean checkWinner(Board, Position, PieceType)</text></g><!--class TicTacToeWinnerStrategy--><g class="entity" data-entity="TicTacToeWinnerStrategy" data-source-line="42" data-uid="ent0009" id="entity_TicTacToeWinnerStrategy"><rect fill="#F1F1F1" height="64.2969" rx="2.5" ry="2.5" style="stroke:#181818;stroke-width:0.5;" width="373.9766" x="590.02" y="572.0069"/><ellipse cx="682.4931" cy="588.0069" fill="#ADD1B2" rx="11" ry="11" style="stroke:#181818;stroke-width:1;"/><path d="M685.4619,593.6475 Q684.8838,593.9444 684.2431,594.085 Q683.6025,594.2412 682.8994,594.2412 Q680.3994,594.2412 679.0713,592.6006 Q677.7588,590.9444 677.7588,587.8194 Q677.7588,584.6944 679.0713,583.0381 Q680.3994,581.3819 682.8994,581.3819 Q683.6025,581.3819 684.2431,581.5381 Q684.8994,581.6944 685.4619,581.9912 L685.4619,584.71 Q684.8369,584.1319 684.2431,583.8662 Q683.6494,583.585 683.0244,583.585 Q681.6806,583.585 680.9931,584.6631 Q680.3056,585.7256 680.3056,587.8194 Q680.3056,589.9131 680.9931,590.9912 Q681.6806,592.0537 683.0244,592.0537 Q683.6494,592.0537 684.2431,591.7881 Q684.8369,591.5069 685.4619,590.9287 L685.4619,593.6475 Z " fill="#000000"/><text fill="#000000" font-family="sans-serif" font-size="14" lengthAdjust="spacing" textLength="180.5303" x="702.9931" y="592.8536">TicTacToeWinnerStrategy</text><line style="stroke:#181818;stroke-width:0.5;" x1="591.02" x2="962.9966" y1="604.0069" y2="604.0069"/><line style="stroke:#181818;stroke-width:0.5;" x1="591.02" x2="962.9966" y1="612.0069" y2="612.0069"/><ellipse cx="601.02" cy="625.6553" fill="#84BE84" rx="3" ry="3" style="stroke:#038048;stroke-width:1;"/><text fill="#000000" font-family="sans-serif" font-size="14" lengthAdjust="spacing" textLength="347.9766" x="610.02" y="629.002">boolean checkWinner(Board, Position, PieceType)</text></g><!--class MoveProvider--><g class="entity" data-entity="MoveProvider" data-source-line="47" data-uid="ent0010" id="entity_MoveProvider"><rect fill="#F1F1F1" height="64.2969" rx="2.5" ry="2.5" style="stroke:#181818;stroke-width:0.5;" width="283.6328" x="999.19" y="398.8269"/><ellipse cx="1088.8878" cy="414.8269" fill="#B4A7E5" rx="11" ry="11" style="stroke:#181818;stroke-width:1;"/><path d="M1084.8096,410.5925 L1084.8096,408.4363 L1092.2003,408.4363 L1092.2003,410.5925 L1089.7315,410.5925 L1089.7315,418.6706 L1092.2003,418.6706 L1092.2003,420.8269 L1084.8096,420.8269 L1084.8096,418.6706 L1087.2784,418.6706 L1087.2784,410.5925 L1084.8096,410.5925 Z " fill="#000000"/><text fill="#000000" font-family="sans-serif" font-size="14" font-style="italic" lengthAdjust="spacing" textLength="95.7373" x="1109.3878" y="419.6736">MoveProvider</text><line style="stroke:#181818;stroke-width:0.5;" x1="1000.19" x2="1281.8228" y1="430.8269" y2="430.8269"/><line style="stroke:#181818;stroke-width:0.5;" x1="1000.19" x2="1281.8228" y1="438.8269" y2="438.8269"/><ellipse cx="1010.19" cy="452.4753" fill="#84BE84" rx="3" ry="3" style="stroke:#038048;stroke-width:1;"/><text fill="#000000" font-family="sans-serif" font-size="14" lengthAdjust="spacing" textLength="257.6328" x="1019.19" y="455.822">Position getNextMove(Player, Board)</text></g><!--class ConsoleMoveProvider--><g class="entity" data-entity="ConsoleMoveProvider" data-source-line="51" data-uid="ent0011" id="entity_ConsoleMoveProvider"><rect fill="#F1F1F1" height="64.2969" rx="2.5" ry="2.5" style="stroke:#181818;stroke-width:0.5;" width="283.6328" x="999.19" y="572.0069"/><ellipse cx="1061.0997" cy="588.0069" fill="#ADD1B2" rx="11" ry="11" style="stroke:#181818;stroke-width:1;"/><path d="M1064.0684,593.6475 Q1063.4903,593.9444 1062.8497,594.085 Q1062.209,594.2412 1061.5059,594.2412 Q1059.0059,594.2412 1057.6778,592.6006 Q1056.3653,590.9444 1056.3653,587.8194 Q1056.3653,584.6944 1057.6778,583.0381 Q1059.0059,581.3819 1061.5059,581.3819 Q1062.209,581.3819 1062.8497,581.5381 Q1063.5059,581.6944 1064.0684,581.9912 L1064.0684,584.71 Q1063.4434,584.1319 1062.8497,583.8662 Q1062.2559,583.585 1061.6309,583.585 Q1060.2872,583.585 1059.5997,584.6631 Q1058.9122,585.7256 1058.9122,587.8194 Q1058.9122,589.9131 1059.5997,590.9912 Q1060.2872,592.0537 1061.6309,592.0537 Q1062.2559,592.0537 1062.8497,591.7881 Q1063.4434,591.5069 1064.0684,590.9287 L1064.0684,593.6475 Z " fill="#000000"/><text fill="#000000" font-family="sans-serif" font-size="14" lengthAdjust="spacing" textLength="151.3135" x="1081.5997" y="592.8536">ConsoleMoveProvider</text><line style="stroke:#181818;stroke-width:0.5;" x1="1000.19" x2="1281.8228" y1="604.0069" y2="604.0069"/><line style="stroke:#181818;stroke-width:0.5;" x1="1000.19" x2="1281.8228" y1="612.0069" y2="612.0069"/><ellipse cx="1010.19" cy="625.6553" fill="#84BE84" rx="3" ry="3" style="stroke:#038048;stroke-width:1;"/><text fill="#000000" font-family="sans-serif" font-size="14" lengthAdjust="spacing" textLength="257.6328" x="1019.19" y="629.002">Position getNextMove(Player, Board)</text></g><!--class TicTacToeGameFacade--><g class="entity" data-entity="TicTacToeGameFacade" data-source-line="56" data-uid="ent0012" id="entity_TicTacToeGameFacade"><rect fill="#F1F1F1" height="129.4844" rx="2.5" ry="2.5" style="stroke:#181818;stroke-width:0.5;" width="247.7236" x="464.14" y="168.5969"/><ellipse cx="502.9628" cy="184.5969" fill="#ADD1B2" rx="11" ry="11" style="stroke:#181818;stroke-width:1;"/><path d="M505.9315,190.2375 Q505.3534,190.5344 504.7128,190.675 Q504.0721,190.8312 503.369,190.8312 Q500.869,190.8312 499.5409,189.1906 Q498.2284,187.5344 498.2284,184.4094 Q498.2284,181.2844 499.5409,179.6281 Q500.869,177.9719 503.369,177.9719 Q504.0721,177.9719 504.7128,178.1281 Q505.369,178.2844 505.9315,178.5812 L505.9315,181.3 Q505.3065,180.7219 504.7128,180.4562 Q504.119,180.175 503.494,180.175 Q502.1503,180.175 501.4628,181.2531 Q500.7753,182.3156 500.7753,184.4094 Q500.7753,186.5031 501.4628,187.5812 Q502.1503,188.6437 503.494,188.6437 Q504.119,188.6437 504.7128,188.3781 Q505.3065,188.0969 505.9315,187.5187 L505.9315,190.2375 Z " fill="#000000"/><text fill="#000000" font-family="sans-serif" font-size="14" lengthAdjust="spacing" textLength="162.7842" x="522.2567" y="189.4436">TicTacToeGameFacade</text><line style="stroke:#181818;stroke-width:0.5;" x1="465.14" x2="710.8636" y1="200.5969" y2="200.5969"/><rect fill="none" height="6" style="stroke:#C82930;stroke-width:1;" width="6" x="472.14" y="211.2453"/><text fill="#000000" font-family="sans-serif" font-size="14" lengthAdjust="spacing" textLength="168.5469" x="484.14" y="217.592">Deque&lt;Player&gt; players</text><rect fill="none" height="6" style="stroke:#C82930;stroke-width:1;" width="6" x="472.14" y="227.5422"/><text fill="#000000" font-family="sans-serif" font-size="14" lengthAdjust="spacing" textLength="86.5156" x="484.14" y="233.8889">Board board</text><rect fill="none" height="6" style="stroke:#C82930;stroke-width:1;" width="6" x="472.14" y="243.8391"/><text fill="#000000" font-family="sans-serif" font-size="14" lengthAdjust="spacing" textLength="221.7236" x="484.14" y="250.1857">WinnerStrategy winnerStrategy</text><rect fill="none" height="6" style="stroke:#C82930;stroke-width:1;" width="6" x="472.14" y="260.1359"/><text fill="#000000" font-family="sans-serif" font-size="14" lengthAdjust="spacing" textLength="197.4834" x="484.14" y="266.4826">MoveProvider moveProvider</text><line style="stroke:#181818;stroke-width:0.5;" x1="465.14" x2="710.8636" y1="273.7844" y2="273.7844"/><ellipse cx="475.14" cy="287.4328" fill="#84BE84" rx="3" ry="3" style="stroke:#038048;stroke-width:1;"/><text fill="#000000" font-family="sans-serif" font-size="14" lengthAdjust="spacing" textLength="175.2256" x="484.14" y="290.7795">GameResult startGame()</text></g><!--class Main--><g class="entity" data-entity="Main" data-source-line="65" data-uid="ent0013" id="entity_Main"><rect fill="#F1F1F1" height="64.2969" rx="2.5" ry="2.5" style="stroke:#181818;stroke-width:0.5;" width="158.6855" x="393.66" y="44.2969"/><ellipse cx="452.0423" cy="60.2969" fill="#ADD1B2" rx="11" ry="11" style="stroke:#181818;stroke-width:1;"/><path d="M455.0111,65.9375 Q454.4329,66.2344 453.7923,66.375 Q453.1517,66.5313 452.4486,66.5313 Q449.9486,66.5313 448.6204,64.8906 Q447.3079,63.2344 447.3079,60.1094 Q447.3079,56.9844 448.6204,55.3281 Q449.9486,53.6719 452.4486,53.6719 Q453.1517,53.6719 453.7923,53.8281 Q454.4486,53.9844 455.0111,54.2813 L455.0111,57 Q454.3861,56.4219 453.7923,56.1563 Q453.1986,55.875 452.5736,55.875 Q451.2298,55.875 450.5423,56.9531 Q449.8548,58.0156 449.8548,60.1094 Q449.8548,62.2031 450.5423,63.2813 Q451.2298,64.3438 452.5736,64.3438 Q453.1986,64.3438 453.7923,64.0781 Q454.3861,63.7969 455.0111,63.2188 L455.0111,65.9375 Z " fill="#000000"/><text fill="#000000" font-family="sans-serif" font-size="14" lengthAdjust="spacing" textLength="33.4209" x="472.5423" y="65.1436">Main</text><line style="stroke:#181818;stroke-width:0.5;" x1="394.66" x2="551.3455" y1="76.2969" y2="76.2969"/><line style="stroke:#181818;stroke-width:0.5;" x1="394.66" x2="551.3455" y1="84.2969" y2="84.2969"/><ellipse cx="404.66" cy="97.9453" fill="#84BE84" rx="3" ry="3" style="stroke:#038048;stroke-width:1;"/><text fill="#000000" font-family="sans-serif" font-size="14" lengthAdjust="spacing" textLength="132.6855" x="413.66" y="101.292">void main(String[])</text></g><!--link Player to PlayingPiece--><g class="link" data-entity-1="Player" data-entity-2="PlayingPiece" data-source-line="70" data-uid="lnk14" id="link_Player_PlayingPiece"><path codeLine="70" d="M129,471.6769 C129,502.0969 129,537.4969 129,565.6569" fill="none" id="Player-to-PlayingPiece" style="stroke:#181818;stroke-width:1;"/><polygon fill="#181818" points="129,571.6569,133,562.6569,129,566.6569,125,562.6569,129,571.6569" style="stroke:#181818;stroke-width:1;"/></g><!--reverse link Board to PlayingPiece--><g class="link" data-entity-1="Board" data-entity-2="PlayingPiece" data-source-line="71" data-uid="lnk15" id="link_Board_PlayingPiece"><path codeLine="71" d="M274.7552,510.7522 C237.6252,534.2922 208.47,552.7769 178.62,571.7069" fill="none" id="Board-backto-PlayingPiece" style="stroke:#181818;stroke-width:1;"/><polygon fill="#181818" points="284.89,504.3269,277.6808,504.1613,274.7552,510.7522,281.9644,510.9178,284.89,504.3269" style="stroke:#181818;stroke-width:1;"/></g><!--reverse link Board to Position--><g class="link" data-entity-1="Board" data-entity-2="Position" data-source-line="72" data-uid="lnk16" id="link_Board_Position"><path codeLine="72" d="M399,516.0769 C399,536.5469 399,546.0669 399,563.8069" fill="none" id="Board-backto-Position" style="stroke:#181818;stroke-width:1;"/><polygon fill="none" points="399,504.0769,395,510.0769,399,516.0769,403,510.0769,399,504.0769" style="stroke:#181818;stroke-width:1;"/></g><!--link TicTacToeGameFacade to Player--><g class="link" data-entity-1="TicTacToeGameFacade" data-entity-2="Player" data-source-line="73" data-uid="lnk17" id="link_TicTacToeGameFacade_Player"><path codeLine="73" d="M463.87,266.1269 C391.83,287.1269 300.67,318.1469 225,358.0769 C208.06,367.0269 195.6755,375.1944 180.6355,386.6344" fill="none" id="TicTacToeGameFacade-to-Player" style="stroke:#181818;stroke-width:1;"/><polygon fill="#181818" points="175.86,390.2669,185.4449,388.0019,179.8396,387.2398,180.6016,381.6346,175.86,390.2669" style="stroke:#181818;stroke-width:1;"/></g><!--link TicTacToeGameFacade to Board--><g class="link" data-entity-1="TicTacToeGameFacade" data-entity-2="Board" data-source-line="74" data-uid="lnk18" id="link_TicTacToeGameFacade_Board"><path codeLine="74" d="M526.12,298.3969 C507.82,317.3369 491.8176,333.8905 473.0576,353.3205" fill="none" id="TicTacToeGameFacade-to-Board" style="stroke:#181818;stroke-width:1;"/><polygon fill="#181818" points="468.89,357.6369,478.019,353.9406,472.363,354.0399,472.2637,348.3839,468.89,357.6369" style="stroke:#181818;stroke-width:1;"/></g><!--link TicTacToeGameFacade to WinnerStrategy--><g class="link" data-entity-1="TicTacToeGameFacade" data-entity-2="WinnerStrategy" data-source-line="75" data-uid="lnk19" id="link_TicTacToeGameFacade_WinnerStrategy"><path codeLine="75" d="M649.89,298.3969 C682.29,331.9369 716.3617,367.2012 742.3717,394.1312" fill="none" id="TicTacToeGameFacade-to-WinnerStrategy" style="stroke:#181818;stroke-width:1;"/><polygon fill="#181818" points="746.54,398.4469,743.1647,389.1944,743.0664,394.8504,737.4104,394.7522,746.54,398.4469" style="stroke:#181818;stroke-width:1;"/></g><!--link TicTacToeGameFacade to MoveProvider--><g class="link" data-entity-1="TicTacToeGameFacade" data-entity-2="MoveProvider" data-source-line="76" data-uid="lnk20" id="link_TicTacToeGameFacade_MoveProvider"><path codeLine="76" d="M712.3,269.4069 C790.26,292.4069 892.42,324.3669 981,358.0769 C1012.6,370.1069 1041.4232,382.7004 1070.1232,395.9604" fill="none" id="TicTacToeGameFacade-to-MoveProvider" style="stroke:#181818;stroke-width:1;"/><polygon fill="#181818" points="1075.57,398.4769,1069.0775,391.0709,1071.031,396.3798,1065.7222,398.3333,1075.57,398.4769" style="stroke:#181818;stroke-width:1;"/></g><!--link TicTacToeGameFacade to GameResult--><g class="link" data-entity-1="TicTacToeGameFacade" data-entity-2="GameResult" data-source-line="77" data-uid="lnk21" id="link_TicTacToeGameFacade_GameResult"><path codeLine="77" d="M712.19,247.4569 C887.78,267.4269 1198.58,308.4369 1300,358.0769 C1316.16,365.9869 1327.0829,374.0809 1339.7929,386.2309" fill="none" id="TicTacToeGameFacade-to-GameResult" style="stroke:#181818;stroke-width:1;"/><polygon fill="#181818" points="1344.13,390.3769,1340.3883,381.2664,1340.5157,386.9219,1334.8603,387.0493,1344.13,390.3769" style="stroke:#181818;stroke-width:1;"/></g><!--reverse link WinnerStrategy to TicTacToeWinnerStrategy--><g class="link" data-entity-1="WinnerStrategy" data-entity-2="TicTacToeWinnerStrategy" data-source-line="78" data-uid="lnk22" id="link_WinnerStrategy_TicTacToeWinnerStrategy"><path codeLine="78" d="M777,481.3669 C777,512.1669 777,540.8469 777,571.6669" fill="none" id="WinnerStrategy-backto-TicTacToeWinnerStrategy" style="stroke:#181818;stroke-width:1;stroke-dasharray:7,7;"/><polygon fill="none" points="777,463.3669,771,481.3669,783,481.3669,777,463.3669" style="stroke:#181818;stroke-width:1;"/></g><!--reverse link MoveProvider to ConsoleMoveProvider--><g class="link" data-entity-1="MoveProvider" data-entity-2="ConsoleMoveProvider" data-source-line="79" data-uid="lnk23" id="link_MoveProvider_ConsoleMoveProvider"><path codeLine="79" d="M1141,481.3669 C1141,512.1669 1141,540.8469 1141,571.6669" fill="none" id="MoveProvider-backto-ConsoleMoveProvider" style="stroke:#181818;stroke-width:1;stroke-dasharray:7,7;"/><polygon fill="none" points="1141,463.3669,1135,481.3669,1147,481.3669,1141,463.3669" style="stroke:#181818;stroke-width:1;"/></g><!--link Main to TicTacToeGameFacade--><g class="link" data-entity-1="Main" data-entity-2="TicTacToeGameFacade" data-source-line="80" data-uid="lnk24" id="link_Main_TicTacToeGameFacade"><path codeLine="80" d="M496.28,108.7969 C509.01,125.9469 521.6821,143.0203 536.9621,163.5903" fill="none" id="Main-to-TicTacToeGameFacade" style="stroke:#181818;stroke-width:1;"/><polygon fill="#181818" points="540.54,168.4069,538.3842,158.7968,537.5585,164.3931,531.9622,163.5673,540.54,168.4069" style="stroke:#181818;stroke-width:1;"/></g><!--link Main to Player--><g class="link" data-entity-1="Main" data-entity-2="Player" data-source-line="81" data-uid="lnk25" id="link_Main_Player"><path codeLine="81" d="M442.17,109.0469 C379.34,173.4269 240.8006,315.4129 171.8706,386.0429" fill="none" id="Main-to-Player" style="stroke:#181818;stroke-width:1;"/><polygon fill="#181818" points="167.68,390.3369,176.8286,386.6896,171.1722,386.7585,171.1033,381.1021,167.68,390.3369" style="stroke:#181818;stroke-width:1;"/></g><!--link Main to PlayingPiece--><g class="link" data-entity-1="Main" data-entity-2="PlayingPiece" data-source-line="82" data-uid="lnk26" id="link_Main_PlayingPiece"><path codeLine="82" d="M393.19,103.5269 C350.07,119.3169 296.83,141.6069 253,168.5969 C143.12,236.2569 86.79,240.7769 33,358.0769 C6,416.9769 8.72,443.7969 33,503.8669 C43.84,530.6469 61.2044,550.289 81.3544,567.739" fill="none" id="Main-to-PlayingPiece" style="stroke:#181818;stroke-width:1;"/><polygon fill="#181818" points="85.89,571.6669,81.7052,562.7513,82.1103,568.3937,76.468,568.7988,85.89,571.6669" style="stroke:#181818;stroke-width:1;"/></g><!--link Main to GameResult--><g class="link" data-entity-1="Main" data-entity-2="GameResult" data-source-line="83" data-uid="lnk27" id="link_Main_GameResult"><path codeLine="83" d="M552.81,93.0669 C705.89,125.4269 1047.93,209.4669 1300,358.0769 C1314.86,366.8369 1324.9599,374.637 1337.3899,386.217" fill="none" id="Main-to-GameResult" style="stroke:#181818;stroke-width:1;"/><polygon fill="#181818" points="1341.78,390.3069,1337.9215,381.2453,1338.1216,386.8986,1332.4683,387.0988,1341.78,390.3069" style="stroke:#181818;stroke-width:1;"/></g><!--SRC=[hLJRZfj037sVh_1JctHXFw1A8oLPDaKA407RRHNbOHRST5J2f319ccxxxvqBrrnUgl827X_RnsTi11CPGioIc2OnHx0XnAyq4Rp059wy1I5luODwmF6Vl0ZUm7GIkJDfnMxiEf5n4iptMrWoJ30-xH1UWNos803oXv0aesK9ouoUMBxH47Wb07QBtjLVVJWM1XY9GaP2JhUeuxgPT6WdZ9TCC9wRG9OBAFYn_anurYBdCbk8vJuJ1ll2UOOq1y6Q8hB-aUKv5YggLc4QJCA7gccJQSffaRO5I_RhWkPglLh3Yy99prrTYgQfzWuaHqkniteg3HLsmKenghiQmmR5Ou4umomh1nfmu2o5dHH8Q1wTmqGMAHIooJ_iDXB5uIHsvb_UmxFh-qvOzIGJOI470E5Pzox5fm8t9zrWGptvXibt0nZekbOZlTMEmR2Lkncm_vJriWil-EHSzE3n0ouBVc1fDKntpOH8ANtyAHHYO6xRCbVPOJtZUIcf_NEMckLyuZam2_mu31QBHkepPTH4FjA4fjL-FE2FFOvCqZ7izBjK3ZDmzJZPPueUUwO2zEXlEuRgfBC7fQ25KFQWHzwRk7wFiKUPMJ0pPrjf3ioEhjQzoD1PJ68tyAEFxhB-KLIBPTlZth0JqzGxsxvspDLn9Jcv9bYTJlPqowqptVJsHRm9wqfv4zHAIixkPlJx_lxMAf3UDMdabV4ZMdnLvKhrrbbfqRCRJPlJbkXV]--></g></svg>