<svg xmlns="http://www.w3.org/2000/svg" xmlns:xlink="http://www.w3.org/1999/xlink" contentStyleType="text/css" data-diagram-type="CLASS" height="831px" preserveAspectRatio="none" style="width:1817px;height:831px;background:#FFFFFF;" version="1.1" viewBox="0 0 1817 831" width="1817px" zoomAndPan="magnify"><defs/><g><!--class PieceType--><g class="entity" data-entity="PieceType" data-source-line="8" data-uid="ent0002" id="entity_PieceType"><rect fill="#F1F1F1" height="92.8906" rx="2.5" ry="2.5" style="stroke:#181818;stroke-width:0.5;" width="109.5928" x="408.77" y="731.59"/><ellipse cx="423.77" cy="747.7384" fill="#ABABAB" rx="11" ry="11" style="stroke:#181818;stroke-width:1;"/><path d="M427.8794,753.7384 L420.1606,753.7384 L420.1606,741.3478 L427.8794,741.3478 L427.8794,743.5041 L422.6138,743.5041 L422.6138,746.1759 L427.3794,746.1759 L427.3794,748.3322 L422.6138,748.3322 L422.6138,751.5822 L427.8794,751.5822 L427.8794,753.7384 Z " fill="#000000"/><text fill="#000000" font-family="sans-serif" font-size="14" lengthAdjust="spacing" textLength="71.5928" x="440.77" y="752.5851">PieceType</text><line style="stroke:#181818;stroke-width:0.5;" x1="409.77" x2="517.3628" y1="763.8869" y2="763.8869"/><text fill="#000000" font-family="sans-serif" font-size="14" lengthAdjust="spacing" textLength="9.5908" x="417.77" y="783.882">X</text><text fill="#000000" font-family="sans-serif" font-size="14" lengthAdjust="spacing" textLength="11.0195" x="417.77" y="806.1789">O</text><line style="stroke:#181818;stroke-width:0.5;" x1="409.77" x2="517.3628" y1="816.4806" y2="816.4806"/></g><!--class Player--><g class="entity" data-entity="Player" data-source-line="13" data-uid="ent0003" id="entity_Player"><rect fill="#F1F1F1" height="115.1875" rx="2.5" ry="2.5" style="stroke:#181818;stroke-width:0.5;" width="171.1318" x="7" y="511.1"/><ellipse cx="63.5332" cy="527.2484" fill="#C2C2C2" rx="11" ry="11" style="stroke:#181818;stroke-width:1;"/><path d="M66.502,532.8891 Q65.9238,533.1859 65.2832,533.3266 Q64.6426,533.4828 63.9395,533.4828 Q61.4395,533.4828 60.1113,531.8422 Q58.7988,530.1859 58.7988,527.0609 Q58.7988,523.9359 60.1113,522.2797 Q61.4395,520.6234 63.9395,520.6234 Q64.6426,520.6234 65.2832,520.7797 Q65.9395,520.9359 66.502,521.2328 L66.502,523.9516 Q65.877,523.3734 65.2832,523.1078 Q64.6895,522.8266 64.0645,522.8266 Q62.7207,522.8266 62.0332,523.9047 Q61.3457,524.9672 61.3457,527.0609 Q61.3457,529.1547 62.0332,530.2328 Q62.7207,531.2953 64.0645,531.2953 Q64.6895,531.2953 65.2832,531.0297 Q65.877,530.7484 66.502,530.1703 L66.502,532.8891 Z " fill="#000000"/><text fill="#000000" font-family="sans-serif" font-size="14" lengthAdjust="spacing" textLength="43.5654" x="87.0332" y="532.0951">Player</text><line style="stroke:#181818;stroke-width:0.5;" x1="8" x2="177.1318" y1="543.3969" y2="543.3969"/><text fill="#000000" font-family="sans-serif" font-size="14" lengthAdjust="spacing" textLength="90.9863" x="16" y="563.392">-String name</text><text fill="#000000" font-family="sans-serif" font-size="14" lengthAdjust="spacing" textLength="153.1318" x="16" y="585.6889">-PieceType pieceType</text><line style="stroke:#181818;stroke-width:1;" x1="8" x2="177.1318" y1="595.9906" y2="595.9906"/><text fill="#000000" font-family="sans-serif" font-size="14" lengthAdjust="spacing" textLength="133.1777" x="16" y="615.9857">+String getName()</text></g><!--class Position--><g class="entity" data-entity="Position" data-source-line="20" data-uid="ent0004" id="entity_Position"><rect fill="#F1F1F1" height="115.1875" rx="2.5" ry="2.5" style="stroke:#181818;stroke-width:0.5;" width="142.7217" x="258.21" y="511.1"/><ellipse cx="295.5808" cy="527.2484" fill="#C2C2C2" rx="11" ry="11" style="stroke:#181818;stroke-width:1;"/><path d="M298.5496,532.8891 Q297.9714,533.1859 297.3308,533.3266 Q296.6902,533.4828 295.9871,533.4828 Q293.4871,533.4828 292.1589,531.8422 Q290.8464,530.1859 290.8464,527.0609 Q290.8464,523.9359 292.1589,522.2797 Q293.4871,520.6234 295.9871,520.6234 Q296.6902,520.6234 297.3308,520.7797 Q297.9871,520.9359 298.5496,521.2328 L298.5496,523.9516 Q297.9246,523.3734 297.3308,523.1078 Q296.7371,522.8266 296.1121,522.8266 Q294.7683,522.8266 294.0808,523.9047 Q293.3933,524.9672 293.3933,527.0609 Q293.3933,529.1547 294.0808,530.2328 Q294.7683,531.2953 296.1121,531.2953 Q296.7371,531.2953 297.3308,531.0297 Q297.9246,530.7484 298.5496,530.1703 L298.5496,532.8891 Z " fill="#000000"/><text fill="#000000" font-family="sans-serif" font-size="14" lengthAdjust="spacing" textLength="55.0088" x="317.5521" y="532.0951">Position</text><line style="stroke:#181818;stroke-width:0.5;" x1="259.21" x2="399.9317" y1="543.3969" y2="543.3969"/><text fill="#000000" font-family="sans-serif" font-size="14" lengthAdjust="spacing" textLength="53.5254" x="267.21" y="563.392">-int row</text><text fill="#000000" font-family="sans-serif" font-size="14" lengthAdjust="spacing" textLength="47.9063" x="267.21" y="585.6889">-int col</text><line style="stroke:#181818;stroke-width:1;" x1="259.21" x2="399.9317" y1="595.9906" y2="595.9906"/><text fill="#000000" font-family="sans-serif" font-size="14" lengthAdjust="spacing" textLength="124.7217" x="267.21" y="615.9857">+String toString()</text></g><!--class GameResult--><g class="entity" data-entity="GameResult" data-source-line="27" data-uid="ent0005" id="entity_GameResult"><rect fill="#F1F1F1" height="92.8906" rx="2.5" ry="2.5" style="stroke:#181818;stroke-width:0.5;" width="123.5654" x="480.78" y="522.25"/><ellipse cx="495.78" cy="538.3984" fill="#C2C2C2" rx="11" ry="11" style="stroke:#181818;stroke-width:1;"/><path d="M498.7488,544.0391 Q498.1706,544.3359 497.53,544.4766 Q496.8894,544.6328 496.1863,544.6328 Q493.6863,544.6328 492.3581,542.9922 Q491.0456,541.3359 491.0456,538.2109 Q491.0456,535.0859 492.3581,533.4297 Q493.6863,531.7734 496.1863,531.7734 Q496.8894,531.7734 497.53,531.9297 Q498.1863,532.0859 498.7488,532.3828 L498.7488,535.1016 Q498.1238,534.5234 497.53,534.2578 Q496.9363,533.9766 496.3113,533.9766 Q494.9675,533.9766 494.28,535.0547 Q493.5925,536.1172 493.5925,538.2109 Q493.5925,540.3047 494.28,541.3828 Q494.9675,542.4453 496.3113,542.4453 Q496.9363,542.4453 497.53,542.1797 Q498.1238,541.8984 498.7488,541.3203 L498.7488,544.0391 Z " fill="#000000"/><text fill="#000000" font-family="sans-serif" font-size="14" lengthAdjust="spacing" textLength="85.5654" x="512.78" y="543.2451">GameResult</text><line style="stroke:#181818;stroke-width:0.5;" x1="481.78" x2="603.3454" y1="554.5469" y2="554.5469"/><text fill="#000000" font-family="sans-serif" font-size="14" lengthAdjust="spacing" textLength="83.4668" x="489.78" y="574.542">-boolean tie</text><text fill="#000000" font-family="sans-serif" font-size="14" lengthAdjust="spacing" textLength="100.5225" x="489.78" y="596.8389">-Player winner</text><line style="stroke:#181818;stroke-width:0.5;" x1="481.78" x2="603.3454" y1="607.1406" y2="607.1406"/></g><!--class Board--><g class="entity" data-entity="Board" data-source-line="33" data-uid="ent0006" id="entity_Board"><rect fill="#F1F1F1" height="159.7813" rx="2.5" ry="2.5" style="stroke:#181818;stroke-width:0.5;" width="300.0029" x="684.56" y="488.81"/><ellipse cx="806.6157" cy="504.9584" fill="#C2C2C2" rx="11" ry="11" style="stroke:#181818;stroke-width:1;"/><path d="M809.5844,510.5991 Q809.0063,510.8959 808.3657,511.0366 Q807.725,511.1928 807.0219,511.1928 Q804.5219,511.1928 803.1938,509.5522 Q801.8813,507.8959 801.8813,504.7709 Q801.8813,501.6459 803.1938,499.9897 Q804.5219,498.3334 807.0219,498.3334 Q807.725,498.3334 808.3657,498.4897 Q809.0219,498.6459 809.5844,498.9428 L809.5844,501.6616 Q808.9594,501.0834 808.3657,500.8178 Q807.7719,500.5366 807.1469,500.5366 Q805.8032,500.5366 805.1157,501.6147 Q804.4282,502.6772 804.4282,504.7709 Q804.4282,506.8647 805.1157,507.9428 Q805.8032,509.0053 807.1469,509.0053 Q807.7719,509.0053 808.3657,508.7397 Q808.9594,508.4584 809.5844,507.8803 L809.5844,510.5991 Z " fill="#000000"/><text fill="#000000" font-family="sans-serif" font-size="14" lengthAdjust="spacing" textLength="41.3916" x="830.1157" y="509.8051">Board</text><line style="stroke:#181818;stroke-width:0.5;" x1="685.56" x2="983.5629" y1="521.1069" y2="521.1069"/><text fill="#000000" font-family="sans-serif" font-size="14" lengthAdjust="spacing" textLength="54.8994" x="693.56" y="541.102">-int size</text><text fill="#000000" font-family="sans-serif" font-size="14" lengthAdjust="spacing" textLength="143.6162" x="693.56" y="563.3989">-PieceType[][] board</text><line style="stroke:#181818;stroke-width:1;" x1="685.56" x2="983.5629" y1="573.7006" y2="573.7006"/><text fill="#000000" font-family="sans-serif" font-size="14" lengthAdjust="spacing" textLength="282.0029" x="693.56" y="593.6957">+boolean addPiece(row, col, PieceType)</text><text fill="#000000" font-family="sans-serif" font-size="14" lengthAdjust="spacing" textLength="217.5332" x="693.56" y="615.9926">+List&lt;Position&gt; getFreeCells()</text><text fill="#000000" font-family="sans-serif" font-size="14" lengthAdjust="spacing" textLength="131.0176" x="693.56" y="638.2895">+void printBoard()</text></g><!--class WinnerStrategy--><g class="entity" data-entity="WinnerStrategy" data-source-line="43" data-uid="ent0007" id="entity_WinnerStrategy"><rect fill="#F1F1F1" height="90.5625" rx="2.5" ry="2.5" style="stroke:#181818;stroke-width:0.5;" width="377.707" x="1064.71" y="523.42"/><ellipse cx="1191.397" cy="549.5528" fill="#B1B1B1" rx="11" ry="11" style="stroke:#181818;stroke-width:1;"/><path d="M1187.3189,545.3184 L1187.3189,543.1622 L1194.7095,543.1622 L1194.7095,545.3184 L1192.2408,545.3184 L1192.2408,553.3966 L1194.7095,553.3966 L1194.7095,555.5528 L1187.3189,555.5528 L1187.3189,553.3966 L1189.7876,553.3966 L1189.7876,545.3184 L1187.3189,545.3184 Z " fill="#000000"/><text fill="#000000" font-family="sans-serif" font-size="12" font-style="italic" lengthAdjust="spacing" textLength="66.0996" x="1236.7637" y="542.5587">&#171;Strategy&#187;</text><text fill="#000000" font-family="sans-serif" font-size="14" font-style="italic" lengthAdjust="spacing" textLength="109.833" x="1214.897" y="564.3839">WinnerStrategy</text><line style="stroke:#181818;stroke-width:0.5;" x1="1065.71" x2="1441.417" y1="575.6856" y2="575.6856"/><line style="stroke:#181818;stroke-width:0.5;" x1="1065.71" x2="1441.417" y1="583.6856" y2="583.6856"/><text fill="#000000" font-family="sans-serif" font-size="14" font-style="italic" lengthAdjust="spacing" textLength="359.707" x="1073.71" y="603.6807">+boolean checkWinner(Board, Position, PieceType)</text></g><!--class TicTacToeWinnerStrategy--><g class="entity" data-entity="TicTacToeWinnerStrategy" data-source-line="47" data-uid="ent0008" id="entity_TicTacToeWinnerStrategy"><rect fill="#F1F1F1" height="70.5938" rx="2.5" ry="2.5" style="stroke:#181818;stroke-width:0.5;" width="377.707" x="1064.71" y="280.64"/><ellipse cx="1156.0484" cy="296.7884" fill="#C2C2C2" rx="11" ry="11" style="stroke:#181818;stroke-width:1;"/><path d="M1159.0171,302.4291 Q1158.439,302.7259 1157.7984,302.8666 Q1157.1578,303.0228 1156.4546,303.0228 Q1153.9546,303.0228 1152.6265,301.3822 Q1151.314,299.7259 1151.314,296.6009 Q1151.314,293.4759 1152.6265,291.8197 Q1153.9546,290.1634 1156.4546,290.1634 Q1157.1578,290.1634 1157.7984,290.3197 Q1158.4546,290.4759 1159.0171,290.7728 L1159.0171,293.4916 Q1158.3921,292.9134 1157.7984,292.6478 Q1157.2046,292.3666 1156.5796,292.3666 Q1155.2359,292.3666 1154.5484,293.4447 Q1153.8609,294.5072 1153.8609,296.6009 Q1153.8609,298.6947 1154.5484,299.7728 Q1155.2359,300.8353 1156.5796,300.8353 Q1157.2046,300.8353 1157.7984,300.5697 Q1158.3921,300.2884 1159.0171,299.7103 L1159.0171,302.4291 Z " fill="#000000"/><text fill="#000000" font-family="sans-serif" font-size="14" lengthAdjust="spacing" textLength="180.5303" x="1179.5484" y="301.6351">TicTacToeWinnerStrategy</text><line style="stroke:#181818;stroke-width:0.5;" x1="1065.71" x2="1441.417" y1="312.9369" y2="312.9369"/><line style="stroke:#181818;stroke-width:0.5;" x1="1065.71" x2="1441.417" y1="320.9369" y2="320.9369"/><text fill="#000000" font-family="sans-serif" font-size="14" lengthAdjust="spacing" textLength="359.707" x="1073.71" y="340.932">+boolean checkWinner(Board, Position, PieceType)</text></g><!--class MoveProvider--><g class="entity" data-entity="MoveProvider" data-source-line="52" data-uid="ent0009" id="entity_MoveProvider"><rect fill="#F1F1F1" height="90.5625" rx="2.5" ry="2.5" style="stroke:#181818;stroke-width:0.5;" width="287.3633" x="1522.88" y="523.42"/><ellipse cx="1611.443" cy="549.5528" fill="#B1B1B1" rx="11" ry="11" style="stroke:#181818;stroke-width:1;"/><path d="M1607.3649,545.3184 L1607.3649,543.1622 L1614.7555,543.1622 L1614.7555,545.3184 L1612.2867,545.3184 L1612.2867,553.3966 L1614.7555,553.3966 L1614.7555,555.5528 L1607.3649,555.5528 L1607.3649,553.3966 L1609.8336,553.3966 L1609.8336,545.3184 L1607.3649,545.3184 Z " fill="#000000"/><text fill="#000000" font-family="sans-serif" font-size="12" font-style="italic" lengthAdjust="spacing" textLength="66.0996" x="1649.7618" y="542.5587">&#171;Strategy&#187;</text><text fill="#000000" font-family="sans-serif" font-size="14" font-style="italic" lengthAdjust="spacing" textLength="95.7373" x="1634.943" y="564.3839">MoveProvider</text><line style="stroke:#181818;stroke-width:0.5;" x1="1523.88" x2="1809.2433" y1="575.6856" y2="575.6856"/><line style="stroke:#181818;stroke-width:0.5;" x1="1523.88" x2="1809.2433" y1="583.6856" y2="583.6856"/><text fill="#000000" font-family="sans-serif" font-size="14" font-style="italic" lengthAdjust="spacing" textLength="269.3633" x="1531.88" y="603.6807">+Position getNextMove(Player, Board)</text></g><!--class ConsoleMoveProvider--><g class="entity" data-entity="ConsoleMoveProvider" data-source-line="56" data-uid="ent0010" id="entity_ConsoleMoveProvider"><rect fill="#F1F1F1" height="92.8906" rx="2.5" ry="2.5" style="stroke:#181818;stroke-width:0.5;" width="287.3633" x="1522.88" y="269.49"/><ellipse cx="1583.6549" cy="285.6384" fill="#C2C2C2" rx="11" ry="11" style="stroke:#181818;stroke-width:1;"/><path d="M1586.6237,291.2791 Q1586.0455,291.5759 1585.4049,291.7166 Q1584.7643,291.8728 1584.0612,291.8728 Q1581.5612,291.8728 1580.233,290.2322 Q1578.9205,288.5759 1578.9205,285.4509 Q1578.9205,282.3259 1580.233,280.6697 Q1581.5612,279.0134 1584.0612,279.0134 Q1584.7643,279.0134 1585.4049,279.1697 Q1586.0612,279.3259 1586.6237,279.6228 L1586.6237,282.3416 Q1585.9987,281.7634 1585.4049,281.4978 Q1584.8112,281.2166 1584.1862,281.2166 Q1582.8424,281.2166 1582.1549,282.2947 Q1581.4674,283.3572 1581.4674,285.4509 Q1581.4674,287.5447 1582.1549,288.6228 Q1582.8424,289.6853 1584.1862,289.6853 Q1584.8112,289.6853 1585.4049,289.4197 Q1585.9987,289.1384 1586.6237,288.5603 L1586.6237,291.2791 Z " fill="#000000"/><text fill="#000000" font-family="sans-serif" font-size="14" lengthAdjust="spacing" textLength="151.3135" x="1607.1549" y="290.4851">ConsoleMoveProvider</text><line style="stroke:#181818;stroke-width:0.5;" x1="1523.88" x2="1809.2433" y1="301.7869" y2="301.7869"/><text fill="#000000" font-family="sans-serif" font-size="14" lengthAdjust="spacing" textLength="122.4658" x="1531.88" y="321.782">-Scanner scanner</text><line style="stroke:#181818;stroke-width:1;" x1="1523.88" x2="1809.2433" y1="332.0838" y2="332.0838"/><text fill="#000000" font-family="sans-serif" font-size="14" lengthAdjust="spacing" textLength="269.3633" x="1531.88" y="352.0789">+Position getNextMove(Player, Board)</text></g><!--class TicTacToeGameFacade--><g class="entity" data-entity="TicTacToeGameFacade" data-source-line="63" data-uid="ent0011" id="entity_TicTacToeGameFacade"><rect fill="#F1F1F1" height="179.75" rx="2.5" ry="2.5" style="stroke:#181818;stroke-width:0.5;" width="244.7754" x="420.18" y="226.06"/><ellipse cx="454.976" cy="252.1928" fill="#C2C2C2" rx="11" ry="11" style="stroke:#181818;stroke-width:1;"/><path d="M457.9448,257.8334 Q457.3667,258.1303 456.726,258.2709 Q456.0854,258.4272 455.3823,258.4272 Q452.8823,258.4272 451.5542,256.7866 Q450.2417,255.1303 450.2417,252.0053 Q450.2417,248.8803 451.5542,247.2241 Q452.8823,245.5678 455.3823,245.5678 Q456.0854,245.5678 456.726,245.7241 Q457.3823,245.8803 457.9448,246.1772 L457.9448,248.8959 Q457.3198,248.3178 456.726,248.0522 Q456.1323,247.7709 455.5073,247.7709 Q454.1635,247.7709 453.476,248.8491 Q452.7885,249.9116 452.7885,252.0053 Q452.7885,254.0991 453.476,255.1772 Q454.1635,256.2397 455.5073,256.2397 Q456.1323,256.2397 456.726,255.9741 Q457.3198,255.6928 457.9448,255.1147 L457.9448,257.8334 Z " fill="#000000"/><text fill="#000000" font-family="sans-serif" font-size="12" font-style="italic" lengthAdjust="spacing" textLength="57.8906" x="528.8219" y="245.1987">&#171;Facade&#187;</text><text fill="#000000" font-family="sans-serif" font-size="14" lengthAdjust="spacing" textLength="162.7842" x="476.3752" y="267.0239">TicTacToeGameFacade</text><line style="stroke:#181818;stroke-width:0.5;" x1="421.18" x2="663.9554" y1="278.3256" y2="278.3256"/><text fill="#000000" font-family="sans-serif" font-size="14" lengthAdjust="spacing" textLength="173.5986" x="429.18" y="298.3207">-Deque&lt;Player&gt; players</text><text fill="#000000" font-family="sans-serif" font-size="14" lengthAdjust="spacing" textLength="91.5674" x="429.18" y="320.6176">-Board board</text><text fill="#000000" font-family="sans-serif" font-size="14" lengthAdjust="spacing" textLength="226.7754" x="429.18" y="342.9145">-WinnerStrategy winnerStrategy</text><text fill="#000000" font-family="sans-serif" font-size="14" lengthAdjust="spacing" textLength="202.5352" x="429.18" y="365.2114">-MoveProvider moveProvider</text><line style="stroke:#181818;stroke-width:1;" x1="421.18" x2="663.9554" y1="375.5131" y2="375.5131"/><text fill="#000000" font-family="sans-serif" font-size="14" lengthAdjust="spacing" textLength="186.9561" x="429.18" y="395.5082">+GameResult startGame()</text></g><!--class Main--><g class="entity" data-entity="Main" data-source-line="73" data-uid="ent0012" id="entity_Main"><rect fill="#F1F1F1" height="70.5938" rx="2.5" ry="2.5" style="stroke:#181818;stroke-width:0.5;" width="162.416" x="98.36" y="39.23"/><ellipse cx="155.6076" cy="55.3784" fill="#C2C2C2" rx="11" ry="11" style="stroke:#181818;stroke-width:1;"/><path d="M158.5763,61.0191 Q157.9982,61.3159 157.3576,61.4566 Q156.7169,61.6128 156.0138,61.6128 Q153.5138,61.6128 152.1857,59.9722 Q150.8732,58.3159 150.8732,55.1909 Q150.8732,52.0659 152.1857,50.4097 Q153.5138,48.7534 156.0138,48.7534 Q156.7169,48.7534 157.3576,48.9097 Q158.0138,49.0659 158.5763,49.3628 L158.5763,52.0816 Q157.9513,51.5034 157.3576,51.2378 Q156.7638,50.9566 156.1388,50.9566 Q154.7951,50.9566 154.1076,52.0347 Q153.4201,53.0972 153.4201,55.1909 Q153.4201,57.2847 154.1076,58.3628 Q154.7951,59.4253 156.1388,59.4253 Q156.7638,59.4253 157.3576,59.1597 Q157.9513,58.8784 158.5763,58.3003 L158.5763,61.0191 Z " fill="#000000"/><text fill="#000000" font-family="sans-serif" font-size="14" lengthAdjust="spacing" textLength="33.4209" x="179.1076" y="60.2251">Main</text><line style="stroke:#181818;stroke-width:0.5;" x1="99.36" x2="259.776" y1="71.5269" y2="71.5269"/><line style="stroke:#181818;stroke-width:0.5;" x1="99.36" x2="259.776" y1="79.5269" y2="79.5269"/><text fill="#000000" font-family="sans-serif" font-size="14" lengthAdjust="spacing" text-decoration="underline" textLength="144.416" x="107.36" y="99.522">+void main(String[])</text></g><g class="entity" data-entity="GMN25" data-source-line="96" data-uid="ent0026" id="entity_GMN25"><path d="M426.49,6 L426.49,143.0625 A0,0 0 0 0 426.49,143.0625 L538.57,143.0625 L542.57,225.76 L546.57,143.0625 L658.6336,143.0625 A0,0 0 0 0 658.6336,143.0625 L658.6336,16 L648.6336,6 L426.49,6 A0,0 0 0 0 426.49,6" fill="#FAFAFA" style="stroke:#181818;stroke-width:0.5;"/><path d="M648.6336,6 L648.6336,16 L658.6336,16 L648.6336,6" fill="#FAFAFA" style="stroke:#181818;stroke-width:0.5;"/><text fill="#000000" font-family="sans-serif" font-size="13" font-weight="bold" lengthAdjust="spacing" textLength="111.9917" x="435.49" y="26.0669">Facade Pattern</text><text fill="#000000" font-family="sans-serif" font-size="13" lengthAdjust="spacing" textLength="4.1323" x="435.49" y="41.1997">&#160;</text><text fill="#000000" font-family="sans-serif" font-size="13" lengthAdjust="spacing" textLength="191.5405" x="435.49" y="56.3325">Simplifies game initialization:</text><text fill="#000000" font-family="sans-serif" font-size="13" lengthAdjust="spacing" textLength="160.0688" x="435.49" y="71.4653">&#8226; Manages player queue</text><text fill="#000000" font-family="sans-serif" font-size="13" lengthAdjust="spacing" textLength="137.7695" x="435.49" y="86.5981">&#8226; Controls game flow</text><text fill="#000000" font-family="sans-serif" font-size="13" lengthAdjust="spacing" textLength="205.1436" x="435.49" y="101.731">&#8226; Coordinates board, strategies</text><text fill="#000000" font-family="sans-serif" font-size="13" lengthAdjust="spacing" textLength="144.7329" x="435.49" y="116.8638">&#8226; Returns game result</text><text fill="#000000" font-family="sans-serif" font-size="13" lengthAdjust="spacing" textLength="174.1099" x="435.49" y="131.9966">&#8226; Handles turn-based logic</text></g><!--link Player to PieceType--><g class="link" data-entity-1="Player" data-entity-2="PieceType" data-source-line="78" data-uid="lnk13" id="link_Player_PieceType"><path codeLine="78" d="M178.45,624.69 C191.78,632.87 205.47,641.07 218.57,648.59 C282.71,685.41 352.982,721.7096 403.062,746.9496" fill="none" id="Player-to-PieceType" style="stroke:#181818;stroke-width:1;"/><polygon fill="#181818" points="408.42,749.65,402.1833,742.0274,403.955,747.3997,398.5828,749.1714,408.42,749.65" style="stroke:#181818;stroke-width:1;"/><text fill="#000000" font-family="sans-serif" font-size="13" lengthAdjust="spacing" textLength="29.7832" x="316.57" y="694.6569">uses</text></g><!--link Board to PieceType--><g class="link" data-entity-1="Board" data-entity-2="PieceType" data-source-line="79" data-uid="lnk14" id="link_Board_PieceType"><path codeLine="79" d="M692.72,648.97 C631.96,682.92 569.8276,717.653 523.9476,743.293" fill="none" id="Board-to-PieceType" style="stroke:#181818;stroke-width:1;"/><polygon fill="#181818" points="518.71,746.22,528.5178,745.3212,523.0747,743.7808,524.6151,738.3377,518.71,746.22" style="stroke:#181818;stroke-width:1;"/><text fill="#000000" font-family="sans-serif" font-size="13" lengthAdjust="spacing" textLength="55.0278" x="641.57" y="694.6569">contains</text></g><!--link TicTacToeWinnerStrategy to WinnerStrategy--><g class="link" data-entity-1="TicTacToeWinnerStrategy" data-entity-2="WinnerStrategy" data-source-line="81" data-uid="lnk15" id="link_TicTacToeWinnerStrategy_WinnerStrategy"><path codeLine="81" d="M1253.57,351.54 C1253.57,396.28 1253.57,456.26 1253.57,505.32" fill="none" id="TicTacToeWinnerStrategy-to-WinnerStrategy" style="stroke:#181818;stroke-width:1;stroke-dasharray:7,7;"/><polygon fill="none" points="1253.57,523.32,1259.57,505.32,1247.57,505.32,1253.57,523.32" style="stroke:#181818;stroke-width:1;"/><text fill="#000000" font-family="sans-serif" font-size="13" lengthAdjust="spacing" textLength="76.9082" x="1257.57" y="451.8769">implements</text></g><!--link ConsoleMoveProvider to MoveProvider--><g class="link" data-entity-1="ConsoleMoveProvider" data-entity-2="MoveProvider" data-source-line="82" data-uid="lnk16" id="link_ConsoleMoveProvider_MoveProvider"><path codeLine="82" d="M1666.57,362.64 C1666.57,408.27 1666.57,459.93 1666.57,505.15" fill="none" id="ConsoleMoveProvider-to-MoveProvider" style="stroke:#181818;stroke-width:1;stroke-dasharray:7,7;"/><polygon fill="none" points="1666.57,523.15,1672.57,505.15,1660.57,505.15,1666.57,523.15" style="stroke:#181818;stroke-width:1;"/><text fill="#000000" font-family="sans-serif" font-size="13" lengthAdjust="spacing" textLength="76.9082" x="1670.57" y="451.8769">implements</text></g><!--link TicTacToeGameFacade to Player--><g class="link" data-entity-1="TicTacToeGameFacade" data-entity-2="Player" data-source-line="84" data-uid="lnk17" id="link_TicTacToeGameFacade_Player"><path codeLine="84" d="M409.2426,384.9046 C348.1626,416.6546 284.19,450.92 218.57,488.81 C205.49,496.36 196.9228,501.4401 183.6028,509.6201" fill="none" id="TicTacToeGameFacade-Player" style="stroke:#181818;stroke-width:1;"/><polygon fill="none" points="419.89,379.37,412.7214,378.5882,409.2426,384.9046,416.4112,385.6865,419.89,379.37" style="stroke:#181818;stroke-width:1;"/><polygon fill="#181818" points="178.49,512.76,188.2525,511.4588,182.7507,510.1434,184.066,504.6416,178.49,512.76" style="stroke:#181818;stroke-width:1;"/><text fill="#000000" font-family="sans-serif" font-size="13" lengthAdjust="spacing" textLength="59.8584" x="310.57" y="451.8769">manages</text><text fill="#000000" font-family="sans-serif" font-size="13" lengthAdjust="spacing" textLength="23.0356" x="189.1801" y="501.7456">2..*</text></g><!--link TicTacToeGameFacade to Board--><g class="link" data-entity-1="TicTacToeGameFacade" data-entity-2="Board" data-source-line="85" data-uid="lnk18" id="link_TicTacToeGameFacade_Board"><path codeLine="85" d="M655.4435,413.8684 C686.7535,440.7584 707.238,458.3511 737.748,484.5511" fill="none" id="TicTacToeGameFacade-Board" style="stroke:#181818;stroke-width:1;"/><polygon fill="#181818" points="646.34,406.05,648.2856,412.9937,655.4435,413.8684,653.4979,406.9247,646.34,406.05" style="stroke:#181818;stroke-width:1;"/><polygon fill="#181818" points="742.3,488.46,738.078,479.562,738.5067,485.2026,732.8661,485.6313,742.3,488.46" style="stroke:#181818;stroke-width:1;"/><text fill="#000000" font-family="sans-serif" font-size="13" lengthAdjust="spacing" textLength="55.0278" x="709.57" y="451.8769">contains</text><text fill="#000000" font-family="sans-serif" font-size="13" lengthAdjust="spacing" textLength="8.271" x="722.7814" y="474.7346">1</text></g><!--link TicTacToeGameFacade to GameResult--><g class="link" data-entity-1="TicTacToeGameFacade" data-entity-2="GameResult" data-source-line="86" data-uid="lnk19" id="link_TicTacToeGameFacade_GameResult"><path codeLine="86" d="M542.57,406.05 C542.57,445.19 542.57,483.48 542.57,515.79" fill="none" id="TicTacToeGameFacade-to-GameResult" style="stroke:#181818;stroke-width:1;stroke-dasharray:7,7;"/><polygon fill="#181818" points="542.57,521.79,546.57,512.79,542.57,516.79,538.57,512.79,542.57,521.79" style="stroke:#181818;stroke-width:1;"/><text fill="#000000" font-family="sans-serif" font-size="13" lengthAdjust="spacing" textLength="48.3247" x="546.57" y="451.8769">creates</text></g><!--link TicTacToeGameFacade to Position--><g class="link" data-entity-1="TicTacToeGameFacade" data-entity-2="Position" data-source-line="87" data-uid="lnk20" id="link_TicTacToeGameFacade_Position"><path codeLine="87" d="M466.87,406.05 C437.22,440.96 407.9544,475.4071 381.6644,506.3571" fill="none" id="TicTacToeGameFacade-to-Position" style="stroke:#181818;stroke-width:1;stroke-dasharray:7,7;"/><polygon fill="#181818" points="377.78,510.93,386.6552,506.6602,381.017,507.1192,380.558,501.481,377.78,510.93" style="stroke:#181818;stroke-width:1;"/><text fill="#000000" font-family="sans-serif" font-size="13" lengthAdjust="spacing" textLength="29.7832" x="440.57" y="451.8769">uses</text></g><!--link TicTacToeGameFacade to WinnerStrategy--><g class="link" data-entity-1="TicTacToeGameFacade" data-entity-2="WinnerStrategy" data-source-line="88" data-uid="lnk21" id="link_TicTacToeGameFacade_WinnerStrategy"><path codeLine="88" d="M665.2,360.18 C794.2,405.68 990.6016,474.9543 1121.1416,520.9943" fill="none" id="TicTacToeGameFacade-to-WinnerStrategy" style="stroke:#181818;stroke-width:1;"/><polygon fill="#181818" points="1126.8,522.99,1119.6428,516.2243,1122.0847,521.327,1116.982,523.7688,1126.8,522.99" style="stroke:#181818;stroke-width:1;"/><text fill="#000000" font-family="sans-serif" font-size="13" lengthAdjust="spacing" textLength="29.7832" x="944.57" y="451.8769">uses</text></g><!--link TicTacToeGameFacade to MoveProvider--><g class="link" data-entity-1="TicTacToeGameFacade" data-entity-2="MoveProvider" data-source-line="89" data-uid="lnk22" id="link_TicTacToeGameFacade_MoveProvider"><path codeLine="89" d="M665.36,347.77 C796.23,379.65 1009.87,428.86 1196.57,458.81 C1322.76,479.05 1358.88,456.6 1482.57,488.81 C1514.35,497.09 1542.2508,507.5775 1571.7308,520.5875" fill="none" id="TicTacToeGameFacade-to-MoveProvider" style="stroke:#181818;stroke-width:1;"/><polygon fill="#181818" points="1577.22,523.01,1570.6012,515.7168,1572.6456,520.9913,1567.3712,523.0358,1577.22,523.01" style="stroke:#181818;stroke-width:1;"/><text fill="#000000" font-family="sans-serif" font-size="13" lengthAdjust="spacing" textLength="29.7832" x="1200.57" y="451.8769">uses</text></g><!--link Main to TicTacToeGameFacade--><g class="link" data-entity-1="Main" data-entity-2="TicTacToeGameFacade" data-source-line="91" data-uid="lnk23" id="link_Main_TicTacToeGameFacade"><path codeLine="91" d="M231.96,110.08 C280.95,142.39 350.9409,188.5571 414.9709,230.7771" fill="none" id="Main-to-TicTacToeGameFacade" style="stroke:#181818;stroke-width:1;stroke-dasharray:7,7;"/><polygon fill="#181818" points="419.98,234.08,414.6683,225.7863,415.8058,231.3276,410.2644,232.4651,419.98,234.08" style="stroke:#181818;stroke-width:1;"/><text fill="#000000" font-family="sans-serif" font-size="13" lengthAdjust="spacing" textLength="48.3247" x="365.57" y="189.1269">creates</text></g><!--link Main to Player--><g class="link" data-entity-1="Main" data-entity-2="Player" data-source-line="92" data-uid="lnk24" id="link_Main_Player"><path codeLine="92" d="M173.45,110.14 C158.65,193.83 121.8643,401.9316 103.6743,504.8416" fill="none" id="Main-to-Player" style="stroke:#181818;stroke-width:1;stroke-dasharray:7,7;"/><polygon fill="#181818" points="102.63,510.75,108.1355,502.5836,103.5003,505.8263,100.2576,501.1911,102.63,510.75" style="stroke:#181818;stroke-width:1;"/><text fill="#000000" font-family="sans-serif" font-size="13" lengthAdjust="spacing" textLength="48.3247" x="156.57" y="320.4969">creates</text></g><!--SRC=[bLNRJXin47ttLrYy942IqbQggYXQgGL1aGgD858h8HuSxoHOUEsjxOK2HUgtzDFw9HrVijaD2sgbNBoUEUDpvkArrqALpB22Sici_U2S4VFAmJ7NwbpS0zqZjdOfjDByokW2g3CLD2mbotEXblHjOq_f72oKz7qpX67gsc- -soEaH_Ur0NgW2oOKFK5tQGcegg1J0HncToNG1qBfD_n-8O-418fqAjaTc60PqdFaY-SgLa1uNYFBrShl3_5dT-My17UA_ltjHanjXHDQfQX2EMhqRRtcMZw9udHSDCCSOTWpi9LqAT1SQmbCKISIlSZzLYW5nkDw0KC_QcRo52Ii6qGibg6jxUBouX93UqZDQdKI5YBuzP7_m1CVh77RmVEpi6wo4fpvR1mQW7sGqlQZnuqMEIrHd0jSeiAU5yuSBE_eb3a7HY6bhq48FG07t8SZY06pO1oIgSPC9gjbbWLnk_I1pItkSVTOi-TNmAyZiX_E7jIbQUceCpuJVCRuJCF6SG-jfFn7s4wP9_e6wB4gAzSGw3UdHj-873FmihowlNphmG_deVtO2uDOxuQaVQqiqcw5JytEMKYtZV_hulzZ_1uzP9pbq50MkWzFT4PBYI4tikhD2JEPn4NIDyIYVwzW4a_9Q1d-RR343guRTBCLRbkFmQCbjcWyh3KsPiiwPjnHFS9uZqW1oYNo9_usIIL0JoVuO-neVytquz1UN2Ra6KZcCsUlH6b96i_XC6jS96DQMR0aYjequJNfCAmbvBbE78r-PfiP65DHb18A96r9Lxq3gBNJWf2k0cdFRUlDQBIpjRfdngXPiIMoxmBi1C3hhLIlXfWkxz4eQzO0lGsWckUTwwPC2UpoymoUvEP5xusa15yIIkxFx4AjcTPkTNfM5ko40x1YgUhHEDL-N-4ltlGbrOkksDXaatdM7gh9gtc6-_WvznKJ2m6MBlsO2ONvO5BSXuuReyUVNx-nNKE5qW1HdAaAaYdDPO8lP7WZHOCs-BxrrEEO3QYD-SF3aiyPkCgeX3MXQCdoYQbS8jBRXtDc8QTIBmN7TszElUA_]--></g></svg>