<svg xmlns="http://www.w3.org/2000/svg" xmlns:xlink="http://www.w3.org/1999/xlink" contentStyleType="text/css" data-diagram-type="CLASS" height="667px" preserveAspectRatio="none" style="width:777px;height:667px;background:#FFFFFF;" version="1.1" viewBox="0 0 777 667" width="777px" zoomAndPan="magnify"><title>Tic Tac Toe - Class Diagram</title><defs/><g><g class="title" data-source-line="1"><text fill="#000000" font-family="sans-serif" font-size="14" font-weight="bold" lengthAdjust="spacing" textLength="216.8018" x="273.5054" y="22.9951">Tic Tac Toe - Class Diagram</text></g><!--class TicTacToeGame--><g class="entity" data-entity="TicTacToeGame" data-source-line="3" data-uid="ent0002" id="entity_TicTacToeGame"><rect fill="#F1F1F1" height="129.4844" rx="2.5" ry="2.5" style="stroke:#181818;stroke-width:0.5;" width="465.9609" x="101.9" y="44.2969"/><ellipse cx="274.4425" cy="60.2969" fill="#ADD1B2" rx="11" ry="11" style="stroke:#181818;stroke-width:1;"/><path d="M277.4112,65.9375 Q276.8331,66.2344 276.1925,66.375 Q275.5519,66.5313 274.8487,66.5313 Q272.3487,66.5313 271.0206,64.8906 Q269.7081,63.2344 269.7081,60.1094 Q269.7081,56.9844 271.0206,55.3281 Q272.3487,53.6719 274.8487,53.6719 Q275.5519,53.6719 276.1925,53.8281 Q276.8487,53.9844 277.4112,54.2813 L277.4112,57 Q276.7862,56.4219 276.1925,56.1563 Q275.5987,55.875 274.9737,55.875 Q273.63,55.875 272.9425,56.9531 Q272.255,58.0156 272.255,60.1094 Q272.255,62.2031 272.9425,63.2813 Q273.63,64.3438 274.9737,64.3438 Q275.5987,64.3438 276.1925,64.0781 Q276.7862,63.7969 277.4112,63.2188 L277.4112,65.9375 Z " fill="#000000"/><text fill="#000000" font-family="sans-serif" font-size="14" lengthAdjust="spacing" textLength="112.376" x="294.9425" y="65.1436">TicTacToeGame</text><line style="stroke:#181818;stroke-width:0.5;" x1="102.9" x2="566.8609" y1="76.2969" y2="76.2969"/><rect fill="none" height="6" style="stroke:#C82930;stroke-width:1;" width="6" x="109.9" y="86.9453"/><text fill="#000000" font-family="sans-serif" font-size="14" lengthAdjust="spacing" textLength="168.5469" x="121.9" y="93.292">Deque&lt;Player&gt; players</text><rect fill="none" height="6" style="stroke:#C82930;stroke-width:1;" width="6" x="109.9" y="103.2422"/><text fill="#000000" font-family="sans-serif" font-size="14" lengthAdjust="spacing" textLength="126.9502" x="121.9" y="109.5889">Board gameBoard</text><line style="stroke:#181818;stroke-width:0.5;" x1="102.9" x2="566.8609" y1="116.8906" y2="116.8906"/><ellipse cx="112.9" cy="130.5391" fill="#84BE84" rx="3" ry="3" style="stroke:#038048;stroke-width:1;"/><text fill="#000000" font-family="sans-serif" font-size="14" lengthAdjust="spacing" textLength="154.1982" x="121.9" y="133.8857">initializeGame() : void</text><ellipse cx="112.9" cy="146.8359" fill="#84BE84" rx="3" ry="3" style="stroke:#038048;stroke-width:1;"/><text fill="#000000" font-family="sans-serif" font-size="14" lengthAdjust="spacing" textLength="140.6084" x="121.9" y="150.1826">startGame() : String</text><ellipse cx="112.9" cy="163.1328" fill="#84BE84" rx="3" ry="3" style="stroke:#038048;stroke-width:1;"/><text fill="#000000" font-family="sans-serif" font-size="14" lengthAdjust="spacing" textLength="439.9609" x="121.9" y="166.4795">isThereWinner(row:int, col:int, pieceType:PieceType) : boolean</text></g><!--class Player--><g class="entity" data-entity="Player" data-source-line="11" data-uid="ent0003" id="entity_Player"><rect fill="#F1F1F1" height="145.7813" rx="2.5" ry="2.5" style="stroke:#181818;stroke-width:0.5;" width="277.7676" x="7" y="233.7769"/><ellipse cx="119.8511" cy="249.7769" fill="#ADD1B2" rx="11" ry="11" style="stroke:#181818;stroke-width:1;"/><path d="M122.8198,255.4175 Q122.2417,255.7144 121.6011,255.855 Q120.9604,256.0113 120.2573,256.0113 Q117.7573,256.0113 116.4292,254.3706 Q115.1167,252.7144 115.1167,249.5894 Q115.1167,246.4644 116.4292,244.8081 Q117.7573,243.1519 120.2573,243.1519 Q120.9604,243.1519 121.6011,243.3081 Q122.2573,243.4644 122.8198,243.7613 L122.8198,246.48 Q122.1948,245.9019 121.6011,245.6363 Q121.0073,245.355 120.3823,245.355 Q119.0386,245.355 118.3511,246.4331 Q117.6636,247.4956 117.6636,249.5894 Q117.6636,251.6831 118.3511,252.7613 Q119.0386,253.8238 120.3823,253.8238 Q121.0073,253.8238 121.6011,253.5581 Q122.1948,253.2769 122.8198,252.6988 L122.8198,255.4175 Z " fill="#000000"/><text fill="#000000" font-family="sans-serif" font-size="14" lengthAdjust="spacing" textLength="43.5654" x="140.3511" y="254.6236">Player</text><line style="stroke:#181818;stroke-width:0.5;" x1="8" x2="283.7676" y1="265.7769" y2="265.7769"/><rect fill="none" height="6" style="stroke:#C82930;stroke-width:1;" width="6" x="15" y="276.4253"/><text fill="#000000" font-family="sans-serif" font-size="14" lengthAdjust="spacing" textLength="85.9346" x="27" y="282.772">String name</text><rect fill="none" height="6" style="stroke:#C82930;stroke-width:1;" width="6" x="15" y="292.7222"/><text fill="#000000" font-family="sans-serif" font-size="14" lengthAdjust="spacing" textLength="181.0977" x="27" y="299.0689">PlayingPiece playingPiece</text><line style="stroke:#181818;stroke-width:0.5;" x1="8" x2="283.7676" y1="306.3706" y2="306.3706"/><ellipse cx="18" cy="320.0191" fill="#84BE84" rx="3" ry="3" style="stroke:#038048;stroke-width:1;"/><text fill="#000000" font-family="sans-serif" font-size="14" lengthAdjust="spacing" textLength="130.6143" x="27" y="323.3657">getName() : String</text><ellipse cx="18" cy="336.3159" fill="#84BE84" rx="3" ry="3" style="stroke:#038048;stroke-width:1;"/><text fill="#000000" font-family="sans-serif" font-size="14" lengthAdjust="spacing" textLength="158.6484" x="27" y="339.6626">setName(String) : void</text><ellipse cx="18" cy="352.6128" fill="#84BE84" rx="3" ry="3" style="stroke:#038048;stroke-width:1;"/><text fill="#000000" font-family="sans-serif" font-size="14" lengthAdjust="spacing" textLength="223.7334" x="27" y="355.9595">getPlayingPiece() : PlayingPiece</text><ellipse cx="18" cy="368.9097" fill="#84BE84" rx="3" ry="3" style="stroke:#038048;stroke-width:1;"/><text fill="#000000" font-family="sans-serif" font-size="14" lengthAdjust="spacing" textLength="251.7676" x="27" y="372.2564">setPlayingPiece(PlayingPiece) : void</text></g><!--class Board--><g class="entity" data-entity="Board" data-source-line="20" data-uid="ent0004" id="entity_Board"><rect fill="#F1F1F1" height="145.7813" rx="2.5" ry="2.5" style="stroke:#181818;stroke-width:0.5;" width="410.3027" x="319.73" y="233.7769"/><ellipse cx="499.9356" cy="249.7769" fill="#ADD1B2" rx="11" ry="11" style="stroke:#181818;stroke-width:1;"/><path d="M502.9043,255.4175 Q502.3262,255.7144 501.6856,255.855 Q501.0449,256.0113 500.3418,256.0113 Q497.8418,256.0113 496.5137,254.3706 Q495.2012,252.7144 495.2012,249.5894 Q495.2012,246.4644 496.5137,244.8081 Q497.8418,243.1519 500.3418,243.1519 Q501.0449,243.1519 501.6856,243.3081 Q502.3418,243.4644 502.9043,243.7613 L502.9043,246.48 Q502.2793,245.9019 501.6856,245.6363 Q501.0918,245.355 500.4668,245.355 Q499.1231,245.355 498.4356,246.4331 Q497.7481,247.4956 497.7481,249.5894 Q497.7481,251.6831 498.4356,252.7613 Q499.1231,253.8238 500.4668,253.8238 Q501.0918,253.8238 501.6856,253.5581 Q502.2793,253.2769 502.9043,252.6988 L502.9043,255.4175 Z " fill="#000000"/><text fill="#000000" font-family="sans-serif" font-size="14" lengthAdjust="spacing" textLength="41.3916" x="520.4356" y="254.6236">Board</text><line style="stroke:#181818;stroke-width:0.5;" x1="320.73" x2="729.0327" y1="265.7769" y2="265.7769"/><rect fill="none" height="6" style="stroke:#C82930;stroke-width:1;" width="6" x="327.73" y="276.4253"/><text fill="#000000" font-family="sans-serif" font-size="14" lengthAdjust="spacing" textLength="49.8477" x="339.73" y="282.772">int size</text><rect fill="none" height="6" style="stroke:#C82930;stroke-width:1;" width="6" x="327.73" y="292.7222"/><text fill="#000000" font-family="sans-serif" font-size="14" lengthAdjust="spacing" textLength="155.0732" x="339.73" y="299.0689">PlayingPiece[][] board</text><line style="stroke:#181818;stroke-width:0.5;" x1="320.73" x2="729.0327" y1="306.3706" y2="306.3706"/><ellipse cx="330.73" cy="320.0191" fill="#84BE84" rx="3" ry="3" style="stroke:#038048;stroke-width:1;"/><text fill="#000000" font-family="sans-serif" font-size="14" lengthAdjust="spacing" textLength="70.5674" x="339.73" y="323.3657">Board(int)</text><ellipse cx="330.73" cy="336.3159" fill="#84BE84" rx="3" ry="3" style="stroke:#038048;stroke-width:1;"/><text fill="#000000" font-family="sans-serif" font-size="14" lengthAdjust="spacing" textLength="384.3027" x="339.73" y="339.6626">addPiece(row:int, col:int, piece:PlayingPiece) : boolean</text><ellipse cx="330.73" cy="352.6128" fill="#84BE84" rx="3" ry="3" style="stroke:#038048;stroke-width:1;"/><text fill="#000000" font-family="sans-serif" font-size="14" lengthAdjust="spacing" textLength="315.2598" x="339.73" y="355.9595">getFreeCells() : List&lt;Pair&lt;Integer,Integer&gt;&gt;</text><ellipse cx="330.73" cy="368.9097" fill="#84BE84" rx="3" ry="3" style="stroke:#038048;stroke-width:1;"/><text fill="#000000" font-family="sans-serif" font-size="14" lengthAdjust="spacing" textLength="128.4541" x="339.73" y="372.2564">printBoard() : void</text></g><!--class PlayingPiece--><g class="entity" data-entity="PlayingPiece" data-source-line="29" data-uid="ent0005" id="entity_PlayingPiece"><rect fill="#F1F1F1" height="80.5938" rx="2.5" ry="2.5" style="stroke:#181818;stroke-width:0.5;" width="196.6182" x="236.57" y="439.5569"/><ellipse cx="286.5783" cy="455.5569" fill="#ADD1B2" rx="11" ry="11" style="stroke:#181818;stroke-width:1;"/><path d="M289.5471,461.1975 Q288.9689,461.4944 288.3283,461.635 Q287.6877,461.7913 286.9846,461.7913 Q284.4846,461.7913 283.1564,460.1506 Q281.8439,458.4944 281.8439,455.3694 Q281.8439,452.2444 283.1564,450.5881 Q284.4846,448.9319 286.9846,448.9319 Q287.6877,448.9319 288.3283,449.0881 Q288.9846,449.2444 289.5471,449.5413 L289.5471,452.26 Q288.9221,451.6819 288.3283,451.4163 Q287.7346,451.135 287.1096,451.135 Q285.7658,451.135 285.0783,452.2131 Q284.3908,453.2756 284.3908,455.3694 Q284.3908,457.4631 285.0783,458.5413 Q285.7658,459.6038 287.1096,459.6038 Q287.7346,459.6038 288.3283,459.3381 Q288.9221,459.0569 289.5471,458.4788 L289.5471,461.1975 Z " fill="#000000"/><text fill="#000000" font-family="sans-serif" font-size="14" lengthAdjust="spacing" textLength="88.1016" x="307.0783" y="460.4036">PlayingPiece</text><line style="stroke:#181818;stroke-width:0.5;" x1="237.57" x2="432.1882" y1="471.5569" y2="471.5569"/><ellipse cx="247.57" cy="485.2053" fill="none" rx="3" ry="3" style="stroke:#038048;stroke-width:1;"/><text fill="#000000" font-family="sans-serif" font-size="14" lengthAdjust="spacing" textLength="148.0801" x="256.57" y="488.552">PieceType pieceType</text><line style="stroke:#181818;stroke-width:0.5;" x1="237.57" x2="432.1882" y1="495.8538" y2="495.8538"/><ellipse cx="247.57" cy="509.5022" fill="#84BE84" rx="3" ry="3" style="stroke:#038048;stroke-width:1;"/><text fill="#000000" font-family="sans-serif" font-size="14" lengthAdjust="spacing" textLength="170.6182" x="256.57" y="512.8489">PlayingPiece(PieceType)</text></g><!--class PlayingPieceX--><g class="entity" data-entity="PlayingPieceX" data-source-line="34" data-uid="ent0006" id="entity_PlayingPieceX"><rect fill="#F1F1F1" height="64.2969" rx="2.5" ry="2.5" style="stroke:#181818;stroke-width:0.5;" width="134.6162" x="97.58" y="588.2969"/><ellipse cx="114.7957" cy="604.2969" fill="#ADD1B2" rx="11" ry="11" style="stroke:#181818;stroke-width:1;"/><path d="M117.7645,609.9375 Q117.1863,610.2344 116.5457,610.375 Q115.9051,610.5313 115.202,610.5313 Q112.702,610.5313 111.3738,608.8906 Q110.0613,607.2344 110.0613,604.1094 Q110.0613,600.9844 111.3738,599.3281 Q112.702,597.6719 115.202,597.6719 Q115.9051,597.6719 116.5457,597.8281 Q117.202,597.9844 117.7645,598.2813 L117.7645,601 Q117.1395,600.4219 116.5457,600.1563 Q115.952,599.875 115.327,599.875 Q113.9832,599.875 113.2957,600.9531 Q112.6082,602.0156 112.6082,604.1094 Q112.6082,606.2031 113.2957,607.2813 Q113.9832,608.3438 115.327,608.3438 Q115.952,608.3438 116.5457,608.0781 Q117.1395,607.7969 117.7645,607.2188 L117.7645,609.9375 Z " fill="#000000"/><text fill="#000000" font-family="sans-serif" font-size="14" lengthAdjust="spacing" textLength="97.6924" x="129.2881" y="609.1436">PlayingPieceX</text><line style="stroke:#181818;stroke-width:0.5;" x1="98.58" x2="231.1962" y1="620.2969" y2="620.2969"/><line style="stroke:#181818;stroke-width:0.5;" x1="98.58" x2="231.1962" y1="628.2969" y2="628.2969"/><ellipse cx="108.58" cy="641.9453" fill="#84BE84" rx="3" ry="3" style="stroke:#038048;stroke-width:1;"/><text fill="#000000" font-family="sans-serif" font-size="14" lengthAdjust="spacing" textLength="108.6162" x="117.58" y="645.292">PlayingPieceX()</text></g><!--class PlayingPieceO--><g class="entity" data-entity="PlayingPieceO" data-source-line="38" data-uid="ent0007" id="entity_PlayingPieceO"><rect fill="#F1F1F1" height="64.2969" rx="2.5" ry="2.5" style="stroke:#181818;stroke-width:0.5;" width="136.0449" x="266.86" y="588.2969"/><ellipse cx="284.0757" cy="604.2969" fill="#ADD1B2" rx="11" ry="11" style="stroke:#181818;stroke-width:1;"/><path d="M287.0445,609.9375 Q286.4663,610.2344 285.8257,610.375 Q285.1851,610.5313 284.482,610.5313 Q281.982,610.5313 280.6538,608.8906 Q279.3413,607.2344 279.3413,604.1094 Q279.3413,600.9844 280.6538,599.3281 Q281.982,597.6719 284.482,597.6719 Q285.1851,597.6719 285.8257,597.8281 Q286.482,597.9844 287.0445,598.2813 L287.0445,601 Q286.4195,600.4219 285.8257,600.1563 Q285.232,599.875 284.607,599.875 Q283.2632,599.875 282.5757,600.9531 Q281.8882,602.0156 281.8882,604.1094 Q281.8882,606.2031 282.5757,607.2813 Q283.2632,608.3438 284.607,608.3438 Q285.232,608.3438 285.8257,608.0781 Q286.4195,607.7969 287.0445,607.2188 L287.0445,609.9375 Z " fill="#000000"/><text fill="#000000" font-family="sans-serif" font-size="14" lengthAdjust="spacing" textLength="99.1211" x="298.5681" y="609.1436">PlayingPieceO</text><line style="stroke:#181818;stroke-width:0.5;" x1="267.86" x2="401.9049" y1="620.2969" y2="620.2969"/><line style="stroke:#181818;stroke-width:0.5;" x1="267.86" x2="401.9049" y1="628.2969" y2="628.2969"/><ellipse cx="277.86" cy="641.9453" fill="#84BE84" rx="3" ry="3" style="stroke:#038048;stroke-width:1;"/><text fill="#000000" font-family="sans-serif" font-size="14" lengthAdjust="spacing" textLength="110.0449" x="286.86" y="645.292">PlayingPieceO()</text></g><!--class PieceType--><g class="entity" data-entity="PieceType" data-source-line="42" data-uid="ent0008" id="entity_PieceType"><rect fill="#F1F1F1" height="80.5938" rx="2.5" ry="2.5" style="stroke:#181818;stroke-width:0.5;" width="103.5928" x="438.09" y="580.1569"/><ellipse cx="453.09" cy="596.1569" fill="#EB937F" rx="11" ry="11" style="stroke:#181818;stroke-width:1;"/><path d="M457.1994,602.1569 L449.4806,602.1569 L449.4806,589.7663 L457.1994,589.7663 L457.1994,591.9225 L451.9338,591.9225 L451.9338,594.5944 L456.6994,594.5944 L456.6994,596.7506 L451.9338,596.7506 L451.9338,600.0006 L457.1994,600.0006 L457.1994,602.1569 Z " fill="#000000"/><text fill="#000000" font-family="sans-serif" font-size="14" lengthAdjust="spacing" textLength="71.5928" x="467.09" y="601.0036">PieceType</text><line style="stroke:#181818;stroke-width:0.5;" x1="439.09" x2="540.6828" y1="612.1569" y2="612.1569"/><text fill="#000000" font-family="sans-serif" font-size="14" lengthAdjust="spacing" textLength="9.5908" x="444.09" y="629.152">X</text><text fill="#000000" font-family="sans-serif" font-size="14" lengthAdjust="spacing" textLength="11.0195" x="444.09" y="645.4489">O</text><line style="stroke:#181818;stroke-width:0.5;" x1="439.09" x2="540.6828" y1="652.7506" y2="652.7506"/></g><!--class Main--><g class="entity" data-entity="Main" data-source-line="47" data-uid="ent0009" id="entity_Main"><rect fill="#F1F1F1" height="64.2969" rx="2.5" ry="2.5" style="stroke:#181818;stroke-width:0.5;" width="167.8525" x="602.96" y="76.8869"/><ellipse cx="665.9258" cy="92.8869" fill="#ADD1B2" rx="11" ry="11" style="stroke:#181818;stroke-width:1;"/><path d="M668.8946,98.5275 Q668.3164,98.8244 667.6758,98.965 Q667.0352,99.1213 666.3321,99.1213 Q663.8321,99.1213 662.5039,97.4806 Q661.1914,95.8244 661.1914,92.6994 Q661.1914,89.5744 662.5039,87.9181 Q663.8321,86.2619 666.3321,86.2619 Q667.0352,86.2619 667.6758,86.4181 Q668.3321,86.5744 668.8946,86.8713 L668.8946,89.59 Q668.2696,89.0119 667.6758,88.7463 Q667.0821,88.465 666.4571,88.465 Q665.1133,88.465 664.4258,89.5431 Q663.7383,90.6056 663.7383,92.6994 Q663.7383,94.7931 664.4258,95.8713 Q665.1133,96.9338 666.4571,96.9338 Q667.0821,96.9338 667.6758,96.6681 Q668.2696,96.3869 668.8946,95.8088 L668.8946,98.5275 Z " fill="#000000"/><text fill="#000000" font-family="sans-serif" font-size="14" lengthAdjust="spacing" textLength="33.4209" x="686.4258" y="97.7336">Main</text><line style="stroke:#181818;stroke-width:0.5;" x1="603.96" x2="769.8125" y1="108.8869" y2="108.8869"/><line style="stroke:#181818;stroke-width:0.5;" x1="603.96" x2="769.8125" y1="116.8869" y2="116.8869"/><ellipse cx="613.96" cy="130.5353" fill="#84BE84" rx="3" ry="3" style="stroke:#038048;stroke-width:1;"/><text fill="#000000" font-family="sans-serif" font-size="14" lengthAdjust="spacing" textLength="141.8525" x="622.96" y="133.882">main(String[]) : void</text></g><!--link TicTacToeGame to Player--><g class="link" data-entity-1="TicTacToeGame" data-entity-2="Player" data-source-line="52" data-uid="lnk10" id="link_TicTacToeGame_Player"><path codeLine="52" d="M273,174.0969 C254.7,193.0369 238.6976,209.5905 219.9376,229.0205" fill="none" id="TicTacToeGame-to-Player" style="stroke:#181818;stroke-width:1;"/><polygon fill="#181818" points="215.77,233.3369,224.899,229.6406,219.243,229.7399,219.1437,224.0839,215.77,233.3369" style="stroke:#181818;stroke-width:1;"/></g><!--link TicTacToeGame to Board--><g class="link" data-entity-1="TicTacToeGame" data-entity-2="Board" data-source-line="53" data-uid="lnk11" id="link_TicTacToeGame_Board"><path codeLine="53" d="M397.1,174.0969 C415.5,193.0369 431.5798,209.6027 450.4498,229.0327" fill="none" id="TicTacToeGame-to-Board" style="stroke:#181818;stroke-width:1;"/><polygon fill="#181818" points="454.63,233.3369,451.2292,224.0938,451.1465,229.75,445.4903,229.6673,454.63,233.3369" style="stroke:#181818;stroke-width:1;"/></g><!--reverse link Board to PlayingPiece--><g class="link" data-entity-1="Board" data-entity-2="PlayingPiece" data-source-line="54" data-uid="lnk12" id="link_Board_PlayingPiece"><path codeLine="54" d="M435.666,388.0506 C413.186,408.3106 398.49,421.5469 378.96,439.1469" fill="none" id="Board-backto-PlayingPiece" style="stroke:#181818;stroke-width:1;"/><polygon fill="#181818" points="444.58,380.0169,437.4451,381.0624,435.666,388.0506,442.8009,387.0051,444.58,380.0169" style="stroke:#181818;stroke-width:1;"/></g><!--link Player to PlayingPiece--><g class="link" data-entity-1="Player" data-entity-2="PlayingPiece" data-source-line="55" data-uid="lnk13" id="link_Player_PlayingPiece"><path codeLine="55" d="M225.76,380.0169 C248.13,400.2769 267.1631,417.5188 286.5931,435.1188" fill="none" id="Player-to-PlayingPiece" style="stroke:#181818;stroke-width:1;"/><polygon fill="#181818" points="291.04,439.1469,287.055,430.1402,287.3343,435.7902,281.6843,436.0694,291.04,439.1469" style="stroke:#181818;stroke-width:1;"/></g><!--reverse link PlayingPiece to PlayingPieceX--><g class="link" data-entity-1="PlayingPiece" data-entity-2="PlayingPieceX" data-source-line="56" data-uid="lnk14" id="link_PlayingPiece_PlayingPieceX"><path codeLine="56" d="M272.2189,531.9408 C246.0189,553.3008 228.11,567.8969 203.62,587.8669" fill="none" id="PlayingPiece-backto-PlayingPieceX" style="stroke:#181818;stroke-width:1;"/><polygon fill="none" points="286.17,520.5669,268.4276,527.2904,276.0102,536.5912,286.17,520.5669" style="stroke:#181818;stroke-width:1;"/></g><!--reverse link PlayingPiece to PlayingPieceO--><g class="link" data-entity-1="PlayingPiece" data-entity-2="PlayingPieceO" data-source-line="57" data-uid="lnk15" id="link_PlayingPiece_PlayingPieceO"><path codeLine="57" d="M334.88,538.5669 C334.88,560.0069 334.88,568.0969 334.88,588.0869" fill="none" id="PlayingPiece-backto-PlayingPieceO" style="stroke:#181818;stroke-width:1;"/><polygon fill="none" points="334.88,520.5669,328.88,538.5669,340.88,538.5669,334.88,520.5669" style="stroke:#181818;stroke-width:1;"/></g><!--link PlayingPiece to PieceType--><g class="link" data-entity-1="PlayingPiece" data-entity-2="PieceType" data-source-line="58" data-uid="lnk16" id="link_PlayingPiece_PieceType"><path codeLine="58" d="M379.3,520.5669 C400.05,539.1269 420.2379,557.1668 440.9879,575.7268" fill="none" id="PlayingPiece-to-PieceType" style="stroke:#181818;stroke-width:1;"/><polygon fill="#181818" points="445.46,579.7269,441.4186,570.7454,441.7333,576.3935,436.0852,576.7081,445.46,579.7269" style="stroke:#181818;stroke-width:1;"/></g><!--SRC=[XLFRReCm37tdA_mskfOVG1KFQxLfqhQYhT8gLNt8g4KjXS2IT5Dt-VVb0XHegpqWOllus3vED6cEiAGCbiny9K84CywKWZcnNB8Y239d6eX16C0TAn2-0u1eZkzxdAQS7L0cKBc_ie6Raiajv0ReJiOr9a6Q6ASlbn-E88QFabn8QIPrwttHaaJkKjHoXn9VIGYKeIm_On9w0bd9_Q4Yp71vg31EcvCbU2jBZam4lqtdla7VicS7OQfPquQCxVBT08rXw-UedqwxKhNNUxfp67oNp-Mb0qurm7IDbgljtEle6ZSJWpBg3RjURzORCtAjiai83NPaBRRT-YeNj8k7rHlf_32t4d66d2itoGCfFKqPoUczq9YZdDJ_9B7uogYXVVdJENeost76xSQEMtJkdZRjLiyphMgghYkyW5sSOXSUYs9VmB4T2rkPRt7aUMGaV7fXJlNYrvlkc5VmZ9nfAeNQKQM2_cE9egI-X6S2_eNuJLz7KV_6r5Ut8UZvMq6dFuEqrJ_nHJ_ks1i1_W00]--></g></svg>