<svg xmlns="http://www.w3.org/2000/svg" xmlns:xlink="http://www.w3.org/1999/xlink" contentStyleType="text/css" data-diagram-type="CLASS" height="1158px" preserveAspectRatio="none" style="width:1608px;height:1158px;background:#FFFFFF;" version="1.1" viewBox="0 0 1608 1158" width="1608px" zoomAndPan="magnify"><defs/><g><!--class INotification--><g class="entity" data-entity="INotification" data-source-line="2" data-uid="ent0002" id="entity_INotification"><rect fill="#F1F1F1" height="64.2969" rx="2.5" ry="2.5" style="stroke:#181818;stroke-width:0.5;" width="166.54" x="974.67" y="410.53"/><ellipse cx="1012.2069" cy="426.53" fill="#B4A7E5" rx="11" ry="11" style="stroke:#181818;stroke-width:1;"/><path d="M1008.1288,422.2956 L1008.1288,420.1394 L1015.5194,420.1394 L1015.5194,422.2956 L1013.0507,422.2956 L1013.0507,430.3738 L1015.5194,430.3738 L1015.5194,432.53 L1008.1288,432.53 L1008.1288,430.3738 L1010.5975,430.3738 L1010.5975,422.2956 L1008.1288,422.2956 Z " fill="#000000"/><text fill="#000000" font-family="sans-serif" font-size="14" font-style="italic" lengthAdjust="spacing" textLength="84.458" x="1031.2151" y="431.3767">INotification</text><line style="stroke:#181818;stroke-width:0.5;" x1="975.67" x2="1140.21" y1="442.53" y2="442.53"/><line style="stroke:#181818;stroke-width:0.5;" x1="975.67" x2="1140.21" y1="450.53" y2="450.53"/><ellipse cx="985.67" cy="464.1784" fill="#84BE84" rx="3" ry="3" style="stroke:#038048;stroke-width:1;"/><text fill="#000000" font-family="sans-serif" font-size="14" lengthAdjust="spacing" textLength="140.54" x="994.67" y="467.5251">getContent(): String</text></g><!--class SimpleNotification--><g class="entity" data-entity="SimpleNotification" data-source-line="6" data-uid="ent0003" id="entity_SimpleNotification"><rect fill="#F1F1F1" height="96.8906" rx="2.5" ry="2.5" style="stroke:#181818;stroke-width:0.5;" width="245.8232" x="657.02" y="583.72"/><ellipse cx="711.6152" cy="599.72" fill="#ADD1B2" rx="11" ry="11" style="stroke:#181818;stroke-width:1;"/><path d="M714.584,605.3606 Q714.0058,605.6575 713.3652,605.7981 Q712.7246,605.9544 712.0215,605.9544 Q709.5215,605.9544 708.1933,604.3138 Q706.8808,602.6575 706.8808,599.5325 Q706.8808,596.4075 708.1933,594.7513 Q709.5215,593.095 712.0215,593.095 Q712.7246,593.095 713.3652,593.2513 Q714.0215,593.4075 714.584,593.7044 L714.584,596.4231 Q713.959,595.845 713.3652,595.5794 Q712.7715,595.2981 712.1465,595.2981 Q710.8027,595.2981 710.1152,596.3763 Q709.4277,597.4388 709.4277,599.5325 Q709.4277,601.6263 710.1152,602.7044 Q710.8027,603.7669 712.1465,603.7669 Q712.7715,603.7669 713.3652,603.5013 Q713.959,603.22 714.584,602.6419 L714.584,605.3606 Z " fill="#000000"/><text fill="#000000" font-family="sans-serif" font-size="14" lengthAdjust="spacing" textLength="128.1328" x="732.1152" y="604.5667">SimpleNotification</text><line style="stroke:#181818;stroke-width:0.5;" x1="658.02" x2="901.8432" y1="615.72" y2="615.72"/><rect fill="none" height="6" style="stroke:#C82930;stroke-width:1;" width="6" x="665.02" y="626.3684"/><text fill="#000000" font-family="sans-serif" font-size="14" lengthAdjust="spacing" textLength="78.8252" x="677.02" y="632.7151">text: String</text><line style="stroke:#181818;stroke-width:0.5;" x1="658.02" x2="901.8432" y1="640.0169" y2="640.0169"/><ellipse cx="668.02" cy="653.6653" fill="#84BE84" rx="3" ry="3" style="stroke:#038048;stroke-width:1;"/><text fill="#000000" font-family="sans-serif" font-size="14" lengthAdjust="spacing" textLength="219.8232" x="677.02" y="657.012">SimpleNotification(msg: String)</text><ellipse cx="668.02" cy="669.9622" fill="#84BE84" rx="3" ry="3" style="stroke:#038048;stroke-width:1;"/><text fill="#000000" font-family="sans-serif" font-size="14" lengthAdjust="spacing" textLength="140.54" x="677.02" y="673.3089">getContent(): String</text></g><!--class INotificationDecorator--><g class="entity" data-entity="INotificationDecorator" data-source-line="12" data-uid="ent0004" id="entity_INotificationDecorator"><rect fill="#F1F1F1" height="80.5938" rx="2.5" ry="2.5" style="stroke:#181818;stroke-width:0.5;" width="293.6816" x="938.1" y="591.87"/><ellipse cx="1003.5609" cy="607.87" fill="#A9DCDF" rx="11" ry="11" style="stroke:#181818;stroke-width:1;"/><path d="M1003.6703,603.2138 L1002.5141,608.2919 L1004.8422,608.2919 L1003.6703,603.2138 Z M1002.1859,600.9794 L1005.1703,600.9794 L1008.5297,613.37 L1006.0766,613.37 L1005.3109,610.3075 L1002.0297,610.3075 L1001.2797,613.37 L998.8422,613.37 L1002.1859,600.9794 Z " fill="#000000"/><text fill="#000000" font-family="sans-serif" font-size="14" font-style="italic" lengthAdjust="spacing" textLength="154.2598" x="1024.0609" y="612.7167">INotificationDecorator</text><line style="stroke:#181818;stroke-width:0.5;" x1="939.1" x2="1230.7816" y1="623.87" y2="623.87"/><polygon fill="none" points="949.1,632.5184,953.1,636.5184,949.1,640.5184,945.1,636.5184" style="stroke:#B38D22;stroke-width:1;"/><text fill="#000000" font-family="sans-serif" font-size="14" lengthAdjust="spacing" textLength="172.3545" x="958.1" y="640.8651">notification: INotification</text><line style="stroke:#181818;stroke-width:0.5;" x1="939.1" x2="1230.7816" y1="648.1669" y2="648.1669"/><ellipse cx="949.1" cy="661.8153" fill="#84BE84" rx="3" ry="3" style="stroke:#038048;stroke-width:1;"/><text fill="#000000" font-family="sans-serif" font-size="14" lengthAdjust="spacing" textLength="267.6816" x="958.1" y="665.162">INotificationDecorator(n: INotification)</text></g><!--class TimestampDecorator--><g class="entity" data-entity="TimestampDecorator" data-source-line="17" data-uid="ent0005" id="entity_TimestampDecorator"><rect fill="#F1F1F1" height="80.5938" rx="2.5" ry="2.5" style="stroke:#181818;stroke-width:0.5;" width="287.8027" x="922.03" y="765.05"/><ellipse cx="987.4909" cy="781.05" fill="#ADD1B2" rx="11" ry="11" style="stroke:#181818;stroke-width:1;"/><path d="M990.4597,786.6906 Q989.8816,786.9875 989.2409,787.1281 Q988.6003,787.2844 987.8972,787.2844 Q985.3972,787.2844 984.0691,785.6438 Q982.7566,783.9875 982.7566,780.8625 Q982.7566,777.7375 984.0691,776.0813 Q985.3972,774.425 987.8972,774.425 Q988.6003,774.425 989.2409,774.5813 Q989.8972,774.7375 990.4597,775.0344 L990.4597,777.7531 Q989.8347,777.175 989.2409,776.9094 Q988.6472,776.6281 988.0222,776.6281 Q986.6784,776.6281 985.9909,777.7063 Q985.3034,778.7688 985.3034,780.8625 Q985.3034,782.9563 985.9909,784.0344 Q986.6784,785.0969 988.0222,785.0969 Q988.6472,785.0969 989.2409,784.8313 Q989.8347,784.55 990.4597,783.9719 L990.4597,786.6906 Z " fill="#000000"/><text fill="#000000" font-family="sans-serif" font-size="14" lengthAdjust="spacing" textLength="148.3809" x="1007.9909" y="785.8967">TimestampDecorator</text><line style="stroke:#181818;stroke-width:0.5;" x1="923.03" x2="1208.8327" y1="797.05" y2="797.05"/><line style="stroke:#181818;stroke-width:0.5;" x1="923.03" x2="1208.8327" y1="805.05" y2="805.05"/><ellipse cx="933.03" cy="818.6984" fill="#84BE84" rx="3" ry="3" style="stroke:#038048;stroke-width:1;"/><text fill="#000000" font-family="sans-serif" font-size="14" lengthAdjust="spacing" textLength="261.8027" x="942.03" y="822.0451">TimestampDecorator(n: INotification)</text><ellipse cx="933.03" cy="834.9953" fill="#84BE84" rx="3" ry="3" style="stroke:#038048;stroke-width:1;"/><text fill="#000000" font-family="sans-serif" font-size="14" lengthAdjust="spacing" textLength="140.54" x="942.03" y="838.342">getContent(): String</text></g><!--class SignatureDecorator--><g class="entity" data-entity="SignatureDecorator" data-source-line="22" data-uid="ent0006" id="entity_SignatureDecorator"><rect fill="#F1F1F1" height="96.8906" rx="2.5" ry="2.5" style="stroke:#181818;stroke-width:0.5;" width="356.9893" x="1244.44" y="756.91"/><ellipse cx="1349.8604" cy="772.91" fill="#ADD1B2" rx="11" ry="11" style="stroke:#181818;stroke-width:1;"/><path d="M1352.8292,778.5506 Q1352.251,778.8475 1351.6104,778.9881 Q1350.9698,779.1444 1350.2667,779.1444 Q1347.7667,779.1444 1346.4385,777.5038 Q1345.126,775.8475 1345.126,772.7225 Q1345.126,769.5975 1346.4385,767.9413 Q1347.7667,766.285 1350.2667,766.285 Q1350.9698,766.285 1351.6104,766.4413 Q1352.2667,766.5975 1352.8292,766.8944 L1352.8292,769.6131 Q1352.2042,769.035 1351.6104,768.7694 Q1351.0167,768.4881 1350.3917,768.4881 Q1349.0479,768.4881 1348.3604,769.5663 Q1347.6729,770.6288 1347.6729,772.7225 Q1347.6729,774.8163 1348.3604,775.8944 Q1349.0479,776.9569 1350.3917,776.9569 Q1351.0167,776.9569 1351.6104,776.6913 Q1352.2042,776.41 1352.8292,775.8319 L1352.8292,778.5506 Z " fill="#000000"/><text fill="#000000" font-family="sans-serif" font-size="14" lengthAdjust="spacing" textLength="137.6484" x="1370.3604" y="777.7567">SignatureDecorator</text><line style="stroke:#181818;stroke-width:0.5;" x1="1245.44" x2="1600.4293" y1="788.91" y2="788.91"/><rect fill="none" height="6" style="stroke:#C82930;stroke-width:1;" width="6" x="1252.44" y="799.5584"/><text fill="#000000" font-family="sans-serif" font-size="14" lengthAdjust="spacing" textLength="117.2021" x="1264.44" y="805.9051">signature: String</text><line style="stroke:#181818;stroke-width:0.5;" x1="1245.44" x2="1600.4293" y1="813.2069" y2="813.2069"/><ellipse cx="1255.44" cy="826.8553" fill="#84BE84" rx="3" ry="3" style="stroke:#038048;stroke-width:1;"/><text fill="#000000" font-family="sans-serif" font-size="14" lengthAdjust="spacing" textLength="330.9893" x="1264.44" y="830.202">SignatureDecorator(n: INotification, sig: String)</text><ellipse cx="1255.44" cy="843.1522" fill="#84BE84" rx="3" ry="3" style="stroke:#038048;stroke-width:1;"/><text fill="#000000" font-family="sans-serif" font-size="14" lengthAdjust="spacing" textLength="140.54" x="1264.44" y="846.4989">getContent(): String</text></g><!--class IObserver--><g class="entity" data-entity="IObserver" data-source-line="35" data-uid="ent0012" id="entity_IObserver"><rect fill="#F1F1F1" height="64.2969" rx="2.5" ry="2.5" style="stroke:#181818;stroke-width:0.5;" width="125.0459" x="425.41" y="600.01"/><ellipse cx="451.522" cy="616.01" fill="#B4A7E5" rx="11" ry="11" style="stroke:#181818;stroke-width:1;"/><path d="M447.4439,611.7756 L447.4439,609.6194 L454.8345,609.6194 L454.8345,611.7756 L452.3658,611.7756 L452.3658,619.8538 L454.8345,619.8538 L454.8345,622.01 L447.4439,622.01 L447.4439,619.8538 L449.9126,619.8538 L449.9126,611.7756 L447.4439,611.7756 Z " fill="#000000"/><text fill="#000000" font-family="sans-serif" font-size="14" font-style="italic" lengthAdjust="spacing" textLength="68.3525" x="467.9913" y="620.8567">IObserver</text><line style="stroke:#181818;stroke-width:0.5;" x1="426.41" x2="549.4559" y1="632.01" y2="632.01"/><line style="stroke:#181818;stroke-width:0.5;" x1="426.41" x2="549.4559" y1="640.01" y2="640.01"/><ellipse cx="436.41" cy="653.6584" fill="#84BE84" rx="3" ry="3" style="stroke:#038048;stroke-width:1;"/><text fill="#000000" font-family="sans-serif" font-size="14" lengthAdjust="spacing" textLength="99.0459" x="445.41" y="657.0051">update(): void</text></g><!--class Subject--><g class="entity" data-entity="Subject" data-source-line="39" data-uid="ent0013" id="entity_Subject"><rect fill="#F1F1F1" height="96.8906" rx="2.5" ry="2.5" style="stroke:#181818;stroke-width:0.5;" width="332.7012" x="375.59" y="168.02"/><ellipse cx="511.5226" cy="184.02" fill="#B4A7E5" rx="11" ry="11" style="stroke:#181818;stroke-width:1;"/><path d="M507.4445,179.7856 L507.4445,177.6294 L514.8351,177.6294 L514.8351,179.7856 L512.3664,179.7856 L512.3664,187.8637 L514.8351,187.8637 L514.8351,190.02 L507.4445,190.02 L507.4445,187.8637 L509.9132,187.8637 L509.9132,179.7856 L507.4445,179.7856 Z " fill="#000000"/><text fill="#000000" font-family="sans-serif" font-size="14" font-style="italic" lengthAdjust="spacing" textLength="52.3359" x="532.0226" y="188.8667">Subject</text><line style="stroke:#181818;stroke-width:0.5;" x1="376.59" x2="707.2912" y1="200.02" y2="200.02"/><line style="stroke:#181818;stroke-width:0.5;" x1="376.59" x2="707.2912" y1="208.02" y2="208.02"/><ellipse cx="386.59" cy="221.6684" fill="#84BE84" rx="3" ry="3" style="stroke:#038048;stroke-width:1;"/><text fill="#000000" font-family="sans-serif" font-size="14" lengthAdjust="spacing" textLength="279.583" x="395.59" y="225.0151">addObserver(observer: IObserver): void</text><ellipse cx="386.59" cy="237.9653" fill="#84BE84" rx="3" ry="3" style="stroke:#038048;stroke-width:1;"/><text fill="#000000" font-family="sans-serif" font-size="14" lengthAdjust="spacing" textLength="306.7012" x="395.59" y="241.312">removeObserver(observer: IObserver): void</text><ellipse cx="386.59" cy="254.2622" fill="#84BE84" rx="3" ry="3" style="stroke:#038048;stroke-width:1;"/><text fill="#000000" font-family="sans-serif" font-size="14" lengthAdjust="spacing" textLength="161.2666" x="395.59" y="257.6089">notifyObservers(): void</text></g><!--class NotificationObservable--><g class="entity" data-entity="NotificationObservable" data-source-line="45" data-uid="ent0014" id="entity_NotificationObservable"><rect fill="#F1F1F1" height="162.0781" rx="2.5" ry="2.5" style="stroke:#181818;stroke-width:0.5;" width="349.7979" x="367.04" y="361.64"/><ellipse cx="457.6128" cy="377.64" fill="#ADD1B2" rx="11" ry="11" style="stroke:#181818;stroke-width:1;"/><path d="M460.5815,383.2806 Q460.0034,383.5775 459.3628,383.7181 Q458.7221,383.8744 458.019,383.8744 Q455.519,383.8744 454.1909,382.2338 Q452.8784,380.5775 452.8784,377.4525 Q452.8784,374.3275 454.1909,372.6713 Q455.519,371.015 458.019,371.015 Q458.7221,371.015 459.3628,371.1713 Q460.019,371.3275 460.5815,371.6244 L460.5815,374.3431 Q459.9565,373.765 459.3628,373.4994 Q458.769,373.2181 458.144,373.2181 Q456.8003,373.2181 456.1128,374.2963 Q455.4253,375.3588 455.4253,377.4525 Q455.4253,379.5463 456.1128,380.6244 Q456.8003,381.6869 458.144,381.6869 Q458.769,381.6869 459.3628,381.4213 Q459.9565,381.14 460.5815,380.5619 L460.5815,383.2806 Z " fill="#000000"/><text fill="#000000" font-family="sans-serif" font-size="14" lengthAdjust="spacing" textLength="160.1523" x="478.1128" y="382.4867">NotificationObservable</text><line style="stroke:#181818;stroke-width:0.5;" x1="368.04" x2="715.8379" y1="393.64" y2="393.64"/><rect fill="none" height="6" style="stroke:#C82930;stroke-width:1;" width="6" x="375.04" y="404.2884"/><text fill="#000000" font-family="sans-serif" font-size="14" lengthAdjust="spacing" textLength="194.5166" x="387.04" y="410.6351">observers: List&lt;IObserver&gt;</text><rect fill="none" height="6" style="stroke:#C82930;stroke-width:1;" width="6" x="375.04" y="420.5853"/><text fill="#000000" font-family="sans-serif" font-size="14" lengthAdjust="spacing" textLength="225.0117" x="387.04" y="426.932">currentNotification: INotification</text><line style="stroke:#181818;stroke-width:0.5;" x1="368.04" x2="715.8379" y1="434.2338" y2="434.2338"/><ellipse cx="378.04" cy="447.8822" fill="#84BE84" rx="3" ry="3" style="stroke:#038048;stroke-width:1;"/><text fill="#000000" font-family="sans-serif" font-size="14" lengthAdjust="spacing" textLength="242.5596" x="387.04" y="451.2289">addObserver(obs: IObserver): void</text><ellipse cx="378.04" cy="464.1791" fill="#84BE84" rx="3" ry="3" style="stroke:#038048;stroke-width:1;"/><text fill="#000000" font-family="sans-serif" font-size="14" lengthAdjust="spacing" textLength="269.6777" x="387.04" y="467.5257">removeObserver(obs: IObserver): void</text><ellipse cx="378.04" cy="480.4759" fill="#84BE84" rx="3" ry="3" style="stroke:#038048;stroke-width:1;"/><text fill="#000000" font-family="sans-serif" font-size="14" lengthAdjust="spacing" textLength="161.2666" x="387.04" y="483.8226">notifyObservers(): void</text><ellipse cx="378.04" cy="496.7728" fill="#84BE84" rx="3" ry="3" style="stroke:#038048;stroke-width:1;"/><text fill="#000000" font-family="sans-serif" font-size="14" lengthAdjust="spacing" textLength="323.7979" x="387.04" y="500.1195">setNotification(notification: INotification): void</text><ellipse cx="378.04" cy="513.0697" fill="#84BE84" rx="3" ry="3" style="stroke:#038048;stroke-width:1;"/><text fill="#000000" font-family="sans-serif" font-size="14" lengthAdjust="spacing" textLength="220.8691" x="387.04" y="516.4164">getNotificationContent(): String</text></g><!--class Logger--><g class="entity" data-entity="Logger" data-source-line="55" data-uid="ent0015" id="entity_Logger"><rect fill="#F1F1F1" height="96.8906" rx="2.5" ry="2.5" style="stroke:#181818;stroke-width:0.5;" width="353.8721" x="7" y="756.91"/><ellipse cx="155.4321" cy="772.91" fill="#ADD1B2" rx="11" ry="11" style="stroke:#181818;stroke-width:1;"/><path d="M158.4009,778.5506 Q157.8228,778.8475 157.1821,778.9881 Q156.5415,779.1444 155.8384,779.1444 Q153.3384,779.1444 152.0103,777.5038 Q150.6978,775.8475 150.6978,772.7225 Q150.6978,769.5975 152.0103,767.9413 Q153.3384,766.285 155.8384,766.285 Q156.5415,766.285 157.1821,766.4413 Q157.8384,766.5975 158.4009,766.8944 L158.4009,769.6131 Q157.7759,769.035 157.1821,768.7694 Q156.5884,768.4881 155.9634,768.4881 Q154.6196,768.4881 153.9321,769.5663 Q153.2446,770.6288 153.2446,772.7225 Q153.2446,774.8163 153.9321,775.8944 Q154.6196,776.9569 155.9634,776.9569 Q156.5884,776.9569 157.1821,776.6913 Q157.7759,776.41 158.4009,775.8319 L158.4009,778.5506 Z " fill="#000000"/><text fill="#000000" font-family="sans-serif" font-size="14" lengthAdjust="spacing" textLength="48.5078" x="175.9321" y="777.7567">Logger</text><line style="stroke:#181818;stroke-width:0.5;" x1="8" x2="359.8721" y1="788.91" y2="788.91"/><rect fill="none" height="6" style="stroke:#C82930;stroke-width:1;" width="6" x="15" y="799.5584"/><text fill="#000000" font-family="sans-serif" font-size="14" lengthAdjust="spacing" textLength="327.8721" x="27" y="805.9051">notificationObservable: NotificationObservable</text><line style="stroke:#181818;stroke-width:0.5;" x1="8" x2="359.8721" y1="813.2069" y2="813.2069"/><ellipse cx="18" cy="826.8553" fill="#84BE84" rx="3" ry="3" style="stroke:#038048;stroke-width:1;"/><text fill="#000000" font-family="sans-serif" font-size="14" lengthAdjust="spacing" textLength="306.1201" x="27" y="830.202">Logger(observable: NotificationObservable)</text><ellipse cx="18" cy="843.1522" fill="#84BE84" rx="3" ry="3" style="stroke:#038048;stroke-width:1;"/><text fill="#000000" font-family="sans-serif" font-size="14" lengthAdjust="spacing" textLength="99.0459" x="27" y="846.4989">update(): void</text></g><!--class NotificationEngine--><g class="entity" data-entity="NotificationEngine" data-source-line="61" data-uid="ent0016" id="entity_NotificationEngine"><rect fill="#F1F1F1" height="129.4844" rx="2.5" ry="2.5" style="stroke:#181818;stroke-width:0.5;" width="454.3877" x="395.74" y="740.61"/><ellipse cx="554.5286" cy="756.61" fill="#ADD1B2" rx="11" ry="11" style="stroke:#181818;stroke-width:1;"/><path d="M557.4973,762.2506 Q556.9192,762.5475 556.2786,762.6881 Q555.6379,762.8444 554.9348,762.8444 Q552.4348,762.8444 551.1067,761.2037 Q549.7942,759.5475 549.7942,756.4225 Q549.7942,753.2975 551.1067,751.6412 Q552.4348,749.985 554.9348,749.985 Q555.6379,749.985 556.2786,750.1412 Q556.9348,750.2975 557.4973,750.5944 L557.4973,753.3131 Q556.8723,752.735 556.2786,752.4694 Q555.6848,752.1881 555.0598,752.1881 Q553.7161,752.1881 553.0286,753.2662 Q552.3411,754.3287 552.3411,756.4225 Q552.3411,758.5162 553.0286,759.5944 Q553.7161,760.6569 555.0598,760.6569 Q555.6848,760.6569 556.2786,760.3912 Q556.8723,760.11 557.4973,759.5319 L557.4973,762.2506 Z " fill="#000000"/><text fill="#000000" font-family="sans-serif" font-size="14" lengthAdjust="spacing" textLength="128.3105" x="575.0286" y="761.4567">NotificationEngine</text><line style="stroke:#181818;stroke-width:0.5;" x1="396.74" x2="849.1277" y1="772.61" y2="772.61"/><rect fill="none" height="6" style="stroke:#C82930;stroke-width:1;" width="6" x="403.74" y="783.2584"/><text fill="#000000" font-family="sans-serif" font-size="14" lengthAdjust="spacing" textLength="327.8721" x="415.74" y="789.6051">notificationObservable: NotificationObservable</text><rect fill="none" height="6" style="stroke:#C82930;stroke-width:1;" width="6" x="403.74" y="799.5553"/><text fill="#000000" font-family="sans-serif" font-size="14" lengthAdjust="spacing" textLength="351.7705" x="415.74" y="805.902">notificationStrategies: List&lt;INotificationStrategy&gt;</text><line style="stroke:#181818;stroke-width:0.5;" x1="396.74" x2="849.1277" y1="813.2037" y2="813.2037"/><ellipse cx="406.74" cy="826.8522" fill="#84BE84" rx="3" ry="3" style="stroke:#038048;stroke-width:1;"/><text fill="#000000" font-family="sans-serif" font-size="14" lengthAdjust="spacing" textLength="385.9229" x="415.74" y="830.1989">NotificationEngine(observable: NotificationObservable)</text><ellipse cx="406.74" cy="843.1491" fill="#84BE84" rx="3" ry="3" style="stroke:#038048;stroke-width:1;"/><text fill="#000000" font-family="sans-serif" font-size="14" lengthAdjust="spacing" textLength="428.3877" x="415.74" y="846.4957">addNotificationStrategy(strategy: INotificationStrategy): void</text><ellipse cx="406.74" cy="859.4459" fill="#84BE84" rx="3" ry="3" style="stroke:#038048;stroke-width:1;"/><text fill="#000000" font-family="sans-serif" font-size="14" lengthAdjust="spacing" textLength="99.0459" x="415.74" y="862.7926">update(): void</text></g><!--class INotificationStrategy--><g class="entity" data-entity="INotificationStrategy" data-source-line="77" data-uid="ent0023" id="entity_INotificationStrategy"><rect fill="#F1F1F1" height="64.2969" rx="2.5" ry="2.5" style="stroke:#181818;stroke-width:0.5;" width="294.2627" x="475.8" y="930.09"/><ellipse cx="546.4597" cy="946.09" fill="#B4A7E5" rx="11" ry="11" style="stroke:#181818;stroke-width:1;"/><path d="M542.3815,941.8556 L542.3815,939.6994 L549.7722,939.6994 L549.7722,941.8556 L547.3034,941.8556 L547.3034,949.9337 L549.7722,949.9337 L549.7722,952.09 L542.3815,952.09 L542.3815,949.9337 L544.8503,949.9337 L544.8503,941.8556 L542.3815,941.8556 Z " fill="#000000"/><text fill="#000000" font-family="sans-serif" font-size="14" font-style="italic" lengthAdjust="spacing" textLength="144.4434" x="566.9597" y="950.9367">INotificationStrategy</text><line style="stroke:#181818;stroke-width:0.5;" x1="476.8" x2="769.0627" y1="962.09" y2="962.09"/><line style="stroke:#181818;stroke-width:0.5;" x1="476.8" x2="769.0627" y1="970.09" y2="970.09"/><ellipse cx="486.8" cy="983.7384" fill="#84BE84" rx="3" ry="3" style="stroke:#038048;stroke-width:1;"/><text fill="#000000" font-family="sans-serif" font-size="14" lengthAdjust="spacing" textLength="268.2627" x="495.8" y="987.0851">sendNotification(content: String): void</text></g><!--class EmailStrategy--><g class="entity" data-entity="EmailStrategy" data-source-line="81" data-uid="ent0024" id="entity_EmailStrategy"><rect fill="#F1F1F1" height="96.8906" rx="2.5" ry="2.5" style="stroke:#181818;stroke-width:0.5;" width="294.2627" x="146.8" y="1054.39"/><ellipse cx="240.2678" cy="1070.39" fill="#ADD1B2" rx="11" ry="11" style="stroke:#181818;stroke-width:1;"/><path d="M243.2365,1076.0306 Q242.6584,1076.3275 242.0178,1076.4681 Q241.3771,1076.6244 240.674,1076.6244 Q238.174,1076.6244 236.8459,1074.9837 Q235.5334,1073.3275 235.5334,1070.2025 Q235.5334,1067.0775 236.8459,1065.4212 Q238.174,1063.765 240.674,1063.765 Q241.3771,1063.765 242.0178,1063.9212 Q242.674,1064.0775 243.2365,1064.3744 L243.2365,1067.0931 Q242.6115,1066.515 242.0178,1066.2494 Q241.424,1065.9681 240.799,1065.9681 Q239.4553,1065.9681 238.7678,1067.0462 Q238.0803,1068.1087 238.0803,1070.2025 Q238.0803,1072.2962 238.7678,1073.3744 Q239.4553,1074.4369 240.799,1074.4369 Q241.424,1074.4369 242.0178,1074.1712 Q242.6115,1073.89 243.2365,1073.3119 L243.2365,1076.0306 Z " fill="#000000"/><text fill="#000000" font-family="sans-serif" font-size="14" lengthAdjust="spacing" textLength="98.8271" x="260.7678" y="1075.2367">EmailStrategy</text><line style="stroke:#181818;stroke-width:0.5;" x1="147.8" x2="440.0627" y1="1086.39" y2="1086.39"/><rect fill="none" height="6" style="stroke:#C82930;stroke-width:1;" width="6" x="154.8" y="1097.0384"/><text fill="#000000" font-family="sans-serif" font-size="14" lengthAdjust="spacing" textLength="102.5732" x="166.8" y="1103.3851">emailId: String</text><line style="stroke:#181818;stroke-width:0.5;" x1="147.8" x2="440.0627" y1="1110.6869" y2="1110.6869"/><ellipse cx="157.8" cy="1124.3353" fill="#84BE84" rx="3" ry="3" style="stroke:#038048;stroke-width:1;"/><text fill="#000000" font-family="sans-serif" font-size="14" lengthAdjust="spacing" textLength="212.3242" x="166.8" y="1127.682">EmailStrategy(emailId: String)</text><ellipse cx="157.8" cy="1140.6322" fill="#84BE84" rx="3" ry="3" style="stroke:#038048;stroke-width:1;"/><text fill="#000000" font-family="sans-serif" font-size="14" lengthAdjust="spacing" textLength="268.2627" x="166.8" y="1143.9789">sendNotification(content: String): void</text></g><!--class SMSStrategy--><g class="entity" data-entity="SMSStrategy" data-source-line="87" data-uid="ent0025" id="entity_SMSStrategy"><rect fill="#F1F1F1" height="96.8906" rx="2.5" ry="2.5" style="stroke:#181818;stroke-width:0.5;" width="294.2627" x="475.8" y="1054.39"/><ellipse cx="573.7624" cy="1070.39" fill="#ADD1B2" rx="11" ry="11" style="stroke:#181818;stroke-width:1;"/><path d="M576.7312,1076.0306 Q576.153,1076.3275 575.5124,1076.4681 Q574.8718,1076.6244 574.1687,1076.6244 Q571.6687,1076.6244 570.3405,1074.9837 Q569.028,1073.3275 569.028,1070.2025 Q569.028,1067.0775 570.3405,1065.4212 Q571.6687,1063.765 574.1687,1063.765 Q574.8718,1063.765 575.5124,1063.9212 Q576.1687,1064.0775 576.7312,1064.3744 L576.7312,1067.0931 Q576.1062,1066.515 575.5124,1066.2494 Q574.9187,1065.9681 574.2937,1065.9681 Q572.9499,1065.9681 572.2624,1067.0462 Q571.5749,1068.1087 571.5749,1070.2025 Q571.5749,1072.2962 572.2624,1073.3744 Q572.9499,1074.4369 574.2937,1074.4369 Q574.9187,1074.4369 575.5124,1074.1712 Q576.1062,1073.89 576.7312,1073.3119 L576.7312,1076.0306 Z " fill="#000000"/><text fill="#000000" font-family="sans-serif" font-size="14" lengthAdjust="spacing" textLength="89.8379" x="594.2624" y="1075.2367">SMSStrategy</text><line style="stroke:#181818;stroke-width:0.5;" x1="476.8" x2="769.0627" y1="1086.39" y2="1086.39"/><rect fill="none" height="6" style="stroke:#C82930;stroke-width:1;" width="6" x="483.8" y="1097.0384"/><text fill="#000000" font-family="sans-serif" font-size="14" lengthAdjust="spacing" textLength="154.6699" x="495.8" y="1103.3851">mobileNumber: String</text><line style="stroke:#181818;stroke-width:0.5;" x1="476.8" x2="769.0627" y1="1110.6869" y2="1110.6869"/><ellipse cx="486.8" cy="1124.3353" fill="#84BE84" rx="3" ry="3" style="stroke:#038048;stroke-width:1;"/><text fill="#000000" font-family="sans-serif" font-size="14" lengthAdjust="spacing" textLength="255.4316" x="495.8" y="1127.682">SMSStrategy(mobileNumber: String)</text><ellipse cx="486.8" cy="1140.6322" fill="#84BE84" rx="3" ry="3" style="stroke:#038048;stroke-width:1;"/><text fill="#000000" font-family="sans-serif" font-size="14" lengthAdjust="spacing" textLength="268.2627" x="495.8" y="1143.9789">sendNotification(content: String): void</text></g><!--class PopUpStrategy--><g class="entity" data-entity="PopUpStrategy" data-source-line="93" data-uid="ent0026" id="entity_PopUpStrategy"><rect fill="#F1F1F1" height="64.2969" rx="2.5" ry="2.5" style="stroke:#181818;stroke-width:0.5;" width="294.2627" x="804.8" y="1070.69"/><ellipse cx="895.1745" cy="1086.69" fill="#ADD1B2" rx="11" ry="11" style="stroke:#181818;stroke-width:1;"/><path d="M898.1433,1092.3306 Q897.5651,1092.6275 896.9245,1092.7681 Q896.2839,1092.9244 895.5808,1092.9244 Q893.0808,1092.9244 891.7526,1091.2838 Q890.4401,1089.6275 890.4401,1086.5025 Q890.4401,1083.3775 891.7526,1081.7213 Q893.0808,1080.065 895.5808,1080.065 Q896.2839,1080.065 896.9245,1080.2213 Q897.5808,1080.3775 898.1433,1080.6744 L898.1433,1083.3931 Q897.5183,1082.815 896.9245,1082.5494 Q896.3308,1082.2681 895.7058,1082.2681 Q894.362,1082.2681 893.6745,1083.3463 Q892.987,1084.4088 892.987,1086.5025 Q892.987,1088.5963 893.6745,1089.6744 Q894.362,1090.7369 895.7058,1090.7369 Q896.3308,1090.7369 896.9245,1090.4713 Q897.5183,1090.19 898.1433,1089.6119 L898.1433,1092.3306 Z " fill="#000000"/><text fill="#000000" font-family="sans-serif" font-size="14" lengthAdjust="spacing" textLength="105.0137" x="915.6745" y="1091.5367">PopUpStrategy</text><line style="stroke:#181818;stroke-width:0.5;" x1="805.8" x2="1098.0627" y1="1102.69" y2="1102.69"/><line style="stroke:#181818;stroke-width:0.5;" x1="805.8" x2="1098.0627" y1="1110.69" y2="1110.69"/><ellipse cx="815.8" cy="1124.3384" fill="#84BE84" rx="3" ry="3" style="stroke:#038048;stroke-width:1;"/><text fill="#000000" font-family="sans-serif" font-size="14" lengthAdjust="spacing" textLength="268.2627" x="824.8" y="1127.6851">sendNotification(content: String): void</text></g><!--class NotificationService--><g class="entity" data-entity="NotificationService" data-source-line="103" data-uid="ent0031" id="entity_NotificationService"><rect fill="#F1F1F1" height="170.3438" rx="2.5" ry="2.5" style="stroke:#181818;stroke-width:0.5;" width="362.0684" x="849.9" y="131.3"/><ellipse cx="960.649" cy="151.4328" fill="#ADD1B2" rx="11" ry="11" style="stroke:#181818;stroke-width:1;"/><path d="M963.6178,157.0734 Q963.0396,157.3703 962.399,157.5109 Q961.7584,157.6672 961.0553,157.6672 Q958.5553,157.6672 957.2271,156.0266 Q955.9146,154.3703 955.9146,151.2453 Q955.9146,148.1203 957.2271,146.4641 Q958.5553,144.8078 961.0553,144.8078 Q961.7584,144.8078 962.399,144.9641 Q963.0553,145.1203 963.6178,145.4172 L963.6178,148.1359 Q962.9928,147.5578 962.399,147.2922 Q961.8053,147.0109 961.1803,147.0109 Q959.8365,147.0109 959.149,148.0891 Q958.4615,149.1516 958.4615,151.2453 Q958.4615,153.3391 959.149,154.4172 Q959.8365,155.4797 961.1803,155.4797 Q961.8053,155.4797 962.399,155.2141 Q962.9928,154.9328 963.6178,154.3547 L963.6178,157.0734 Z " fill="#000000"/><text fill="#000000" font-family="sans-serif" font-size="12" font-style="italic" lengthAdjust="spacing" textLength="71.2266" x="1011.5709" y="147.4387">&#171;Singleton&#187;</text><text fill="#000000" font-family="sans-serif" font-size="14" lengthAdjust="spacing" textLength="132.0703" x="981.149" y="163.2639">NotificationService</text><line style="stroke:#181818;stroke-width:0.5;" x1="850.9" x2="1210.9684" y1="171.5656" y2="171.5656"/><rect fill="none" height="6" style="stroke:#C82930;stroke-width:1;" width="6" x="857.9" y="182.2141"/><text fill="#000000" font-family="sans-serif" font-size="14" lengthAdjust="spacing" textLength="246.6885" x="869.9" y="188.5607">observable: NotificationObservable</text><rect fill="none" height="6" style="stroke:#C82930;stroke-width:1;" width="6" x="857.9" y="198.5109"/><text fill="#000000" font-family="sans-serif" font-size="14" lengthAdjust="spacing" text-decoration="underline" textLength="200.5459" x="869.9" y="204.8576">instance: NotificationService</text><rect fill="none" height="6" style="stroke:#C82930;stroke-width:1;" width="6" x="857.9" y="214.8078"/><text fill="#000000" font-family="sans-serif" font-size="14" lengthAdjust="spacing" textLength="227.582" x="869.9" y="221.1545">notifications: List&lt;INotification&gt;</text><line style="stroke:#181818;stroke-width:0.5;" x1="850.9" x2="1210.9684" y1="228.4562" y2="228.4562"/><rect fill="#F24D5C" height="6" style="stroke:#C82930;stroke-width:1;" width="6" x="857.9" y="239.1047"/><text fill="#000000" font-family="sans-serif" font-size="14" lengthAdjust="spacing" textLength="142.9941" x="869.9" y="245.4514">NotificationService()</text><ellipse cx="860.9" cy="258.4016" fill="#84BE84" rx="3" ry="3" style="stroke:#038048;stroke-width:1;"/><text fill="#000000" font-family="sans-serif" font-size="14" lengthAdjust="spacing" text-decoration="underline" textLength="234.6982" x="869.9" y="261.7482">getInstance(): NotificationService</text><ellipse cx="860.9" cy="274.6984" fill="#84BE84" rx="3" ry="3" style="stroke:#038048;stroke-width:1;"/><text fill="#000000" font-family="sans-serif" font-size="14" lengthAdjust="spacing" textLength="283.0557" x="869.9" y="278.0451">getObservable(): NotificationObservable</text><ellipse cx="860.9" cy="290.9953" fill="#84BE84" rx="3" ry="3" style="stroke:#038048;stroke-width:1;"/><text fill="#000000" font-family="sans-serif" font-size="14" lengthAdjust="spacing" textLength="336.0684" x="869.9" y="294.342">sendNotification(notification: INotification): void</text></g><!--class NotificationSystem--><g class="entity" data-entity="NotificationSystem" data-source-line="117" data-uid="ent0034" id="entity_NotificationSystem"><rect fill="#F1F1F1" height="64.2969" rx="2.5" ry="2.5" style="stroke:#181818;stroke-width:0.5;" width="203.085" x="929.39" y="7"/><ellipse cx="961.7374" cy="23" fill="#ADD1B2" rx="11" ry="11" style="stroke:#181818;stroke-width:1;"/><path d="M964.7062,28.6406 Q964.128,28.9375 963.4874,29.0781 Q962.8468,29.2344 962.1437,29.2344 Q959.6437,29.2344 958.3155,27.5938 Q957.003,25.9375 957.003,22.8125 Q957.003,19.6875 958.3155,18.0313 Q959.6437,16.375 962.1437,16.375 Q962.8468,16.375 963.4874,16.5313 Q964.1437,16.6875 964.7062,16.9844 L964.7062,19.7031 Q964.0812,19.125 963.4874,18.8594 Q962.8937,18.5781 962.2687,18.5781 Q960.9249,18.5781 960.2374,19.6563 Q959.5499,20.7188 959.5499,22.8125 Q959.5499,24.9063 960.2374,25.9844 Q960.9249,27.0469 962.2687,27.0469 Q962.8937,27.0469 963.4874,26.7813 Q964.0812,26.5 964.7062,25.9219 L964.7062,28.6406 Z " fill="#000000"/><text fill="#000000" font-family="sans-serif" font-size="14" lengthAdjust="spacing" textLength="132.5352" x="979.5924" y="27.8467">NotificationSystem</text><line style="stroke:#181818;stroke-width:0.5;" x1="930.39" x2="1131.475" y1="39" y2="39"/><line style="stroke:#181818;stroke-width:0.5;" x1="930.39" x2="1131.475" y1="47" y2="47"/><ellipse cx="940.39" cy="60.6484" fill="#84BE84" rx="3" ry="3" style="stroke:#038048;stroke-width:1;"/><text fill="#000000" font-family="sans-serif" font-size="14" lengthAdjust="spacing" text-decoration="underline" textLength="177.085" x="949.39" y="63.9951">main(args: String[]): void</text></g><!--reverse link INotification to SimpleNotification--><g class="link" data-entity-1="INotification" data-entity-2="SimpleNotification" data-source-line="28" data-uid="lnk7" id="link_INotification_SimpleNotification"><path codeLine="28" d="M996.1663,485.3339 C952.3763,514.8639 901.3,549.32 851.02,583.23" fill="none" id="INotification-backto-SimpleNotification" style="stroke:#181818;stroke-width:1;stroke-dasharray:7,7;"/><polygon fill="none" points="1011.09,475.27,992.8116,480.3593,999.5209,490.3085,1011.09,475.27" style="stroke:#181818;stroke-width:1;"/></g><!--reverse link INotification to INotificationDecorator--><g class="link" data-entity-1="INotification" data-entity-2="INotificationDecorator" data-source-line="29" data-uid="lnk8" id="link_INotification_INotificationDecorator"><path codeLine="29" d="M1053.201,493.0516 C1054.181,525.0516 1060.52,556.81 1068.59,591.52" fill="none" id="INotification-backto-INotificationDecorator" style="stroke:#181818;stroke-width:1;stroke-dasharray:7,7;"/><polygon fill="none" points="1052.65,475.06,1047.2038,493.2352,1059.1982,492.8679,1052.65,475.06" style="stroke:#181818;stroke-width:1;"/></g><!--link INotificationDecorator to INotification--><g class="link" data-entity-1="INotificationDecorator" data-entity-2="INotification" data-source-line="32" data-uid="lnk11" id="link_INotificationDecorator_INotification"><path codeLine="32" d="M1089.8858,579.5352 C1088.1358,544.8252 1082.8219,512.8612 1074.3719,480.8612" fill="none" id="INotificationDecorator-INotification" style="stroke:#181818;stroke-width:1;"/><polygon fill="none" points="1090.49,591.52,1094.1828,585.3262,1089.8858,579.5352,1086.193,585.729,1090.49,591.52" style="stroke:#181818;stroke-width:1;"/><polygon fill="#181818" points="1072.84,475.06,1071.2704,484.783,1074.1166,479.8943,1079.0052,482.7405,1072.84,475.06" style="stroke:#181818;stroke-width:1;"/></g><!--reverse link INotificationDecorator to TimestampDecorator--><g class="link" data-entity-1="INotificationDecorator" data-entity-2="TimestampDecorator" data-source-line="30" data-uid="lnk9" id="link_INotificationDecorator_TimestampDecorator"><path codeLine="30" d="M1078.5429,690.76 C1075.4829,718.31 1073.41,736.99 1070.35,764.57" fill="none" id="INotificationDecorator-backto-TimestampDecorator" style="stroke:#181818;stroke-width:1;"/><polygon fill="none" points="1080.53,672.87,1072.5796,690.0976,1084.5063,691.4223,1080.53,672.87" style="stroke:#181818;stroke-width:1;"/></g><!--reverse link INotificationDecorator to SignatureDecorator--><g class="link" data-entity-1="INotificationDecorator" data-entity-2="SignatureDecorator" data-source-line="31" data-uid="lnk10" id="link_INotificationDecorator_SignatureDecorator"><path codeLine="31" d="M1179.3877,681.0032 C1228.6277,705.9432 1276.38,730.13 1328.42,756.48" fill="none" id="INotificationDecorator-backto-SignatureDecorator" style="stroke:#181818;stroke-width:1;"/><polygon fill="none" points="1163.33,672.87,1176.6767,686.3558,1182.0988,675.6506,1163.33,672.87" style="stroke:#181818;stroke-width:1;"/></g><!--reverse link Subject to NotificationObservable--><g class="link" data-entity-1="Subject" data-entity-2="NotificationObservable" data-source-line="69" data-uid="lnk17" id="link_Subject_NotificationObservable"><path codeLine="69" d="M541.94,283.29 C541.94,311.2 541.94,329.14 541.94,361.28" fill="none" id="Subject-backto-NotificationObservable" style="stroke:#181818;stroke-width:1;stroke-dasharray:7,7;"/><polygon fill="none" points="541.94,265.29,535.94,283.29,547.94,283.29,541.94,265.29" style="stroke:#181818;stroke-width:1;"/></g><!--reverse link IObserver to Logger--><g class="link" data-entity-1="IObserver" data-entity-2="Logger" data-source-line="70" data-uid="lnk18" id="link_IObserver_Logger"><path codeLine="70" d="M416.1365,673.5933 C370.5065,699.2933 321.06,727.13 269.02,756.44" fill="none" id="IObserver-backto-Logger" style="stroke:#181818;stroke-width:1;stroke-dasharray:7,7;"/><polygon fill="none" points="431.82,664.76,413.1921,668.3655,419.081,678.8212,431.82,664.76" style="stroke:#181818;stroke-width:1;"/></g><!--reverse link IObserver to NotificationEngine--><g class="link" data-entity-1="IObserver" data-entity-2="NotificationEngine" data-source-line="71" data-uid="lnk19" id="link_IObserver_NotificationEngine"><path codeLine="71" d="M523.8456,678.6942 C540.5156,699.8342 551.95,714.33 572.33,740.18" fill="none" id="IObserver-backto-NotificationEngine" style="stroke:#181818;stroke-width:1;stroke-dasharray:7,7;"/><polygon fill="none" points="512.7,664.56,519.1342,682.4094,528.557,674.979,512.7,664.56" style="stroke:#181818;stroke-width:1;"/></g><!--link NotificationObservable to IObserver--><g class="link" data-entity-1="NotificationObservable" data-entity-2="IObserver" data-source-line="72" data-uid="lnk20" id="link_NotificationObservable_IObserver"><path codeLine="72" d="M515.479,535.5313 C507.749,562.3713 504.5711,573.4045 498.5811,594.1945" fill="none" id="NotificationObservable-IObserver" style="stroke:#181818;stroke-width:1;"/><polygon fill="none" points="518.8,524,513.2957,528.6586,515.479,535.5313,520.9832,530.8727,518.8,524" style="stroke:#181818;stroke-width:1;"/><polygon fill="#181818" points="496.92,599.96,503.2554,592.4192,498.3043,595.1554,495.5681,590.2044,496.92,599.96" style="stroke:#181818;stroke-width:1;"/></g><!--link Logger to NotificationObservable--><g class="link" data-entity-1="Logger" data-entity-2="NotificationObservable" data-source-line="73" data-uid="lnk21" id="link_Logger_NotificationObservable"><path codeLine="73" d="M231.47,756.46 C290.27,697.22 387.0232,599.7484 457.8132,528.4284" fill="none" id="Logger-to-NotificationObservable" style="stroke:#181818;stroke-width:1;"/><polygon fill="#181818" points="462.04,524.17,452.8609,527.7398,458.5177,527.7187,458.5388,533.3755,462.04,524.17" style="stroke:#181818;stroke-width:1;"/></g><!--link NotificationEngine to NotificationObservable--><g class="link" data-entity-1="NotificationEngine" data-entity-2="NotificationObservable" data-source-line="74" data-uid="lnk22" id="link_NotificationEngine_NotificationObservable"><path codeLine="74" d="M608.55,740.3 C595,679.97 575.9647,595.2142 561.3247,530.0242" fill="none" id="NotificationEngine-to-NotificationObservable" style="stroke:#181818;stroke-width:1;"/><polygon fill="#181818" points="560.01,524.17,558.0793,533.8278,561.1056,529.0485,565.8848,532.0748,560.01,524.17" style="stroke:#181818;stroke-width:1;"/></g><!--reverse link INotificationStrategy to EmailStrategy--><g class="link" data-entity-1="INotificationStrategy" data-entity-2="EmailStrategy" data-source-line="97" data-uid="lnk27" id="link_INotificationStrategy_EmailStrategy"><path codeLine="97" d="M531.2822,1001.849 C489.8422,1019.309 454.11,1034.36 407.75,1053.89" fill="none" id="INotificationStrategy-backto-EmailStrategy" style="stroke:#181818;stroke-width:1;stroke-dasharray:7,7;"/><polygon fill="none" points="547.87,994.86,528.9526,996.3197,533.6119,1007.3782,547.87,994.86" style="stroke:#181818;stroke-width:1;"/></g><!--reverse link INotificationStrategy to SMSStrategy--><g class="link" data-entity-1="INotificationStrategy" data-entity-2="SMSStrategy" data-source-line="98" data-uid="lnk28" id="link_INotificationStrategy_SMSStrategy"><path codeLine="98" d="M622.94,1012.69 C622.94,1030.18 622.94,1034.31 622.94,1053.91" fill="none" id="INotificationStrategy-backto-SMSStrategy" style="stroke:#181818;stroke-width:1;stroke-dasharray:7,7;"/><polygon fill="none" points="622.94,994.69,616.94,1012.69,628.94,1012.69,622.94,994.69" style="stroke:#181818;stroke-width:1;"/></g><!--reverse link INotificationStrategy to PopUpStrategy--><g class="link" data-entity-1="INotificationStrategy" data-entity-2="PopUpStrategy" data-source-line="99" data-uid="lnk29" id="link_INotificationStrategy_PopUpStrategy"><path codeLine="99" d="M714.5883,1001.8477 C768.1683,1024.4177 823.34,1047.66 876.91,1070.23" fill="none" id="INotificationStrategy-backto-PopUpStrategy" style="stroke:#181818;stroke-width:1;stroke-dasharray:7,7;"/><polygon fill="none" points="698,994.86,712.2591,1007.3771,716.9175,996.3182,698,994.86" style="stroke:#181818;stroke-width:1;"/></g><!--link NotificationEngine to INotificationStrategy--><g class="link" data-entity-1="NotificationEngine" data-entity-2="INotificationStrategy" data-source-line="100" data-uid="lnk30" id="link_NotificationEngine_INotificationStrategy"><path codeLine="100" d="M622.94,882.24 C622.94,902.74 622.94,906.55 622.94,923.68" fill="none" id="NotificationEngine-INotificationStrategy" style="stroke:#181818;stroke-width:1;"/><polygon fill="none" points="622.94,870.24,618.94,876.24,622.94,882.24,626.94,876.24,622.94,870.24" style="stroke:#181818;stroke-width:1;"/><polygon fill="#181818" points="622.94,929.68,626.94,920.68,622.94,924.68,618.94,920.68,622.94,929.68" style="stroke:#181818;stroke-width:1;"/></g><!--link NotificationService to NotificationObservable--><g class="link" data-entity-1="NotificationService" data-entity-2="NotificationObservable" data-source-line="113" data-uid="lnk32" id="link_NotificationService_NotificationObservable"><path codeLine="113" d="M849.55,300.64 C806.19,320.51 765.4542,339.1996 722.3942,358.9396" fill="none" id="NotificationService-to-NotificationObservable" style="stroke:#181818;stroke-width:1;"/><polygon fill="#181818" points="716.94,361.44,726.7882,361.3256,721.4852,359.3564,723.4544,354.0533,716.94,361.44" style="stroke:#181818;stroke-width:1;"/></g><!--link NotificationService to INotification--><g class="link" data-entity-1="NotificationService" data-entity-2="INotification" data-source-line="114" data-uid="lnk33" id="link_NotificationService_INotification"><path codeLine="114" d="M1041.11,301.91 C1045.66,339.77 1050.0424,376.1631 1053.4224,404.2231" fill="none" id="NotificationService-to-INotification" style="stroke:#181818;stroke-width:1;"/><polygon fill="#181818" points="1054.14,410.18,1057.035,400.7662,1053.542,405.2159,1049.0924,401.723,1054.14,410.18" style="stroke:#181818;stroke-width:1;"/></g><!--link NotificationSystem to NotificationService--><g class="link" data-entity-1="NotificationSystem" data-entity-2="NotificationService" data-source-line="121" data-uid="lnk35" id="link_NotificationSystem_NotificationService"><path codeLine="121" d="M1030.94,71.49 C1030.94,88.23 1030.94,103.73 1030.94,124.98" fill="none" id="NotificationSystem-to-NotificationService" style="stroke:#181818;stroke-width:1;stroke-dasharray:7,7;"/><polygon fill="#181818" points="1030.94,130.98,1034.94,121.98,1030.94,125.98,1026.94,121.98,1030.94,130.98" style="stroke:#181818;stroke-width:1;"/></g><!--SRC=[dLRBZjem5DtdAonrCK4qV012RAQpG9gX8wLTLLqumHEv8ZQo3IfYvjzx7ST9_4WcPKLad_iyn_VoWBwHaWkik42lM2aYM48P_BpXag3TdYlwHakiA6VebY2qh8Xwv01WAbsiKQu4PLNoaIJb4Kk9SbgVZYImoXJvgpeqU0bnQIqhYrXC1SA5L0AN2fc8JefzBJhg5pQuMhj87I5kclhGHL_U3reJgN1zSWCjm_E8bndDgnXMPq5Sxvcqvsu7VN0GyYi2orazTNdUlAzM4IPZg7WBan5IDkzP5kdX93oiSmpEisphaPmyeE-59E92ekhkxXeIpwS3LaGtviBfGRUbX-RduWy1pJL0V3XOovIt7-lUctK0I45gVY4pmOrQh_P23XCn-XYMPc2uE1AZ4UjQhj4pbMhJ1TZgs_8i192-dtuFNbrpI_g_Qk1A4YUJTEAP3gmgrshY7Jtpgcf9pLYqP-kHNkeunhhbQWgyY8icvEg9LPIHE_DnBA1IY5PHqj6y3s-lcl9bcC3Saa06CQ-fR3yyYkpzWAgmAVRzD4DZfDR-EJOemuD_6fQLZ3mBCmwiTTAAGX-En8zGDe66qM8h_snnThYRKJzp-fkMHidTeFQbz5HZUdHyP4GVxGx3VU2WKW-mk2jm_fAxOMjUKDW9vxhGCsomYtfW6iFS5_wLdtwUxkvTd856Gqwhfe23kgPWJg8n6OMRgKDh6K7YHw9WfLeTXICa1zbHqDLcqw6ts-7a_soAt63bAbf-8ChWYvKUkFNlpvlec6asIiGuRMZk0i6ythMnz2I8HzDJlK_Knxc3EI1_nju08SJQE7CA3E717uiNJ1bwr4p5-BfAHMeZsguZ83kMOb59AzTVlyVoDEQhrJRMjty0]--></g></svg>