<svg xmlns="http://www.w3.org/2000/svg" xmlns:xlink="http://www.w3.org/1999/xlink" contentStyleType="text/css" data-diagram-type="DESCRIPTION" height="935px" preserveAspectRatio="none" style="width:1524px;height:935px;background:#FDFDFD;" version="1.1" viewBox="0 0 1524 935" width="1524px" zoomAndPan="magnify"><defs/><g><rect fill="#FDFDFD" height="935" style="stroke:none;stroke-width:1;" width="1524" x="0" y="0"/><!--cluster Microservices Layer--><g class="cluster" data-entity="Microservices Layer" data-source-line="39" data-uid="ent0005" id="cluster_Microservices Layer"><path d="M309.7317,647.66 L467.8352,647.66 A3.75,3.75 0 0 1 470.3352,650.16 L477.3352,669.9569 L1282.7317,669.9569 A2.5,2.5 0 0 1 1285.2317,672.4569 L1285.2317,761.45 A2.5,2.5 0 0 1 1282.7317,763.95 L309.7317,763.95 A2.5,2.5 0 0 1 307.2317,761.45 L307.2317,650.16 A2.5,2.5 0 0 1 309.7317,647.66" fill="#FFF0F5" style="stroke:#000000;stroke-width:1.5;"/><line style="stroke:#000000;stroke-width:1.5;" x1="307.2317" x2="477.3352" y1="669.9569" y2="669.9569"/><text fill="#000000" font-family="sans-serif" font-size="14" font-weight="bold" lengthAdjust="spacing" textLength="157.1035" x="311.2317" y="662.6551">Microservices Layer</text></g><!--cluster Data Layer--><g class="cluster" data-entity="Data Layer" data-source-line="47" data-uid="ent0011" id="cluster_Data Layer"><path d="M254.7317,812.95 L341.7073,812.95 A3.75,3.75 0 0 1 344.2073,815.45 L351.2073,835.2469 L1505.7317,835.2469 A2.5,2.5 0 0 1 1508.2317,837.7469 L1508.2317,925.75 A2.5,2.5 0 0 1 1505.7317,928.25 L254.7317,928.25 A2.5,2.5 0 0 1 252.2317,925.75 L252.2317,815.45 A2.5,2.5 0 0 1 254.7317,812.95" fill="#F5F5DC" style="stroke:#000000;stroke-width:1.5;"/><line style="stroke:#000000;stroke-width:1.5;" x1="252.2317" x2="351.2073" y1="835.2469" y2="835.2469"/><text fill="#000000" font-family="sans-serif" font-size="14" font-weight="bold" lengthAdjust="spacing" textLength="85.9756" x="256.2317" y="827.9451">Data Layer</text></g><!--cluster Analytics & ML--><g class="cluster" data-entity="Analytics . ML" data-source-line="55" data-uid="ent0017" id="cluster_Analytics . ML"><path d="M1221.7317,255.77 L1339.8382,255.77 A3.75,3.75 0 0 1 1342.3382,258.27 L1349.3382,278.0669 L1514.7317,278.0669 A2.5,2.5 0 0 1 1517.2317,280.5669 L1517.2317,596.16 A2.5,2.5 0 0 1 1514.7317,598.66 L1221.7317,598.66 A2.5,2.5 0 0 1 1219.2317,596.16 L1219.2317,258.27 A2.5,2.5 0 0 1 1221.7317,255.77" fill="#FFFACD" style="stroke:#000000;stroke-width:1.5;"/><line style="stroke:#000000;stroke-width:1.5;" x1="1219.2317" x2="1349.3382" y1="278.0669" y2="278.0669"/><text fill="#000000" font-family="sans-serif" font-size="14" font-weight="bold" lengthAdjust="spacing" textLength="117.1064" x="1223.2317" y="270.7651">Analytics &amp; ML</text></g><!--entity US--><g class="entity" data-entity="US" data-source-line="40" data-uid="ent0006" id="entity_US"><rect fill="#FFCCCC" height="46.2969" rx="2.5" ry="2.5" style="stroke:#444444;stroke-width:0.5;" width="128.1016" x="323.1817" y="701.66"/><rect fill="#FFCCCC" height="10" style="stroke:#444444;stroke-width:0.5;" width="15" x="431.2833" y="706.66"/><rect fill="#FFCCCC" height="2" style="stroke:#444444;stroke-width:0.5;" width="4" x="429.2833" y="708.66"/><rect fill="#FFCCCC" height="2" style="stroke:#444444;stroke-width:0.5;" width="4" x="429.2833" y="712.66"/><text fill="#000000" font-family="sans-serif" font-size="14" lengthAdjust="spacing" textLength="88.1016" x="338.1817" y="734.6551">User Service</text></g><!--entity PS--><g class="entity" data-entity="PS" data-source-line="41" data-uid="ent0007" id="entity_PS"><rect fill="#FFB6C1" height="46.2969" rx="2.5" ry="2.5" style="stroke:#444444;stroke-width:0.5;" width="145.9502" x="665.2517" y="701.66"/><rect fill="#FFB6C1" height="10" style="stroke:#444444;stroke-width:0.5;" width="15" x="791.2019" y="706.66"/><rect fill="#FFB6C1" height="2" style="stroke:#444444;stroke-width:0.5;" width="4" x="789.2019" y="708.66"/><rect fill="#FFB6C1" height="2" style="stroke:#444444;stroke-width:0.5;" width="4" x="789.2019" y="712.66"/><text fill="#000000" font-family="sans-serif" font-size="14" lengthAdjust="spacing" textLength="105.9502" x="680.2517" y="734.6551">Playlist Service</text></g><!--entity SS--><g class="entity" data-entity="SS" data-source-line="42" data-uid="ent0008" id="entity_SS"><rect fill="#FFCC99" height="46.2969" rx="2.5" ry="2.5" style="stroke:#444444;stroke-width:0.5;" width="144.5967" x="485.9317" y="701.66"/><rect fill="#FFCC99" height="10" style="stroke:#444444;stroke-width:0.5;" width="15" x="610.5284" y="706.66"/><rect fill="#FFCC99" height="2" style="stroke:#444444;stroke-width:0.5;" width="4" x="608.5284" y="708.66"/><rect fill="#FFCC99" height="2" style="stroke:#444444;stroke-width:0.5;" width="4" x="608.5284" y="712.66"/><text fill="#000000" font-family="sans-serif" font-size="14" lengthAdjust="spacing" textLength="104.5967" x="500.9317" y="734.6551">Search Service</text></g><!--entity RS--><g class="entity" data-entity="RS" data-source-line="43" data-uid="ent0009" id="entity_RS"><rect fill="#F0E68C" height="46.2969" rx="2.5" ry="2.5" style="stroke:#444444;stroke-width:0.5;" width="219.8398" x="1049.3117" y="701.66"/><rect fill="#F0E68C" height="10" style="stroke:#444444;stroke-width:0.5;" width="15" x="1249.1516" y="706.66"/><rect fill="#F0E68C" height="2" style="stroke:#444444;stroke-width:0.5;" width="4" x="1247.1516" y="708.66"/><rect fill="#F0E68C" height="2" style="stroke:#444444;stroke-width:0.5;" width="4" x="1247.1516" y="712.66"/><text fill="#000000" font-family="sans-serif" font-size="14" lengthAdjust="spacing" textLength="179.8398" x="1064.3117" y="734.6551">Recommendation Service</text></g><!--entity STS--><g class="entity" data-entity="STS" data-source-line="44" data-uid="ent0010" id="entity_STS"><rect fill="#FFE4B5" height="46.2969" rx="2.5" ry="2.5" style="stroke:#444444;stroke-width:0.5;" width="168.8027" x="845.8217" y="701.66"/><rect fill="#FFE4B5" height="10" style="stroke:#444444;stroke-width:0.5;" width="15" x="994.6245" y="706.66"/><rect fill="#FFE4B5" height="2" style="stroke:#444444;stroke-width:0.5;" width="4" x="992.6245" y="708.66"/><rect fill="#FFE4B5" height="2" style="stroke:#444444;stroke-width:0.5;" width="4" x="992.6245" y="712.66"/><text fill="#000000" font-family="sans-serif" font-size="14" lengthAdjust="spacing" textLength="128.8027" x="860.8217" y="734.6551">Streaming Service</text></g><!--entity DB--><g class="entity" data-entity="DB" data-source-line="48" data-uid="ent0012" id="entity_DB"><path d="M475.2617,876.95 C475.2617,866.95 571.2236,866.95 571.2236,866.95 C571.2236,866.95 667.1855,866.95 667.1855,876.95 L667.1855,902.2469 C667.1855,912.2469 571.2236,912.2469 571.2236,912.2469 C571.2236,912.2469 475.2617,912.2469 475.2617,902.2469 L475.2617,876.95" fill="#B0E0E6" style="stroke:#007ACC;stroke-width:0.5;"/><path d="M475.2617,876.95 C475.2617,886.95 571.2236,886.95 571.2236,886.95 C571.2236,886.95 667.1855,886.95 667.1855,876.95" fill="none" style="stroke:#007ACC;stroke-width:0.5;"/><text fill="#000000" font-family="sans-serif" font-size="14" lengthAdjust="spacing" textLength="171.9238" x="485.2617" y="903.9451">User DB (SQL / Sharded)</text></g><!--entity MetaDB--><g class="entity" data-entity="MetaDB" data-source-line="49" data-uid="ent0013" id="entity_MetaDB"><path d="M982.9917,876.95 C982.9917,866.95 1113.2324,866.95 1113.2324,866.95 C1113.2324,866.95 1243.4732,866.95 1243.4732,876.95 L1243.4732,902.2469 C1243.4732,912.2469 1113.2324,912.2469 1113.2324,912.2469 C1113.2324,912.2469 982.9917,912.2469 982.9917,902.2469 L982.9917,876.95" fill="#AFEEEE" style="stroke:#007ACC;stroke-width:0.5;"/><path d="M982.9917,876.95 C982.9917,886.95 1113.2324,886.95 1113.2324,886.95 C1113.2324,886.95 1243.4732,886.95 1243.4732,876.95" fill="none" style="stroke:#007ACC;stroke-width:0.5;"/><text fill="#000000" font-family="sans-serif" font-size="14" lengthAdjust="spacing" textLength="240.4814" x="992.9917" y="903.9451">Metadata DB (NoSQL / Cassandra)</text></g><!--entity Cache--><g class="entity" data-entity="Cache" data-source-line="50" data-uid="ent0014" id="entity_Cache"><path d="M702.4817,876.95 C702.4817,866.95 825.2234,866.95 825.2234,866.95 C825.2234,866.95 947.9651,866.95 947.9651,876.95 L947.9651,902.2469 C947.9651,912.2469 825.2234,912.2469 825.2234,912.2469 C825.2234,912.2469 702.4817,912.2469 702.4817,902.2469 L702.4817,876.95" fill="#F0FFFF" style="stroke:#007ACC;stroke-width:0.5;"/><path d="M702.4817,876.95 C702.4817,886.95 825.2234,886.95 825.2234,886.95 C825.2234,886.95 947.9651,886.95 947.9651,876.95" fill="none" style="stroke:#007ACC;stroke-width:0.5;"/><text fill="#000000" font-family="sans-serif" font-size="14" lengthAdjust="spacing" textLength="225.4834" x="712.4817" y="903.9451">Cache Cluster (Redis/Aerospike)</text></g><!--entity Obj--><g class="entity" data-entity="Obj" data-source-line="51" data-uid="ent0015" id="entity_Obj"><path d="M1278.0117,876.95 C1278.0117,866.95 1385.2256,866.95 1385.2256,866.95 C1385.2256,866.95 1492.4395,866.95 1492.4395,876.95 L1492.4395,902.2469 C1492.4395,912.2469 1385.2256,912.2469 1385.2256,912.2469 C1385.2256,912.2469 1278.0117,912.2469 1278.0117,902.2469 L1278.0117,876.95" fill="#E0FFFF" style="stroke:#007ACC;stroke-width:0.5;"/><path d="M1278.0117,876.95 C1278.0117,886.95 1385.2256,886.95 1385.2256,886.95 C1385.2256,886.95 1492.4395,886.95 1492.4395,876.95" fill="none" style="stroke:#007ACC;stroke-width:0.5;"/><text fill="#000000" font-family="sans-serif" font-size="14" lengthAdjust="spacing" textLength="194.4277" x="1288.0117" y="903.9451">Object Storage (Audio / Art)</text></g><!--entity ES--><g class="entity" data-entity="ES" data-source-line="52" data-uid="ent0016" id="entity_ES"><path d="M267.8817,876.95 C267.8817,866.95 354.2323,866.95 354.2323,866.95 C354.2323,866.95 440.5829,866.95 440.5829,876.95 L440.5829,902.2469 C440.5829,912.2469 354.2323,912.2469 354.2323,912.2469 C354.2323,912.2469 267.8817,912.2469 267.8817,902.2469 L267.8817,876.95" fill="#D1EEEE" style="stroke:#007ACC;stroke-width:0.5;"/><path d="M267.8817,876.95 C267.8817,886.95 354.2323,886.95 354.2323,886.95 C354.2323,886.95 440.5829,886.95 440.5829,876.95" fill="none" style="stroke:#007ACC;stroke-width:0.5;"/><text fill="#000000" font-family="sans-serif" font-size="14" lengthAdjust="spacing" textLength="152.7012" x="277.8817" y="903.9451">Search Index (Elastic)</text></g><!--entity EQ--><g class="entity" data-entity="EQ" data-source-line="56" data-uid="ent0018" id="entity_EQ"><path d="M1265.5817,309.77 L1420.8796,309.77 C1425.8796,309.77 1425.8796,322.9184 1425.8796,322.9184 C1425.8796,322.9184 1425.8796,336.0669 1420.8796,336.0669 L1265.5817,336.0669 C1260.5817,336.0669 1260.5817,322.9184 1260.5817,322.9184 C1260.5817,322.9184 1260.5817,309.77 1265.5817,309.77" fill="#FFF0AA" style="stroke:#CC9900;stroke-width:0.5;"/><path d="M1420.8796,309.77 C1415.8796,309.77 1415.8796,322.9184 1415.8796,322.9184 C1415.8796,336.0669 1420.8796,336.0669 1420.8796,336.0669" fill="none" style="stroke:#CC9900;stroke-width:0.5;"/><text fill="#000000" font-family="sans-serif" font-size="14" lengthAdjust="spacing" textLength="145.2979" x="1265.5817" y="327.7651">Event Queue (Kafka)</text></g><!--entity SP--><g class="entity" data-entity="SP" data-source-line="57" data-uid="ent0019" id="entity_SP"><rect fill="#FFEE99" height="46.2969" rx="2.5" ry="2.5" style="stroke:#444444;stroke-width:0.5;" width="263.8428" x="1237.3017" y="413.06"/><rect fill="#FFEE99" height="10" style="stroke:#444444;stroke-width:0.5;" width="15" x="1481.1445" y="418.06"/><rect fill="#FFEE99" height="2" style="stroke:#444444;stroke-width:0.5;" width="4" x="1479.1445" y="420.06"/><rect fill="#FFEE99" height="2" style="stroke:#444444;stroke-width:0.5;" width="4" x="1479.1445" y="424.06"/><text fill="#000000" font-family="sans-serif" font-size="14" lengthAdjust="spacing" textLength="223.8428" x="1252.3017" y="446.0551">Stream Processing (Flink/Spark)</text></g><!--entity ML--><g class="entity" data-entity="ML" data-source-line="58" data-uid="ent0020" id="entity_ML"><rect fill="#FFD700" height="46.2969" rx="2.5" ry="2.5" style="stroke:#444444;stroke-width:0.5;" width="265.7432" x="1235.3517" y="536.36"/><rect fill="#FFD700" height="10" style="stroke:#444444;stroke-width:0.5;" width="15" x="1481.0949" y="541.36"/><rect fill="#FFD700" height="2" style="stroke:#444444;stroke-width:0.5;" width="4" x="1479.0949" y="543.36"/><rect fill="#FFD700" height="2" style="stroke:#444444;stroke-width:0.5;" width="4" x="1479.0949" y="547.36"/><text fill="#000000" font-family="sans-serif" font-size="14" lengthAdjust="spacing" textLength="225.7432" x="1250.3517" y="569.3551">ML Pipeline (Recommendations)</text></g><!--entity Client--><g class="entity" data-entity="Client" data-source-line="34" data-uid="ent0002" id="entity_Client"><ellipse cx="601.2321" cy="14" fill="#87CEFA" rx="8" ry="8" style="stroke:#444444;stroke-width:0.5;"/><path d="M601.2321,22 L601.2321,49 M588.2321,30 L614.2321,30 M601.2321,49 L588.2321,64 M601.2321,49 L614.2321,64" fill="none" style="stroke:#444444;stroke-width:0.5;"/><text fill="#000000" font-family="sans-serif" font-size="14" lengthAdjust="spacing" textLength="200.3408" x="501.0617" y="78.4951">Client (Mobile/Web/Desktop)</text></g><!--entity CDN--><g class="entity" data-entity="CDN" data-source-line="36" data-uid="ent0003" id="entity_CDN"><path d="M20.5577,877.1254 C23.7504,868.0254 29.2547,867.6312 35.5544,874.1403 C39.9658,865.6814 45.5798,867.5149 50.6786,873.4164 C54.7679,867.8654 61.1467,867.5029 64.6836,874.0555 C67.9956,866.1801 75.4324,865.4599 79.6168,873.2225 C84.4923,866.7641 88.7025,867.8536 92.8877,873.9521 C96.2419,865.0713 102.5761,864.3804 108.0672,871.9844 C111.3548,863.6487 118.9017,862.4867 123.6146,870.6406 C128.8463,864.7903 135.8281,866.2897 138.5441,873.5134 C141.6544,867.3322 147.8921,866.5087 152.1452,872.2047 C156.8319,863.9139 164.1898,863.624 168.6202,872.4514 C174.2966,866.997 178.8284,868.0994 181.9442,875.1745 C186.2966,868.0124 190.7459,866.7405 196.4669,873.7743 C201.3477,868.183 207.5358,869.3861 210.7762,875.7394 C214.883,868.5378 222.5338,866.8992 227.497,874.7907 C236.6084,875.3578 242.2563,882.6969 236.9119,891.439 C240.2298,901.6877 235.8998,905.8379 225.869,905.8763 C222.5858,912.8431 216.7732,913.4139 212.2201,907.1904 C208.1375,915.0647 202.0603,913.4121 197.6375,907.5517 C193.5554,916.0496 186.2574,915.3523 181.7127,908.017 C178.3769,914.4675 172.6606,917.0649 167.4054,910.0575 C164.6685,916.7697 157.8008,916.8971 153.7052,911.6086 C148.8827,918.4943 142.1562,918.6444 138.2565,910.6506 C134.4574,918.3542 128.035,918.789 123.1423,911.7735 C119.5711,917.1951 113.7149,918.0086 110.2661,911.6399 C106.1919,919.9983 98.6874,918.5547 94.6135,911.6397 C89.1512,918.2976 82.607,915.2157 80.2253,908.3598 C76.3927,914.2806 69.5136,914.426 66.1461,907.8364 C61.535,914.262 54.4524,915.1702 50.9716,906.686 C47.1473,913.9703 40.2002,913.7793 35.7896,907.3343 C31.7348,913.3264 24.8777,912.6617 21.3813,906.6633 C10.6529,906.9152 7.1184,901.519 10.4773,891.5841 C6,881.6863 10.6192,876.9728 20.5577,877.1254" fill="#98FB98" style="stroke:#228B22;stroke-width:0.5;"/><text fill="#000000" font-family="sans-serif" font-size="14" lengthAdjust="spacing" textLength="191.8916" x="26.2817" y="894.4451">Global CDN / Edge Network</text></g><!--entity API--><g class="entity" data-entity="API" data-source-line="37" data-uid="ent0004" id="entity_API"><rect fill="#FFD580" height="33.9688" rx="2.5" ry="2.5" style="stroke:#444444;stroke-width:0.5;" width="198.4004" x="650.0317" y="158.8"/><text fill="#000000" font-family="sans-serif" font-size="12" lengthAdjust="spacing" textLength="178.4004" x="660.0317" y="179.9387">API Gateway &amp; Load Balancer</text></g><!--link Client to CDN--><g class="link" data-entity-1="Client" data-entity-2="CDN" data-source-line="61" data-uid="lnk21" id="link_Client_CDN"><path d="M500.7017,51.13 C357.8517,63.14 113.2317,95.32 113.2317,174.78 C113.2317,174.78 113.2317,174.78 113.2317,725.8 C113.2317,775.91 117.0275,828.5712 119.6775,859.9912" fill="none" id="Client-to-CDN" style="stroke:#181818;stroke-width:1;"/><polygon fill="#181818" points="120.1817,865.97,123.4112,856.6657,119.7615,860.9877,115.4395,857.338,120.1817,865.97" style="stroke:#181818;stroke-width:1;"/><text fill="#000000" font-family="sans-serif" font-size="13" lengthAdjust="spacing" textLength="202.7251" x="114.2317" y="440.7769">Audio Chunk Requests (HTTPS)</text></g><!--link Client to API--><g class="link" data-entity-1="Client" data-entity-2="API" data-source-line="62" data-uid="lnk22" id="link_Client_API"><path d="M673.0817,82.27 C686.2617,90.95 699.2917,100.89 710.2317,111.8 C723.8817,125.42 732.2547,139.3303 739.0547,152.9703" fill="none" id="Client-to-API" style="stroke:#181818;stroke-width:1;"/><polygon fill="#181818" points="741.7317,158.34,741.2961,148.5008,739.5009,153.8652,734.1364,152.0701,741.7317,158.34" style="stroke:#181818;stroke-width:1;"/><text fill="#000000" font-family="sans-serif" font-size="13" lengthAdjust="spacing" textLength="164.5947" x="724.2317" y="124.8669">Metadata / Control / Auth</text></g><!--link Client to API--><g class="link" data-entity-1="Client" data-entity-2="API" data-source-line="77" data-uid="lnk35" id="link_Client_API"><path d="M587.7517,82.08 C584.5217,97.89 584.4017,115.64 594.2317,128.8 C607.7417,146.9 622.3708,156.33 643.9108,163.27" fill="none" id="Client-to-API-1" style="stroke:#181818;stroke-width:1;"/><polygon fill="#181818" points="649.6217,165.11,642.282,158.5427,644.8626,163.5767,639.8287,166.1573,649.6217,165.11" style="stroke:#181818;stroke-width:1;"/><text fill="#000000" font-family="sans-serif" font-size="13" lengthAdjust="spacing" textLength="106.1519" x="595.2317" y="124.8669">Playback Events</text></g><!--link API to US--><g class="link" data-entity-1="API" data-entity-2="US" data-source-line="63" data-uid="lnk23" id="link_API_US"><path d="M664.3517,193.18 C557.3617,216.34 387.2317,262.5 387.2317,321.91 C387.2317,321.91 387.2317,321.91 387.2317,560.51 C387.2317,610.83 387.2317,663.87 387.2317,695.35" fill="none" id="API-to-US" style="stroke:#181818;stroke-width:1;"/><polygon fill="#181818" points="387.2317,701.35,391.2317,692.35,387.2317,696.35,383.2317,692.35,387.2317,701.35" style="stroke:#181818;stroke-width:1;"/><text fill="#000000" font-family="sans-serif" font-size="13" lengthAdjust="spacing" textLength="119.1963" x="388.2317" y="440.7769">Auth &amp; Profile Ops</text></g><!--link API to PS--><g class="link" data-entity-1="API" data-entity-2="PS" data-source-line="64" data-uid="lnk24" id="link_API_PS"><path d="M749.2317,192.89 C749.2317,219.67 749.2317,275.05 749.2317,321.91 C749.2317,321.91 749.2317,321.91 749.2317,560.51 C749.2317,610.94 744.5587,663.9718 741.3087,695.4118" fill="none" id="API-to-PS" style="stroke:#181818;stroke-width:1;"/><polygon fill="#181818" points="740.6917,701.38,745.5959,692.839,741.2058,696.4065,737.6383,692.0164,740.6917,701.38" style="stroke:#181818;stroke-width:1;"/><text fill="#000000" font-family="sans-serif" font-size="13" lengthAdjust="spacing" textLength="75.5942" x="750.2317" y="440.7769">Playlist Ops</text></g><!--link API to SS--><g class="link" data-entity-1="API" data-entity-2="SS" data-source-line="65" data-uid="lnk25" id="link_API_SS"><path d="M702.5017,193.25 C651.8717,214.44 578.2317,256.5 578.2317,321.91 C578.2317,321.91 578.2317,321.91 578.2317,560.51 C578.2317,611.06 569.769,663.8731 563.869,695.2931" fill="none" id="API-to-SS" style="stroke:#181818;stroke-width:1;"/><polygon fill="#181818" points="562.7617,701.19,568.354,693.0828,563.6845,696.2759,560.4914,691.6064,562.7617,701.19" style="stroke:#181818;stroke-width:1;"/><text fill="#000000" font-family="sans-serif" font-size="13" lengthAdjust="spacing" textLength="99.2773" x="579.2317" y="440.7769">Search Queries</text></g><!--link API to RS--><g class="link" data-entity-1="API" data-entity-2="RS" data-source-line="66" data-uid="lnk26" id="link_API_RS"><path d="M848.6817,179.98 C945.8517,189.05 1079.2317,220.05 1079.2317,321.91 C1079.2317,321.91 1079.2317,321.91 1079.2317,560.51 C1079.2317,615.44 1112.4673,666.428 1136.1473,696.468" fill="none" id="API-to-RS" style="stroke:#181818;stroke-width:1;"/><polygon fill="#181818" points="1139.8617,701.18,1137.4315,691.6357,1136.7664,697.2533,1131.1488,696.5882,1139.8617,701.18" style="stroke:#181818;stroke-width:1;"/><text fill="#000000" font-family="sans-serif" font-size="13" lengthAdjust="spacing" textLength="121.5894" x="1080.2317" y="440.7769">Recommendations</text></g><!--link API to STS--><g class="link" data-entity-1="API" data-entity-2="STS" data-source-line="67" data-uid="lnk27" id="link_API_STS"><path d="M785.5617,193.09 C829.0917,215.4 896.2317,259.87 896.2317,321.91 C896.2317,321.91 896.2317,321.91 896.2317,560.51 C896.2317,611.76 910.6444,664.4982 920.6744,695.6782" fill="none" id="API-to-STS" style="stroke:#181818;stroke-width:1;"/><polygon fill="#181818" points="922.5117,701.39,923.5635,691.5975,920.9806,696.6302,915.9478,694.0473,922.5117,701.39" style="stroke:#181818;stroke-width:1;"/><text fill="#000000" font-family="sans-serif" font-size="13" lengthAdjust="spacing" textLength="111.7378" x="897.2317" y="440.7769">Playback Session</text></g><!--link US to DB--><g class="link" data-entity-1="US" data-entity-2="DB" data-source-line="69" data-uid="lnk28" id="link_US_DB"><path d="M412.8117,748.44 C448.1617,779.72 507.0383,831.8039 541.9583,862.7039" fill="none" id="US-to-DB" style="stroke:#181818;stroke-width:1;"/><polygon fill="#181818" points="546.4517,866.68,542.3624,857.7202,542.7072,863.3666,537.0609,863.7114,546.4517,866.68" style="stroke:#181818;stroke-width:1;"/></g><!--link PS to DB--><g class="link" data-entity-1="PS" data-entity-2="DB" data-source-line="70" data-uid="lnk29" id="link_PS_DB"><path d="M715.0117,748.44 C682.9217,779.72 629.7076,831.5912 598.0176,862.4912" fill="none" id="PS-to-DB" style="stroke:#181818;stroke-width:1;"/><polygon fill="#181818" points="593.7217,866.68,602.958,863.2608,597.3016,863.1894,597.373,857.533,593.7217,866.68" style="stroke:#181818;stroke-width:1;"/></g><!--link SS to MetaDB--><g class="link" data-entity-1="SS" data-entity-2="MetaDB" data-source-line="71" data-uid="lnk30" id="link_SS_MetaDB"><path d="M593.5817,748.37 C609.6217,757.42 629.2217,766.88 648.2317,771.95 C684.3417,781.59 779.0617,775.96 816.2317,779.95 C882.9917,787.12 901.9317,782.54 965.2317,804.95 C1008.0717,820.13 1047.9368,843.9858 1076.8768,863.2458" fill="none" id="SS-to-MetaDB" style="stroke:#181818;stroke-width:1;"/><polygon fill="#181818" points="1081.8717,866.57,1076.5954,858.2537,1077.7093,863.7998,1072.1631,864.9136,1081.8717,866.57" style="stroke:#181818;stroke-width:1;"/></g><!--link RS to MetaDB--><g class="link" data-entity-1="RS" data-entity-2="MetaDB" data-source-line="72" data-uid="lnk31" id="link_RS_MetaDB"><path d="M1152.8317,748.44 C1143.9917,779.72 1129.783,830.006 1121.053,860.906" fill="none" id="RS-to-MetaDB" style="stroke:#181818;stroke-width:1;"/><polygon fill="#181818" points="1119.4217,866.68,1125.718,859.1066,1120.7811,861.8683,1118.0193,856.9315,1119.4217,866.68" style="stroke:#181818;stroke-width:1;"/></g><!--link STS to Cache--><g class="link" data-entity-1="STS" data-entity-2="Cache" data-source-line="73" data-uid="lnk32" id="link_STS_Cache"><path d="M915.6317,748.44 C895.4517,779.72 862.5427,830.7371 842.6227,861.6371" fill="none" id="STS-to-Cache" style="stroke:#181818;stroke-width:1;"/><polygon fill="#181818" points="839.3717,866.68,847.6101,861.2829,842.0809,862.4776,840.8862,856.9483,839.3717,866.68" style="stroke:#181818;stroke-width:1;"/></g><!--link STS to Obj--><g class="link" data-entity-1="STS" data-entity-2="Obj" data-source-line="74" data-uid="lnk33" id="link_STS_Obj"><path d="M972.8817,748.35 C990.7717,756.94 1012.0817,766.07 1032.2317,771.95 C1130.9417,800.77 1165.2917,767.93 1261.2317,804.95 C1298.7817,819.44 1331.675,843.242 1355.455,862.772" fill="none" id="STS-to-Obj" style="stroke:#181818;stroke-width:1;"/><polygon fill="#181818" points="1360.0917,866.58,1355.6754,857.7768,1356.2278,863.4066,1350.598,863.9591,1360.0917,866.58" style="stroke:#181818;stroke-width:1;"/></g><!--link SS to ES--><g class="link" data-entity-1="SS" data-entity-2="ES" data-source-line="75" data-uid="lnk34" id="link_SS_ES"><path d="M529.7317,748.26 C509.7017,764.07 482.2817,785.76 458.2317,804.95 C432.1417,825.76 407.1717,845.8628 386.2217,862.7628" fill="none" id="SS-to-ES" style="stroke:#181818;stroke-width:1;"/><polygon fill="#181818" points="381.5517,866.53,391.0681,863.9925,385.4433,863.3907,386.0452,857.7659,381.5517,866.53" style="stroke:#181818;stroke-width:1;"/></g><!--link API to EQ--><g class="link" data-entity-1="API" data-entity-2="EQ" data-source-line="78" data-uid="lnk36" id="link_API_EQ"><path d="M848.8217,182.53 C920.9717,188.4 1020.3517,200.04 1105.2317,222.77 C1186.7317,244.59 1271.9036,285.3102 1313.9636,306.7002" fill="none" id="API-to-EQ" style="stroke:#181818;stroke-width:1;"/><polygon fill="#181818" points="1319.3117,309.42,1313.1028,301.7748,1314.8549,307.1535,1309.4763,308.9057,1319.3117,309.42" style="stroke:#181818;stroke-width:1;"/><text fill="#000000" font-family="sans-serif" font-size="13" lengthAdjust="spacing" textLength="80.8882" x="1159.2317" y="235.8369">Send Events</text></g><!--link EQ to SP--><g class="link" data-entity-1="EQ" data-entity-2="SP" data-source-line="79" data-uid="lnk37" id="link_EQ_SP"><path d="M1346.1117,336.25 C1350.4217,354.7 1357.245,383.9377 1362.635,406.9777" fill="none" id="EQ-to-SP" style="stroke:#181818;stroke-width:1;"/><polygon fill="#181818" points="1364.0017,412.82,1365.8464,403.1454,1362.8628,407.9514,1358.0568,404.9678,1364.0017,412.82" style="stroke:#181818;stroke-width:1;"/><text fill="#000000" font-family="sans-serif" font-size="13" lengthAdjust="spacing" textLength="121.3862" x="1357.2317" y="379.1269">Stream Processing</text></g><!--link SP to ML--><g class="link" data-entity-1="SP" data-entity-2="ML" data-source-line="80" data-uid="lnk38" id="link_SP_ML"><path d="M1369.0417,459.74 C1368.8617,481.53 1368.6414,508.3502 1368.4614,530.1002" fill="none" id="SP-to-ML" style="stroke:#181818;stroke-width:1;"/><polygon fill="#181818" points="1368.4117,536.1,1372.4861,527.1334,1368.4531,531.1002,1364.4863,527.0672,1368.4117,536.1" style="stroke:#181818;stroke-width:1;"/><text fill="#000000" font-family="sans-serif" font-size="13" lengthAdjust="spacing" textLength="96.3701" x="1369.2317" y="502.4269">Model Training</text></g><!--link ML to RS--><g class="link" data-entity-1="ML" data-entity-2="RS" data-source-line="81" data-uid="lnk39" id="link_ML_RS"><path d="M1339.6017,582.87 C1299.8017,613.97 1232.8801,666.2665 1192.9001,697.4965" fill="none" id="ML-to-RS" style="stroke:#181818;stroke-width:1;"/><polygon fill="#181818" points="1188.1717,701.19,1197.7267,698.802,1192.1121,698.112,1192.802,692.4974,1188.1717,701.19" style="stroke:#181818;stroke-width:1;"/><text fill="#000000" font-family="sans-serif" font-size="13" lengthAdjust="spacing" textLength="97.0176" x="1295.2317" y="627.7269">Update Models</text></g><!--reverse link CDN to Obj--><g class="link" data-entity-1="CDN" data-entity-2="Obj" data-source-line="83" data-uid="lnk40" id="link_CDN_Obj"><path d="M152.8974,862.2145 C177.6174,841.5745 212.2317,816.92 252.2317,804.95 C359.6417,772.83 1154.1717,771.66 1261.2317,804.95 C1300.0517,817.03 1337.6117,845.82 1361.0217,866.47" fill="none" id="CDN-backto-Obj" style="stroke:#181818;stroke-width:1;"/><polygon fill="#181818" points="148.2917,866.06,157.7639,863.3622,152.1298,862.8554,152.6365,857.2213,148.2917,866.06" style="stroke:#181818;stroke-width:1;"/><text fill="#000000" font-family="sans-serif" font-size="13" lengthAdjust="spacing" textLength="113.604" x="693.7317" y="793.0169">Audio Replication</text></g><!--SRC=[ZLLDR-Cs4BtpLn0EK7WFWPLqdTX1KK2VsyNQMSLoq3CjCJOhXbH9QhTkqV- -GrAHBIK1bhg8C_E6CsyU9LqpqH15dl6EbFLUoLPKiUHIuOkdoZv8zn52LXJ_Xp2Eng5PQ1_haQgYghFEtG9h9eNfRB-wrTaAzY_5LzVe_xD352qD4NlkJpeXTnmE7U56vtrqQv2jbC-D55IOj-jEC_lyH9w_Mzg-rtkMBP9ud2EEbyiW6EIeY24xejz9azvajzchKeBWDepZOKjSjjKxfGHGJ33ESNszYAw799FIWEUzTjuOPKy9yj19p9bbTRgMEyRfx4-wcoLKrqOs7oQOQDpvBrPiVp15VOnuIn7ojKy-SRaZ7CV9FPxXjDfJV4_DTwbg3mNpnNAHHSi5EgbX4kQVyITYw7TonB_WbIGL5C-9AAboCEk7wfFv8a2eWRO8v9siMQcafkeRAwd6AtAqqRR989ix0auAcJn272vyh4lvMDZG6DOmCEVao9asW-3S1KStyTKmkA14bOT1QD7bNIw7eHiAcsSgG2bCYW5aOo51UhCObL8OHSap4_lX0LjtGlencjkPzMma8C4J2VDidiIEX5wQdeCamjFYOGN3AGu4L53vcOBv8WfIg680MLD3xCx1xgK7naHh8Yf5FDJ6M7YOfR06y9YK1mfwQRM1ewSRMZ4z2obChM4rxTJaOho-im7ww-ula0WkG9IsmsdOLap2-Q4o7We1SBbU0xknV1OL_GTFKqwqOQM7f41USkKAFISl58GV8KY3_DOhhw8mJXo1_limIR_PeJoupVGBUQgxzjC7hxamV6jwE5SIrAdj5ASPPwAU5N1FQuyjSZVAT2oMzGhdhA4GJYrhvyhH7UahTo5ktNS8TJVoyl9tTyFkiASgFhIYnXiA7MYZyVIFxJOlFfn7sujrX_ifmspX4wmajootve2ityR1RRbp5k07Edg2xmB-skZUdrj_VtNEFONrT0C1yXIZ9z_6-aRjdO3RbvpsxmKfW4Gf489Ih3k9KDw_5VxDAn5j1ZkRnn5ZTTRlG3elgBH0hodfptLZFrK5qxRjYEh50GPNRMxjuv4ZCBjILfPb-CLol5M42Ui2My_1OmFTKn-XeHgOuM-NJjulezpGXhFIKVG3]--></g></svg>